<!-- Generator: Adobe Illustrator 23.0.1, SVG Export Plug-In  -->
<svg version="1.1" xmlns="http://www.w3.org/2000/svg" xmlns:xlink="http://www.w3.org/1999/xlink" x="0px" y="0px" width="750px"
	 height="206px" viewBox="0 0 750 206" style="enable-background:new 0 0 750 206;" xml:space="preserve">
<style type="text/css">
	.st0{opacity:0.15;fill:#FFFFFF;}
</style>
<defs>
</defs>
<g>
	<g>
		<path class="st0" d="M750,0c0,0-6,27-61,29.5s-133,0-136.5,7.5s31.5,2,44,4.5s-3,4.5,2,5.5s46-2.5,54-2S659,59.5,586,59.5
			s-131.5,4.5-123,9s82.5,2,116.5,4.5s8.5,2.5-1,4.5s-9.5,9.5,7,9.5s90.5-2.7,103.2-2c12.7,0.7,6,6-8,6.7c-14,0.7-70,0.7-84.7,4.7
			s-18.7,3.3-41.3,2c-22.7-1.3-25.3,8-19.3,8s100,1.3,130,2.7s84.7,6.7,84.7,6.7L750,0z"/>
		<path class="st0" d="M750,165.2c0,0,1.6,5.8-37.5,8.8c-48,3.7-79,2-80.5,5.5s32.5,0.5,63,2s26.5,10.5,12.5,13s-45.5,2.5-45.5,5
			s14,6,43,4s45,2.5,45,2.5V165.2z"/>
	</g>
	<g>
		<path class="st0" d="M0.1,0L94,0.2c0,0,89.2,0.6,92,3.5s-65.9,2.1-86.6,2.9s-8,5.4,19.8,5s40.3-0.1,42.2,0.2
			c1.9,0.3,4.8,2.6-14.5,3.1c-19.2,0.5-71.5-0.5-70.8,5.1c0.7,5.6,133.8,0,138.4,2.8s-1.4,2-11.5,2.3c-10.1,0.3-16.4,0.5-14.3,2.2
			c2.1,1.7,14.6,0.2,16.8,1.4c2.1,1.2-13.9,2.8-27,2.3s-76.1-2.5-78.9,5.3c-2.8,7.8,36.9,8.4,87.3,8.4s74.4,0.4,78.6,4.6
			s-22.6,5.8-61.2,5c-38.6-0.8-141.2,2.9-144.9,5.4c-3.8,2.5,17.6,1.2,60,1.9c42.4,0.6,113.7,0.6,117.9,3.7S240,75.4,159.5,76
			S0.1,85.8,0.1,85.8L0.1,0z"/>
		<path class="st0" d="M0.1,116.8c0,0,68.4-5.8,103.9-6.3s35.5,1,36.5,4.5s-56.5,5-49,9s59-2.5,63.5,4s-62.5,4-83,8s5.5,7,18.5,7
			s22.5,7,8.5,8.5s-66.5,3.5-67,10s31-2.5,35,5s-56,13-67,18L0.1,116.8z"/>
	</g>
</g>
</svg>
