<!-- Generator: Adobe Illustrator 23.0.1, SVG Export Plug-In  -->
<svg version="1.1" xmlns="http://www.w3.org/2000/svg" xmlns:xlink="http://www.w3.org/1999/xlink" x="0px" y="0px" width="550.1px"
	 height="253px" viewBox="0 0 550.1 253" style="enable-background:new 0 0 550.1 253;" xml:space="preserve">
<style type="text/css">
	.st0{fill:url(#SVGID_1_);}
	.st1{fill:url(#SVGID_2_);}
	.st2{fill:url(#SVGID_3_);}
	.st3{fill:url(#SVGID_4_);}
	.st4{fill:url(#SVGID_5_);}
	.st5{fill:url(#SVGID_6_);}
	.st6{fill:url(#SVGID_7_);}
	.st7{fill:url(#SVGID_8_);}
	.st8{fill:none;}
	.st9{fill:url(#SVGID_9_);}
	.st10{fill:url(#SVGID_10_);}
	.st11{fill:url(#SVGID_11_);}
	.st12{fill:url(#SVGID_12_);}
	.st13{fill:url(#SVGID_13_);}
	.st14{fill:url(#SVGID_14_);}
	.st15{fill:url(#SVGID_15_);}
	.st16{fill:url(#SVGID_16_);}
	.st17{fill:url(#SVGID_17_);}
	.st18{fill:url(#SVGID_18_);}
	.st19{fill:url(#SVGID_19_);}
	.st20{fill:url(#SVGID_20_);}
	.st21{fill:url(#SVGID_21_);}
	.st22{fill:url(#SVGID_22_);}
	.st23{fill:url(#SVGID_23_);}
	.st24{fill:url(#SVGID_24_);}
	.st25{fill:url(#SVGID_25_);}
	.st26{fill:url(#SVGID_26_);}
	.st27{fill:url(#SVGID_27_);}
	.st28{fill:url(#SVGID_28_);}
	.st29{fill:url(#SVGID_29_);}
	.st30{fill:url(#SVGID_30_);}
	.st31{fill:url(#SVGID_31_);}
	.st32{fill:url(#SVGID_32_);}
	.st33{fill:url(#SVGID_33_);}
	.st34{fill:url(#SVGID_34_);}
	.st35{fill:url(#SVGID_35_);}
	.st36{fill:url(#SVGID_36_);}
	.st37{fill:url(#SVGID_37_);}
	.st38{fill:url(#SVGID_38_);}
	.st39{fill:url(#SVGID_39_);}
	.st40{fill:url(#SVGID_40_);}
	.st41{fill:url(#SVGID_41_);}
	.st42{fill:url(#SVGID_42_);}
	.st43{fill:url(#SVGID_43_);}
	.st44{fill:url(#SVGID_44_);}
	.st45{fill:url(#SVGID_45_);}
	.st46{fill:url(#SVGID_46_);}
	.st47{fill:url(#SVGID_47_);}
	.st48{fill:url(#SVGID_48_);}
	.st49{fill:url(#SVGID_49_);}
	.st50{fill:url(#SVGID_50_);}
	.st51{fill:url(#SVGID_51_);}
	.st52{fill:url(#SVGID_52_);}
	.st53{fill:url(#SVGID_53_);}
	.st54{fill:url(#SVGID_54_);}
	.st55{fill:url(#SVGID_55_);}
	.st56{fill:url(#SVGID_56_);}
	.st57{fill:url(#SVGID_57_);}
	.st58{fill:url(#SVGID_58_);}
	.st59{fill:url(#SVGID_59_);}
	.st60{fill:url(#SVGID_60_);}
	.st61{fill:url(#SVGID_61_);}
	.st62{fill:url(#SVGID_62_);}
	.st63{fill:url(#SVGID_63_);}
	.st64{fill:url(#SVGID_64_);}
	.st65{fill:url(#SVGID_65_);}
	.st66{fill:url(#SVGID_66_);}
	.st67{fill:url(#SVGID_67_);}
	.st68{fill:url(#SVGID_68_);}
	.st69{fill:url(#SVGID_69_);}
	.st70{fill:url(#SVGID_70_);}
	.st71{fill:url(#SVGID_71_);}
	.st72{fill:url(#SVGID_72_);}
</style>
<defs>
</defs>
<g>
	<g>
		<g>
			
				<linearGradient id="SVGID_1_" gradientUnits="userSpaceOnUse" x1="129.065" y1="130.1801" x2="111.4919" y2="30.9439" gradientTransform="matrix(0.9909 0.1349 -0.1349 0.9909 10.9674 -13.5824)">
				<stop  offset="0" style="stop-color:#742636"/>
				<stop  offset="0.1493" style="stop-color:#823040"/>
				<stop  offset="0.4164" style="stop-color:#943D4D"/>
				<stop  offset="0.6948" style="stop-color:#9F4554"/>
				<stop  offset="1" style="stop-color:#A34857"/>
			</linearGradient>
			<path class="st0" d="M129.8,70.2c-1.5-2.6-6.7,3.6-8.5,6c0.1-3.9,0-8.2-0.6-12.5c2.2-1.5,8.5-6.2,6.4-8.3c-2-2-5.2,4.4-6.5,7.4
				c-0.5-3.3-1.4-6.5-2.7-9.5c1.3-1.5,7.3-8.4,4.5-10c-2.7-1.6-4.2,7.2-4.6,9.7c-0.2-0.5-0.4-0.9-0.7-1.4c-1-1.9-1.7-3.4-2.3-4.5
				c0.1,0.1,0.1,0.1,0.1,0.1s-1.1-11.5-4.6-10.4c-3,1,2.5,7.9,4.2,9.8c0.7,1.7,1.7,3.9,2.5,6.2c-2.3-1.7-8.5-6-9.8-3.3
				c-1.4,2.9,7.6,3.7,10,3.9c0.4,1.3,0.8,2.5,1.1,3.6c0.4,1.6,0.7,3.7,1,6c-2.4-1.7-8.4-5.8-9.7-3.2c-1.4,2.8,7,3.6,9.8,3.8
				c0.4,3.7,0.6,8,0.7,12.4c-2.2-1.7-8.5-6-9.9-3.3c-1.4,2.8,7.2,3.6,9.9,3.8c0,5.6-0.2,11.3-0.7,16.4c0,0,1.7-7.1,2.1-16.1
				C123.5,76,131.4,73,129.8,70.2z"/>
			
				<linearGradient id="SVGID_2_" gradientUnits="userSpaceOnUse" x1="832.1075" y1="112.9352" x2="810.9618" y2="-6.4759" gradientTransform="matrix(-1 0 0 1 868.4337 0)">
				<stop  offset="0" style="stop-color:#742636"/>
				<stop  offset="0.1493" style="stop-color:#823040"/>
				<stop  offset="0.4164" style="stop-color:#943D4D"/>
				<stop  offset="0.6948" style="stop-color:#9F4554"/>
				<stop  offset="1" style="stop-color:#A34857"/>
			</linearGradient>
			<path class="st1" d="M36.4,37c2.3-2.9,7.4,5.4,9.2,8.5c0.5-4.7,1.3-9.8,2.7-14.8c-2.4-2.2-9.2-8.8-6.2-11
				c2.8-2.1,5.5,6.1,6.6,9.9c1.2-3.8,2.7-7.6,4.8-10.9c-1.3-2-7.3-11.2-3.7-12.7c3.5-1.5,3.9,9.2,3.9,12.3c0.3-0.5,0.7-1,1-1.5
				c1.5-2.1,2.6-3.8,3.5-5c-0.1,0.1-0.1,0.1-0.1,0.1s3.2-13.5,7.2-11.6c3.4,1.7-4.3,9-6.6,11.1c-1.1,1.9-2.6,4.4-4,7
				c3-1.6,11.1-5.7,12.3-2.3c1.2,3.7-9.6,3.2-12.6,3c-0.7,1.4-1.4,2.8-1.9,4.1c-0.7,1.9-1.5,4.3-2.2,7c3.1-1.7,11-5.6,12.1-2.2
				c1.2,3.5-8.9,3.2-12.3,3c-1.1,4.3-2,9.4-2.8,14.7c2.9-1.6,11.2-5.8,12.3-2.3c1.2,3.6-9.2,3.2-12.4,3c-0.9,6.6-1.6,13.5-1.8,19.6
				c0,0-0.9-8.7,0.1-19.6C42.9,44.8,34,40,36.4,37z"/>
			
				<linearGradient id="SVGID_3_" gradientUnits="userSpaceOnUse" x1="862.7839" y1="116.1643" x2="841.6382" y2="-3.2468" gradientTransform="matrix(-0.9361 0.3518 0.3518 0.9361 804.332 -293.7323)">
				<stop  offset="0" style="stop-color:#742636"/>
				<stop  offset="0.1493" style="stop-color:#823040"/>
				<stop  offset="0.4164" style="stop-color:#943D4D"/>
				<stop  offset="0.6948" style="stop-color:#9F4554"/>
				<stop  offset="1" style="stop-color:#A34857"/>
			</linearGradient>
			<path class="st2" d="M10.9,47.4c1.1-3.5,8.9,2.5,11.6,4.7c-1.2-4.6-2.2-9.7-2.6-14.8c-3-1.2-11.7-5-9.7-8.1
				c1.8-2.9,7.3,3.8,9.6,6.9c-0.2-4-0.1-8,0.6-11.9c-2-1.4-10.8-7.9-7.9-10.6c2.8-2.6,6.9,7.3,8,10.1c0.1-0.6,0.3-1.2,0.4-1.8
				c0.6-2.5,1.1-4.5,1.5-5.9c-0.1,0.1-0.1,0.2-0.1,0.2S20.5,2.4,25,2.8c3.8,0.3-0.9,9.9-2.3,12.7c-0.4,2.1-0.9,5-1.3,7.9
				c2.2-2.6,8.4-9.3,10.7-6.4c2.4,3-7.9,6.4-10.8,7.2c-0.2,1.6-0.3,3.2-0.3,4.5c0,2,0.1,4.5,0.4,7.3c2.3-2.7,8.3-9.1,10.5-6.3
				c2.3,2.9-7.2,6.1-10.4,7.1c0.5,4.4,1.4,9.5,2.6,14.7c2.2-2.5,8.4-9.3,10.7-6.5c2.4,2.9-7.5,6.2-10.6,7.1c1.4,6.5,3.3,13.2,5.2,19
				c0,0-3.9-7.8-6.8-18.4C19.8,52.4,9.7,51,10.9,47.4z"/>
			
				<linearGradient id="SVGID_4_" gradientUnits="userSpaceOnUse" x1="617.5229" y1="208.1227" x2="601.5207" y2="117.757" gradientTransform="matrix(-1 0 0 1 868.4337 0)">
				<stop  offset="0" style="stop-color:#742636"/>
				<stop  offset="0.1493" style="stop-color:#823040"/>
				<stop  offset="0.4164" style="stop-color:#943D4D"/>
				<stop  offset="0.6948" style="stop-color:#9F4554"/>
				<stop  offset="1" style="stop-color:#A34857"/>
			</linearGradient>
			<path class="st3" d="M251,150.6c1.7-2.2,5.6,4.1,6.9,6.4c0.4-3.6,1-7.4,2.1-11.2c-1.8-1.7-6.9-6.6-4.7-8.3c2.1-1.6,4.1,4.6,5,7.5
				c0.9-2.9,2.1-5.7,3.6-8.3c-1-1.5-5.6-8.4-2.8-9.6c2.7-1.1,3,7,3,9.3c0.2-0.4,0.5-0.8,0.8-1.2c1.1-1.6,2-2.9,2.7-3.8
				c-0.1,0.1-0.1,0.1-0.1,0.1s2.4-10.2,5.4-8.8c2.6,1.3-3.2,6.8-5,8.4c-0.9,1.4-2,3.3-3,5.3c2.3-1.2,8.4-4.3,9.3-1.7
				c0.9,2.8-7.3,2.4-9.5,2.2c-0.6,1.1-1.1,2.2-1.4,3.1c-0.6,1.4-1.1,3.2-1.6,5.3c2.3-1.3,8.3-4.2,9.1-1.7c0.9,2.7-6.8,2.4-9.3,2.3
				c-0.8,3.3-1.5,7.1-2.1,11.1c2.2-1.2,8.4-4.4,9.3-1.8c0.9,2.7-7,2.4-9.4,2.3c-0.7,5-1.2,10.2-1.4,14.9c0,0-0.7-6.6,0.1-14.8
				C255.9,156.6,249.2,152.9,251,150.6z"/>
		</g>
		<linearGradient id="SVGID_5_" gradientUnits="userSpaceOnUse" x1="281.2463" y1="287.7956" x2="247.6435" y2="96.4654">
			<stop  offset="0" style="stop-color:#742636"/>
			<stop  offset="1" style="stop-color:#A34857"/>
		</linearGradient>
		<path class="st4" d="M540.8,251.2c0.5-1.8,1-2.9,1-2.9c-1.2,0.7-2.2,1.5-3.1,2.5c-0.7-0.1-1.3-0.3-2-0.4c-0.2-2.1-0.3-3.6-0.4-4.1
			c0,0-0.2,1.5-0.6,3.9c-0.3-0.1-0.7-0.1-1-0.2c0.1-2.5,0.2-4.2,0.2-4.8c0,0-0.5,1.7-1.3,4.5c-1-0.2-1.9-0.4-3-0.6
			c0.2-3.7,0.3-6.4,0.3-7.1c0,0-0.8,2.7-1.9,6.8c-1.1-0.2-2.2-0.4-3.3-0.7c0.8-3,1.6-5.1,1.6-5.1c-2,1.1-3.5,2.7-4.6,4.5
			c-0.2,0-0.3-0.1-0.5-0.1c0.2-4.8,0.4-8.4,0.4-9.2c0,0-1,3.6-2.5,8.8c-0.3-0.1-0.5-0.1-0.8-0.2c0.7-2.4,1.3-4,1.3-4
			c-1.3,0.8-2.5,1.7-3.4,2.8c0.1-3,0.2-5.2,0.2-5.8c0,0-0.9,2.5-2.1,6.1c-0.2,0-0.5-0.1-0.7-0.1c1-3.2,1.7-5.6,1.9-6.1
			c0,0-1.5,2.3-3.7,5.8c-0.1,0-0.2,0-0.3-0.1c0.7-2.5,1.3-4.2,1.3-4.2c-1.7,0.9-3,2.2-4,3.6c-0.3-0.1-0.7-0.1-1-0.2
			c0.8-4.3,1.3-7.5,1.4-8.2c0,0-1.6,3.2-3.8,7.7c-0.4-0.1-0.7-0.2-1.1-0.2c0.7-2.6,1.3-4.2,1.3-4.2c-1.7,1-3,2.2-4,3.7
			c-0.4-0.1-0.8-0.2-1.1-0.2c0.4-3.4,0.6-6,0.7-6.6c0,0-1.1,2.5-2.6,6.2c-0.3-0.1-0.6-0.1-0.9-0.2c0.9-4.4,2.2-7.7,2.2-7.7
			c-2.8,1.6-4.7,4.1-5.8,6.9c-0.4-0.1-0.8-0.2-1.2-0.3c0.7-3,1.2-4.9,1.2-4.9c-1.6,1.1-2.8,2.6-3.8,4.4c-0.4-0.1-0.8-0.2-1.2-0.3
			c0.5-3.5,0.8-5.9,0.9-6.6c0,0-1,2.5-2.4,6.3c-0.5-0.1-0.9-0.2-1.4-0.3c0.8-4,1.6-6.8,1.6-6.8c-2.1,1.5-3.6,3.6-4.7,6.1
			c-0.3-0.1-0.6-0.1-0.9-0.2c0.3-5.6,0.5-9.9,0.5-10.8c0,0-1.2,4.3-2.9,10.3c-0.5-0.1-0.9-0.2-1.4-0.3c-0.4-2.1-1.3-3.8-2.6-4.8
			c0,0-0.1,1.6-0.4,4.2c-0.2,0-0.4-0.1-0.6-0.1c0.4-7.5,0.7-13.8,0.7-14.9c0,0-1.8,6.2-3.9,14.2c-0.2,0-0.4-0.1-0.6-0.1
			c0.8-4.2,1.7-7.1,1.7-7.1c-2.1,1.6-3.7,3.8-4.8,6.3c-0.4-0.1-0.9-0.2-1.3-0.3c0.2-4.5,0.3-7.8,0.3-8.6c0,0-1,3.3-2.3,8.1
			c-0.6-0.1-1.2-0.3-1.7-0.4c0.5-8.7,0.8-16.4,0.8-17.6c0,0-2.2,7.6-4.6,16.7c-0.1,0-0.3-0.1-0.4-0.1c0.3-6.4,0.5-11.5,0.5-12.5
			c0,0-1.5,5-3.3,11.8c-0.2,0-0.4-0.1-0.6-0.1c0.2-3.6,0.3-6.1,0.3-6.8c0,0-0.7,2.5-1.8,6.4c-0.2,0-0.4-0.1-0.5-0.1
			c0.7-3.3,1.3-5.4,1.3-5.4c-1.7,1.2-3,2.9-4.1,4.8c-0.1,0-0.3-0.1-0.4-0.1c0.8-7.4,1.4-13.2,1.5-14.4c0,0-1.8,5.8-4.1,13.7
			c-0.2-0.1-0.5-0.1-0.7-0.2c0.7-3.8,1.2-6.3,1.2-6.3c-1.6,1.5-2.9,3.4-3.9,5.6c-0.2,0-0.4-0.1-0.6-0.1c0.2-4.4,0.3-7.6,0.3-8.4
			c0,0-0.7,3.2-1.8,8c-0.2,0-0.4-0.1-0.6-0.1c0.3-6.9,0.4-12.2,0.4-13.3c0,0-1.2,5.3-2.9,12.7c0,0-0.1,0-0.1,0
			c-0.6-2.9-1.4-5.2-2.5-6.6c0,0-0.3,1.5-1,4c0.3-7.5,0.5-13.4,0.5-14.6c0,0-1.6,6.7-3.5,15.6c-0.1,0-0.2,0-0.2-0.1
			c0.9-6.8,1.6-12,1.7-13.1c0,0-1.9,5.2-4.5,12.4c-0.1,0-0.1,0-0.2,0c-0.6-7-1-12.3-1.2-13.4c0,0-0.6,5.3-1.3,12.8
			c-0.2,0-0.4-0.1-0.5-0.1c-0.3-7.3-0.6-13-0.7-14.2c0,0-0.8,5.7-1.9,13.5c-0.1,0-0.3-0.1-0.4-0.1c-0.5-5.1-1.5-9.2-3.2-11.4
			c0,0-0.9,4-2.6,9.9c-0.5-0.1-1.1-0.3-1.6-0.4c0.8-6.4,1.4-11.3,1.5-12.3c0,0-1.8,4.9-4.1,11.6c-0.1,0-0.2-0.1-0.3-0.1
			c0.4-2.2,0.7-3.5,0.7-3.5c-0.9,0.9-1.8,1.9-2.5,3c-0.7-0.2-1.3-0.4-2-0.5c0.2-3.6,0.2-6.1,0.2-6.8c0,0-0.7,2.5-1.7,6.4
			c-0.2-0.1-0.5-0.1-0.7-0.2c0.3-5.7,0.4-10,0.4-10.9c0,0-1.1,4.3-2.7,10.3c-0.2,0-0.3-0.1-0.5-0.1c-0.6-2.1-1.3-3.8-2.3-4.9
			c0,0-0.3,1.3-1,3.5c0.3-6.5,0.5-11.6,0.5-12.6c0,0-1.4,5.3-3.2,12.4c-0.1,0-0.2-0.1-0.3-0.1c0.8-5.4,1.4-9.4,1.5-10.3
			c0,0-1.7,3.9-4,9.6c-0.3-0.1-0.5-0.1-0.8-0.2c-0.5-5.4-0.9-9.4-1.1-10.3c0,0-0.5,3.9-1.1,9.7c-0.3-0.1-0.5-0.1-0.8-0.2
			c-0.3-5.6-0.5-9.8-0.6-10.7c0,0-0.7,4.1-1.7,10.1c-0.3-0.1-0.6-0.2-0.9-0.3c-0.6-3.6-1.5-6.5-2.9-8.1c0,0-0.7,2.6-2,6.7
			c-0.5-0.1-1-0.3-1.5-0.4c-0.1-1.3-0.1-2.2-0.2-2.5c0,0-0.2,0.9-0.4,2.4c-0.1,0-0.2,0-0.2-0.1c1-8.2,2.5-14.8,2.5-14.8
			c-3.4,3.1-5.3,8.1-6.4,13.7c-0.2-0.1-0.4-0.1-0.6-0.2c0.2-5.9,0.4-10.3,0.4-11.3c0,0-1,4.4-2.4,10.7c-0.2-0.1-0.4-0.1-0.5-0.2
			c-0.2-7.3-0.4-13-0.5-14.2c0,0-1.2,5.6-2.6,13.3c-0.4-0.1-0.7-0.2-1.1-0.3c-0.2-5.8-0.3-10.1-0.4-11.1c0,0-0.9,4.2-2.1,10.4
			c-0.6-0.2-1.1-0.3-1.7-0.5c1.2-8.8,2.1-16.3,2.2-17.6c0,0-2.1,5.9-4.7,13.6c0.6-3.4,1.1-5.6,1.1-5.6c-2.1,1.9-3.6,4.5-4.7,7.5
			c0.3-6.1,0.5-10.8,0.5-11.8c0,0-1.1,4-2.6,9.8c0.4-7.4,0.6-13.4,0.6-14.5c0,0-1.3,4.7-2.9,11.2c-0.6-2.6-1.4-4.7-2.5-6
			c0,0-0.3,1.3-1,3.5c0.3-6.5,0.5-11.6,0.5-12.6c0,0-1.9,7.1-4.1,15.9c1.1-7.1,1.9-12.8,2.1-13.9c0,0-2,4.6-4.6,11
			c-0.6-6.2-1.1-11-1.2-12c0,0-0.8,6-1.6,13.9c0,0-0.1,0-0.1,0c-0.4-7.7-0.7-14-0.8-15.2c0,0-1,5.6-2.2,13.2
			c-0.5-5.2-1.5-9.3-3.3-11.5c0,0-1.1,4.2-3.2,10.2c0,0,0,0-0.1,0c-0.2-3.4-0.3-5.8-0.4-6.5c0,0-0.4,2.3-1,6c0,0,0,0,0,0
			c0.8-9.8,2.9-18.5,2.9-18.5c-4,3.7-6,10.2-6.9,17.1c-0.1,0-0.1,0-0.2-0.1c0.3-7.7,0.5-13.6,0.5-14.9c0,0-1.3,5.4-2.9,12.9
			c-0.2-8.4-0.4-15.2-0.5-16.6c0,0-1.5,7.1-3.2,16.3c-0.1-0.1-0.3-0.1-0.4-0.2c-0.2-7.4-0.4-13.1-0.5-14.3c0,0-1.1,5.5-2.6,13.1
			c-0.1,0-0.1-0.1-0.2-0.1c0.3-2.9,0.6-4.6,0.6-4.6c-1.1,1-2,2.3-2.7,3.7c0-4.9,0-8.5,0-9.4c0,0-0.7,3.5-1.7,8.8
			c-0.1,0-0.1,0-0.2-0.1c0.7-6.2,1.5-10.6,1.5-10.6c-1.5,1.4-2.6,3.3-3.5,5.3c1.2-6.4,2.1-11.2,2.2-12.3c0,0-2.5,6.4-5.7,15
			c0.7-7.3,1.8-12.9,1.8-12.9c-1.9,1.8-3.2,4.3-4.2,7.1c1-7.1,1.8-12.5,1.9-13.6c0,0-1.8,5.3-4.3,12.7c0.7-6.3,1.6-10.9,1.6-10.9
			c-2.1,2-3.6,4.9-4.6,8.2c1.4-7.4,2.4-13.1,2.6-14.3c0,0-2.4,6.3-5.6,14.7c0.4-6.9,0.7-12.2,0.8-13.3c0,0-1.5,5.9-3.5,14
			c1.2-8.5,2.1-15.4,2.3-16.7c0,0-2.1,6.1-4.7,14.3c0.5-6.3,1.2-10.9,1.2-10.9c-1.8,1.8-3.1,4.3-4,7.1c1.1-8,2-14.3,2.1-15.6
			c0,0-2.4,7.2-5.4,16.5c0.4-3.5,0.8-5.8,0.8-5.8c-1.4,1.4-2.5,3.2-3.4,5.3c0.5-5.7,1.2-9.7,1.2-9.7c-1.6,1.6-2.8,3.8-3.7,6.2
			c0.6-6.9,1-12.2,1.1-13.3c0,0-2,7.1-4.5,16.3c0.7-6.2,1.5-10.7,1.5-10.7c-1.6,1.4-2.8,3.3-3.9,5.4c0.5-4.4,1-7.3,1-7.3
			c-1.5,1.5-2.6,3.4-3.5,5.6c0.9-6,1.6-10.5,1.7-11.5c0,0-2.2,6.1-5,14.4c0.4-8.7,0.6-15.8,0.6-17.1c0,0-1.7,7.1-3.7,16.3
			c0.3-9.6,1.7-17.9,1.7-17.9c-3.4,3.5-5,9.1-5.7,15.3c-0.2-2.2-0.5-4.2-0.7-6.2c1.5-5.5,2.7-9.6,2.9-10.6c0,0-1.3,2.7-3.3,6.8
			c-0.5-4.4-0.9-7.5-1-8.3c0,0-0.4,5.1-0.9,12.2c-0.7,1.5-1.5,3-2.2,4.7c0,0,0,0,0,0c0.7-7.3,1.8-12.9,1.8-12.9
			c-1.4,1.2-2.5,2.8-3.4,4.6c-0.1-6.3-0.2-11-0.3-12.1c0,0-1.1,6.1-2.4,14.4c0.5-10.5,0.8-19.6,0.8-21.2c0,0-2,8.6-4.3,19.2
			c-0.2-5.7,0-9.7,0-9.7c-1.3,1.6-2.1,3.5-2.7,5.7c-0.1-10.2-0.3-18.8-0.4-20.3c0,0-1.7,9.5-3.5,20.9c0.3-7.7,0.5-13.8,0.5-15
			c0,0-1.3,5.6-3,13.3c0.6-5.3,1.2-9,1.2-9c-1.7,1.7-3,4.1-4,6.7c1.1-5.6,2.3-9.6,2.3-9.6c-2.1,1.8-3.8,4.3-5,7.3
			c0.3-6.6,0.4-11.7,0.4-12.8c0,0-1.1,4.8-2.6,11.6c0.3-8.3,0.6-14.8,0.6-16.1c0,0-1.3,5.8-3.1,13.7c0.2-5.1,0.3-8.7,0.3-9.7
			c0,0-0.7,3-1.8,7.7c0.4-9.2,0.6-16.7,0.6-18.1c0,0-1.6,6.7-3.5,15.5c-0.2-5.7,0-9.7,0-9.7c-1.3,1.6-2.2,3.7-2.8,5.9
			c1.1-7,2.4-12.4,2.4-12.4c-2.3,2.1-4,5.1-5.2,8.5c0.5-6.5-0.1-11.7-2.5-14.3c0,0-0.5,5.9-1.9,13.9c0.4-5.7,0.7-9.9,0.7-10.9
			c0,0-1.3,4.2-3.2,10.4c0.7-8.3,1.1-15.1,1.2-16.4c0,0-1.4,4.4-3.3,10.7c0.5-8.4,0.8-15.2,0.8-16.5c0,0-2.4,8-5.1,18.1
			c0.5-8.4,0.8-15.2,0.8-16.5c0,0-2,6.8-4.4,15.7c0.8-4.4,1.5-7.4,1.5-7.4c-1.2,1-2.2,2.2-3,3.6c0.4-4.9,0.7-8.4,0.8-9.3
			c0,0-1.2,4.2-2.9,10.4c1.3-7,2.7-12.3,2.7-12.3c-1.6,1.3-2.9,3.1-4,5.1c1.7-6.3,3-11,3.2-12.1c0,0-3,6.3-6.9,14.6
			c1.3-7.2,2.8-12.7,2.8-12.7c-2,1.7-3.6,4.1-4.8,6.9c1.6-7,2.8-12.3,3-13.5c0,0-2.3,5.2-5.3,12.4c1.2-6.3,2.5-10.8,2.5-10.8
			c-2.3,1.9-4,4.7-5.2,7.9c2-7.3,3.5-12.9,3.8-14.1c0,0-2.9,6-6.7,14.1c0.7-6.7,1.3-11.8,1.4-13c0,0-1.9,6.3-4.4,14.7
			c0.9-6,1.9-10.4,1.9-10.4c-2.1,1.9-3.7,4.7-4.8,7.9c0.9-5.8,1.9-10,1.9-10c-1.3,1.2-2.4,2.8-3.4,4.5c0.7-4.5,1.3-7.8,1.4-8.6
			c0,0-2.5,6.9-5.7,15.8c2.3-10.4,6.1-19.8,6.1-19.8c-3.9,2.7-6.7,7.7-8.6,13.3c0.9-5.9,1.9-10.2,1.9-10.2c-2.4,2.2-4,5.3-5.2,8.9
			c1.7-9.8,3-18,3.2-19.4c0,0-3.1,8.5-6.8,19c1.4-6.7,2.9-11.6,2.9-11.6c-1.9,1.5-3.4,3.6-4.6,6c1.3-6.4,2.2-11.2,2.4-12.3
			c0,0-1.8,4.4-4.2,10.7c0.8-4.9,1.6-8.3,1.6-8.3c-2.7,2.4-4.4,6.1-5.6,10.2c1.1-9.1,1.9-16.5,2-17.9c0,0-2.8,9-6,19.9
			c1-8.2,2.5-14.8,2.5-14.8c-2.6,2.4-4.3,5.9-5.5,9.9c0.5-7.7,0.9-13.7,1-15c0,0-1.9,7.2-4.2,16.5c0.8-10.1,2.9-19.3,2.9-19.3
			c-3.2,2.9-5.1,7.6-6.2,12.8c0.2-5.7,0.4-9.9,0.4-10.9c0,0-1.4,6-3.2,14.2c0.4-9.6,0.7-17.6,0.7-19c0,0-1.9,8.1-4.1,18.3
			c0.3-7.9-0.5-14.4-3.4-17.1c0,0,0,5.1-0.7,12.4c-0.5-5.6-1.5-10.1-3.3-12.4c0,0-1.1,4.8-3.2,11.7c0.8-10.3,3-19.8,3-19.8
			c-4.9,4.5-6.8,13.1-7.3,21.5c0,0-0.1,0-0.1,0c0.4-9.9,0.7-18.2,0.7-19.7c0,0-1.7,7.4-3.8,17c0.9-7.8,1.6-13.9,1.7-15.1
			c0,0-1.5,4.7-3.5,11.4c0.9-7.8,1.6-14,1.7-15.2c0,0-2.2,6.9-4.9,16c0.9-9.2,2.7-17,2.7-17c-2.8,2.5-4.6,6.4-5.7,10.8
			c0.4-8.6,0.6-15.6,0.6-16.9c0,0-1.7,7.4-3.8,17c-0.1-4.8-1-8.6-3-10.6c0,0-0.3,5.6-1.4,13.4c0.6-12.8,1-25.2,1-27
			c0,0-2.8,11.8-5.5,24.9c0.9-8.9,2.7-16.2,2.7-16.2c-3.4,3.1-5.3,8.2-6.4,13.9c0.4-8.7,0.6-15.7,0.6-17.1c0,0-2,8.8-4.4,19.5
			c-0.1,0-0.1,0-0.2-0.1c0.7-14.3,1.3-29.7,1.3-31.8c0,0-2.5,10.8-5.1,23.1c0.4-9.1,0.6-16.5,0.6-17.9c0,0-1.8,7.8-4,17.8
			c0.2-6.1,0.4-10.7,0.4-11.7c0,0-1.5,6.6-3.5,15.4c1-8,2.4-14.3,2.4-14.3c-2.1,1.9-3.6,4.5-4.7,7.6c0.8-7.3,1.4-12.9,1.5-14.1
			c0,0-2.7,8.6-5.8,19.2c0.9-6.8,2.1-12,2.1-12c-2,1.8-3.4,4.3-4.5,7.1c0.2-5.3,0.3-9.1,0.3-10.1c0,0-1.1,4.6-2.6,11.3
			c0.4-8.6,0.6-15.5,0.6-16.8c0,0-1.3,5.4-2.9,13c-0.6-3-1.4-5.4-2.5-6.9c0,0-0.3,1.5-1,4c0.3-7.5,0.5-13.4,0.5-14.6
			c0,0-1.9,8.2-4.1,18.4c1.1-8.2,1.9-14.8,2.1-16c0,0-2,5.3-4.6,12.8c-0.6-7.2-1.1-12.7-1.2-13.8c0,0-0.8,7.2-1.7,16.7
			c-0.4-9.2-0.7-16.8-0.8-18.2c0,0-1,6.5-2.2,15.2c-0.5-6-1.5-10.8-3.3-13.3c0,0-1.1,5-3.3,12c-0.2-4.1-0.3-6.9-0.4-7.7
			c0,0-0.5,3.5-1.3,8.8c0.6-11.3,3.1-22.2,3.1-22.2c-4.6,4.1-6.5,11.9-7.2,19.7c0.4-8.9,0.6-16.1,0.6-17.5c0,0-1.6,7-3.6,16.3
			c-0.2-4.7-0.4-8.1-0.5-9c0,0-0.6,3.9-1.4,9.7c-0.3-8.4-0.7-15.1-0.8-16.4c0,0-1,6.8-2.2,15.7c-1-4.5-2.2-8.5-3.7-11.4
			c-0.2-3.4-0.3-5.8-0.3-6.5c0,0-0.3,1.8-0.7,4.8c-0.8-1.2-1.7-2.1-2.8-2.8c0,0,0.9,3.7,1.8,9.2c-0.3,1.9-0.5,4-0.8,6.2
			C25,48,24.7,43.2,24.7,42.2c0,0-0.8,5.3-1.8,12.7c-0.1,0-0.2-0.1-0.3-0.1c-0.4-10.7-0.8-19.9-1-21.5c0,0-1.4,9.3-2.9,20.5
			c-0.1,0-0.1,0-0.2,0c-0.4-12-0.9-23.1-1.1-24.8c0,0-1.5,10-3,21.9c-0.3-6.1-0.5-10.5-0.6-11.6c0,0-0.7,4.7-1.6,11.4
			c-0.9-3.8-2.2-6.9-4-8.7C8,36.6,7.8,32.7,7.7,31.7c0,0-1.4,7.9-2.9,17.7C5.2,37.8,8,26,8,26c-5.3,4.8-7,14.4-7.4,23.4
			c-0.3-0.1-0.4-0.1-0.4-0.1l0,203.7l266.4,0v0h25.8l38.6,0c0,0,0,0,0,0h20.9c0,0,0,0,0,0l8.2,0c0,0,0,0,0,0H492c0,0,0,0,0,0l1.3,0
			c0,0,0,0,0,0h18.9c0,0,0,0,0,0l0.6,0c0,0,0,0,0,0h5c0,0,0,0,0,0l0.6,0c0,0,0,0,0,0h6.1c0,0,0,0,0,0l3.3,0c0,0,0,0,0,0h2.6
			c0,0,0,0,0,0l2.3,0c0,0,0,0,0,0h1.9c0,0,0,0,0,0l0.8,0c0,0,0,0,0,0h1.6c0,0,0,0,0,0h0.3c0,0,0,0,0,0h3.2c0,0,0,0,0,0l9.9,0
			C550.1,253,546.8,252.4,540.8,251.2z"/>
	</g>
	<g>
		<g>
			<linearGradient id="SVGID_6_" gradientUnits="userSpaceOnUse" x1="38.8536" y1="208.3504" x2="31.0377" y2="96.6943">
				<stop  offset="0" style="stop-color:#742636"/>
				<stop  offset="1" style="stop-color:#A34857"/>
			</linearGradient>
			<path class="st5" d="M23.8,146.3c0.7-3.4,8.7,1.4,11.5,3.2c-1.7-4.2-3.2-8.9-4.2-13.8c-3-0.8-11.7-3.4-10.1-6.6
				c1.4-3,7.3,2.8,9.9,5.5c-0.7-3.8-1-7.6-0.7-11.4c-2-1.1-11.2-6.3-8.7-9.2c2.4-2.8,7.4,6.1,8.7,8.7c0-0.6,0.1-1.2,0.2-1.7
				c0.3-2.5,0.6-4.4,0.8-5.8c0,0.1-0.1,0.2-0.1,0.2s-3.2-12.9,1-13c3.7-0.1,0.3,9.5-0.7,12.3c-0.2,2.1-0.3,4.9-0.3,7.7
				c1.8-2.7,6.9-9.8,9.4-7.3c2.6,2.6-6.8,6.9-9.4,8.1c0,1.5,0.1,3,0.2,4.3c0.2,1.9,0.6,4.3,1.2,6.9c1.9-2.8,6.9-9.6,9.3-7.2
				c2.5,2.5-6.2,6.6-9.1,7.9c1,4.1,2.4,8.9,4.1,13.7c1.8-2.7,7-9.8,9.5-7.4c2.6,2.5-6.4,6.7-9.3,8c2.1,6.1,4.6,12.2,7.1,17.5
				c0,0-4.6-7-8.5-16.7C32.8,150.2,23.1,149.9,23.8,146.3z"/>
			<linearGradient id="SVGID_7_" gradientUnits="userSpaceOnUse" x1="274.0076" y1="223.2221" x2="270.2764" y2="113.7759">
				<stop  offset="0" style="stop-color:#742636"/>
				<stop  offset="0.6905" style="stop-color:#A34857"/>
			</linearGradient>
			<path class="st6" d="M283.9,215.7c-1.3-2.7-6.8,3.1-8.7,5.3c0.4-3.8,0.5-8,0.2-12.2c2.3-1.4,8.7-5.5,6.8-7.7
				c-1.9-2.1-5.4,4-6.8,6.8c-0.3-3.3-1-6.5-2.1-9.5c1.4-1.4,7.7-7.7,5-9.5c-2.6-1.8-4.6,6.7-5.1,9.2c-0.2-0.5-0.4-0.9-0.6-1.4
				c-0.8-1.9-1.5-3.4-2-4.6c0.1,0.1,0.1,0.1,0.1,0.1s-0.3-11.3-3.9-10.4c-3,0.8,2,7.9,3.5,9.9c0.6,1.7,1.4,3.9,2.1,6.2
				c-2.1-1.8-7.9-6.4-9.4-3.8c-1.6,2.7,7.2,4.1,9.6,4.4c0.4,1.3,0.7,2.5,0.8,3.6c0.3,1.6,0.5,3.7,0.6,5.9c-2.2-1.9-7.9-6.2-9.3-3.7
				c-1.5,2.6,6.6,4,9.3,4.4c0.1,3.6,0.1,7.8-0.2,12.2c-2.1-1.8-8-6.4-9.4-3.8c-1.5,2.7,6.8,4,9.4,4.4c-0.3,5.4-0.9,11.1-1.8,16
				c0,0,2.1-6.8,3.1-15.6C277.4,221,285.3,218.5,283.9,215.7z"/>
			
				<linearGradient id="SVGID_8_" gradientUnits="userSpaceOnUse" x1="116.9564" y1="209.448" x2="110.1749" y2="112.5684" gradientTransform="matrix(-0.9468 0.3217 0.3217 0.9468 165.0945 -27.5446)">
				<stop  offset="0" style="stop-color:#742636"/>
				<stop  offset="1" style="stop-color:#A34857"/>
			</linearGradient>
			<path class="st7" d="M116.8,153.3c-1.5-2.6-6.8,3.6-8.6,5.8c0.2-3.9,0.1-8.2-0.4-12.5c2.2-1.5,8.6-6.1,6.5-8.3
				c-2-2.1-5.3,4.3-6.6,7.3c-0.5-3.3-1.3-6.6-2.6-9.6c1.3-1.5,7.4-8.3,4.6-10c-2.7-1.7-4.3,7.1-4.8,9.6c-0.2-0.5-0.4-0.9-0.6-1.4
				c-1-1.9-1.7-3.4-2.3-4.6c0.1,0.1,0.1,0.1,0.1,0.1s-0.9-11.5-4.5-10.4c-3,0.9,2.4,7.9,4,9.9c0.7,1.7,1.6,3.9,2.4,6.2
				c-2.2-1.7-8.4-6.1-9.8-3.4c-1.4,2.9,7.5,3.8,10,4c0.4,1.3,0.8,2.5,1,3.6c0.4,1.7,0.7,3.7,0.9,6c-2.3-1.8-8.3-5.9-9.7-3.3
				c-1.4,2.8,7,3.7,9.7,4c0.3,3.7,0.5,8,0.5,12.4c-2.2-1.7-8.5-6.1-9.8-3.4c-1.4,2.8,7.2,3.7,9.8,4c0,5.6-0.4,11.3-1,16.4
				c0,0,1.8-7.1,2.4-16.1C110.5,158.9,118.4,156,116.8,153.3z"/>
		</g>
		<g>
			<path class="st8" d="M0.9,147.7c0.1,0,0.1,0,0.2,0c-0.5-7.9-0.8-14.9-1-18.7v15.1C0.4,145.3,0.7,146.5,0.9,147.7z"/>
			<linearGradient id="SVGID_9_" gradientUnits="userSpaceOnUse" x1="518.6911" y1="243.2254" x2="519.3578" y2="102.5587">
				<stop  offset="0" style="stop-color:#742636"/>
				<stop  offset="1" style="stop-color:#A34857"/>
			</linearGradient>
			<path class="st9" d="M517.9,253h1.5c0-2.8-0.1-4.8-0.1-5.3C519.3,247.7,518.7,249.8,517.9,253z"/>
			<linearGradient id="SVGID_10_" gradientUnits="userSpaceOnUse" x1="515.8336" y1="243.2119" x2="516.5003" y2="102.5452">
				<stop  offset="0" style="stop-color:#742636"/>
				<stop  offset="1" style="stop-color:#A34857"/>
			</linearGradient>
			<path class="st10" d="M515.2,253h1.1c0.1-0.8,0.2-1.3,0.2-1.3C516,252.1,515.5,252.5,515.2,253z"/>
			<linearGradient id="SVGID_11_" gradientUnits="userSpaceOnUse" x1="503.6294" y1="243.154" x2="504.2961" y2="102.4873">
				<stop  offset="0" style="stop-color:#742636"/>
				<stop  offset="1" style="stop-color:#A34857"/>
			</linearGradient>
			<path class="st11" d="M504.3,253c0.1-1.6,0.2-2.5,0.2-2.5c-0.7,0.8-1.3,1.6-1.7,2.5H504.3z"/>
			<linearGradient id="SVGID_12_" gradientUnits="userSpaceOnUse" x1="525.4786" y1="243.2576" x2="526.1453" y2="102.5909">
				<stop  offset="0" style="stop-color:#742636"/>
				<stop  offset="1" style="stop-color:#A34857"/>
			</linearGradient>
			<path class="st12" d="M525.7,253c0.2-1.6,0.3-2.7,0.3-3.1c0,0-0.4,1.1-1.2,3.1H525.7z"/>
			<linearGradient id="SVGID_13_" gradientUnits="userSpaceOnUse" x1="511.2372" y1="243.1901" x2="511.9038" y2="102.5234">
				<stop  offset="0" style="stop-color:#742636"/>
				<stop  offset="1" style="stop-color:#A34857"/>
			</linearGradient>
			<path class="st13" d="M510.6,253h1.1c-0.2-2-0.3-3.3-0.4-3.8C511.4,249.2,511.1,250.7,510.6,253z"/>
			<linearGradient id="SVGID_14_" gradientUnits="userSpaceOnUse" x1="508.0331" y1="243.1749" x2="508.6998" y2="102.5082">
				<stop  offset="0" style="stop-color:#742636"/>
				<stop  offset="1" style="stop-color:#A34857"/>
			</linearGradient>
			<path class="st14" d="M509.2,253c0.2-3.1,0.6-5.3,0.6-5.3c-1.7,1.5-2.8,3.3-3.6,5.3H509.2z"/>
			<linearGradient id="SVGID_15_" gradientUnits="userSpaceOnUse" x1="523.2457" y1="243.247" x2="523.9124" y2="102.5803">
				<stop  offset="0" style="stop-color:#742636"/>
				<stop  offset="1" style="stop-color:#A34857"/>
			</linearGradient>
			<path class="st15" d="M523.6,253c0.1-0.6,0.1-1,0.1-1c-0.4,0.3-0.7,0.7-1,1H523.6z"/>
			<linearGradient id="SVGID_16_" gradientUnits="userSpaceOnUse" x1="527.0399" y1="243.265" x2="527.7065" y2="102.5983">
				<stop  offset="0" style="stop-color:#742636"/>
				<stop  offset="1" style="stop-color:#A34857"/>
			</linearGradient>
			<path class="st16" d="M526.5,253h0.9c-0.2-1.6-0.4-2.7-0.5-3.1C527,249.9,526.8,251.1,526.5,253z"/>
			<linearGradient id="SVGID_17_" gradientUnits="userSpaceOnUse" x1="545.2631" y1="243.3513" x2="545.9297" y2="102.6847">
				<stop  offset="0" style="stop-color:#742636"/>
				<stop  offset="1" style="stop-color:#A34857"/>
			</linearGradient>
			<path class="st17" d="M545.2,252.2c0,0,0,0.3-0.1,0.7h0.2C545.3,252.7,545.2,252.4,545.2,252.2z"/>
			<linearGradient id="SVGID_18_" gradientUnits="userSpaceOnUse" x1="536.535" y1="243.31" x2="537.2017" y2="102.6433">
				<stop  offset="0" style="stop-color:#742636"/>
				<stop  offset="1" style="stop-color:#A34857"/>
			</linearGradient>
			<path class="st18" d="M535.8,253h1.3c0.1-1,0.2-1.6,0.2-1.6C536.7,251.9,536.2,252.4,535.8,253z"/>
			<linearGradient id="SVGID_19_" gradientUnits="userSpaceOnUse" x1="540.8329" y1="243.3303" x2="541.4996" y2="102.6637">
				<stop  offset="0" style="stop-color:#742636"/>
				<stop  offset="1" style="stop-color:#A34857"/>
			</linearGradient>
			<path class="st19" d="M540.4,253h0.8c-0.2-1.7-0.4-2.9-0.5-3.3C540.7,249.7,540.6,250.9,540.4,253z"/>
			<linearGradient id="SVGID_20_" gradientUnits="userSpaceOnUse" x1="530.3687" y1="243.2807" x2="531.0353" y2="102.6141">
				<stop  offset="0" style="stop-color:#742636"/>
				<stop  offset="1" style="stop-color:#A34857"/>
			</linearGradient>
			<path class="st20" d="M530.6,253c0.1-0.4,0.1-0.6,0.1-0.6c-0.2,0.2-0.4,0.4-0.6,0.6H530.6z"/>
			<linearGradient id="SVGID_21_" gradientUnits="userSpaceOnUse" x1="531.957" y1="243.2883" x2="532.6237" y2="102.6216">
				<stop  offset="0" style="stop-color:#742636"/>
				<stop  offset="1" style="stop-color:#A34857"/>
			</linearGradient>
			<path class="st21" d="M531.3,253h1.3c-0.4-3-0.7-5.1-0.9-5.7C531.7,247.3,531.5,249.5,531.3,253z"/>
			<linearGradient id="SVGID_22_" gradientUnits="userSpaceOnUse" x1="458.8853" y1="242.942" x2="459.5519" y2="102.2753">
				<stop  offset="0" style="stop-color:#742636"/>
				<stop  offset="1" style="stop-color:#A34857"/>
			</linearGradient>
			<path class="st22" d="M457.5,253h2.6c-0.6-7.7-1.1-13.6-1.2-14.8C458.9,238.2,458.3,244.4,457.5,253z"/>
			<linearGradient id="SVGID_23_" gradientUnits="userSpaceOnUse" x1="464.7991" y1="242.97" x2="465.4658" y2="102.3033">
				<stop  offset="0" style="stop-color:#742636"/>
				<stop  offset="1" style="stop-color:#A34857"/>
			</linearGradient>
			<path class="st23" d="M464,253h1.5c-0.5-3.3-0.8-5.7-0.9-6.4C464.5,246.6,464.3,249.1,464,253z"/>
			<linearGradient id="SVGID_24_" gradientUnits="userSpaceOnUse" x1="467.5858" y1="242.9832" x2="468.2524" y2="102.3165">
				<stop  offset="0" style="stop-color:#742636"/>
				<stop  offset="1" style="stop-color:#A34857"/>
			</linearGradient>
			<path class="st24" d="M466.2,253h2.7c-0.8-6.2-1.5-11.1-1.7-12.1C467.1,240.9,466.7,246,466.2,253z"/>
			<linearGradient id="SVGID_25_" gradientUnits="userSpaceOnUse" x1="476.1197" y1="243.0236" x2="476.7864" y2="102.357">
				<stop  offset="0" style="stop-color:#742636"/>
				<stop  offset="1" style="stop-color:#A34857"/>
			</linearGradient>
			<path class="st25" d="M475.2,253h1.7c-0.6-4-1-6.8-1.1-7.5C475.8,245.5,475.6,248.5,475.2,253z"/>
			<linearGradient id="SVGID_26_" gradientUnits="userSpaceOnUse" x1="471.3577" y1="243.0011" x2="472.0243" y2="102.3344">
				<stop  offset="0" style="stop-color:#742636"/>
				<stop  offset="1" style="stop-color:#A34857"/>
			</linearGradient>
			<path class="st26" d="M469.5,253h3.7c-1.1-8.6-2.2-15.9-2.4-17.2C470.7,235.8,470.1,243.5,469.5,253z"/>
			<linearGradient id="SVGID_27_" gradientUnits="userSpaceOnUse" x1="228.1973" y1="241.8486" x2="228.864" y2="101.182">
				<stop  offset="0" style="stop-color:#742636"/>
				<stop  offset="1" style="stop-color:#A34857"/>
			</linearGradient>
			<path class="st27" d="M454,252.9c-0.2,0-0.4,0-0.6,0c-0.7-4.6-1.2-7.9-1.4-8.8c0,0-0.1,3.4-0.3,8.7c-0.2,0-0.4,0-0.6,0
				c-1.1-7.2-1.9-12.7-2.1-13.9c0,0-0.2,5.7-0.4,13.7c0,0-0.1,0-0.1,0c-1.1-2.9-2.3-5.1-3.7-6.4c0,0,0,1.6-0.2,4.3
				c-1.1-7.9-2.1-14-2.3-15.2c0,0-0.3,7.2-0.5,16.8c-0.1,0-0.2,0-0.2,0c-0.4-7.2-0.8-12.7-0.8-13.9c0,0-0.9,5.7-2.1,13.7
				c-0.1,0-0.1,0-0.2,0c-1.9-7.1-3.4-12.5-3.7-13.7c0,0,0.4,5.6,1.2,13.5c-0.2,0-0.4,0-0.5,0c-1.7-7.5-3-13.3-3.4-14.5
				c0,0,0.2,6,0.7,14.3c-0.1,0-0.3,0-0.4,0c-1.5-5.2-3.3-9.2-5.3-11.2c0,0-0.1,4.3-0.7,10.7c-0.6-0.1-1.1-0.1-1.7-0.2
				c-0.4-6.7-0.8-12-0.9-13c0,0-0.8,5.4-1.8,12.8c-0.1,0-0.2,0-0.3,0c0-2.3,0.1-3.8,0.1-3.8c-0.8,1.1-1.4,2.3-1.9,3.6
				c-0.7-0.1-1.4-0.1-2-0.2c-0.5-3.7-0.9-6.4-1.1-7.1c0,0-0.2,2.7-0.4,7c-0.2,0-0.5,0-0.7-0.1c-0.8-5.9-1.5-10.4-1.7-11.4
				c0,0-0.3,4.6-0.7,11.2c-0.2,0-0.3,0-0.5-0.1c-1-2.1-2-3.7-3.2-4.7c0,0-0.1,1.4-0.3,3.8c-0.9-6.8-1.7-12.1-1.9-13.2
				c0,0-0.4,5.7-0.8,13.5c-0.1,0-0.2,0-0.3,0c-0.2-5.7-0.4-9.9-0.4-10.9c0,0-0.9,4.4-2.1,10.6c-0.3,0-0.5-0.1-0.8-0.1
				c-1.5-5.5-2.7-9.5-3-10.4c0,0,0.3,4.2,0.7,10.2c-0.3,0-0.5-0.1-0.8-0.1c-1.3-5.7-2.4-10-2.6-11c0,0,0.1,4.4,0.3,10.7
				c-0.3,0-0.6-0.1-0.9-0.1c-1.3-3.6-2.7-6.4-4.4-7.9c0,0-0.1,2.9-0.7,7.3c-0.5-0.1-1-0.1-1.6-0.2c-0.3-1.3-0.5-2.2-0.7-2.6
				c0,0,0,0.9,0.1,2.5c-0.1,0-0.2,0-0.3,0c-0.6-8.7-0.4-15.8-0.4-15.8c-2.7,3.8-3.7,9.4-3.6,15.3c-0.2,0-0.4,0-0.6-0.1
				c-0.9-6.2-1.6-10.7-1.8-11.8c0,0-0.2,4.7-0.3,11.5c-0.2,0-0.4,0-0.6-0.1c-1.6-7.6-2.8-13.4-3.2-14.6c0,0-0.1,6,0,14.2
				c-0.4,0-0.8-0.1-1.1-0.1c-1.3-6-2.2-10.4-2.5-11.4c0,0-0.1,4.5,0,11.1c-0.6-0.1-1.2-0.2-1.8-0.2c-0.5-9.3-1-17.3-1.2-18.7
				c0,0-0.9,6.5-2.1,15c0-3.6,0-6,0-6c-1.7,2.3-2.7,5.3-3.2,8.6c-0.9-6.4-1.6-11.3-1.8-12.3c0,0-0.3,4.4-0.6,10.6
				c-1.1-7.7-2-14-2.2-15.1c0,0-0.3,5.1-0.7,12.2c-1.1-2.6-2.3-4.6-3.6-5.7c0,0-0.1,1.4-0.3,3.8c-0.9-6.8-1.7-12.1-1.9-13.2
				c0,0-0.5,7.7-1,17.3c-0.3-7.6-0.5-13.6-0.6-14.7c0,0-1.1,5.1-2.5,12.3c-1.8-6.3-3.2-11.2-3.5-12.2c0,0,0.4,6.4,1.1,14.7
				c0,0-0.1,0-0.1,0c-1.8-7.9-3.4-14.4-3.7-15.6c0,0,0.1,6,0.4,14c-1.5-5.3-3.3-9.4-5.5-11.3c0,0-0.2,4.6-1.2,11.2c0,0,0,0-0.1,0
				c-0.8-3.5-1.4-6-1.6-6.7c0,0,0,2.5,0.2,6.4c0,0,0,0,0,0c-1.1-10.3-2.1-13-2.1-13c-1.6,4.5-2.6,4.9-2.1,12.2c-0.1,0-0.1,0-0.2,0
				c-1.2-8-2.1-14.2-2.3-15.5c0,0-0.2,5.8-0.4,13.9c-1.8-8.7-3.3-15.7-3.7-17.1c0,0-0.1,7.6,0,17.4c-0.2,0-0.3-0.1-0.5-0.1
				c-1.6-7.6-2.9-13.5-3.2-14.7c0,0-0.1,5.9,0,14.1c-0.1,0-0.2,0-0.2,0c-0.2-3-0.3-4.9-0.3-4.9c-0.9,1.3-1.5,2.8-2,4.4
				c-0.9-5.1-1.6-8.8-1.8-9.7c0,0,0,3.8,0,9.4c-0.1,0-0.1,0-0.2,0c-0.5-6.5-0.5-11.3-0.5-11.3c-1.2,1.7-2,3.8-2.4,6.2
				c-0.1-6.8-0.1-12-0.2-13.1c0,0-1.2,7.1-2.7,16.6c-0.7-7.7-0.7-13.7-0.7-13.7c-1.5,2.2-2.4,5-2.8,8.2c-0.3-7.5-0.7-13.2-0.8-14.4
				c0,0-0.8,5.8-1.8,13.9c-0.6-6.7-0.6-11.6-0.6-11.6c-1.7,2.5-2.6,5.7-2.9,9.3c0-7.9-0.1-14-0.2-15.2c0,0-1.2,7-2.7,16.2
				c-0.9-7.2-1.6-12.7-1.8-13.9c0,0-0.4,6.4-0.8,15.2c-0.4-9-0.8-16.3-1-17.7c0,0-0.9,6.7-1.9,15.6c-0.7-6.6-0.9-11.5-0.9-11.5
				c-1.4,2.2-2.2,5-2.6,8c-0.4-8.5-0.8-15.2-0.9-16.5c0,0-1,7.9-2.2,18c-0.3-3.7-0.3-6.2-0.3-6.2c-1.1,1.7-1.9,3.8-2.3,6.1
				c-0.6-6-0.7-10.3-0.7-10.3c-1.3,2-2.1,4.4-2.5,7.1c-0.7-7.3-1.3-12.8-1.5-14c0,0-0.6,7.7-1.3,17.6c-0.5-6.5-0.5-11.4-0.5-11.4
				c-1.3,1.8-2.2,3.9-2.8,6.3c-0.4-4.6-0.4-7.7-0.4-7.7c-1.2,1.8-1.9,4-2.4,6.4c-0.2-6.4-0.4-11.2-0.5-12.3c0,0-1,6.7-2.2,15.8
				c-1.3-9.1-2.4-16.4-2.7-17.8c0,0-0.3,7.6-0.5,17.6c-1.5-10-1.7-18.8-1.7-18.8c-2.7,4.2-3.2,10.4-2.7,16.8
				c-0.6-2.2-1.3-4.3-1.8-6.3c0.5-6,0.8-10.5,0.8-11.5c0,0-0.8,3-2,7.7c-1.3-4.4-2.3-7.6-2.6-8.4c0,0,0.6,5.3,1.5,12.8
				c-0.4,1.7-0.8,3.4-1.3,5.3c0,0,0,0,0,0c-0.7-7.7-0.7-13.7-0.7-13.7c-1.1,1.5-1.9,3.3-2.5,5.3c-1.3-6.5-2.3-11.4-2.6-12.5
				c0,0,0.1,6.5,0.4,15.3c-1.6-11-3-20.4-3.3-22c0,0-0.3,9.3-0.5,20.7c-1.3-5.8-1.8-10.1-1.8-10.1c-0.9,1.9-1.4,4-1.6,6.4
				c-2.1-10.5-3.9-19.4-4.2-21c0,0,0.2,10.1,0.6,22.2c-1.2-8.1-2.1-14.4-2.4-15.6c0,0-0.2,6-0.4,14.3c-0.5-5.6-0.5-9.5-0.5-9.5
				c-1.4,2.1-2.2,4.8-2.6,7.7c0-6,0.4-10.4,0.4-10.4c-1.8,2.2-2.9,5.2-3.5,8.5c-1-6.9-1.8-12.2-2-13.3c0,0-0.2,5.2-0.4,12.5
				c-1.2-8.6-2.3-15.5-2.5-16.8c0,0-0.2,6.2-0.4,14.8c-0.8-5.3-1.4-9.1-1.5-10.1c0,0-0.1,3.3-0.3,8.3c-1.4-9.6-2.6-17.4-2.8-18.9
				c0,0-0.3,7.2-0.5,16.7c-1.3-5.8-1.8-10.1-1.8-10.1c-1,1.9-1.5,4.2-1.6,6.7c-0.3-7.5,0-13.2,0-13.2c-1.9,2.6-3,6-3.5,9.8
				c-0.8-6.8-2.3-12.1-5.2-14.3c0,0,0.7,6.2,0.8,14.8c-0.7-6-1.2-10.4-1.4-11.5c0,0-0.5,4.6-1.2,11.4c-0.9-8.8-1.7-15.8-2-17.2
				c0,0-0.5,4.8-1.2,11.6c-1.1-8.8-2.1-15.9-2.3-17.3c0,0-0.8,8.7-1.5,19.6c-1.1-8.8-2.1-15.9-2.3-17.2c0,0-0.7,7.4-1.4,17
				c0-4.7,0.1-7.9,0.1-7.9c-1,1.2-1.7,2.7-2.3,4.2c-0.5-5.2-0.9-8.9-1-9.8c0,0-0.4,4.6-0.9,11.3c-0.1-7.5,0.3-13.2,0.3-13.2
				c-1.3,1.7-2.2,3.7-2.9,6c0.5-6.8,0.8-12,0.9-13.1c0,0-1.8,7-4,16.4c-0.1-7.7,0.3-13.7,0.3-13.7c-1.7,2.1-2.7,4.9-3.4,8
				c0.2-7.5,0.4-13.3,0.4-14.5c0,0-1.2,5.8-2.8,13.8c0-6.7,0.4-11.6,0.4-11.6c-1.9,2.4-3,5.5-3.6,9.1c0.6-7.9,1-14,1-15.3
				c0,0-1.7,6.8-3.9,15.8c-0.6-7.1-1-12.5-1.1-13.7c0,0-0.7,6.9-1.5,16.1c-0.3-6.4-0.1-11.1-0.1-11.1c-1.7,2.4-2.7,5.5-3.2,9
				c-0.3-6.2-0.1-10.7-0.1-10.7c-1.1,1.5-1.9,3.3-2.5,5.3c-0.1-4.8-0.3-8.3-0.3-9.2c0,0-1.2,7.6-2.6,17.4
				c0.3-11.2,2.2-21.6,2.2-21.6c-3.3,3.5-5.1,9.2-5.9,15.4c-0.3-6.3-0.1-10.9-0.1-10.9c-1.9,2.7-3,6.2-3.4,10.2
				c-0.2-10.4-0.5-19.2-0.6-20.7c0,0-1.5,9.4-3,20.9c0.1-7.2,0.6-12.6,0.6-12.6c-1.5,1.9-2.6,4.3-3.4,7.1c0-6.8,0-12,0-13.1
				c0,0-0.9,4.8-2.1,11.8c-0.2-5.2,0-8.8,0-8.8c-2.2,3-3.2,7.1-3.5,11.6c-0.7-9.6-1.3-17.4-1.5-18.9c0,0-1,9.8-2.1,21.7
				c-0.6-8.7-0.4-15.8-0.4-15.8c-2.1,2.9-3.1,6.9-3.5,11.3c-0.9-8.1-1.7-14.4-1.9-15.7c0,0-0.5,7.8-1,17.8
				c-1.2-10.7-0.8-20.5-0.8-20.5c-2.6,3.6-3.6,8.8-3.6,14.4c-0.9-5.9-1.5-10.3-1.7-11.4c0,0-0.2,6.5-0.4,15.3
				c-1.4-10-2.7-18.3-3-19.8c0,0-0.3,8.7-0.5,19.6c-1.2-8.2-3.2-14.8-6.7-17.1c0,0,1,5.3,1.6,12.9c-1.6-5.7-3.4-10.1-5.6-12.3
				c0,0-0.1,5.2-0.9,12.6c-1.2-10.8-0.9-21-0.9-21c-4,5.5-4.2,14.8-3.1,23.6c0,0-0.1,0-0.1,0c-1.5-10.3-2.8-19-3.1-20.5
				c0,0-0.3,8-0.5,18.3c-0.6-8.2-1.1-14.7-1.2-16c0,0-0.6,5.1-1.3,12.4c-0.6-8.3-1.1-14.7-1.2-16c0,0-0.8,7.6-1.8,17.5
				c-0.9-9.7-0.6-18.1-0.6-18.1c-2.2,3.1-3.3,7.4-3.6,12.2c-1.3-9-2.4-16.3-2.7-17.6c0,0-0.3,8-0.5,18.3c-1-5-2.6-8.8-5-10.5
				c0,0,0.8,5.9,1.2,14.2c-1.9-13.4-3.8-26.3-4.1-28.1c0,0-0.5,12.8-0.6,26.8c-0.8-9.3-0.5-17.3-0.5-17.3c-2.8,3.8-3.7,9.5-3.6,15.5
				c-1.3-9.1-2.4-16.4-2.7-17.8c0,0-0.3,9.4-0.5,21c-0.1,0-0.1,0-0.2,0c-2-15-4.4-31-4.8-33.1c0,0-0.4,11.6-0.6,24.8
				c-1.4-9.5-2.5-17.2-2.8-18.6c0,0-0.3,8.4-0.5,19.1c-0.9-6.4-1.7-11.1-1.9-12.2c0,0-0.3,7.1-0.5,16.5c-0.6-8.4-0.3-15.3-0.3-15.3
				c-1.7,2.3-2.7,5.3-3.2,8.7c-0.6-7.7-1.1-13.6-1.2-14.8c0,0-1,9.4-2,21c-0.4-7.2-0.2-12.8-0.2-12.8c-1.6,2.2-2.6,5-3.1,8.2
				c-0.8-5.5-1.4-9.5-1.6-10.5c0,0-0.2,5-0.4,12.2c-1.3-8.9-2.4-16.1-2.6-17.5c0,0-0.2,5.9-0.4,14c-1.1-3-2.4-5.3-3.8-6.7
				c0,0,0,1.6-0.2,4.3c-1.1-7.9-2.1-14-2.3-15.2c0,0-0.3,8.8-0.5,19.8c-0.5-8.7-0.9-15.6-1-17c0,0-0.9,5.9-2.1,14
				c-1.9-7.3-3.5-12.9-3.8-14.1c0,0,0.6,7.6,1.5,17.6c-2.1-9.5-3.9-17.2-4.3-18.7c0,0,0.3,6.9,0.8,16.2c-1.6-6.1-3.5-10.9-5.8-13.1
				c0,0-0.1,5.4-0.9,13c-1-4.2-1.6-7.1-1.9-7.9c0,0,0.2,3.7,0.4,9.4c-1.6-11.7-1.2-23.5-1.2-23.5c-3.7,5.1-4.1,13.5-3.3,21.7
				c-1.3-9.3-2.5-16.8-2.7-18.2c0,0-0.3,7.6-0.5,17.5c-1.1-4.8-1.9-8.3-2.2-9.2c0,0,0.2,4.1,0.5,10.3c-1.9-8.6-3.5-15.5-3.9-16.8
				c0,0,0.3,7.2,0.8,16.7c-1.8-4.5-3.8-8.4-5.9-11.1c-0.8-3.5-1.4-5.9-1.6-6.7c0,0,0.1,1.9,0.2,5.1c-1.1-1.1-2.1-1.9-3.2-2.3
				c0,0,1.6,3.6,3.6,9.2c0.1,2,0.2,4.2,0.4,6.5c-1.5-6.5-2.6-11.4-2.9-12.5c0,0,0.2,5.6,0.6,13.5c-0.1,0-0.2,0-0.3,0
				c-2.2-10.1-4.3-19-4.9-21.5v2.5c0.2,3.8,0.5,10.8,1,18.7c-0.1,0-0.1,0-0.2,0c-0.3-1.2-0.5-2.4-0.8-3.6V253h456.6
				c-0.1-4,0-6.6,0-6.6C455.5,248.2,454.6,250.4,454,252.9z"/>
			<linearGradient id="SVGID_28_" gradientUnits="userSpaceOnUse" x1="462.2653" y1="242.958" x2="462.9319" y2="102.2913">
				<stop  offset="0" style="stop-color:#742636"/>
				<stop  offset="1" style="stop-color:#A34857"/>
			</linearGradient>
			<path class="st28" d="M463.4,253c0.1-3.2,0.3-5.3,0.3-5.3c-1.3,1.5-2.3,3.3-2.9,5.3H463.4z"/>
			<linearGradient id="SVGID_29_" gradientUnits="userSpaceOnUse" x1="499.6817" y1="243.1353" x2="500.3484" y2="102.4686">
				<stop  offset="0" style="stop-color:#742636"/>
				<stop  offset="1" style="stop-color:#A34857"/>
			</linearGradient>
			<path class="st29" d="M499.1,253h1c-0.1-2.3-0.2-3.8-0.3-4.3C499.9,248.7,499.6,250.3,499.1,253z"/>
			<linearGradient id="SVGID_30_" gradientUnits="userSpaceOnUse" x1="480.4702" y1="243.0443" x2="481.1368" y2="102.3776">
				<stop  offset="0" style="stop-color:#742636"/>
				<stop  offset="1" style="stop-color:#A34857"/>
			</linearGradient>
			<path class="st30" d="M481.7,253c0.1-3.6,0.3-5.9,0.3-5.9c-1.5,1.6-2.5,3.7-3.2,5.9H481.7z"/>
			<linearGradient id="SVGID_31_" gradientUnits="userSpaceOnUse" x1="496.2378" y1="243.119" x2="496.9044" y2="102.4523">
				<stop  offset="0" style="stop-color:#742636"/>
				<stop  offset="1" style="stop-color:#A34857"/>
			</linearGradient>
			<path class="st31" d="M497.3,253c0.1-2.9,0.2-4.8,0.2-4.8c-1.2,1.4-2.1,3-2.8,4.8H497.3z"/>
			<linearGradient id="SVGID_32_" gradientUnits="userSpaceOnUse" x1="491.9502" y1="243.0987" x2="492.6169" y2="102.432">
				<stop  offset="0" style="stop-color:#742636"/>
				<stop  offset="1" style="stop-color:#A34857"/>
			</linearGradient>
			<path class="st32" d="M490.9,253h2c-0.7-4.7-1.2-8.2-1.3-9C491.6,244,491.3,247.7,490.9,253z"/>
			<linearGradient id="SVGID_33_" gradientUnits="userSpaceOnUse" x1="487.1394" y1="243.0759" x2="487.8061" y2="102.4092">
				<stop  offset="0" style="stop-color:#742636"/>
				<stop  offset="1" style="stop-color:#A34857"/>
			</linearGradient>
			<path class="st33" d="M485.9,250.6c0,0,0.1,0.9,0.3,2.4h2.1C487.6,251.9,486.8,251.1,485.9,250.6z"/>
			<linearGradient id="SVGID_34_" gradientUnits="userSpaceOnUse" x1="483.9682" y1="243.0608" x2="484.6349" y2="102.3942">
				<stop  offset="0" style="stop-color:#742636"/>
				<stop  offset="1" style="stop-color:#A34857"/>
			</linearGradient>
			<path class="st34" d="M482.4,253h3c-0.9-7-1.7-12.6-1.9-13.6C483.5,239.3,483,245.2,482.4,253z"/>
			<linearGradient id="SVGID_35_" gradientUnits="userSpaceOnUse" x1="-0.4697" y1="240.7649" x2="0.197" y2="100.0982">
				<stop  offset="0" style="stop-color:#742636"/>
				<stop  offset="1" style="stop-color:#A34857"/>
			</linearGradient>
			<path class="st35" d="M0.1,129v-2.5C0.1,126.3,0,126.1,0,126C0,126,0,127.1,0.1,129z"/>
			<linearGradient id="SVGID_36_" gradientUnits="userSpaceOnUse" x1="-0.4697" y1="240.7649" x2="0.197" y2="100.0982">
				<stop  offset="0" style="stop-color:#742636"/>
				<stop  offset="1" style="stop-color:#A34857"/>
			</linearGradient>
			<path class="st36" d="M0.1,129v-2.5C0.1,126.3,0,126.1,0,126C0,126,0,127.1,0.1,129z"/>
		</g>
	</g>
</g>
</svg>
