<!-- Generator: Adobe Illustrator 23.0.1, SVG Export Plug-In  -->
<svg version="1.1" xmlns="http://www.w3.org/2000/svg" xmlns:xlink="http://www.w3.org/1999/xlink" x="0px" y="0px" width="817.3px"
	 height="248.4px" viewBox="0 1 817.3 165.4" style="enable-background:new 0 0 817.3 248.4;" xml:space="preserve">
<style type="text/css">
	.st0{clip-path:url(#SVGID_4_);}
	.st1{fill:#D18297;}
	.st2{fill:url(#SVGID_5_);}
	.st3{opacity:0.1;fill:#A04B66;}
	.st4{fill:url(#SVGID_6_);}
	.st5{fill:url(#SVGID_7_);}
	.st6{opacity:0.15;fill:#A04B66;}
	.st7{fill:url(#SVGID_8_);}
	.st8{clip-path:url(#SVGID_9_);}
	.st9{fill:#91495C;}
	.st10{clip-path:url(#SVGID_10_);}
	.st11{clip-path:url(#SVGID_11_);}
	.st12{fill:url(#SVGID_12_);}
	.st13{fill:url(#SVGID_13_);}
	.st14{fill:url(#SVGID_14_);}
	.st15{fill:url(#SVGID_15_);}
	.st16{clip-path:url(#SVGID_16_);}
	.st17{clip-path:url(#SVGID_17_);}
</style>
<defs>
</defs>
<g>
	<g>
		<defs>
			<rect id="SVGID_3_" x="30.7" width="750" height="202.7"/>
		</defs>
		<clipPath id="SVGID_4_">
			<use xlink:href="#SVGID_3_"  style="overflow:visible;"/>
		</clipPath>
		<g class="st0">
			<g>
				<g>
					<g>
						<path class="st1" d="M265.3,178.4c0,0-65.3-42.8-77.3-42.8s-28.7-24.9-42.7-30.6c-14-5.7-38,32.1-50.7,36.3
							C82,145.6,0,203,0,203h292L265.3,178.4z"/>
						<linearGradient id="SVGID_5_" gradientUnits="userSpaceOnUse" x1="0" y1="152.9856" x2="157.6667" y2="152.9856">
							<stop  offset="0" style="stop-color:#F7A6A2"/>
							<stop  offset="1" style="stop-color:#F788A2"/>
						</linearGradient>
						<path class="st2" d="M142.5,103c0,0,8.4,3.8,15.2,10.7c0,0-6.8,6.6-5.7,7.5c1.2,0.9,4.7,4.5,5.5,6.8
							c0.8,2.3-20.9,4.4-21.7,4.8c-0.8,0.4,2,6.2,4.7,6.8c2.7,0.5,1,4.3,2.3,5.7c1.3,1.4-7.2,0.7-8.5,1.8
							c-1.3,1.1-7.7,17.5-4.7,20.3s-23,5-27.3,5c-4.3,0,10.6,7.9,14.3,9.8c3.8,1.9,7,14.7,8,16.6s7.3,4.3,7.3,4.3H0
							c0,0,28.3-25.7,38.7-30.7s28.5-15.2,33.5-20.6c5-5.3,23.2-17.8,28.8-19.6C106.7,130.3,132.3,101.8,142.5,103z"/>
					</g>
					<g>
						<path class="st3" d="M134.9,110.3c0,0-15.8,11.2-15.8,13.4c0,2.1,18.3,0.5,18.3,0.5s-10.3-0.5-11-2.7s6.8-1.9,6.8-1.9
							l-0.5-4.5L134.9,110.3z"/>
						<path class="st3" d="M107.9,131.4c0,0-7.8,5.3-7.3,9.1c0.5,3.7-19.5,9.4-19.5,9.4s22-2.9,23.8-4.5s0.8-7.5,0.8-7.5l7-7.2
							L107.9,131.4z"/>
						<path class="st3" d="M123.3,150.6c1.3,2.1,0.3,8.9,0.3,11.4c0,2.5-18,4.6-18,4.6l13.3-6.1L123.3,150.6z"/>
						<path class="st3" d="M68.3,161.6c0,1.4-3.3,11.8-3.3,11.8s-14,8.2-15,8.6c-1,0.4,1.7,11,1.7,11s1-10,3.3-11s14.3-6.8,14.7-8.6
							C70,171.6,68.3,161.6,68.3,161.6z"/>
					</g>
				</g>
				<g>
					<g>
						<path class="st1" d="M650.7,170.6c0,0,41.3-25.7,57.3-20.7s47.3,25.7,58.7,31.4c11.3,5.7,50.7,21.7,50.7,21.7H604L650.7,170.6
							z"/>
						<linearGradient id="SVGID_6_" gradientUnits="userSpaceOnUse" x1="595.999" y1="175.6054" x2="741.6667" y2="175.6054">
							<stop  offset="0" style="stop-color:#F7A6A2"/>
							<stop  offset="1" style="stop-color:#F788A2"/>
						</linearGradient>
						<path class="st4" d="M706.7,148.8c0,0,14.3,6.4,15.3,7.5s-8,3.9-9,5s5.7,6.1,6.3,7.8c0.7,1.8-14.7,4.6-16.7,6.1
							c-2,1.4,18,7.8,21.3,9.3c3.3,1.4,2,6.4,3.7,9.3c1.7,2.9,14,9.3,14,9.3H596c0,0,41.3-24.2,47-26s28-18.9,31.3-19.6
							C677.7,156.7,697.7,145.6,706.7,148.8z"/>
					</g>
					<path class="st3" d="M672.9,161.8c0,0,18.6-7.8,19.4-7.8c0.8,0-3,5.3-2.8,7.7s8,1.1,8,1.1s-10,3.9-10.5,5.5
						c-0.5,1.6,3.8,6.8,3.8,6.8s-9.8-6.4-10.8-6.8c-1-0.4,6.5-3.2,7-4.1c0.5-0.9,0.7-6.6,0-6.6S672.9,161.8,672.9,161.8z"/>
				</g>
			</g>
			<g>
				<g>
					<g>
						<path class="st1" d="M561.9,119.9c0,0-32.3-39.5-38.5-39.5c-6.2,0-14.4,1.1-18.5-2.7c-4.1-3.8-30.3-31.8-30.3-31.8
							s-23.1-8.8-25.7-12.6c-2.6-3.8-22.6-29.1-28.2-29.1s-68.7,72.9-78,80.1s-44.4,28-51.4,28s-24.2,44.4-27.7,51.8
							c-3.5,7.4-53.1,38.6-53.1,38.6h411.2L561.9,119.9z"/>
						<linearGradient id="SVGID_7_" gradientUnits="userSpaceOnUse" x1="234.3074" y1="51.7106" x2="412.4832" y2="217.2161">
							<stop  offset="0" style="stop-color:#F7A6A2"/>
							<stop  offset="1" style="stop-color:#F788A2"/>
						</linearGradient>
						<path class="st5" d="M431.2,12.7l6.3,11.1c0,0-3.5,2.3-8.8,8.3c-8.3,9.3-11.3,6-11.6,7.4c-1.4,7.2,7.2,10.2,10.4,13.2
							c0.4,0.4,1.3,7.7-2.5,14.2c-2.9,5-14.3,2.5-18.2,3.3c-2.3,0.5,10.2,13.4,10.2,13.4c-17.8,6.6-8.1,18.3-8.1,18.3
							s-34.9,20.8-31.2,25.8c3.7,5,26.6,7.3,26.6,7.3s-17.6,28.4-18.5,37.3c-0.9,8.9,19.5,30.7,19.5,30.7l-249.9,0
							c0,0,86.3-37.5,89.3-41.7c3-4.2,34.5-37.3,39.6-43.5c5.1-6.2,7.4-7.7,7.4-7.7s50.9-26.7,52.7-28.3
							c1.9-1.7,56.3-60.5,63.7-67.7c7.4-7.3,13-10.9,15.1-10.9C425.4,3.1,431.2,12.7,431.2,12.7z"/>
					</g>
					<g>
						<path class="st6" d="M403.8,25.9c0,0-8.3,5.6-7.2,8.7c1.1,3.1,3.7,4,5.1,4.4c1.5,0.4,2-2.6,2-2.6s-2-1.4-3.5-2.2
							C398.9,33.6,403.8,25.9,403.8,25.9z"/>
						<path class="st3" d="M392.3,63.5c0,0-12.5-6.9-15.8-6.4c-3.3,0.5-15.7,10.7-15.7,10.7s12.3-5.7,15.5-4.5
							c3.2,1.2,10,3.7,10.8,2.9c0.8-0.9,8.7-1.4,10.2-2.9s4.7-3.7,4.7-3.7S394.8,63.3,392.3,63.5z"/>
						<path class="st3" d="M407.7,80.9c0,0-8.5,8-8.5,11.2c0,3.2-25.5,4.8-25.5,4.8l-8.5-16.3c0,0,11,8.3,19,6.7
							S407.7,80.9,407.7,80.9z"/>
						<path class="st3" d="M344.2,92.9c0,0-41,17.1-46,20.3c-5,3.2-11,25.1-11,25.1s11.5-20.3,23-22.4S347,97.5,347,97.5l-3.3-2.5"
							/>
						<path class="st3" d="M271.7,143.1c0,0-22.5,20.8-24,22.4s-23,10.2-23,10.2l31.5-3.7L271.7,143.1z"/>
						<path class="st3" d="M346.2,128.2c0,0-26,4.8-29.5,9.1s28.5,23.5,28.5,23.5l14-8l-15.5-2.1l-17-9.6L346.2,128.2z"/>
					</g>
				</g>
				<g>
					<g>
						<path class="st1" d="M608.5,87.5c0,0,6.8,9.8,8.1,12.6c1.2,2.8,21.6,18.5,23.2,20.1s10.2,22.9,13.2,25.5
							c3,2.6,27.3,28.5,31.3,31c4,2.6,17.3,26.2,17.3,26.2l-223.7,0.4l85-48.8l29-71L608.5,87.5z"/>
						<linearGradient id="SVGID_8_" gradientUnits="userSpaceOnUse" x1="477.9482" y1="134.7533" x2="651.3217" y2="134.7533">
							<stop  offset="0" style="stop-color:#F7A6A2"/>
							<stop  offset="1" style="stop-color:#F788A2"/>
						</linearGradient>
						<path class="st7" d="M477.9,203.4c0,0,37.7-30.3,42.3-30.7c4.7-0.4,20.7-24.7,20.7-24.7l2.7-14l15.3-21.1l19.7-24.3
							c0,0,13.7-22.7,15.7-22.3s9.3,16,14,21.1c4.7,5.2-19,18.4-19,18.4s5.8,15.3,8,16.6c2.2,1.3-11.8,17.6-11.8,17.6
							s15.1,5.9,22.2,3.7c7.1-2.1,22.7,27.7,26.7,30.9c4,3.2-8.4,15.4-5.8,17c2.7,1.6,22.7,11.2,22.7,11.2L477.9,203.4z"/>
					</g>
					<g>
						<path class="st3" d="M588.5,78.6c-0.5,0-4.5,9.3-4.5,9.3l9.8-5c0,0-5.5,2.7-5.5-0.4S588.5,78.6,588.5,78.6z"/>
						<path class="st3" d="M574.4,103.8c0,0,10,11,10,12s-19.5,8-23.8,10.7s5.3-9.6,5.3-9.6s10.3-1.1,10.3-2.7
							S574.4,103.8,574.4,103.8z"/>
						<path class="st3" d="M577.2,137.2c0,0-16.5,6.1-23,7.2s-9.5,8-13,12c-3.5,4,9.8-8.6,15.3-8.6S577.2,137.2,577.2,137.2z"/>
						<path class="st3" d="M585.7,151.4c0,0,13,9.6,13,11.2s-25.5,17.4-26.3,20.3c-0.8,2.9-1,11.2-1,11.2s-2.5-14.4-2.3-15.2
							s16-10.2,19.5-13.1S585.7,151.4,585.7,151.4z"/>
						<path class="st3" d="M536.7,169.3c0,0,8.8,12.8,8.8,15.5c0,2.7-28.3,8.6-32.5,12c-4.3,3.5,4.8-5.9,4.8-5.9s6.8-2.9,8.8-2.9
							s13.5-2.7,13.5-2.7l-14.5-5.3c0,0,11.5,0,11.8-1.1S536.7,169.3,536.7,169.3z"/>
					</g>
				</g>
			</g>
		</g>
	</g>
	<g>
		<g>
			<defs>
				<rect id="SVGID_2_" x="30.7" y="160.6" width="318" height="42.4"/>
			</defs>
			<clipPath id="SVGID_9_">
				<use xlink:href="#SVGID_2_"  style="overflow:visible;"/>
			</clipPath>
			<g class="st8">
				<polygon class="st9" points="185.3,229.4 192.8,179.3 198.4,227.2 				"/>
				<polygon class="st9" points="179.6,231.9 187.2,181.8 192.7,229.7 				"/>
				<polygon class="st9" points="174.2,230.3 181.8,180.2 187.3,228.1 				"/>
				<polygon class="st9" points="171,236.5 178.6,186.4 184.1,234.3 				"/>
				<polygon class="st9" points="190.3,233.7 197.8,183.6 203.4,231.5 				"/>
				<polygon class="st9" points="195.1,231.4 202.7,181.2 208.2,229.2 				"/>
				<polygon class="st9" points="199.6,233.9 207.2,183.7 212.7,231.7 				"/>
				<polygon class="st9" points="203.7,239.4 211.3,189.3 216.8,237.2 				"/>
				<polygon class="st9" points="206.7,238.3 214.3,188.1 219.8,236.1 				"/>
				<polygon class="st9" points="182.7,235.8 190.3,185.6 195.8,233.6 				"/>
				<polygon class="st9" points="208,240.8 217.6,191.1 221.2,239.2 				"/>
				<polygon class="st9" points="212.9,232.9 222.5,183.2 226.1,231.3 				"/>
				<polygon class="st9" points="215.8,240.3 225.3,190.5 229,238.7 				"/>
				<polygon class="st9" points="221.3,234.8 230.8,185.1 234.5,233.2 				"/>
				<polygon class="st9" points="224.5,231.1 234.1,181.3 237.7,229.4 				"/>
				<polygon class="st9" points="219.3,232.3 228.8,182.5 232.5,230.6 				"/>
				<polygon class="st9" points="226.5,235.3 236.1,185.6 239.7,233.7 				"/>
				<polygon class="st9" points="229.5,235.3 239.1,185.6 242.7,233.7 				"/>
				<polygon class="st9" points="231.9,237.9 241.5,188.1 245.1,236.2 				"/>
				<polygon class="st9" points="234.2,235.7 243.7,186 247.3,234.1 				"/>
				<polygon class="st9" points="235.5,238.9 245.1,189.2 248.7,237.3 				"/>
				<polygon class="st9" points="237.9,233.1 247.4,183.3 251,231.4 				"/>
				<polygon class="st9" points="253.8,231.3 263.3,181.6 267,229.7 				"/>
				<polygon class="st9" points="255.8,234.9 265.3,185.1 269,233.3 				"/>
				<polygon class="st9" points="257.5,236.8 267.1,187 270.7,235.1 				"/>
				<polygon class="st9" points="259,235.3 268.6,185.5 272.2,233.7 				"/>
				<polygon class="st9" points="260.9,233.1 270.5,183.4 274.1,231.5 				"/>
				<polygon class="st9" points="262.4,237.1 272,187.4 275.6,235.5 				"/>
				<polygon class="st9" points="264.3,236.4 273.9,186.7 277.5,234.8 				"/>
				<polygon class="st9" points="277.1,237.9 286.6,188.1 290.2,236.2 				"/>
				<polygon class="st9" points="280.1,240.5 289.6,190.8 293.2,238.9 				"/>
				<polygon class="st9" points="282.2,240.6 291.7,190.9 295.3,239 				"/>
				<polygon class="st9" points="274.9,241.7 284.5,192 288.1,240.1 				"/>
				<polygon class="st9" points="284.5,241.6 294,191.9 297.7,240 				"/>
				<polygon class="st9" points="286.2,243.1 295.8,193.3 299.4,241.5 				"/>
				<polygon class="st9" points="288.2,245.7 297.8,196 301.4,244.1 				"/>
				<polygon class="st9" points="290,244.1 299.5,194.4 303.2,242.5 				"/>
				<polygon class="st9" points="291.9,243.7 301.4,194 305,242.1 				"/>
				<polygon class="st9" points="293.7,245.6 303.3,195.9 306.9,244 				"/>
				<polygon class="st9" points="295.4,244.8 304.9,195.1 308.5,243.2 				"/>
				<polygon class="st9" points="296.7,245.2 306.3,195.5 309.9,243.6 				"/>
				<polygon class="st9" points="298.9,244.5 308.5,194.8 312.1,242.9 				"/>
				<polygon class="st9" points="304.6,245.2 314.1,195.5 317.7,243.6 				"/>
				<polygon class="st9" points="300.5,246.6 310,196.8 313.7,244.9 				"/>
				<polygon class="st9" points="302.2,244.9 311.8,195.1 315.4,243.2 				"/>
				<polygon class="st9" points="303.2,247.3 312.8,197.5 316.4,245.6 				"/>
				<polygon class="st9" points="306.3,243.2 315.9,193.4 319.5,241.5 				"/>
				<polygon class="st9" points="307.4,244.5 317,194.8 320.6,242.9 				"/>
				<polygon class="st9" points="308.8,244.1 318.4,194.4 322,242.5 				"/>
				<polygon class="st9" points="310.5,245.6 320,195.8 323.7,244 				"/>
				<polygon class="st9" points="315.8,246.2 325.4,196.4 329,244.6 				"/>
				<polygon class="st9" points="317.5,246.4 327.1,196.7 330.7,244.8 				"/>
				<polygon class="st9" points="319.4,244.2 329,194.4 332.6,242.6 				"/>
				<polygon class="st9" points="320.7,247.1 330.2,197.4 333.9,245.5 				"/>
				<polygon class="st9" points="322,248.4 331.6,198.6 335.2,246.7 				"/>
				<polygon class="st9" points="324.8,248.3 334.3,198.5 337.9,246.6 				"/>
				<polygon class="st9" points="324.3,232.3 333.2,197.3 337.4,231.3 				"/>
				<polygon class="st9" points="327.1,232.2 336.1,197.1 340.3,231.2 				"/>
				<polygon class="st9" points="328.9,233.8 337.9,198.7 342,232.8 				"/>
				<polygon class="st9" points="313.3,229.8 322.2,196.4 326.4,228.9 				"/>
				<polygon class="st9" points="314.7,230.7 323.7,197.2 327.9,229.8 				"/>
				<polygon class="st9" points="271.4,246.8 281,197.1 284.6,245.2 				"/>
				<polygon class="st9" points="266.7,239.3 276.2,189.6 279.8,237.7 				"/>
				<polygon class="st9" points="269.2,244.7 278.8,194.9 282.4,243.1 				"/>
				<polygon class="st9" points="273.1,243.4 282.6,193.7 286.2,241.8 				"/>
				<polygon class="st9" points="270.4,243.4 280,193.7 283.6,241.8 				"/>
				<polygon class="st9" points="251,235.4 260.6,185.7 264.2,233.8 				"/>
				<polygon class="st9" points="248.8,235.4 258.3,185.7 262,233.8 				"/>
				<polygon class="st9" points="246.8,236.4 256.3,186.6 260,234.7 				"/>
				<polygon class="st9" points="243.8,239.4 253.3,189.6 257,237.8 				"/>
				<polygon class="st9" points="241.4,239.2 251,189.5 254.6,237.6 				"/>
				<polygon class="st9" points="167.8,230.7 175.4,180.6 180.9,228.5 				"/>
				<polygon class="st9" points="167.5,227.9 175.1,177.8 180.6,225.7 				"/>
				<polygon class="st9" points="187.7,231.6 195.3,181.5 200.8,229.4 				"/>
				<polygon class="st9" points="138.3,230.7 145.9,180.6 151.4,228.5 				"/>
				<polygon class="st9" points="133.1,235.8 140.7,185.7 146.2,233.6 				"/>
				<polygon class="st9" points="27.1,226.1 34.7,189.9 40.2,224.5 				"/>
				<polygon class="st9" points="23.6,226.6 31.2,190.4 36.7,225 				"/>
				<polygon class="st9" points="32.8,222.3 40.4,186.1 45.9,220.7 				"/>
				<polygon class="st9" points="30.8,222.6 38.4,186.3 43.9,221 				"/>
				<polygon class="st9" points="37.3,224.2 44.9,188 50.4,222.6 				"/>
				<polygon class="st9" points="41.1,227.3 48.7,191.1 54.2,225.7 				"/>
			</g>
		</g>
		<g>
			<defs>
				<rect id="SVGID_1_" x="558.7" y="160.6" width="222" height="42"/>
			</defs>
			<clipPath id="SVGID_10_">
				<use xlink:href="#SVGID_1_"  style="overflow:visible;"/>
			</clipPath>
			<g class="st10">
				<polygon class="st9" points="598,231.2 607.6,181.4 611.2,229.6 				"/>
				<polygon class="st9" points="601,236.9 610.6,187.1 614.2,235.3 				"/>
				<polygon class="st9" points="606.7,231.9 616.3,182.2 619.9,230.3 				"/>
				<polygon class="st9" points="611.4,232.3 620.9,182.5 624.5,230.6 				"/>
				<polygon class="st9" points="615.4,230.1 624.9,180.4 628.5,228.5 				"/>
				<polygon class="st9" points="619.4,231.9 628.9,182.2 632.5,230.3 				"/>
				<polygon class="st9" points="622,236.9 631.6,187.1 635.2,235.3 				"/>
				<polygon class="st9" points="625.4,234.4 634.9,184.7 638.5,232.8 				"/>
				<polygon class="st9" points="628,236.1 637.5,186.4 641.2,234.5 				"/>
				<polygon class="st9" points="631.5,235.1 641,185.3 644.7,233.4 				"/>
				<polygon class="st9" points="636.6,233.3 646.2,183.5 649.8,231.7 				"/>
				<polygon class="st9" points="645.9,229.7 655.5,180 659.1,228.1 				"/>
				<polygon class="st9" points="648.8,232.9 658.3,183.2 662,231.3 				"/>
				<polygon class="st9" points="651.8,238.1 661.3,188.3 665,236.5 				"/>
				<polygon class="st9" points="655.4,234.7 665,185 668.6,233.1 				"/>
				<polygon class="st9" points="658.6,236.7 668.2,186.9 671.8,235 				"/>
				<polygon class="st9" points="662.3,232.7 671.8,183 675.5,231.1 				"/>
				<polygon class="st9" points="664.9,235.2 674.5,185.5 678.1,233.6 				"/>
				<polygon class="st9" points="668.6,236 678.2,186.2 681.8,234.3 				"/>
				<polygon class="st9" points="671.6,240.2 681.2,190.5 684.8,238.6 				"/>
				<polygon class="st9" points="674.9,235.1 684.5,185.3 688.1,233.4 				"/>
				<polygon class="st9" points="678.3,236.8 687.8,187 691.5,235.1 				"/>
				<polygon class="st9" points="680,238.6 689.6,188.9 693.2,237 				"/>
				<polygon class="st9" points="681.7,237.5 691.3,187.7 694.9,235.8 				"/>
				<polygon class="st9" points="683.5,240.8 693.1,191 696.7,239.1 				"/>
				<polygon class="st9" points="685.4,239.7 695,189.9 698.6,238.1 				"/>
				<polygon class="st9" points="690.2,236.8 699.8,187 703.4,235.1 				"/>
				<polygon class="st9" points="692.7,240.2 702.3,190.5 705.9,238.6 				"/>
				<polygon class="st9" points="694.6,239.4 704.1,189.7 707.7,237.8 				"/>
				<polygon class="st9" points="696.6,241.6 706.1,191.8 709.7,239.9 				"/>
				<polygon class="st9" points="699.1,238.9 708.6,189.1 712.2,237.3 				"/>
				<polygon class="st9" points="708.8,241.3 718.4,191.6 722,239.7 				"/>
				<polygon class="st9" points="711.4,239.6 721,189.8 724.6,237.9 				"/>
				<polygon class="st9" points="713.8,243.2 723.4,193.4 727,241.5 				"/>
				<polygon class="st9" points="715.2,241.6 724.8,191.8 728.4,239.9 				"/>
				<polygon class="st9" points="720.2,241.8 729.8,192.1 733.4,240.2 				"/>
				<polygon class="st9" points="721.6,244.4 731.1,194.6 734.7,242.8 				"/>
				<polygon class="st9" points="724.3,238.4 733.9,188.6 737.5,236.7 				"/>
				<polygon class="st9" points="725.3,242.6 734.9,192.9 738.5,241 				"/>
				<polygon class="st9" points="728.7,242.6 738.3,192.9 741.9,241 				"/>
				<polygon class="st9" points="731,240 740.6,190.2 744.2,238.3 				"/>
				<polygon class="st9" points="737.2,240.5 746.7,190.8 750.3,238.9 				"/>
				<polygon class="st9" points="739.3,244.8 748.8,195 752.5,243.2 				"/>
				<polygon class="st9" points="741.3,244.2 750.8,194.5 754.5,242.6 				"/>
				<polygon class="st9" points="743,241.2 752.6,191.4 756.2,239.5 				"/>
				<polygon class="st9" points="744.7,244.2 754.2,194.5 757.8,242.6 				"/>
				<polygon class="st9" points="746,244.8 755.6,195 759.2,243.2 				"/>
				<polygon class="st9" points="747.8,243.4 757.4,193.7 761,241.8 				"/>
				<polygon class="st9" points="749.2,242.6 758.7,192.9 762.3,241 				"/>
				<polygon class="st9" points="750.4,243.1 760,193.4 763.6,241.5 				"/>
				<polygon class="st9" points="751.8,243.9 761.4,194.2 765,242.3 				"/>
				<polygon class="st9" points="753.2,245.9 762.8,196.2 766.4,244.3 				"/>
				<polygon class="st9" points="754.8,245.5 764.4,195.7 768,243.8 				"/>
				<polygon class="st9" points="756.6,245.3 766.2,195.5 769.8,243.7 				"/>
				<polygon class="st9" points="757.7,247.3 767.3,197.6 770.9,245.7 				"/>
				<polygon class="st9" points="759.2,243.6 768.8,193.8 772.4,242 				"/>
				<polygon class="st9" points="760.3,245.5 769.9,195.7 773.5,243.8 				"/>
				<polygon class="st9" points="761.2,245.4 770.8,195.6 774.4,243.8 				"/>
				<polygon class="st9" points="762.7,245.8 772.3,196.1 775.9,244.2 				"/>
				<polygon class="st9" points="767.2,245.1 776.8,195.4 780.4,243.5 				"/>
				<polygon class="st9" points="768.5,247.6 778,197.8 781.6,245.9 				"/>
				<polygon class="st9" points="769.8,246.1 779.4,196.3 783,244.5 				"/>
				<polygon class="st9" points="770.8,248 780.4,198.2 784,246.3 				"/>
				<polygon class="st9" points="727.1,244.6 736.6,194.9 740.2,243 				"/>
				<polygon class="st9" points="593.4,238 602.9,188.2 606.5,236.3 				"/>
				<polygon class="st9" points="590.2,240.9 599.8,191.2 603.4,239.3 				"/>
				<polygon class="st9" points="587.6,244.1 597.1,194.4 600.7,242.5 				"/>
				<polygon class="st9" points="585.4,244.6 595,194.9 598.6,243 				"/>
				<polygon class="st9" points="585.3,245.8 592.9,195.6 598.4,243.5 				"/>
				<polygon class="st9" points="583.6,246.2 591.1,196 596.7,243.9 				"/>
				<polygon class="st9" points="581.9,243.7 589.4,193.5 595,241.4 				"/>
				<polygon class="st9" points="579.9,244.6 587.4,194.4 593,242.3 				"/>
				<polygon class="st9" points="577.9,246 585.4,195.8 591,243.8 				"/>
				<polygon class="st9" points="576.1,246.1 583.6,196 589.2,243.9 				"/>
				<polygon class="st9" points="574.4,246.8 581.9,196.6 587.5,244.6 				"/>
			</g>
		</g>
	</g>
</g>
</svg>
