<!-- Generator: Adobe Illustrator 23.0.1, SVG Export Plug-In  -->
<svg version="1.1" xmlns="http://www.w3.org/2000/svg" xmlns:xlink="http://www.w3.org/1999/xlink" x="0px" y="0px" width="357px"
	 height="175.2px" viewBox="0 0 357 175.2" style="enable-background:new 0 0 357 175.2;" xml:space="preserve">
<style type="text/css">
	.st0{clip-path:url(#SVGID_2_);}
	.st1{fill:#4D111D;}
	.st2{clip-path:url(#SVGID_3_);}
</style>
<defs>
</defs>
<g>
	<defs>
		<rect id="SVGID_1_" width="316.7" height="104.3"/>
	</defs>
	<clipPath id="SVGID_2_">
		<use xlink:href="#SVGID_1_"  style="overflow:visible;"/>
	</clipPath>
	<g class="st0">
		<path class="st1" d="M281.7,64.5c-1.7-3.4-8.6,3.8-11,6.5c0.6-4.8,0.8-10.1,0.5-15.4c2.9-1.7,11.1-6.8,8.6-9.6
			c-2.3-2.7-6.8,4.9-8.7,8.5c-0.4-4.1-1.1-8.2-2.4-12c1.8-1.7,9.8-9.6,6.4-11.9c-3.2-2.2-5.9,8.4-6.6,11.4c-0.2-0.6-0.4-1.2-0.7-1.7
			c-1-2.4-1.8-4.4-2.4-5.8c0.1,0.1,0.1,0.1,0.1,0.1s-0.3-14.2-4.7-13.2c-3.8,0.9,2.3,9.9,4.2,12.5c0.7,2.1,1.7,5,2.5,7.8
			c-2.6-2.3-9.9-8.1-11.8-4.9c-2,3.4,9,5.3,12,5.7c0.4,1.6,0.8,3.1,1,4.5c0.3,2.1,0.5,4.6,0.6,7.5c-2.7-2.4-9.8-8-11.6-4.8
			c-1.9,3.3,8.3,5.1,11.6,5.6c0.1,4.5,0,9.8-0.4,15.3c-2.6-2.2-9.9-8.2-11.8-5c-2,3.3,8.5,5.2,11.8,5.7c-0.5,6.8-1.3,13.9-2.5,20
			c0,0,2.8-8.5,4.2-19.6C273.4,70.9,283.4,68,281.7,64.5z"/>
		<path class="st1" d="M169.5,93.5c2.6-3.3,8.5,6.2,10.5,9.7c0.5-5.4,1.5-11.3,3.1-17c-2.8-2.5-10.5-10-7.2-12.6
			c3.2-2.4,6.3,7,7.5,11.3c1.4-4.4,3.2-8.7,5.5-12.5c-1.5-2.3-8.4-12.8-4.2-14.6c4-1.7,4.5,10.6,4.5,14.1c0.4-0.6,0.8-1.2,1.2-1.8
			c1.7-2.4,3-4.3,4-5.8c-0.1,0.1-0.1,0.1-0.1,0.1s3.7-15.6,8.3-13.3c3.9,1.9-4.9,10.3-7.5,12.7c-1.3,2.1-3,5.1-4.6,8
			c3.4-1.9,12.8-6.6,14.1-2.6c1.4,4.2-11.1,3.6-14.5,3.4c-0.8,1.6-1.6,3.3-2.2,4.7c-0.8,2.2-1.7,4.9-2.5,8
			c3.6-1.9,12.6-6.4,13.9-2.5c1.3,4.1-10.3,3.7-14.1,3.4c-1.2,5-2.3,10.8-3.2,16.9c3.4-1.9,12.8-6.6,14.1-2.7
			c1.4,4.1-10.5,3.7-14.2,3.4c-1.1,7.6-1.8,15.5-2.1,22.5c0,0-1.1-10,0.1-22.5C177,102.6,166.8,97,169.5,93.5z"/>
		<g>
			<path class="st1" d="M269.6,116.1c0,0,4.5-35-6-46c0,0,6,29.5,1,43S269.6,116.1,269.6,116.1z"/>
			<path class="st1" d="M255.6,121.1c0,0,4.5-35-6-46c0,0,6,29.5,1,43S255.6,121.1,255.6,121.1z"/>
			<path class="st1" d="M286.4,112.7c0,0,4.5-35-6-46c0,0,6,29.5,1,43S286.4,112.7,286.4,112.7z"/>
			<path class="st1" d="M292.8,113.5c0,0,4.5-35-6-46c0,0,6,29.5,1,43S292.8,113.5,292.8,113.5z"/>
			<path class="st1" d="M260.7,75.4c0,0,1.3,33.4,11.5,51.8s10.2,18.4,10.2,18.4s-9.7,7.6-12.9,0.9S251.9,85.5,260.7,75.4z"/>
			<path class="st1" d="M335.3,48.7c0,0-7,32.7-1.7,53C339,122,339,122,339,122s-11.3,5-12.7-2.3C325,112.4,324.3,56.4,335.3,48.7z"
				/>
			<path class="st1" d="M351,51.2c0,0-2.7,32.7,2.7,53c3.1,11.6,0.5,15.3,0.5,15.3s-4.3,10.5-6.3,3.3C346,115.5,340.6,59.7,351,51.2
				z"/>
			<path class="st1" d="M237.6,85c0,0,6.2,32.8,19,49.5c12.8,16.7,12.8,16.7,12.8,16.7s-24.9,14.2-29,8
				C236.3,153,230.4,96.4,237.6,85z"/>
			<path class="st1" d="M312.7,55.6c0,0,6.2,32.8,19,49.5s12.8,16.7,12.8,16.7s-24.9,14.2-29,8S305.5,66.9,312.7,55.6z"/>
			<path class="st1" d="M297.6,65c0,0,6.2,32.8,19,49.5s12.8,16.7,12.8,16.7s-24.9,14.2-29,8S290.4,76.4,297.6,65z"/>
			<path class="st1" d="M272,53.5c0,0,9.8,48.3,10,60.3c0.2,12-5.9,6-7.1,0.7C273.7,109.2,272,57.5,272,53.5z"/>
			<path class="st1" d="M350.6,41c0,0,7,45.2,6.4,57.2c-0.6,12-6.9,9.3-7.7,3.9C348.4,96.7,350.4,45,350.6,41z"/>
			<path class="st1" d="M341.6,38c0,0,6.3,48.9,5.7,60.9c-0.6,12-6.3,5.6-7.1,0.2C339.4,93.7,341.4,42,341.6,38z"/>
			<path class="st1" d="M337.8,42.7c0,0,6.3,48.9,5.7,60.9c-0.6,12-6.3,5.6-7.1,0.2C335.6,98.3,337.5,46.7,337.8,42.7z"/>
			<path class="st1" d="M335,52.2c0,0,6.3,48.9,5.7,60.9c-0.6,12-6.3,5.6-7.1,0.2C332.7,107.8,334.7,56.2,335,52.2z"/>
			<path class="st1" d="M332.1,46.5c0,0,6.3,48.9,5.7,60.9c-0.6,12-6.3,5.6-7.1,0.2C329.9,102.2,331.9,50.5,332.1,46.5z"/>
			<path class="st1" d="M307.6,53.5c0,0,6.3,48.9,5.7,60.9c-0.6,12-6.3,5.6-7.1,0.2C305.4,109.2,307.4,57.5,307.6,53.5z"/>
			<path class="st1" d="M326.3,48.8c0,0,6.3,48.9,5.7,60.9c-0.6,12-6.3,5.6-7.1,0.2C324.1,104.5,326,52.8,326.3,48.8z"/>
			<path class="st1" d="M324.3,56c0,0,6.3,48.9,5.7,60.9c-0.6,12-6.3,5.6-7.1,0.2C322.1,111.7,324,60,324.3,56z"/>
			<path class="st1" d="M316.1,60.2c0,0,6.3,48.9,5.7,60.9c-0.6,12-6.3,5.6-7.1,0.2C313.9,115.8,315.9,64.2,316.1,60.2z"/>
			<path class="st1" d="M345,49c0,0,6.3,48.9,5.7,60.9c-0.6,12-6.3,5.6-7.1,0.2C342.8,104.7,344.7,53,345,49z"/>
			<path class="st1" d="M320.5,48.2c0,0,9.8,48.3,10,60.3c0.2,12-5.9,6-7.1,0.7C322.2,103.9,320.5,52.2,320.5,48.2z"/>
			<path class="st1" d="M269,66.7c0,0,9.8,48.3,10,60.3c0.2,12-5.9,6-7.1,0.7C270.7,122.4,269,70.7,269,66.7z"/>
			<path class="st1" d="M279.5,65.6c0,0,9.8,48.3,10,60.3s-5.9,6-7.1,0.7C281.2,121.2,279.5,69.6,279.5,65.6z"/>
			<path class="st1" d="M276.2,59.1c0,0,9.8,48.3,10,60.3c0.2,12-5.9,6-7.1,0.7C277.9,114.7,276.2,63.1,276.2,59.1z"/>
			<path class="st1" d="M283.4,59.7c0,0,12.8,47.6,13.8,59.6c1,12-5.5,6.4-7,1.1C288.6,115.2,283.7,63.7,283.4,59.7z"/>
			<path class="st1" d="M298,53.7c0,0,9.8,48.3,10,60.3c0.2,12-5.9,6-7.1,0.7C299.7,109.4,298,57.7,298,53.7z"/>
			<path class="st1" d="M305.3,55.1c0,0,4.6,49.1,3.6,61s-6.5,5.4-7.1-0.1C301.2,110.7,304.9,59.1,305.3,55.1z"/>
			<path class="st1" d="M299.9,56.3c0,0,15.1,46.9,16.7,58.8c1.6,11.9-7,7.1-8.8,1.9C306,111.8,300.3,60.2,299.9,56.3z"/>
			<path class="st1" d="M292.5,58.5c0,0,9.8,48.3,10,60.3c0.2,12-5.9,6-7.1,0.7C294.2,114.2,292.5,62.5,292.5,58.5z"/>
			<path class="st1" d="M290.7,64.4c0,0,9.8,48.3,10,60.3s-5.9,6-7.1,0.7C292.4,120,290.7,68.4,290.7,64.4z"/>
			<path class="st1" d="M247.6,76.2c0,0,13,47.6,14.1,59.5c1.1,12-5.4,6.4-7,1.1C253.1,131.6,247.9,80.2,247.6,76.2z"/>
			<path class="st1" d="M246,80.3c0,0,13,47.6,14.1,59.5c1.1,12-5.4,6.4-7,1.1C251.4,135.7,246.2,84.3,246,80.3z"/>
			<path class="st1" d="M254.4,68.5c0,0,9.8,48.3,10,60.3c0.2,12-5.9,6-7.1,0.7C256.1,124.2,254.4,72.5,254.4,68.5z"/>
			<path class="st1" d="M261,60.9c0,0,9.8,48.3,10,60.3c0.2,12-5.9,6-7.1,0.7C262.7,116.5,261,64.9,261,60.9z"/>
			<path class="st1" d="M254.2,111.4c0,0,9.3-34,0.4-46.4c0,0,1.9,30-5,42.7C242.8,120.4,254.2,111.4,254.2,111.4z"/>
			<path class="st1" d="M217,117.3c0,0,9.3-34,0.4-46.4c0,0,1.9,30-5,42.7S217,117.3,217,117.3z"/>
			<path class="st1" d="M163.4,134.3c0,0,9.3-34,0.4-46.4c0,0,1.9,30-5,42.7S163.4,134.3,163.4,134.3z"/>
			<path class="st1" d="M148.8,137.3c0,0,9.3-34,0.4-46.4c0,0,1.9,30-5,42.7S148.8,137.3,148.8,137.3z"/>
			<path class="st1" d="M180.5,133.3c0,0,9.3-34,0.4-46.4c0,0,1.9,30-5,42.7C169.1,142.3,180.5,133.3,180.5,133.3z"/>
			<path class="st1" d="M186.6,135c0,0,9.3-34,0.4-46.4c0,0,1.9,30-5,42.7C175.3,144,186.6,135,186.6,135z"/>
			<path class="st1" d="M160.1,92.7c0,0-3.3,33.2,4.2,52.9c7.6,19.6,7.6,19.6,7.6,19.6s-10.7,6.2-12.8-0.9S150,101.6,160.1,92.7z"/>
			<path class="st1" d="M237.8,76.6c0,0-11.4,31.4-9,52.3c2.5,20.9,2.5,20.9,2.5,20.9s-11.9,3.4-12.2-4.1
				C218.7,138.3,225.8,82.7,237.8,76.6z"/>
			<path class="st1" d="M252.9,81.2c0,0-7.2,32-4.6,52.8c1.5,11.9-1.6,15.2-1.6,15.2s-5.7,9.8-6.7,2.4
				C239,144.2,241.5,88.3,252.9,81.2z"/>
			<path class="st1" d="M135.9,99.1c0,0,1.6,33.4,11.9,51.7s10.4,18.3,10.4,18.3s-26.6,10.6-29.8,3.9
				C125.2,166.2,127.2,109.3,135.9,99.1z"/>
			<path class="st1" d="M214.4,80.4c0,0,1.6,33.4,11.9,51.7c10.4,18.3,10.4,18.3,10.4,18.3s-26.6,10.6-29.8,3.9
				C203.7,147.5,205.7,90.6,214.4,80.4z"/>
			<path class="st1" d="M198.1,87.6c0,0,1.6,33.4,11.9,51.7c10.4,18.3,10.4,18.3,10.4,18.3s-26.6,10.6-29.8,3.9
				C187.4,154.7,189.4,97.8,198.1,87.6z"/>
			<path class="st1" d="M174.4,72.7c0,0,3,49.2,1.6,61.1s-6.6,5.1-7.1-0.3C168.4,128,173.8,76.6,174.4,72.7z"/>
			<path class="st1" d="M254,71.1c0,0,0.7,45.7-1.6,57.5c-2.3,11.8-8.1,8.2-8.2,2.8C244.1,126,253.1,75.1,254,71.1z"/>
			<path class="st1" d="M245.5,66.9c0,0-0.5,49.3-2.7,61.1c-2.3,11.8-7,4.7-7.1-0.8S244.6,70.8,245.5,66.9z"/>
			<path class="st1" d="M241.1,71c0,0-0.5,49.3-2.7,61.1c-2.3,11.8-7,4.7-7.1-0.8C231.2,125.8,240.2,74.9,241.1,71z"/>
			<path class="st1" d="M236.9,80c0,0-0.5,49.3-2.7,61.1c-2.3,11.8-7,4.7-7.1-0.8C227,134.8,236.1,83.9,236.9,80z"/>
			<path class="st1" d="M234.9,74c0,0-0.5,49.3-2.7,61.1c-2.3,11.8-7,4.7-7.1-0.8S234.1,77.9,234.9,74z"/>
			<path class="st1" d="M209.7,77.6c0,0-0.5,49.3-2.7,61.1c-2.3,11.8-7,4.7-7.1-0.8C199.8,132.4,208.8,81.5,209.7,77.6z"/>
			<path class="st1" d="M228.8,75.5c0,0-0.5,49.3-2.7,61.1c-2.3,11.8-7,4.7-7.1-0.8S228,79.5,228.8,75.5z"/>
			<path class="st1" d="M225.8,82.4c0,0-0.5,49.3-2.7,61.1c-2.3,11.8-7,4.7-7.1-0.8C215.9,137.2,225,86.3,225.8,82.4z"/>
			<path class="st1" d="M217.2,85.4c0,0-0.5,49.3-2.7,61.1c-2.3,11.8-7,4.7-7.1-0.8S216.3,89.3,217.2,85.4z"/>
			<path class="st1" d="M247.3,78.3c0,0-0.5,49.3-2.7,61.1c-2.3,11.8-7,4.7-7.1-0.8C237.4,133.1,246.4,82.2,247.3,78.3z"/>
			<path class="st1" d="M223.1,74.1c0,0,3,49.2,1.6,61.1s-6.6,5.1-7.1-0.3C217.1,129.5,222.6,78.1,223.1,74.1z"/>
			<path class="st1" d="M169.6,85.3c0,0,3,49.2,1.6,61.1s-6.6,5.1-7.1-0.3C163.6,140.7,169,89.3,169.6,85.3z"/>
			<path class="st1" d="M180.1,85.6c0,0,3,49.2,1.6,61.1c-1.4,11.9-6.6,5.1-7.1-0.3C174.1,141,179.6,89.6,180.1,85.6z"/>
			<path class="st1" d="M177.7,78.7c0,0,3,49.2,1.6,61.1s-6.6,5.1-7.1-0.3C171.7,134.1,177.2,82.7,177.7,78.7z"/>
			<path class="st1" d="M184.8,80.4c0,0,6.1,48.9,5.4,60.9c-0.7,12-6.3,5.5-7.1,0.1C182.3,136,184.5,84.4,184.8,80.4z"/>
			<path class="st1" d="M200.1,76.4c0,0,3,49.2,1.6,61.1s-6.6,5.1-7.1-0.3C194.1,131.8,199.5,80.4,200.1,76.4z"/>
			<path class="st1" d="M207.1,78.8c0,0-2.2,49.3-4.9,61c-2.7,11.7-7.1,4.4-7-1.1S206.2,82.7,207.1,78.8z"/>
			<path class="st1" d="M201.6,79.2c0,0,8.5,48.6,8.4,60.6s-7.9,6-9,0.7S201.5,83.2,201.6,79.2z"/>
			<path class="st1" d="M194,80.5c0,0,3,49.2,1.6,61.1s-6.6,5.1-7.1-0.3C188,135.8,193.4,84.4,194,80.5z"/>
			<path class="st1" d="M191.4,86c0,0,3,49.2,1.6,61.1c-1.4,11.9-6.6,5.1-7.1-0.3C185.3,141.4,190.8,89.9,191.4,86z"/>
			<path class="st1" d="M147.1,91.7c0,0,6.3,48.9,5.7,60.9c-0.6,12-6.3,5.6-7.1,0.2S146.8,95.7,147.1,91.7z"/>
			<path class="st1" d="M144.9,95.6c0,0,6.3,48.9,5.7,60.9c-0.6,12-6.3,5.6-7.1,0.2S144.6,99.6,144.9,95.6z"/>
			<path class="st1" d="M154.8,85.1c0,0,3,49.2,1.6,61.1s-6.6,5.1-7.1-0.3C148.8,140.5,154.3,89.1,154.8,85.1z"/>
			<path class="st1" d="M162.5,78.4c0,0,3,49.2,1.6,61.1s-6.6,5.1-7.1-0.3C156.4,133.8,161.9,82.4,162.5,78.4z"/>
			<path class="st1" d="M154.7,89.2c0,0-2.4,33.3,5.7,52.7c8.1,19.4,8.1,19.4,8.1,19.4s-10.5,6.5-12.9-0.5S144.9,98.3,154.7,89.2z"
				/>
			<path class="st1" d="M130.7,96.3c0,0,2.5,33.3,13.4,51.3s10.9,18,10.9,18s-26.3,11.4-29.7,4.7S122.3,106.7,130.7,96.3z"/>
			<path class="st1" d="M192.5,83c0,0,2.5,33.3,13.4,51.3s10.9,18,10.9,18s-26.3,11.4-29.7,4.7C183.7,150.4,184.1,93.5,192.5,83z"/>
			<path class="st1" d="M163.9,81.5c0,0,4.4,49.1,3.3,61.1c-1.1,12-6.5,5.3-7.1-0.1C159.5,137,163.5,85.5,163.9,81.5z"/>
			<path class="st1" d="M174.5,81.6c0,0,4.4,49.1,3.3,61.1c-1.1,12-6.5,5.3-7.1-0.1C170,137.1,174,85.5,174.5,81.6z"/>
			<path class="st1" d="M185.7,81.6c0,0,4.4,49.1,3.3,61.1c-1.1,12-6.5,5.3-7.1-0.1S185.3,85.6,185.7,81.6z"/>
			<path class="st1" d="M141.6,88.6c0,0,7.7,48.7,7.4,60.7c-0.3,12-6.1,5.7-7.1,0.4C141,144.3,141.5,92.6,141.6,88.6z"/>
			<path class="st1" d="M139.5,92.5c0,0,7.7,48.7,7.4,60.7c-0.3,12-6.1,5.7-7.1,0.4C138.9,148.2,139.4,96.5,139.5,92.5z"/>
			<path class="st1" d="M149.2,81.7c0,0,4.4,49.1,3.3,61.1c-1.1,12-6.5,5.3-7.1-0.1C144.8,137.2,148.8,85.7,149.2,81.7z"/>
			<path class="st1" d="M51.5,137.1c0,0,13-32.8,5.5-46.1c0,0-1.5,30.1-9.6,41.9S51.5,137.1,51.5,137.1z"/>
			<path class="st1" d="M36.7,138.5c0,0,13-32.8,5.5-46.1c0,0-1.5,30.1-9.6,41.9S36.7,138.5,36.7,138.5z"/>
			<path class="st1" d="M68.6,137.9c0,0,13-32.8,5.5-46.1c0,0-1.5,30.1-9.6,41.9S68.6,137.9,68.6,137.9z"/>
			<path class="st1" d="M74.5,140.3c0,0,13-32.8,5.5-46.1c0,0-1.5,30.1-9.6,41.9S74.5,140.3,74.5,140.3z"/>
			<path class="st1" d="M52.8,95.4c0,0-7,32.7-1.6,53s5.4,20.3,5.4,20.3s-11.3,5-12.7-2.3S41.9,103.1,52.8,95.4z"/>
			<path class="st1" d="M131.8,88c0,0-14.8,29.9-14.7,51s0.2,21,0.2,21s-12.2,2.1-11.7-5.4S119.2,92.7,131.8,88z"/>
			<path class="st1" d="M146.3,94.2c0,0-10.7,31-10.4,52c0.2,12-3.3,14.9-3.3,14.9s-6.8,9.1-6.9,1.6
				C125.6,155.3,134.2,99.9,146.3,94.2z"/>
			<path class="st1" d="M33.5,99.6c0,0-2.1,33.3,6.2,52.7s8.3,19.3,8.3,19.3s-27.6,7.6-30,0.6C15.6,165.1,23.8,108.8,33.5,99.6z"/>
			<path class="st1" d="M108.1,89.1c0,0-2.1,33.3,6.2,52.7s8.3,19.3,8.3,19.3s-27.6,7.6-30,0.6C90.2,154.6,98.4,98.3,108.1,89.1z"/>
			<path class="st1" d="M91.1,94.5c0,0-2.1,33.3,6.2,52.7s8.3,19.3,8.3,19.3s-27.6,7.6-30,0.6C73.2,160,81.4,103.7,91.1,94.5z"/>
			<path class="st1" d="M69.2,77c0,0-2.4,49.2-5.2,60.9c-2.7,11.7-7.2,4.4-7-1.1S68.2,80.9,69.2,77z"/>
			<path class="st1" d="M148.5,84.3c0,0-4.4,45.5-7.9,57c-3.5,11.5-9,7.3-8.5,1.8C132.6,137.7,147.2,88.1,148.5,84.3z"/>
			<path class="st1" d="M140.5,79.2c0,0-5.9,49-9.4,60.4c-3.5,11.5-7.4,3.9-6.9-1.6C124.7,132.5,139.3,83,140.5,79.2z"/>
			<path class="st1" d="M135.7,82.7c0,0-5.9,49-9.4,60.4c-3.5,11.5-7.4,3.9-6.9-1.6C119.8,136.1,134.4,86.5,135.7,82.7z"/>
			<path class="st1" d="M130.5,91.2c0,0-5.9,49-9.4,60.4s-7.4,3.9-6.9-1.6C114.7,144.6,129.3,95,130.5,91.2z"/>
			<path class="st1" d="M129.2,85.1c0,0-5.9,49-9.4,60.4s-7.4,3.9-6.9-1.6C113.4,138.4,128,88.9,129.2,85.1z"/>
			<path class="st1" d="M103.7,85.8c0,0-5.9,49-9.4,60.4s-7.4,3.9-6.9-1.6C87.9,139.2,102.5,89.6,103.7,85.8z"/>
			<path class="st1" d="M123,85.9c0,0-5.9,49-9.4,60.4s-7.4,3.9-6.9-1.6C107.1,139.3,121.7,89.7,123,85.9z"/>
			<path class="st1" d="M119.3,92.3c0,0-5.9,49-9.4,60.4s-7.4,3.9-6.9-1.6C103.4,145.7,118,96.1,119.3,92.3z"/>
			<path class="st1" d="M110.3,94.4c0,0-5.9,49-9.4,60.4s-7.4,3.9-6.9-1.6C94.5,147.7,109.1,98.2,110.3,94.4z"/>
			<path class="st1" d="M141,90.6c0,0-5.9,49-9.4,60.4c-3.5,11.5-7.4,3.9-6.9-1.6C125.2,144,139.8,94.4,141,90.6z"/>
			<path class="st1" d="M117.5,83.8c0,0-2.4,49.2-5.2,60.9c-2.7,11.7-7.2,4.4-7-1.1C105.5,138.2,116.5,87.7,117.5,83.8z"/>
			<path class="st1" d="M63.1,89.1c0,0-2.4,49.2-5.2,60.9c-2.7,11.7-7.2,4.4-7-1.1C51,143.4,62.1,92.9,63.1,89.1z"/>
			<path class="st1" d="M73.5,90.6c0,0-2.4,49.2-5.2,60.9c-2.7,11.7-7.2,4.4-7-1.1S72.5,94.4,73.5,90.6z"/>
			<path class="st1" d="M71.9,83.4c0,0-2.4,49.2-5.2,60.9c-2.7,11.7-7.2,4.4-7-1.1C59.8,137.8,70.9,87.3,71.9,83.4z"/>
			<path class="st1" d="M78.7,85.9c0,0,0.6,49.3-1.3,61.1c-2,11.8-6.9,4.8-7.1-0.7S78,89.8,78.7,85.9z"/>
			<path class="st1" d="M94.4,83.6c0,0-2.4,49.2-5.2,60.9c-2.7,11.7-7.2,4.4-7-1.1C82.3,138,93.4,87.5,94.4,83.6z"/>
			<path class="st1" d="M101.1,86.8c0,0-7.6,48.7-11.5,60.1c-3.9,11.3-7.6,3.6-6.9-1.8C83.4,139.6,99.7,90.5,101.1,86.8z"/>
			<path class="st1" d="M95.5,86.6c0,0,3.1,49.2,1.7,61.1c-1.4,11.9-8.5,5.1-9-0.3S95,90.5,95.5,86.6z"/>
			<path class="st1" d="M87.8,86.9c0,0-2.4,49.2-5.2,60.9c-2.7,11.7-7.2,4.4-7-1.1S86.9,90.8,87.8,86.9z"/>
			<path class="st1" d="M84.6,92.1c0,0-2.4,49.2-5.2,60.9c-2.7,11.7-7.2,4.4-7-1.1C72.6,146.5,83.6,96,84.6,92.1z"/>
			<path class="st1" d="M40,93c0,0,0.9,49.3-1,61.1s-6.8,4.8-7.1-0.6C31.6,148.1,39.3,96.9,40,93z"/>
			<path class="st1" d="M37.4,96.5c0,0,0.9,49.3-1,61.1s-6.8,4.8-7.1-0.6C29,151.6,36.6,100.5,37.4,96.5z"/>
			<path class="st1" d="M48.4,87.2c0,0-2.4,49.2-5.2,60.9c-2.7,11.7-7.2,4.4-7-1.1S47.4,91.1,48.4,87.2z"/>
			<path class="st1" d="M56.7,81.4c0,0-2.4,49.2-5.2,60.9c-2.7,11.7-7.2,4.4-7-1.1C44.7,135.8,55.8,85.3,56.7,81.4z"/>
		</g>
	</g>
</g>
</svg>
