<!-- Generator: Adobe Illustrator 23.0.1, SVG Export Plug-In  -->
<svg version="1.1" xmlns="http://www.w3.org/2000/svg" xmlns:xlink="http://www.w3.org/1999/xlink" x="0px" y="0px" width="594.8px"
	 height="194px" viewBox="0 0 594.8 194" style="enable-background:new 0 0 594.8 194;" xml:space="preserve">
<style type="text/css">
	.st0{fill:url(#SVGID_1_);}
	.st1{fill:url(#SVGID_2_);}
	.st2{fill:url(#SVGID_3_);}
	.st3{fill:url(#SVGID_4_);}
	.st4{fill:url(#SVGID_5_);}
	.st5{fill:url(#SVGID_6_);}
	.st6{fill:url(#SVGID_7_);}
	.st7{fill:url(#SVGID_8_);}
	.st8{fill:url(#SVGID_9_);}
	.st9{fill:url(#SVGID_10_);}
	.st10{fill:url(#SVGID_11_);}
	.st11{fill:url(#SVGID_12_);}
	.st12{fill:url(#SVGID_13_);}
	.st13{fill:url(#SVGID_14_);}
	.st14{fill:url(#SVGID_15_);}
	.st15{fill:url(#SVGID_16_);}
	.st16{fill:url(#SVGID_17_);}
	.st17{fill:url(#SVGID_18_);}
	.st18{fill:url(#SVGID_19_);}
	.st19{fill:url(#SVGID_20_);}
	.st20{fill:url(#SVGID_21_);}
	.st21{fill:url(#SVGID_22_);}
	.st22{fill:url(#SVGID_23_);}
	.st23{fill:url(#SVGID_24_);}
	.st24{fill:url(#SVGID_25_);}
	.st25{fill:url(#SVGID_26_);}
	.st26{fill:url(#SVGID_27_);}
	.st27{fill:url(#SVGID_28_);}
	.st28{fill:url(#SVGID_29_);}
	.st29{fill:url(#SVGID_30_);}
	.st30{fill:url(#SVGID_31_);}
	.st31{fill:url(#SVGID_32_);}
	.st32{fill:url(#SVGID_33_);}
	.st33{fill:url(#SVGID_34_);}
	.st34{fill:url(#SVGID_35_);}
	.st35{fill:url(#SVGID_36_);}
	.st36{fill:url(#SVGID_37_);}
	.st37{fill:url(#SVGID_38_);}
	.st38{fill:url(#SVGID_39_);}
	.st39{fill:url(#SVGID_40_);}
	.st40{fill:url(#SVGID_41_);}
	.st41{fill:url(#SVGID_42_);}
	.st42{fill:url(#SVGID_43_);}
	.st43{fill:url(#SVGID_44_);}
	.st44{fill:url(#SVGID_45_);}
	.st45{fill:url(#SVGID_46_);}
	.st46{fill:url(#SVGID_47_);}
	.st47{fill:url(#SVGID_48_);}
	.st48{fill:url(#SVGID_49_);}
	.st49{fill:url(#SVGID_50_);}
</style>
<defs>
</defs>
<g>
	<g>
		<linearGradient id="SVGID_1_" gradientUnits="userSpaceOnUse" x1="294.9981" y1="221.7814" x2="306.9975" y2="82.2884">
			<stop  offset="0" style="stop-color:#742636"/>
			<stop  offset="1" style="stop-color:#A34857"/>
		</linearGradient>
		<path class="st0" d="M14.1,194C14.1,194,14.1,194,14.1,194l1.6,0c0,0,0,0,0,0l2.5,0c0,0,0,0,0,0h5.7c0,0,0,0,0,0l1,0c0,0,0,0,0,0
			h3.3c0,0,0,0,0,0l2.5,0c0,0,0,0,0,0h4.9c0,0,0,0,0,0h0c0,0,0,0,0,0h64c0,0,0,0,0,0l0.8,0c0,0,0,0,0,0h22.5c0,0,0,0,0,0l0.6,0
			c0,0,0,0,0,0h7.3c0,0,0,0,0,0l6.1,0c0,0,0,0,0,0h6.1c0,0,0,0,0,0l1.2,0c0,0,0,0,0,0h5.5c0,0,0,0,0,0l445.2,0l0-140.2
			c0,0-0.2,0-0.7,0c0.5-11.7,0.7-21.8,0.7-21.8c-0.3,1.4-2,9.2-3.9,18.6c0.2-3.6-0.1-6.9-1.5-9.5c0,0-0.6,4.2-1.8,9.8
			c0.2-5.6-0.4-10.9-3-14.4c0,0,0.1,8.2-1.1,17.5c-0.1,0-0.2,0-0.2,0c0.3-7.9,0.4-13.7,0.4-13.7c-0.2,0.8-0.9,3.9-1.8,8.2
			c-0.2-1.8-0.7-3.5-1.4-5c0,0-0.6,4.1-1.8,9.6c0.1-3.2-0.3-6.1-1.5-8.5c0,0-0.6,4.1-1.8,9.6c0,0,0,0-0.1,0
			c0.7-8.2,1.1-14.2,1.1-14.2c-0.3,1-1.6,5.8-3.3,12.2c-0.5-8.4-1-14.7-1-14.7c-0.2,1.1-0.8,6.7-1.5,13.8c0-3.3-0.6-6.2-1.9-8.6
			c0,0-0.4,4.5-1.5,10.5c-0.2-7.4-0.4-12.7-0.4-12.7c-0.2,1.2-1.1,6.9-2.2,14.2c-0.4,0-0.7,0-1.1,0.1c0.7-5.2,0.4-10.1-1.6-13.5
			c0,0-0.4,4.1-1.4,9.7c-0.3-4.7-0.6-7.7-0.6-7.7c-0.1,1-0.7,5.7-1.3,11.9c-0.3,0-0.6,0-0.9,0.1c0.2-4-0.2-7.8-1.8-10.6
			c0,0-0.5,4.7-1.6,10.8c0,0-0.1,0-0.1,0c0.6-5.5,0.9-9.2,0.9-9.2c-0.3,0.8-1.2,4.1-2.5,8.7c-0.3-1.5-0.8-2.9-1.4-4.1
			c0,0-0.2,1.9-0.8,4.8c-0.1,0-0.1,0-0.2,0c0.8-7.6,1.3-13.1,1.3-13.1c-0.4,1.1-2.2,6.5-4.3,13.4c-0.1,0-0.3,0-0.4,0
			c1-9,1.6-16,1.6-16c-0.5,1.2-2.5,7.5-4.9,15.3c0.5-6.3,0.8-10.6,0.8-10.6c-0.4,1-1.8,5.7-3.6,11.9c-0.2,0-0.5,0-0.7,0.1
			c0.3-4.3,0.5-7.1,0.5-7.1c-0.3,0.8-1.1,3.4-2.2,7.2c-0.1,0-0.2,0-0.3,0c1.3-6.2,2.5-10.3,2.5-10.3c-2.2,1.2-4,4-5.5,7.8
			c-0.2-3.2-0.9-6-2.4-8.3c0,0-0.3,4.9-1.3,11.5c-0.4,0-0.7,0.1-1.1,0.1c1.5-5.4,2.1-10.6,0.6-14.6c0,0-1.7,6.5-4.7,14.4
			c1.2-11.8,1.9-21.6,1.9-21.6c-0.4,1.4-2.5,9.1-5,18.5c0.4-5,0.7-8.3,0.7-8.3c-0.3,0.9-1.3,4.7-2.7,9.9c0.8-8.5,1.3-14.6,1.3-14.6
			c-0.4,1.3-2.2,8-4.5,16.4c0.7-7.3,1.1-12.4,1.1-12.4c-0.3,1.1-1.8,6.2-3.6,13c-0.3-3.3-1.1-6.3-2.6-8.6c0,0-0.1,4-0.7,9.7
			c-0.1-1.9-0.5-3.6-1.2-5.1c0,0-0.5,2.3-1.3,5.8c-0.3,0-0.6,0.1-0.8,0.1c0.7-7.5,1.1-12.8,1.1-12.8c-0.3,1.1-1.8,6.3-3.6,13.2
			c-0.1,0-0.2,0-0.3,0c1.6-11,2.8-19.9,2.8-19.9c-0.5,1.4-2.9,8.7-5.8,17.8c-0.1-0.8-0.2-1.6-0.5-2.3c0,0-0.7,2-1.9,5.2
			c-0.7,0.1-1.4,0.2-2.2,0.3c0.9-9.9,1.6-17.6,1.6-17.6c-0.4,1.4-2.5,8.9-4.9,18.1c-0.1,0-0.3,0-0.4,0.1c1-6.9,1.6-11.7,1.6-11.7
			c-0.3,0.8-1.4,4-2.8,8.5c-0.2-1.7-0.6-3.3-1-4.9c0-0.1,0-0.1,0-0.1c0,0,0,0.1-0.1,0.1c-1.1-4.2-2.7-7.8-5.2-10.2
			c0,0,1.6,7.1,2.5,15.6c-0.1,0.3-0.3,0.6-0.5,0.9c-0.4-2.4-0.7-4.5-1-6.2c0,0,0,0,0,0c0,0,0,0,0,0c-0.5-2.9-0.8-4.7-0.8-4.7
			c-0.1,0.9-0.3,4.7-0.5,9.8c-0.4,0.4-0.8,0.9-1.2,1.5c0-2.3-0.3-4.4-1.1-6.2c0,0-0.7,3.4-2,8.3c-0.3-1.9-0.5-3.5-0.6-4.5
			c0.3-1.8,0.4-2.8,0.4-2.8c-0.1,0.3-0.3,0.8-0.6,1.6c0-0.3-0.1-0.5-0.1-0.5c0,0.2,0,0.5-0.1,0.9c-0.3,1-0.8,2.3-1.3,3.8
			c-1.1-8.3-2-14.6-2-14.6c-0.1,1.4-0.5,9.1-0.8,18.3c-0.1,0-0.2,0-0.3,0.1c0.2-5,0.3-8.3,0.3-8.3c-0.2,0.7-0.7,2.9-1.4,6
			c-0.9-7-1.6-12-1.6-12c-0.1,1-0.3,5.3-0.5,11.1c0-0.1,0-0.1-0.1-0.2c0,0-0.3,1.5-0.9,4c-0.2,0-0.3,0.1-0.5,0.1
			c-0.5-4-0.9-6.5-0.9-6.5c0,0.6-0.1,2.3-0.3,4.8c-0.2-0.5-0.4-1-0.6-1.5c0,0-0.1,0.4-0.2,1c0.8-4.5,1.5-7.4,1.5-7.4
			c-0.7,0.5-1.4,1.1-2.1,2c0.1-0.9,0.1-1.4,0.1-1.4c-0.1,0.3-0.3,1-0.6,2c-0.4-2.9-0.6-4.6-0.6-4.6c-0.1,0.7-0.2,3-0.3,6.3
			c-0.9,1.8-1.7,4-2.4,6.5c-0.5,0.1-1.1,0.2-1.6,0.3c-0.9-6.5-1.5-10.9-1.5-10.9c-0.1,1-0.3,5.4-0.5,11.3c-0.3,0-0.5,0.1-0.8,0.1
			c-0.3-2.1-0.5-3.6-0.6-4.4c0.3-5,0.4-8.3,0.4-8.3c-0.2,0.9-1.1,4.6-2.3,9.7c-1.2-5.4-2-9-2-9c0,1.1,0.2,6.2,0.4,12.9
			c-0.1,0-0.2,0-0.3,0.1c-0.9-6.1-2.7-11.7-6.2-15c0,0,1.6,7.2,2.5,15.8c-0.1,0-0.2,0-0.3,0.1c-0.3-1.9-0.4-3-0.4-3
			c0,0.4-0.1,1.5-0.2,3.1c-0.5,0.1-0.9,0.2-1.4,0.3c-1.2-4.5-1.9-7.5-1.9-7.5c-1.2,1.7-2.1,4.7-2.6,8.4c-0.3,0.1-0.7,0.1-1,0.2
			c-0.8-6.2-1.4-10.5-1.4-10.5c-0.1,1-0.3,5.2-0.5,10.9c-0.3,0.1-0.6,0.1-0.9,0.2c-0.8-8.2-1.4-14.4-1.4-14.4
			c-0.1,1.1-0.6,6.4-1.1,13.3c-2.5-7.1-4.3-12.3-4.3-12.3c0.1,1.2,0.9,7,1.8,14.4c0,0-0.1,0-0.1,0c-2-9.4-3.6-16.7-3.6-16.7
			c0,1.3,0.2,8.5,0.6,17.3c-0.4-1.5-0.5-2.4-0.5-2.4c-0.5,0.8-1,1.7-1.4,2.9c-0.4,0.1-0.8,0.2-1.2,0.3c-1.7-7.9-3-13.8-3-13.8
			c0,1.2,0.2,6.9,0.5,14.3c-0.1,0-0.2,0-0.3,0.1c-1.2-5.5-2-9.1-2-9.1c0,0.9,0.1,4.5,0.3,9.5c-0.6,0.1-1.2,0.3-1.7,0.4
			c-0.6-0.9-1.2-1.7-2-2.4c0,0,0.2,1,0.6,2.7c-0.1,0-0.1,0-0.2,0c-2.3-8.3-4.2-14.5-4.2-14.5c0.1,1.2,0.7,7.3,1.6,15.1
			c-0.3,0.1-0.6,0.1-0.9,0.2c-0.9-1.7-1.9-3.2-3.1-4.3c0,0,0.4,1.9,0.9,4.8c-0.2,0-0.4,0.1-0.6,0.1c-0.8-3.7-1.3-6-1.3-6
			c0,0.7,0.1,3,0.2,6.3c-0.1,0-0.2,0.1-0.4,0.1c-2-9.5-3.6-16.9-3.6-16.9c0,1.3,0.2,8.7,0.6,17.6c-0.3,0.1-0.6,0.1-0.9,0.2
			c-0.9-2.5-2.1-4.7-3.7-6.4c-2.2-7.3-3.9-12.9-3.9-12.9c0.1,1.4,0.9,10.7,2,20.6c-0.5,0.1-1.1,0.3-1.6,0.4
			c-0.8-5.3-1.5-8.9-1.5-8.9c-0.1,0.9-0.3,4.5-0.6,9.4c-0.4,0.1-0.9,0.2-1.3,0.3c-1.1-6.8-1.9-11.6-1.9-11.6
			c-0.1,1.1-0.4,5.9-0.7,12.2c-0.3,0.1-0.6,0.1-0.8,0.2c-1-5.4-1.7-9-1.7-9c0,0.9,0,4.5,0,9.4c-0.3,0.1-0.5,0.1-0.8,0.2
			c-0.9-4.8-2.5-9.1-5.3-11.9c0,0,1.1,5.6,1.8,12.8c-0.9,0.2-1.8,0.5-2.7,0.7c-1.1-3.9-1.7-6.5-1.7-6.5c-1.3,1.6-2.3,4.3-2.9,7.7
			c-0.3,0.1-0.6,0.2-0.8,0.2c-0.7-5.7-1.3-9.7-1.3-9.7c-0.1,0.9-0.4,4.9-0.8,10.3c-0.2,0.1-0.5,0.1-0.7,0.2
			c-0.4-5.5-0.8-9.3-0.8-9.3c-0.1,0.9-0.6,4.7-1.3,9.9c-0.2,0.1-0.5,0.1-0.7,0.2c-2-5.5-3.5-9.3-3.5-9.3c0.1,0.9,0.5,4.8,1.2,10
			c-0.1,0-0.2,0.1-0.3,0.1c-1.5-6.9-2.7-12.1-2.7-12.1c0,0.9,0,5.1,0.1,10.6c-0.9-2.4-2.1-4.5-3.7-6.1c0,0,0.4,2.1,0.9,5.4
			c-2.2-7.5-4-13.2-4-13.2c0.1,1.3,0.8,8.9,1.6,17.6c-0.5,0.1-1,0.3-1.6,0.5c-1-6.3-1.7-10.6-1.7-10.6c-0.1,1-0.4,5.4-0.7,11.3
			c-0.3,0.1-0.6,0.2-0.9,0.3c-1.2-7.7-2.2-13.4-2.2-13.4c-0.1,1.2-0.5,6.9-0.9,14.3c-0.1,0-0.2,0.1-0.4,0.1c-1.2-6.5-2.1-11-2.1-11
			c0,1,0,5.5,0,11.6c-0.1,0-0.3,0.1-0.4,0.1c-0.8-5.6-2.5-10.8-5.6-13.9c0,0,1.3,6.8,2,15c-0.2,0.1-0.4,0.1-0.6,0.2
			c-0.4-2.8-0.6-4.6-0.6-4.6c-0.1,0.6-0.2,2.3-0.4,4.9c-0.2,0.1-0.4,0.1-0.5,0.2c-1.6-5.2-2.4-8.7-2.4-8.7c-1.7,2-2.7,5.7-3.3,10.5
			c0,0-0.1,0-0.1,0c-0.9-7-1.6-12.3-1.6-12.3c-0.1,1.1-0.6,6.4-1.1,13.1c-0.1,0-0.2,0.1-0.3,0.1c-0.5-6.9-1-12-1-12
			c-0.2,1-0.7,5.5-1.4,11.5c-2.3-6.2-4-10.7-4-10.7c0.1,1,0.7,6.2,1.5,12.8c0,0,0,0-0.1,0c-1.8-8.3-3.3-14.8-3.3-14.8
			c0,1,0,5.9,0.1,12.2c-0.6-2.1-0.8-3.4-0.8-3.4c-1.1,1.2-1.9,3.2-2.5,5.7c-1.4-6.3-2.4-10.9-2.4-10.9c0,1.1,0,6.8,0.1,14
			c-1.2-5.6-2.1-9.5-2.1-9.5c0,0.9,0,4.9,0.1,10.2c-0.1,0-0.2,0.1-0.3,0.1c-0.9-2.5-2.2-4.6-3.8-6.3c0,0,0.4,2.1,0.9,5.4
			c-2.2-7.5-4-13.2-4-13.2c0.1,1.2,0.7,7.9,1.5,15.9c-0.3,0.1-0.6,0.2-0.9,0.3c-2.2-7.7-3.3-13.5-3.3-13.5c-1.7,2.3-2.8,7-3.4,12.7
			c-0.9-8.4-1.6-14.7-1.6-14.7c-0.1,1.3-0.7,8.6-1.3,17.5c-0.6-9.1-1.1-16.1-1.1-16.1c-0.2,1.1-0.8,6.4-1.5,13.3
			c-2.3-7.2-4-12.4-4-12.4c0.1,1.2,0.7,7.5,1.5,15.5c-1.8-9.9-3.3-17.8-3.3-17.8c0,1.2,0,6.8,0.1,14.1c-0.5-2.4-0.8-3.9-0.8-3.9
			c-1.1,1.4-1.9,3.7-2.5,6.6c-1.3-7.3-2.4-12.6-2.4-12.6c0,1.3,0,7.9,0.1,16.2c-1.2-6.5-2.1-11-2.1-11c0,0.9,0,4.6,0,9.7
			c-0.9-2.8-2.2-5.2-4-6.9c0,0,1,5,1.7,11.6c-2.6-10.3-4.8-18.6-4.8-18.6c0.1,1.2,0.5,7.3,1.1,15c-1-2.3-2.3-4.3-4.1-5.8
			c0,0,1.2,4.9,1.9,11.1c-1.6-6.8-2.9-12-2.9-12c0,0.8,0,4.3,0.1,9.1c-1.8-7.8-3.3-13.9-3.3-13.9c0,1.1,0,6.8,0.2,13.9
			c-2.1-9.6-4.2-18-4.2-18c0,1.6,0.1,14,0.5,25.3c0,0,0,0,0,0c-2-8.7-3.8-15.9-3.8-15.9c0,1,0,6.5,0.2,13.3c-1-3.5-2.6-6.6-5.1-8.7
			c0,0,1.4,5.7,2.1,12.6c-2.2-10.2-4.5-19.4-4.5-19.4c0,1.4,0.1,11,0.4,20.9c-0.9-6.1-1-10.4-1-10.4c-1.9,1.5-2.8,4.4-3,8.2
			c-1.7-7.5-3.2-13.3-3.2-13.3c0,1,0,6.4,0.2,13.1c-1-3.4-2.5-6.5-5.1-8.5c0,0,1.7,6.9,2.3,14.6c-0.2,0.1-0.4,0.1-0.6,0.2
			c-2-5.3-3.5-9-3.5-9c0.1,0.8,0.7,4.6,1.4,9.7c-0.1,0-0.1,0-0.2,0.1c-1.1-3-2.7-5.5-5.1-7.3c0,0,1,3.5,1.9,8.2
			c-0.3,0.1-0.5,0.2-0.8,0.2c-0.9-4.1-2.8-7.9-6.5-10.1c0,0,2,5.3,2.9,11.2c0,0-0.1,0-0.1,0c-2.2-5.4-3.9-9.5-3.9-9.5
			c0,0.7,0.4,3.6,0.8,7.4c-1.1-2.7-2.8-5.1-5.5-6.6c0,0,1.8,4.9,2.8,10.5c0,0,0,0-0.1,0c-3-6.3-5.5-11.3-5.5-11.3
			c0.1,0.8,0.9,5.3,2,10.7c-1.1-2.5-2.8-4.7-5.3-6.1c0,0,0.8,2,1.5,4.9c-2.3-3.8-4-6.4-4-6.4c0.2,0.8,1.6,5.2,3.3,10.5
			c-0.2,0.1-0.4,0.1-0.5,0.2c-2-5.9-3.7-10.6-3.7-10.6c0,0.5,0.1,2.6,0.3,5.5c-0.9-1-1.9-2-3.2-2.7c0,0,1.5,4,2.5,8.9
			c-0.2,0.1-0.4,0.1-0.5,0.2c-2.1-7.6-3.8-13.5-3.8-13.5c0,0.9,0.2,4.7,0.5,9.8c-1.1-2.1-2.6-3.9-4.8-5.1c0,0,1.8,4.8,2.7,10.4
			c-0.9,0.3-1.8,0.5-2.7,0.8c-1.9-6.9-3.5-12.1-3.5-12.1c0,1,0.3,6.3,0.7,12.9c-0.5,0.1-1,0.3-1.4,0.4c-1.7-6-2.9-10.3-2.9-10.3
			c0,0.9,0.3,5.3,0.6,11c-0.1,0-0.2,0.1-0.3,0.1c-0.9-5.8-1.6-10-1.6-10c-0.1,0.7-0.2,3.2-0.4,6.7c-1.1-1.9-2.6-3.6-4.6-4.8
			c0,0,1,2.7,1.9,6.5c-0.7-2.4-1.7-4.5-3.3-6.1c0,0,0.5,4.3,0.5,9.9c-0.1,0-0.2,0.1-0.3,0.1c-0.9-9.2-1.8-16.9-1.8-16.9
			c-0.2,1.3-1.1,9.2-2,18c-0.1,0-0.2,0.1-0.3,0.1c0-4.7,0.4-7.8,0.4-7.8c-2.1,1.3-3.3,4.1-4,7.8c-0.7-7.6-1.4-13.5-1.4-13.5
			c-0.2,1-0.8,6.4-1.5,13.1c-0.5-3.5-1.7-6.7-3.9-8.9c0,0,0.7,5.6,0.5,12.3c-0.4,0.1-0.9,0.3-1.3,0.4c-1-4.3-1.8-7.1-1.8-7.1
			c0,0.7,0,3.6,0.1,7.6c-0.2,0.1-0.5,0.1-0.7,0.2c-0.8-2.2-1.9-4.2-3.5-5.7c0,0,0.4,2.7,0.7,6.5c-0.3,0.1-0.6,0.2-0.9,0.3
			c-0.6-3.5-2-6.8-5-8.9c0,0,1.1,4.6,1.3,9.9c-0.1,0-0.3,0.1-0.4,0.1c-1.3-4.9-2.3-8.5-2.3-8.5c0,0.7-0.1,4.5-0.1,9.2
			c-1.2,0.3-2.4,0.7-3.6,1c-2-6.1-3.7-10.9-3.7-10.9c0,0.8,0.2,5.3,0.6,10.8c-0.8-2.6-2.2-4.9-4.4-6.6c0,0,0.5,2.1,0.9,5.1
			c-1.8-4-3.2-6.7-3.2-6.7c0.1,0.8,0.9,5.2,1.9,10.5c-0.2,0.1-0.4,0.1-0.6,0.2c-1.2-6-2.2-10.6-2.2-10.6c-0.1,0.5-0.2,2.6-0.4,5.5
			c-0.7-1.1-1.7-2.1-2.8-3c0,0,1,4.2,1.3,9.2c-0.2,0-0.4,0.1-0.5,0.1c-1.1-7.8-2.1-13.9-2.1-13.9c-0.1,0.8-0.4,4.7-0.7,9.8
			c-0.8-2.2-2.1-4.2-4.1-5.6c0,0,1.3,5.3,1.4,11.2c-0.9,0.2-1.8,0.5-2.7,0.7c-1.1-7.5-2-13.2-2-13.2c-0.1,1.1-0.5,6.9-1,14
			c-0.4,0.1-0.8,0.2-1.2,0.3c-1-6.7-1.8-11.7-1.8-11.7c-0.1,1-0.5,6-0.9,12.4c-0.1,0-0.2,0-0.2,0.1c-0.2-6.6-0.4-11.5-0.4-11.5
			c-0.2,0.7-0.6,3.2-1.3,6.7c-0.8-2-2.1-3.9-4-5.2c0,0,0.8,3.2,1.2,7.5c-1.3-3.8-2.2-6.5-2.2-6.5c0,0.8,0.2,5.3,0.6,10.8
			c0,0,0,0,0,0c-0.8-2.6-2.2-4.9-4.4-6.5c0,0,0.5,2.1,0.9,5.1c-1.8-4-3.2-6.7-3.2-6.7c0.1,0.8,0.8,4.6,1.7,9.5
			c-0.2,0-0.4,0.1-0.6,0.1c-1.1-5.5-2-9.6-2-9.6c-0.1,0.5-0.2,2.6-0.4,5.5c-0.7-1.1-1.7-2.1-2.8-3c0,0,0.9,3.6,1.2,8.1
			c-0.2,0.1-0.4,0.1-0.6,0.2c-1-7.3-1.9-12.8-1.9-12.8c-0.1,0.8-0.4,4.7-0.7,9.8c-0.8-2.2-2.1-4.2-4.1-5.6c0,0,0.6,2.6,1,6.2
			c-0.4,1.2-0.8,2.6-1.3,4.3c-0.4,0.1-0.8,0.2-1.2,0.3c-0.1-0.9-0.2-1.7-0.4-2.5c0.7-7.4,1.1-12.6,1.1-12.6c-0.2,0.8-0.9,3.3-1.9,7
			c-0.4-2.4-0.6-3.9-0.6-3.9c-0.1,0.8-0.3,4.1-0.6,8.5c-0.4,1.4-0.8,2.9-1.2,4.5c-0.1,0-0.3,0.1-0.4,0.1c0.3-3.7,0.5-6,0.5-6
			c-0.2,0.5-0.5,1.7-1,3.6c-0.3-1.9-0.5-3.5-0.7-4.8c0.2-2.2,0.3-3.5,0.3-3.5c-0.1,0.3-0.3,1-0.5,1.9c-0.2-1-0.2-1.6-0.2-1.6
			c0,0.4-0.1,1.7-0.3,3.5c-0.3,1-0.6,2.3-1,3.6c-0.1-3.7-0.2-6.1-0.2-6.1c-0.2,0.7-0.6,3.2-1.3,6.7c0-0.1-0.1-0.2-0.1-0.3
			c0.2-2.2,0.3-3.5,0.3-3.5c-0.1,0.4-0.4,1.3-0.7,2.6c-0.8-1.5-1.9-2.9-3.4-4c0,0,1.1,4.5,1.3,9.9c-0.5,0.1-1,0.3-1.5,0.4
			c-0.4-1.7-1.1-3.2-1.9-4.5c0,0-0.1,1.9-0.3,5c-0.4,0.1-0.9,0.2-1.3,0.3c-0.1-0.3-0.2-0.5-0.3-0.8c0,0-0.1,0.3-0.2,0.9
			c-0.5,0.1-1.1,0.3-1.6,0.4c0.4-4.9,0.7-8.1,0.7-8.1c-0.3,0.9-1.2,4.1-2.4,8.5c-0.3,0.1-0.6,0.1-0.8,0.2c1.3-8.8,2.2-15.4,2.2-15.4
			c-0.5,1.3-2.7,7.9-5.3,16.2c-0.2,0.1-0.5,0.1-0.7,0.2c-0.1-0.3-0.1-0.6-0.2-0.9c0,0-0.1,0.4-0.4,1.1c-1.1,0.3-2.2,0.6-3.3,0.8
			c0.7-8.1,1.2-14,1.2-14c-0.4,1.2-2,7.1-4,14.7c-0.3,0.1-0.6,0.1-0.9,0.2c0.7-5.1,1.2-8.5,1.2-8.5c-0.3,0.8-1.4,4-2.8,8.5
			c-0.2-1.7-0.6-3.3-1-4.9c0-0.1,0-0.1,0-0.1c0,0,0,0.1-0.1,0.1c-1.1-4.2-2.7-7.8-5.2-10.2c0,0,1.6,7.1,2.5,15.6
			c-0.1,0.3-0.3,0.6-0.4,0.8c0,0,0,0,0,0c-0.4-2.4-0.7-4.5-1-6.2c0,0,0,0,0,0c0,0,0,0,0,0c-0.5-2.9-0.8-4.7-0.8-4.7
			c-0.1,0.9-0.3,4.7-0.5,9.8c-0.4,0.4-0.8,0.9-1.2,1.5c0-2.3-0.3-4.4-1.1-6.2c0,0-0.6,3-1.8,7.3c-0.1,0-0.3,0.1-0.4,0.1
			c-0.2-1.5-0.4-2.7-0.5-3.6c0.3-1.8,0.4-2.8,0.4-2.8c-0.1,0.3-0.3,0.8-0.6,1.6c0-0.3-0.1-0.5-0.1-0.5c0,0.2,0,0.5-0.1,0.9
			c-0.3,1-0.8,2.3-1.3,3.8c-1.1-8.3-2-14.6-2-14.6c-0.1,1.3-0.4,8-0.7,16.4c-0.1,0-0.2,0-0.3,0.1c0.1-3.9,0.2-6.4,0.2-6.4
			c-0.2,0.7-0.7,2.9-1.4,6c-0.9-7-1.6-12-1.6-12c-0.1,1-0.3,5.3-0.5,11.1c0-0.1,0-0.1-0.1-0.2c0,0-0.2,0.9-0.5,2.3
			c-0.4,0.1-0.7,0.2-1.1,0.3c-0.4-3.1-0.7-5-0.7-5c0,0.6-0.1,2.3-0.3,4.8c-0.2-0.5-0.4-1-0.6-1.5c0,0-0.1,0.4-0.2,1
			c0.8-4.5,1.5-7.4,1.5-7.4c-0.7,0.5-1.4,1.1-2.1,2c0.1-0.9,0.1-1.4,0.1-1.4c-0.1,0.3-0.3,1-0.6,2c-0.4-2.9-0.6-4.6-0.6-4.6
			c-0.1,0.7-0.2,3-0.3,6.3c-0.8,1.5-1.4,3.2-2,5.1c-0.7,0.2-1.4,0.3-2.1,0.5c-0.8-5.8-1.4-9.8-1.4-9.8c-0.1,0.9-0.3,4.9-0.5,10.2
			c-0.3,0.1-0.6,0.1-0.9,0.2c-0.2-1.6-0.4-2.7-0.5-3.4c0.3-5,0.4-8.3,0.4-8.3c-0.2,0.9-1.1,4.6-2.3,9.7c-1.2-5.4-2-9-2-9
			c0,1,0.1,5.7,0.4,12c-0.1,0-0.3,0.1-0.4,0.1c-0.9-5.8-2.8-11-6.1-14.2c0,0,1.5,6.8,2.4,15c-0.1,0-0.2,0.1-0.4,0.1
			c-0.2-1.4-0.3-2.2-0.3-2.2c0,0.4-0.1,1.2-0.1,2.3c-0.5,0.1-1.1,0.2-1.6,0.4c-1.1-4.1-1.7-6.8-1.7-6.8c-1.2,1.6-2,4.3-2.5,7.7
			c-0.4,0.1-0.8,0.2-1.2,0.3c-0.8-5.9-1.4-9.9-1.4-9.9c-0.1,1-0.3,4.9-0.5,10.3c-0.3,0.1-0.7,0.1-1,0.2c-0.7-8-1.4-13.8-1.4-13.8
			c-0.1,1.1-0.6,6.4-1.1,13.3c-2.5-7.1-4.3-12.3-4.3-12.3c0.1,1.1,0.8,6.7,1.7,13.9c-1,0.2-2,0.4-2.9,0.6
			c-1.5-7.3-2.7-12.5-2.7-12.5c0,1.1,0.2,6.3,0.4,13c-0.7,0.2-1.4,0.3-2.1,0.5c-1-3.6-1.4-5.8-1.4-5.8c-1,1.5-1.8,3.8-2.3,6.7
			c-1.3,0.3-2.5,0.5-3.7,0.8c-0.7-3.3-1.2-5.3-1.2-5.3c0,0.6,0.1,2.6,0.1,5.5C4.9,193,0,194,0,194L14.1,194z M489.5,63
			c0,0.1,0,0.3,0,0.4c-0.1,0-0.1,0-0.2,0C489.5,63.3,489.5,63.1,489.5,63z M481.1,62.2c0,0.8-0.1,1.6-0.1,2.6c-0.1,0-0.2,0-0.3,0
			C480.8,63.9,481,63,481.1,62.2z M207.6,141.7C207.6,141.7,207.6,141.7,207.6,141.7c0-0.1,0-0.2,0-0.3
			C207.6,141.5,207.6,141.6,207.6,141.7z M73.4,177.1c0,0.1,0,0.3,0,0.4c0,0,0,0,0,0C73.3,177.4,73.3,177.3,73.4,177.1z"/>
		<g>
			<linearGradient id="SVGID_2_" gradientUnits="userSpaceOnUse" x1="479.5832" y1="117.456" x2="464.1361" y2="30.2253">
				<stop  offset="0" style="stop-color:#742636"/>
				<stop  offset="0.1493" style="stop-color:#823040"/>
				<stop  offset="0.4164" style="stop-color:#943D4D"/>
				<stop  offset="0.6948" style="stop-color:#9F4554"/>
				<stop  offset="1" style="stop-color:#A34857"/>
			</linearGradient>
			<path class="st1" d="M479.5,61.9c-1.7-2.1-5.4,4-6.7,6.2c-0.3-3.5-1-7.2-2-10.8c1.8-1.6,6.7-6.4,4.6-8c-2-1.5-4,4.5-4.8,7.2
				c-0.9-2.8-2-5.5-3.5-8c1-1.4,5.4-8.1,2.7-9.3c-2.6-1.1-2.9,6.7-2.9,9c-0.2-0.4-0.5-0.8-0.7-1.1c-1.1-1.6-1.9-2.8-2.6-3.7
				c0.1,0.1,0.1,0.1,0.1,0.1s-2.3-9.9-5.3-8.5c-2.5,1.2,3.1,6.6,4.8,8.1c0.8,1.4,1.9,3.2,2.9,5.1c-2.2-1.2-8.1-4.2-8.9-1.7
				c-0.9,2.7,7,2.3,9.2,2.2c0.5,1,1,2.1,1.4,3c0.5,1.4,1.1,3.1,1.6,5.1c-2.3-1.2-8-4.1-8.8-1.6c-0.9,2.6,6.5,2.3,9,2.2
				c0.8,3.1,1.5,6.9,2,10.7c-2.1-1.2-8.2-4.2-9-1.7c-0.9,2.6,6.7,2.3,9.1,2.2c0.7,4.8,1.2,9.9,1.3,14.3c0,0,0.7-6.4-0.1-14.3
				C474.8,67.7,481.3,64.1,479.5,61.9z"/>
			
				<linearGradient id="SVGID_3_" gradientUnits="userSpaceOnUse" x1="568.2717" y1="105.9041" x2="550.6987" y2="6.6678" gradientTransform="matrix(0.9774 0.2113 -0.2113 0.9774 20.9463 -117.189)">
				<stop  offset="0" style="stop-color:#742636"/>
				<stop  offset="0.1493" style="stop-color:#823040"/>
				<stop  offset="0.4164" style="stop-color:#943D4D"/>
				<stop  offset="0.6948" style="stop-color:#9F4554"/>
				<stop  offset="1" style="stop-color:#A34857"/>
			</linearGradient>
			<path class="st2" d="M567.3,44.6c-1.3-2.7-7,3.1-8.9,5.3c0.5-3.9,0.7-8.2,0.4-12.5c2.3-1.4,9-5.5,7-7.8c-1.9-2.2-5.5,4-7.1,6.9
				c-0.3-3.3-0.9-6.6-2-9.7c1.4-1.4,7.9-7.8,5.2-9.7c-2.6-1.8-4.8,6.8-5.4,9.3c-0.2-0.5-0.4-1-0.5-1.4c-0.8-2-1.5-3.5-2-4.7
				c0.1,0.1,0.1,0.1,0.1,0.1s-0.2-11.6-3.8-10.7c-3.1,0.7,1.9,8.1,3.4,10.1c0.6,1.7,1.4,4,2,6.3c-2.1-1.9-8-6.6-9.5-4
				c-1.6,2.8,7.3,4.3,9.7,4.6c0.3,1.3,0.6,2.6,0.8,3.7c0.3,1.7,0.4,3.7,0.5,6.1c-2.2-1.9-7.9-6.5-9.4-3.9c-1.6,2.7,6.7,4.2,9.5,4.6
				c0.1,3.7,0,8-0.3,12.4c-2.1-1.8-8.1-6.7-9.6-4c-1.6,2.7,6.9,4.2,9.6,4.6c-0.4,5.5-1.1,11.3-2,16.3c0,0,2.3-6.9,3.4-15.9
				C560.6,49.9,568.7,47.5,567.3,44.6z"/>
			
				<linearGradient id="SVGID_4_" gradientUnits="userSpaceOnUse" x1="587.573" y1="92.2622" x2="569.9999" y2="-6.974" gradientTransform="matrix(0.942 0.3355 -0.3355 0.942 44.4886 -187.6972)">
				<stop  offset="0" style="stop-color:#742636"/>
				<stop  offset="0.1493" style="stop-color:#823040"/>
				<stop  offset="0.4164" style="stop-color:#943D4D"/>
				<stop  offset="0.6948" style="stop-color:#9F4554"/>
				<stop  offset="1" style="stop-color:#A34857"/>
			</linearGradient>
			<path class="st3" d="M588.2,36.8c-1-2.9-7.3,2.2-9.5,4.1c1-3.8,1.7-8.1,2-12.3c2.5-1,9.6-4.3,7.9-6.9c-1.6-2.4-6,3.3-7.9,5.9
				c0.1-3.3,0-6.7-0.7-9.9c1.6-1.2,8.9-6.7,6.4-8.9c-2.3-2.1-5.6,6.1-6.5,8.5c-0.1-0.5-0.2-1-0.4-1.5c-0.6-2.1-1-3.7-1.3-4.9
				c0,0.1,0.1,0.1,0.1,0.1s1.3-11.5-2.4-11.1c-3.2,0.3,0.8,8.2,2.1,10.5c0.4,1.8,0.8,4.2,1.2,6.6c-1.9-2.1-7.1-7.6-9-5.2
				c-2,2.5,6.7,5.2,9,5.8c0.2,1.3,0.3,2.6,0.3,3.8c0.1,1.7,0,3.8-0.3,6.1c-2-2.2-7-7.4-8.9-5.1c-1.9,2.4,6.1,5,8.8,5.8
				c-0.4,3.7-1,7.9-1.9,12.3c-1.8-2.1-7.1-7.6-9-5.2c-1.9,2.5,6.3,5.1,8.9,5.8c-1.1,5.4-2.5,11-4.1,15.9c0,0,3.2-6.6,5.4-15.4
				C580.9,41.2,589.2,39.8,588.2,36.8z"/>
			
				<linearGradient id="SVGID_5_" gradientUnits="userSpaceOnUse" x1="245.2345" y1="141.8449" x2="232.5451" y2="70.187" gradientTransform="matrix(-0.9442 0.3293 0.3293 0.9442 513.1213 -72.6807)">
				<stop  offset="0" style="stop-color:#742636"/>
				<stop  offset="0.1493" style="stop-color:#823040"/>
				<stop  offset="0.4164" style="stop-color:#943D4D"/>
				<stop  offset="0.6948" style="stop-color:#9F4554"/>
				<stop  offset="1" style="stop-color:#A34857"/>
			</linearGradient>
			<path class="st4" d="M313.3,98.9c0.7-2.1,5.3,1.6,6.9,3c-0.7-2.8-1.2-5.8-1.4-8.9c-1.8-0.8-6.9-3.1-5.7-5
				c1.2-1.7,4.3,2.4,5.7,4.3c-0.1-2.4,0.1-4.8,0.6-7.1c-1.2-0.9-6.4-4.9-4.6-6.5c1.7-1.5,4,4.5,4.7,6.2c0.1-0.4,0.2-0.7,0.3-1.1
				c0.4-1.5,0.7-2.7,1-3.5c0,0.1-0.1,0.1-0.1,0.1s-0.9-8.3,1.8-8c2.3,0.3-0.7,5.9-1.5,7.6c-0.3,1.3-0.6,3-0.9,4.7
				c1.4-1.5,5.2-5.4,6.5-3.7c1.4,1.8-4.8,3.7-6.6,4.2c-0.1,1-0.2,1.9-0.3,2.7c0,1.2,0,2.7,0.2,4.4c1.4-1.6,5.1-5.3,6.4-3.6
				c1.4,1.8-4.4,3.6-6.4,4.1c0.3,2.7,0.7,5.7,1.3,8.9c1.3-1.5,5.2-5.5,6.5-3.7c1.4,1.8-4.6,3.6-6.4,4.1c0.8,3.9,1.8,8,2.9,11.5
				c0,0-2.2-4.8-3.8-11.1C318.6,102.1,312.5,101.1,313.3,98.9z"/>
			
				<linearGradient id="SVGID_6_" gradientUnits="userSpaceOnUse" x1="295.0829" y1="137.7896" x2="282.3935" y2="66.1317" gradientTransform="matrix(-0.9442 0.3293 0.3293 0.9442 513.1213 -72.6807)">
				<stop  offset="0" style="stop-color:#742636"/>
				<stop  offset="0.1493" style="stop-color:#823040"/>
				<stop  offset="0.4164" style="stop-color:#943D4D"/>
				<stop  offset="0.6948" style="stop-color:#9F4554"/>
				<stop  offset="1" style="stop-color:#A34857"/>
			</linearGradient>
			<path class="st5" d="M264.9,111.5c0.7-2.1,5.3,1.6,6.9,3c-0.7-2.8-1.2-5.8-1.4-8.9c-1.8-0.8-6.9-3.1-5.7-5
				c1.2-1.7,4.3,2.4,5.7,4.3c-0.1-2.4,0.1-4.8,0.6-7.1c-1.2-0.9-6.4-4.9-4.6-6.5c1.7-1.5,4,4.5,4.7,6.2c0.1-0.4,0.2-0.7,0.3-1.1
				c0.4-1.5,0.7-2.7,1-3.5c0,0.1-0.1,0.1-0.1,0.1s-0.9-8.3,1.8-8c2.3,0.3-0.7,5.9-1.5,7.6c-0.3,1.3-0.6,3-0.9,4.7
				c1.4-1.5,5.2-5.4,6.5-3.7c1.4,1.8-4.8,3.7-6.6,4.2c-0.1,1-0.2,1.9-0.3,2.7c0,1.2,0,2.7,0.2,4.4c1.4-1.6,5.1-5.3,6.4-3.6
				c1.4,1.8-4.4,3.6-6.4,4.1c0.3,2.7,0.7,5.7,1.3,8.9c1.3-1.5,5.2-5.5,6.5-3.7c1.4,1.8-4.6,3.6-6.4,4.1c0.8,3.9,1.8,8,2.9,11.5
				c0,0-2.2-4.8-3.8-11.1C270.2,114.7,264.1,113.7,264.9,111.5z"/>
		</g>
	</g>
	<g>
		<g>
			<linearGradient id="SVGID_7_" gradientUnits="userSpaceOnUse" x1="160.4409" y1="192.9833" x2="160.6563" y2="182.8159">
				<stop  offset="0" style="stop-color:#742636"/>
				<stop  offset="1" style="stop-color:#A34857"/>
			</linearGradient>
			<path class="st6" d="M163.1,194c0.1-4.3,0.1-7.2,0.1-7.2c-0.2,0.6-0.8,3.1-1.6,6.6c-0.7-2.1-1.9-4-3.7-5.4c0,0,0.5,2.6,0.7,6.1
				H163.1z"/>
			<linearGradient id="SVGID_8_" gradientUnits="userSpaceOnUse" x1="157.4753" y1="193.259" x2="157.627" y2="186.1022">
				<stop  offset="0" style="stop-color:#742636"/>
				<stop  offset="1" style="stop-color:#A34857"/>
			</linearGradient>
			<path class="st7" d="M158.3,194c-0.9-3.1-1.5-5.2-1.5-5.2c0,0.5,0,2.4,0,5.2H158.3z"/>
			<linearGradient id="SVGID_9_" gradientUnits="userSpaceOnUse" x1="168.8051" y1="192.5191" x2="169.1163" y2="177.8283">
				<stop  offset="0" style="stop-color:#742636"/>
				<stop  offset="1" style="stop-color:#A34857"/>
			</linearGradient>
			<path class="st8" d="M170,194c-0.6-6.1-1.1-10.6-1.1-10.6c-0.1,0.9-0.7,5.1-1.3,10.6H170z"/>
			<linearGradient id="SVGID_10_" gradientUnits="userSpaceOnUse" x1="164.6825" y1="192.8563" x2="164.9208" y2="181.6078">
				<stop  offset="0" style="stop-color:#742636"/>
				<stop  offset="1" style="stop-color:#A34857"/>
			</linearGradient>
			<path class="st9" d="M165.6,194c-0.5-4.8-0.8-8.1-0.8-8.1c-0.1,0.7-0.5,3.9-1,8.1H165.6z"/>
			<linearGradient id="SVGID_11_" gradientUnits="userSpaceOnUse" x1="153.3042" y1="193.8142" x2="153.3363" y2="192.2982">
				<stop  offset="0" style="stop-color:#742636"/>
				<stop  offset="1" style="stop-color:#A34857"/>
			</linearGradient>
			<path class="st10" d="M153.9,194c-0.4-0.4-0.7-0.8-1.2-1.1c0,0,0.1,0.4,0.2,1.1H153.9z"/>
			<linearGradient id="SVGID_12_" gradientUnits="userSpaceOnUse" x1="386.6332" y1="183.4893" x2="389.2727" y2="58.909">
				<stop  offset="0" style="stop-color:#742636"/>
				<stop  offset="1" style="stop-color:#A34857"/>
			</linearGradient>
			<path class="st11" d="M594.8,194v-83.3c-0.1,0.3-0.1,0.7-0.2,1c0.1-3.3-0.2-6.2-1.5-8.7c0,0-0.7,4.5-2.1,10.4
				c0.2-7.4,0.2-12.7,0.2-12.7c-0.3,1.1-1.4,6.8-2.9,14.1c-0.4,0-0.8,0-1.1,0c0.9-5.1,0.9-10-0.9-13.6c0,0-0.6,4.1-1.9,9.6
				c-0.1-4.7-0.2-7.7-0.2-7.7c-0.2,1-1,5.7-1.9,11.8c-0.3,0-0.6,0-0.9,0c0.4-4,0.2-7.8-1.3-10.6c0,0-0.7,4.6-2.2,10.7
				c0,0-0.1,0-0.1,0c0.8-5.4,1.4-9.1,1.4-9.1c-0.3,0.8-1.4,4.1-3,8.6c-0.2-1.5-0.6-2.9-1.2-4.1c0,0-0.3,1.9-1,4.8
				c-0.1,0-0.1,0-0.2,0c1.2-7.5,1.9-13.1,1.9-13.1c-0.5,1.1-2.5,6.4-5,13.2c-0.1,0-0.3,0-0.4,0c1.4-9,2.4-15.9,2.4-15.9
				c-0.5,1.2-2.9,7.4-5.7,15c0.8-6.2,1.3-10.6,1.3-10.6c-0.4,1-2.1,5.6-4.2,11.7c-0.2,0-0.5,0-0.7,0c0.5-4.3,0.9-7,0.9-7
				c-0.3,0.7-1.3,3.4-2.6,7.1c-0.1,0-0.2,0-0.3,0c1.6-6.1,3-10.2,3-10.2c-2.2,1.1-4.2,3.8-5.9,7.5c-0.1-3.2-0.6-6.1-1.9-8.4
				c0,0-0.5,4.9-1.8,11.4c-0.4,0-0.7,0-1.1,0.1c1.8-5.3,2.6-10.5,1.3-14.5c0,0-2,6.4-5.4,14.2c1.7-11.7,3-21.4,3-21.4
				c-0.5,1.4-3,8.9-6,18.2c0.7-5,1.1-8.2,1.1-8.2c-0.3,0.9-1.6,4.6-3.2,9.7c1.2-8.4,2-14.5,2-14.5c-0.5,1.3-2.6,7.9-5.3,16.2
				c1-7.2,1.7-12.3,1.7-12.3c-0.4,1.1-2.1,6.1-4.2,12.8c-0.1-3.3-0.8-6.3-2.2-8.7c0,0-0.3,4-1.2,9.7c0-1.9-0.3-3.6-0.9-5.2
				c0,0-0.6,2.3-1.6,5.8c-0.3,0-0.6,0-0.8,0.1c1.1-7.5,1.8-12.7,1.8-12.7c-0.4,1.1-2.1,6.2-4.3,13c-0.1,0-0.2,0-0.3,0
				c2.2-10.9,3.8-19.7,3.8-19.7c-0.6,1.3-3.4,8.6-6.7,17.4c0-0.8-0.1-1.6-0.3-2.3c0,0-0.8,2-2.1,5.1c-0.7,0.1-1.5,0.1-2.2,0.2
				c1.4-9.9,2.4-17.5,2.4-17.5c-0.5,1.4-2.9,8.8-5.9,17.9c-0.1,0-0.3,0-0.4,0c1.3-6.9,2.2-11.6,2.2-11.6c-0.4,0.8-1.6,4-3.3,8.4
				c-0.2-1.7-0.4-3.3-0.7-4.9c0-0.1,0-0.1,0-0.1c0,0,0,0.1-0.1,0.1c-0.8-4.2-2.3-7.9-4.7-10.4c0,0,1.2,7.2,1.7,15.7
				c-0.2,0.3-0.3,0.6-0.5,0.9c-0.3-2.4-0.5-4.5-0.7-6.3c0,0,0,0,0,0c0,0,0,0,0,0c-0.3-3-0.5-4.8-0.5-4.8c-0.1,0.9-0.5,4.7-1,9.8
				c-0.4,0.4-0.8,0.9-1.2,1.5c0.1-2.3-0.1-4.4-0.8-6.2c0,0-0.9,3.4-2.4,8.2c-0.2-1.9-0.3-3.5-0.4-4.6c0.4-1.8,0.6-2.8,0.6-2.8
				c-0.1,0.3-0.3,0.8-0.7,1.6c0-0.4,0-0.5,0-0.5c0,0.2-0.1,0.5-0.1,0.9c-0.4,1-0.9,2.2-1.5,3.7c-0.7-8.4-1.2-14.7-1.2-14.7
				c-0.2,1.4-0.9,9-1.7,18.2c-0.1,0-0.2,0-0.3,0c0.4-5,0.7-8.2,0.7-8.2c-0.2,0.7-0.8,2.8-1.7,5.9c-0.6-7-1-12-1-12
				c-0.1,1-0.6,5.3-1.1,11.1c0-0.1,0-0.1-0.1-0.2c0,0-0.4,1.5-1.1,4c-0.2,0-0.3,0-0.5,0.1c-0.3-4-0.6-6.5-0.6-6.5
				c-0.1,0.6-0.3,2.3-0.5,4.8c-0.2-0.5-0.3-1-0.6-1.5c0,0-0.1,0.4-0.2,1c1-4.5,1.8-7.4,1.8-7.4c-0.8,0.4-1.5,1.1-2.2,1.9
				c0.1-0.9,0.2-1.4,0.2-1.4c-0.1,0.3-0.4,1-0.7,2c-0.2-2.9-0.4-4.6-0.4-4.6c-0.1,0.7-0.3,3-0.6,6.2c-1,1.7-1.9,3.9-2.7,6.3
				c-0.5,0.1-1.1,0.1-1.6,0.2c-0.5-6.5-1-11-1-11c-0.1,1-0.6,5.4-1.1,11.3c-0.3,0-0.5,0.1-0.8,0.1c-0.2-2.1-0.3-3.6-0.4-4.4
				c0.5-5,0.8-8.3,0.8-8.3c-0.3,0.9-1.4,4.5-2.8,9.6c-0.9-5.5-1.5-9.1-1.5-9.1c-0.1,1.1-0.2,6.2-0.2,12.9c-0.1,0-0.2,0-0.3,0
				c-0.6-6.1-2.1-11.9-5.4-15.3c0,0,1.3,7.2,1.7,15.9c-0.1,0-0.2,0-0.3,0.1c-0.2-1.9-0.3-3-0.3-3c-0.1,0.4-0.2,1.5-0.3,3.1
				c-0.5,0.1-0.9,0.1-1.4,0.2c-1-4.6-1.5-7.5-1.5-7.5c-1.3,1.7-2.3,4.6-3,8.2c-0.3,0.1-0.7,0.1-1,0.2c-0.5-6.2-0.9-10.5-0.9-10.5
				c-0.1,1-0.5,5.2-1.1,10.9c-0.3,0-0.6,0.1-0.9,0.1c-0.3-8.3-0.7-14.4-0.7-14.4c-0.2,1.1-0.9,6.4-1.8,13.2
				c-2.1-7.3-3.7-12.5-3.7-12.5c0.1,1.2,0.5,7,1.1,14.5c0,0-0.1,0-0.1,0c-1.5-9.5-2.8-16.9-2.8-16.9c-0.1,1.3-0.2,8.5-0.3,17.3
				c-0.3-1.5-0.4-2.4-0.4-2.4c-0.6,0.7-1.1,1.7-1.5,2.9c-0.4,0.1-0.8,0.1-1.2,0.2c-1.3-8-2.3-13.9-2.3-13.9
				c-0.1,1.2-0.2,6.9-0.3,14.3c-0.1,0-0.2,0-0.3,0.1c-0.9-5.5-1.5-9.2-1.5-9.2c0,0.9-0.1,4.5-0.2,9.5c-0.6,0.1-1.2,0.2-1.8,0.3
				c-0.5-0.9-1.2-1.7-1.8-2.5c0,0,0.2,1,0.4,2.7c-0.1,0-0.1,0-0.2,0c-1.9-8.4-3.5-14.7-3.5-14.7c0,1.2,0.3,7.4,0.8,15.1
				c-0.3,0.1-0.6,0.1-0.9,0.2c-0.8-1.7-1.7-3.2-2.9-4.5c0,0,0.3,1.9,0.7,4.9c-0.2,0-0.4,0.1-0.6,0.1c-0.6-3.7-1-6-1-6
				c0,0.7-0.1,3-0.1,6.3c-0.1,0-0.2,0-0.4,0.1c-1.5-9.6-2.8-17.1-2.8-17.1c-0.1,1.3-0.2,8.7-0.3,17.7c-0.3,0.1-0.6,0.1-0.9,0.2
				c-0.8-2.6-1.8-4.8-3.3-6.6c-1.8-7.4-3.3-13-3.3-13c0,1.4,0.4,10.7,0.9,20.7c-0.6,0.1-1.1,0.2-1.7,0.3c-0.6-5.4-1-8.9-1-8.9
				c-0.1,0.9-0.5,4.5-1.1,9.3c-0.4,0.1-0.9,0.2-1.3,0.3c-0.7-6.8-1.3-11.6-1.3-11.6c-0.2,1.1-0.7,5.9-1.4,12.2
				c-0.3,0.1-0.6,0.1-0.8,0.2c-0.7-5.4-1.3-9.1-1.3-9.1c-0.1,0.9-0.2,4.5-0.5,9.4c-0.3,0.1-0.5,0.1-0.8,0.2c-0.7-4.9-2-9.2-4.7-12.1
				c0,0,0.8,5.6,1.1,12.9c-0.9,0.2-1.8,0.4-2.7,0.6c-0.9-4-1.4-6.6-1.4-6.6c-1.4,1.5-2.5,4.2-3.3,7.6c-0.3,0.1-0.6,0.1-0.9,0.2
				c-0.4-5.8-0.8-9.8-0.8-9.8c-0.2,0.9-0.7,4.9-1.4,10.2c-0.2,0.1-0.5,0.1-0.7,0.2c-0.2-5.5-0.3-9.3-0.3-9.3
				c-0.2,0.9-0.9,4.7-1.8,9.8c-0.2,0.1-0.5,0.1-0.7,0.2c-1.7-5.6-3-9.5-3-9.5c0.1,0.9,0.3,4.8,0.7,10c-0.1,0-0.2,0-0.3,0.1
				c-1.1-7-2.1-12.2-2.1-12.2c-0.1,0.9-0.3,5.1-0.4,10.6c-0.8-2.4-1.9-4.6-3.4-6.2c0,0,0.3,2.1,0.6,5.4c-1.8-7.6-3.3-13.4-3.3-13.4
				c0,1.3,0.3,8.9,0.7,17.7c-0.5,0.1-1.1,0.3-1.6,0.4c-0.7-6.3-1.2-10.7-1.2-10.7c-0.2,1-0.7,5.4-1.3,11.3c-0.3,0.1-0.6,0.1-0.9,0.2
				c-0.8-7.8-1.5-13.5-1.5-13.5c-0.2,1.2-0.8,6.9-1.6,14.2c-0.1,0-0.2,0.1-0.4,0.1c-0.9-6.5-1.5-11.1-1.5-11.1
				c-0.1,1-0.3,5.5-0.5,11.6c-0.1,0-0.3,0.1-0.4,0.1c-0.5-5.7-1.9-10.9-4.9-14.2c0,0,1,6.8,1.2,15.1c-0.2,0.1-0.4,0.1-0.6,0.2
				c-0.2-2.9-0.4-4.6-0.4-4.6c-0.1,0.6-0.3,2.3-0.7,4.9c-0.2,0-0.4,0.1-0.5,0.1c-1.3-5.2-1.9-8.8-1.9-8.8c-1.8,1.9-3,5.6-3.9,10.3
				c0,0-0.1,0-0.1,0c-0.5-7.1-1-12.3-1-12.3c-0.2,1-0.9,6.3-1.7,13c-0.1,0-0.2,0.1-0.3,0.1c-0.2-6.9-0.4-12-0.4-12
				c-0.2,1-1,5.5-2,11.4c-2-6.3-3.5-10.9-3.5-10.9c0.1,1,0.4,6.2,0.8,12.8c0,0,0,0-0.1,0c-1.3-8.4-2.5-15-2.5-15
				c-0.1,1-0.3,5.9-0.5,12.2c-0.4-2.1-0.7-3.4-0.7-3.4c-1.1,1.2-2,3.1-2.8,5.6c-1-6.4-1.9-11-1.9-11c-0.1,1.1-0.3,6.8-0.6,14
				c-0.9-5.6-1.6-9.6-1.6-9.6c-0.1,0.9-0.2,4.9-0.4,10.2c-0.1,0-0.2,0.1-0.3,0.1c-0.8-2.5-1.9-4.7-3.5-6.4c0,0,0.3,2.1,0.6,5.4
				c-1.8-7.6-3.3-13.4-3.3-13.4c0,1.2,0.3,7.9,0.7,16c-0.3,0.1-0.6,0.2-0.9,0.2c-1.8-7.8-2.6-13.6-2.6-13.6
				c-1.9,2.3-3.2,6.8-4.1,12.5c-0.4-8.4-0.8-14.8-0.8-14.8c-0.2,1.3-1.1,8.6-2.1,17.4c-0.1-9.1-0.3-16.1-0.3-16.1
				c-0.2,1.1-1.1,6.4-2.2,13.2c-1.9-7.3-3.3-12.6-3.3-12.6c0.1,1.2,0.3,7.6,0.7,15.5c-1.3-10-2.4-18-2.4-18
				c-0.1,1.2-0.4,6.8-0.6,14.1c-0.4-2.5-0.6-3.9-0.6-3.9c-1.1,1.4-2.1,3.6-2.8,6.5c-1-7.4-1.7-12.7-1.7-12.7
				c-0.1,1.3-0.4,7.9-0.7,16.1c-0.9-6.5-1.5-11-1.5-11c-0.1,0.9-0.3,4.6-0.5,9.7c-0.8-2.8-2-5.3-3.7-7.1c0,0,0.7,5,1.1,11.6
				c-2-10.4-3.9-18.8-3.9-18.8c0,1.2,0.1,7.3,0.4,15.1c-0.8-2.3-2.1-4.4-3.8-6c0,0,1,5,1.4,11.2c-1.2-6.9-2.3-12.1-2.3-12.1
				c-0.1,0.8-0.2,4.3-0.4,9.1c-1.4-7.8-2.6-14-2.6-14c-0.1,1.1-0.3,6.8-0.5,13.9c-1.7-9.7-3.3-18.2-3.3-18.2
				c-0.1,1.6-0.6,14-0.8,25.3c0,0,0,0,0,0c-1.5-8.8-3-16.1-3-16.1c-0.1,1-0.3,6.5-0.5,13.3c-0.8-3.6-2.2-6.8-4.7-8.9
				c0,0,1.2,5.8,1.5,12.7c-1.7-10.3-3.6-19.6-3.6-19.6c-0.1,1.4-0.5,11-0.7,20.9c-0.6-6.1-0.5-10.5-0.5-10.5c-2,1.4-3,4.3-3.4,8
				c-1.3-7.6-2.5-13.4-2.5-13.4c-0.1,1-0.3,6.4-0.5,13.1c-0.8-3.5-2.2-6.6-4.6-8.7c0,0,1.4,6.9,1.5,14.7c-0.2,0.1-0.4,0.1-0.7,0.2
				c-1.7-5.4-3-9.2-3-9.2c0,0.8,0.4,4.7,1,9.7c-0.1,0-0.1,0-0.2,0.1c-1-3-2.5-5.7-4.7-7.5c0,0,0.9,3.5,1.5,8.3
				c-0.3,0.1-0.5,0.1-0.8,0.2c-0.7-4.1-2.4-8.1-6-10.4c0,0,1.7,5.4,2.3,11.3c0,0-0.1,0-0.1,0c-1.9-5.5-3.5-9.7-3.5-9.7
				c0,0.7,0.2,3.6,0.5,7.4c-1-2.8-2.6-5.2-5.1-6.9c0,0,1.6,4.9,2.2,10.6c0,0,0,0-0.1,0c-2.6-6.4-4.9-11.6-4.9-11.6
				c0.1,0.8,0.7,5.3,1.5,10.8c-1-2.5-2.5-4.8-4.9-6.3c0,0,0.7,2,1.3,5c-2.2-3.9-3.7-6.5-3.7-6.5c0.2,0.8,1.3,5.3,2.8,10.7
				c-0.2,0-0.4,0.1-0.6,0.1c-1.7-6-3.1-10.7-3.1-10.7c0,0.5,0,2.6,0,5.5c-0.8-1.1-1.8-2.1-3-2.8c0,0,1.3,4,2,9
				c-0.2,0-0.4,0.1-0.5,0.1c-1.7-7.7-3.2-13.7-3.2-13.7c0,0.9,0,4.7,0.1,9.8c-1-2.1-2.4-4-4.5-5.4c0,0,1.6,4.9,2.2,10.5
				c-0.9,0.2-1.8,0.4-2.7,0.7c-1.6-7-2.8-12.3-2.8-12.3c0,1,0,6.3,0.1,13c-0.5,0.1-1,0.2-1.5,0.4c-1.4-6-2.4-10.4-2.4-10.4
				c0,0.9,0,5.3,0.1,11c-0.1,0-0.2,0.1-0.4,0.1c-0.6-5.9-1.1-10.1-1.1-10.1c-0.1,0.7-0.4,3.2-0.8,6.7c-1-2-2.4-3.8-4.4-5
				c0,0,0.9,2.8,1.6,6.6c-0.5-2.4-1.5-4.6-3-6.3c0,0,0.3,4.3,0,9.9c-0.1,0-0.2,0-0.3,0.1c-0.4-9.2-0.9-17-0.9-17
				c-0.3,1.3-1.6,9.1-2.9,17.9c-0.1,0-0.2,0-0.3,0.1c0.3-4.7,0.8-7.8,0.8-7.8c-2.1,1.2-3.5,3.9-4.4,7.6c-0.4-7.6-0.8-13.6-0.8-13.6
				c-0.2,1-1.1,6.3-2.2,13c-0.3-3.5-1.4-6.8-3.5-9.1c0,0,0.4,5.6-0.1,12.3c-0.4,0.1-0.9,0.2-1.3,0.3c-0.8-4.3-1.4-7.2-1.4-7.2
				c-0.1,0.7-0.1,3.6-0.2,7.6c-0.2,0.1-0.5,0.1-0.7,0.2c-0.7-2.3-1.7-4.3-3.2-5.9c0,0,0.3,2.7,0.4,6.6c-0.3,0.1-0.6,0.1-0.9,0.2
				c-0.4-3.5-1.7-6.9-4.5-9.2c0,0,0.9,4.6,0.8,10c-0.1,0-0.3,0.1-0.4,0.1c-1.1-5-1.9-8.6-1.9-8.6c-0.1,0.7-0.3,4.4-0.6,9.2
				c-1.2,0.3-2.4,0.5-3.6,0.8c-1.7-6.2-3.2-11.1-3.2-11.1c0,0.8,0,5.3,0.1,10.9c-0.6-2.6-1.9-5-4.1-6.8c0,0,0.4,2.1,0.6,5.1
				c-1.6-4.1-2.8-6.9-2.8-6.9c0.1,0.8,0.6,5.2,1.4,10.6c-0.2,0-0.4,0.1-0.6,0.1c-0.9-6-1.7-10.7-1.7-10.7c-0.1,0.5-0.4,2.6-0.7,5.5
				c-0.7-1.2-1.5-2.2-2.7-3.1c0,0,0.7,3.8,0.8,8.5H594.8z M513.1,119.2c0,0.1,0,0.3,0,0.4c-0.1,0-0.1,0-0.2,0
				C513,119.5,513.1,119.4,513.1,119.2z M504.7,118c-0.1,0.8-0.2,1.6-0.2,2.6c-0.1,0-0.2,0-0.3,0C504.4,119.7,504.6,118.9,504.7,118
				z M227.6,183.6C227.6,183.6,227.6,183.6,227.6,183.6c0-0.1,0-0.2,0-0.3C227.6,183.5,227.6,183.5,227.6,183.6z"/>
			<linearGradient id="SVGID_13_" gradientUnits="userSpaceOnUse" x1="175.2315" y1="192.1832" x2="175.6189" y2="173.8977">
				<stop  offset="0" style="stop-color:#742636"/>
				<stop  offset="1" style="stop-color:#A34857"/>
			</linearGradient>
			<path class="st12" d="M178.5,194c-0.7-7.4-1.3-13.1-1.3-13.1c-0.1,0.8-0.6,4.7-1.2,9.8c-0.7-2.2-1.9-4.3-3.8-5.8
				c0,0,0.8,4.1,0.8,9.1H178.5z"/>
			<linearGradient id="SVGID_14_" gradientUnits="userSpaceOnUse" x1="133.541" y1="193.9031" x2="133.5527" y2="193.3477">
				<stop  offset="0" style="stop-color:#742636"/>
				<stop  offset="1" style="stop-color:#A34857"/>
			</linearGradient>
			<path class="st13" d="M133.6,194c0-0.3,0.1-0.4,0.1-0.4C133.6,193.7,133.5,193.8,133.6,194L133.6,194z"/>
			<linearGradient id="SVGID_15_" gradientUnits="userSpaceOnUse" x1="132.8062" y1="193.9429" x2="132.8092" y2="193.7985">
				<stop  offset="0" style="stop-color:#742636"/>
				<stop  offset="1" style="stop-color:#A34857"/>
			</linearGradient>
			<path class="st14" d="M132.8,194c0-0.1,0-0.1,0-0.1C132.8,193.9,132.8,193.9,132.8,194L132.8,194z"/>
			<linearGradient id="SVGID_16_" gradientUnits="userSpaceOnUse" x1="136.9206" y1="193.6063" x2="136.9966" y2="190.0184">
				<stop  offset="0" style="stop-color:#742636"/>
				<stop  offset="1" style="stop-color:#A34857"/>
			</linearGradient>
			<path class="st15" d="M137.2,194c-0.2-1.6-0.3-2.6-0.3-2.6c-0.1,0.4-0.2,1.3-0.3,2.6H137.2z"/>
			<linearGradient id="SVGID_17_" gradientUnits="userSpaceOnUse" x1="119.7046" y1="193.7527" x2="119.7493" y2="191.6402">
				<stop  offset="0" style="stop-color:#742636"/>
				<stop  offset="1" style="stop-color:#A34857"/>
			</linearGradient>
			<path class="st16" d="M119.7,194c0.2-1,0.3-1.5,0.3-1.5c-0.1,0.3-0.3,0.8-0.6,1.5H119.7z"/>
			<linearGradient id="SVGID_18_" gradientUnits="userSpaceOnUse" x1="138.6897" y1="193.2071" x2="138.8532" y2="185.493">
				<stop  offset="0" style="stop-color:#742636"/>
				<stop  offset="1" style="stop-color:#A34857"/>
			</linearGradient>
			<path class="st17" d="M138.9,194c0.5-3.4,0.7-5.5,0.7-5.5c-0.2,0.6-0.9,2.6-1.9,5.5H138.9z"/>
			<linearGradient id="SVGID_19_" gradientUnits="userSpaceOnUse" x1="149.7213" y1="193.5686" x2="149.8059" y2="189.5771">
				<stop  offset="0" style="stop-color:#742636"/>
				<stop  offset="1" style="stop-color:#A34857"/>
			</linearGradient>
			<path class="st18" d="M150.1,194c-0.3-1.8-0.5-2.9-0.5-2.9c-0.1,0.4-0.2,1.4-0.4,2.9H150.1z"/>
			<linearGradient id="SVGID_20_" gradientUnits="userSpaceOnUse" x1="146.5834" y1="193.8927" x2="146.5979" y2="193.2064">
				<stop  offset="0" style="stop-color:#742636"/>
				<stop  offset="1" style="stop-color:#A34857"/>
			</linearGradient>
			<path class="st19" d="M146.9,194c-0.2-0.2-0.4-0.3-0.6-0.5c0,0,0,0.2,0.1,0.5H146.9z"/>
			<linearGradient id="SVGID_21_" gradientUnits="userSpaceOnUse" x1="151.1274" y1="193.5655" x2="151.2118" y2="189.5857">
				<stop  offset="0" style="stop-color:#742636"/>
				<stop  offset="1" style="stop-color:#A34857"/>
			</linearGradient>
			<path class="st20" d="M151.7,194c-0.7-1.8-1.2-2.9-1.2-2.9c0,0.4,0.1,1.4,0.3,2.9H151.7z"/>
			<linearGradient id="SVGID_22_" gradientUnits="userSpaceOnUse" x1="140.7696" y1="193.8079" x2="140.8032" y2="192.224">
				<stop  offset="0" style="stop-color:#742636"/>
				<stop  offset="1" style="stop-color:#A34857"/>
			</linearGradient>
			<path class="st21" d="M141.4,194c-0.4-0.4-0.8-0.8-1.2-1.1c0,0,0.1,0.4,0.2,1.1H141.4z"/>
			<linearGradient id="SVGID_23_" gradientUnits="userSpaceOnUse" x1="145.164" y1="193.2619" x2="145.3146" y2="186.155">
				<stop  offset="0" style="stop-color:#742636"/>
				<stop  offset="1" style="stop-color:#A34857"/>
			</linearGradient>
			<path class="st22" d="M145.7,194c-0.3-3.1-0.5-5.1-0.5-5.1c-0.1,0.6-0.3,2.4-0.7,5.1H145.7z"/>
		</g>
		<g>
			
				<linearGradient id="SVGID_24_" gradientUnits="userSpaceOnUse" x1="411.8812" y1="179.9037" x2="405.2382" y2="85.0036" gradientTransform="matrix(-0.9621 0.2727 0.2727 0.9621 761.1922 -106.6853)">
				<stop  offset="0" style="stop-color:#742636"/>
				<stop  offset="1" style="stop-color:#A34857"/>
			</linearGradient>
			<path class="st23" d="M414.4,136.2c-1.3-2.7-6.8,3.1-8.7,5.3c0.4-3.8,0.5-8,0.2-12.2c2.3-1.4,8.7-5.5,6.8-7.7
				c-1.9-2.1-5.4,4-6.8,6.8c-0.3-3.3-1-6.5-2.1-9.5c1.4-1.4,7.7-7.7,5-9.5c-2.6-1.8-4.6,6.7-5.1,9.2c-0.2-0.5-0.4-0.9-0.6-1.4
				c-0.8-1.9-1.5-3.4-2-4.6c0.1,0.1,0.1,0.1,0.1,0.1s-0.3-11.3-3.9-10.4c-3,0.8,2,7.9,3.5,9.9c0.6,1.7,1.4,3.9,2.1,6.2
				c-2.1-1.8-7.9-6.4-9.4-3.8c-1.6,2.7,7.2,4.1,9.6,4.4c0.4,1.3,0.7,2.5,0.8,3.6c0.3,1.6,0.5,3.7,0.6,5.9c-2.2-1.9-7.9-6.2-9.3-3.7
				c-1.5,2.6,6.6,4,9.3,4.4c0.1,3.6,0.1,7.8-0.2,12.2c-2.1-1.8-8-6.4-9.4-3.8c-1.5,2.7,6.8,4,9.4,4.4c-0.3,5.4-0.9,11.1-1.8,16
				c0,0,2.1-6.8,3.1-15.6C407.9,141.4,415.8,139,414.4,136.2z"/>
			
				<linearGradient id="SVGID_25_" gradientUnits="userSpaceOnUse" x1="296.3817" y1="167.2992" x2="290.0838" y2="77.3301" gradientTransform="matrix(-0.9498 0.3129 0.3129 0.9498 759.177 -87.8966)">
				<stop  offset="0" style="stop-color:#742636"/>
				<stop  offset="1" style="stop-color:#A34857"/>
			</linearGradient>
			<path class="st24" d="M525.9,112.5c-1.4-2.5-6.3,3.2-8,5.3c0.2-3.7,0.2-7.6-0.3-11.6c2.1-1.4,8.1-5.6,6.1-7.6
				c-1.8-1.9-4.9,4-6.2,6.7c-0.4-3.1-1.2-6.1-2.3-8.9c1.3-1.3,7-7.6,4.4-9.2c-2.5-1.6-4.1,6.6-4.5,8.9c-0.2-0.4-0.4-0.9-0.6-1.3
				c-0.9-1.8-1.5-3.2-2.1-4.3c0.1,0.1,0.1,0.1,0.1,0.1s-0.8-10.7-4.1-9.7c-2.8,0.8,2.2,7.4,3.7,9.2c0.6,1.6,1.5,3.7,2.2,5.8
				c-2.1-1.6-7.8-5.7-9.1-3.2c-1.4,2.6,7,3.6,9.2,3.8c0.4,1.2,0.7,2.3,0.9,3.4c0.3,1.5,0.6,3.4,0.8,5.6c-2.2-1.7-7.7-5.6-8.9-3.1
				c-1.3,2.6,6.4,3.5,9,3.8c0.3,3.4,0.4,7.4,0.3,11.5c-2-1.6-7.8-5.8-9.1-3.3c-1.3,2.6,6.6,3.5,9.1,3.8c-0.1,5.2-0.4,10.5-1,15.2
				c0,0,1.8-6.5,2.3-14.9C520,117.7,527.3,115.1,525.9,112.5z"/>
		</g>
	</g>
</g>
</svg>
