<!-- Generator: Adobe Illustrator 23.0.1, SVG Export Plug-In  -->
<svg version="1.1" xmlns="http://www.w3.org/2000/svg" xmlns:xlink="http://www.w3.org/1999/xlink" x="0px" y="0px" width="750px"
	 height="224.1px" viewBox="0 0 750 224.1" style="enable-background:new 0 0 750 224.1;" xml:space="preserve">
<style type="text/css">
	.st0{fill:#91495C;}
	.st1{fill:#9B4E60;}
	.st2{fill:url(#SVGID_1_);}
	.st3{fill:#B55D6C;}
	.st4{fill:url(#SVGID_2_);}
</style>
<defs>
</defs>
<g>
	<g>
		<g>
			<polygon class="st0" points="143.8,78 155.7,15.3 164.3,75.3 			"/>
			<polygon class="st0" points="230.2,101.7 242,38.9 250.6,98.9 			"/>
			<polygon class="st0" points="180.2,111.3 192,38 200.6,108.1 			"/>
			<polygon class="st0" points="198.9,113.6 210.8,40.3 219.4,110.3 			"/>
			<polygon class="st0" points="190.6,118.2 202.4,44.9 211.1,115 			"/>
			<polygon class="st0" points="210.4,124.6 222.3,51.3 230.9,121.3 			"/>
			<polygon class="st0" points="229.4,131.1 241.3,57.8 249.9,127.8 			"/>
			<polygon class="st0" points="126.8,85.2 138.7,11.8 147.3,81.9 			"/>
			<polygon class="st0" points="95.3,86.7 107.2,13.3 115.8,83.4 			"/>
			<polygon class="st0" points="66.7,73.3 78.5,0 87.1,70.1 			"/>
			<polygon class="st0" points="77.2,73.6 89,0.3 97.6,70.3 			"/>
			<g>
				<polygon class="st1" points="223.5,104.7 231,57.9 236.5,102.6 				"/>
				<g>
					<path class="st1" d="M228.8,86.1c0,0-7.8-5.8-10.6-12.5c0,0,11.2,8.4,12,11.2C230.8,87.5,228.8,86.1,228.8,86.1z"/>
					<path class="st1" d="M231.9,88.9c0,0-9.1-3.4-13.7-9c0,0,13.1,4.8,14.6,7.3C234.3,89.7,231.9,88.9,231.9,88.9z"/>
					<path class="st1" d="M227,80c0,0-4.5-8.7-4-15.9c0,0,6.4,12.4,5.8,15.3C228.2,82.2,227,80,227,80z"/>
					<path class="st1" d="M228.7,83.8c0,0-6.7-7.1-8.2-14.2c0,0,9.6,10.2,9.8,13.1C230.4,85.6,228.7,83.8,228.7,83.8z"/>
					<path class="st1" d="M227.1,76.5c0,0-2.3-9.5-0.1-16.4c0,0,3.3,13.6,2,16.2C227.7,79,227.1,76.5,227.1,76.5z"/>
				</g>
				<g>
					<path class="st1" d="M232.4,85.7c0,0,7.8-5.8,10.6-12.5c0,0-11.2,8.4-12,11.2S232.4,85.7,232.4,85.7z"/>
					<path class="st1" d="M229.2,88.4c0,0,9.1-3.4,13.7-9c0,0-13.1,4.8-14.6,7.3C226.8,89.2,229.2,88.4,229.2,88.4z"/>
					<path class="st1" d="M234.2,79.5c0,0,4.5-8.7,4-15.9c0,0-6.4,12.4-5.8,15.3C233,81.7,234.2,79.5,234.2,79.5z"/>
					<path class="st1" d="M232.5,83.3c0,0,6.7-7.1,8.2-14.2c0,0-9.6,10.2-9.8,13.1S232.5,83.3,232.5,83.3z"/>
					<path class="st1" d="M234.1,76.1c0,0,2.3-9.5,0.1-16.4c0,0-3.3,13.6-2,16.2C233.4,78.5,234.1,76.1,234.1,76.1z"/>
				</g>
			</g>
			<g>
				<polygon class="st1" points="166.2,93 173.8,30.6 179.3,90.2 				"/>
				<g>
					<path class="st1" d="M171.5,68.2c0,0-7.8-7.8-10.6-16.7c0,0,11.2,11.2,12,14.9C173.6,70.1,171.5,68.2,171.5,68.2z"/>
					<path class="st1" d="M174.7,71.9c0,0-9.1-4.5-13.7-12c0,0,13.1,6.5,14.6,9.8C177.1,73,174.7,71.9,174.7,71.9z"/>
					<path class="st1" d="M169.7,60c0,0-4.5-11.6-4-21.3c0,0,6.4,16.6,5.8,20.4S169.7,60,169.7,60z"/>
					<path class="st1" d="M171.4,65.1c0,0-6.7-9.5-8.2-19c0,0,9.6,13.7,9.8,17.5S171.4,65.1,171.4,65.1z"/>
					<path class="st1" d="M169.8,55.4c0,0-2.3-12.7-0.1-21.9c0,0,3.3,18.2,2,21.7C170.5,58.6,169.8,55.4,169.8,55.4z"/>
				</g>
				<g>
					<path class="st1" d="M175.1,67.6c0,0,7.8-7.8,10.6-16.7c0,0-11.2,11.2-12,14.9C173.1,69.5,175.1,67.6,175.1,67.6z"/>
					<path class="st1" d="M172,71.3c0,0,9.1-4.5,13.7-12c0,0-13.1,6.5-14.6,9.8C169.6,72.4,172,71.3,172,71.3z"/>
					<path class="st1" d="M176.9,59.4c0,0,4.5-11.6,4-21.3c0,0-6.4,16.6-5.8,20.4C175.7,62.4,176.9,59.4,176.9,59.4z"/>
					<path class="st1" d="M175.2,64.5c0,0,6.7-9.5,8.2-19c0,0-9.6,13.7-9.8,17.5S175.2,64.5,175.2,64.5z"/>
					<path class="st1" d="M176.8,54.8c0,0,2.3-12.7,0.1-21.9c0,0-3.3,18.2-2,21.7C176.2,58.1,176.8,54.8,176.8,54.8z"/>
				</g>
			</g>
			<g>
				<polygon class="st1" points="207,101.7 214.5,54.9 220,99.6 				"/>
				<g>
					<path class="st1" d="M212.3,83.1c0,0-7.8-5.8-10.6-12.5c0,0,11.2,8.4,12,11.2C214.3,84.5,212.3,83.1,212.3,83.1z"/>
					<path class="st1" d="M215.4,85.9c0,0-9.1-3.4-13.7-9c0,0,13.1,4.8,14.6,7.3C217.8,86.7,215.4,85.9,215.4,85.9z"/>
					<path class="st1" d="M210.5,77c0,0-4.5-8.7-4-15.9c0,0,6.4,12.4,5.8,15.3C211.7,79.2,210.5,77,210.5,77z"/>
					<path class="st1" d="M212.2,80.8c0,0-6.7-7.1-8.2-14.2c0,0,9.6,10.2,9.8,13.1C213.9,82.6,212.2,80.8,212.2,80.8z"/>
					<path class="st1" d="M210.6,73.5c0,0-2.3-9.5-0.1-16.4c0,0,3.3,13.6,2,16.2C211.2,76,210.6,73.5,210.6,73.5z"/>
				</g>
				<g>
					<path class="st1" d="M215.9,82.7c0,0,7.8-5.8,10.6-12.5c0,0-11.2,8.4-12,11.2S215.9,82.7,215.9,82.7z"/>
					<path class="st1" d="M212.7,85.4c0,0,9.1-3.4,13.7-9c0,0-13.1,4.8-14.6,7.3C210.3,86.2,212.7,85.4,212.7,85.4z"/>
					<path class="st1" d="M217.7,76.5c0,0,4.5-8.7,4-15.9c0,0-6.4,12.4-5.8,15.3C216.5,78.7,217.7,76.5,217.7,76.5z"/>
					<path class="st1" d="M216,80.3c0,0,6.7-7.1,8.2-14.2c0,0-9.6,10.2-9.8,13.1S216,80.3,216,80.3z"/>
					<path class="st1" d="M217.6,73.1c0,0,2.3-9.5,0.1-16.4c0,0-3.3,13.6-2,16.2C216.9,75.5,217.6,73.1,217.6,73.1z"/>
				</g>
			</g>
		</g>
		<g>
			<polygon class="st1" points="518,99.9 526.5,53.1 532.7,97.8 			"/>
			<polygon class="st1" points="506,111.4 514.5,58.8 520.7,109.1 			"/>
			<polygon class="st1" points="534.9,93 543.4,46.2 549.6,90.9 			"/>
			<polygon class="st1" points="548,97.1 556.5,50.3 562.7,95 			"/>
			<polygon class="st1" points="569.3,89.9 577.8,43.1 584,87.8 			"/>
			<polygon class="st1" points="581.2,91.4 589.7,44.6 595.9,89.3 			"/>
			<g>
				<polygon class="st1" points="490.2,114.7 497.8,56.4 503.3,112.1 				"/>
				<g>
					<path class="st1" d="M495.5,91.6c0,0-7.8-7.2-10.6-15.6c0,0,11.2,10.4,12,13.9C497.6,93.3,495.5,91.6,495.5,91.6z"/>
					<path class="st1" d="M498.7,95c0,0-9.1-4.2-13.7-11.2c0,0,13.1,6,14.6,9.1C501.1,96,498.7,95,498.7,95z"/>
					<path class="st1" d="M493.7,83.9c0,0-4.5-10.8-4-19.9c0,0,6.4,15.5,5.8,19.1C494.9,86.6,493.7,83.9,493.7,83.9z"/>
					<path class="st1" d="M495.4,88.6c0,0-6.7-8.9-8.2-17.7c0,0,9.6,12.7,9.8,16.4C497.2,90.9,495.4,88.6,495.4,88.6z"/>
					<path class="st1" d="M493.8,79.6c0,0-2.3-11.8-0.1-20.5c0,0,3.3,17,2,20.2C494.5,82.6,493.8,79.6,493.8,79.6z"/>
				</g>
				<g>
					<path class="st1" d="M499.1,91c0,0,7.8-7.2,10.6-15.6c0,0-11.2,10.4-12,13.9C497.1,92.8,499.1,91,499.1,91z"/>
					<path class="st1" d="M496,94.5c0,0,9.1-4.2,13.7-11.2c0,0-13.1,6-14.6,9.1S496,94.5,496,94.5z"/>
					<path class="st1" d="M500.9,83.4c0,0,4.5-10.8,4-19.9c0,0-6.4,15.5-5.8,19.1C499.7,86.1,500.9,83.4,500.9,83.4z"/>
					<path class="st1" d="M499.2,88.1c0,0,6.7-8.9,8.2-17.7c0,0-9.6,12.7-9.8,16.4C497.5,90.3,499.2,88.1,499.2,88.1z"/>
					<path class="st1" d="M500.8,79c0,0,2.3-11.8,0.1-20.5c0,0-3.3,17-2,20.2C500.2,82.1,500.8,79,500.8,79z"/>
				</g>
			</g>
			<g>
				<polygon class="st1" points="462.3,123.7 469.8,65.4 475.3,121.1 				"/>
				<g>
					<path class="st1" d="M467.6,100.5c0,0-7.8-7.2-10.6-15.6c0,0,11.2,10.4,12,13.9C469.7,102.3,467.6,100.5,467.6,100.5z"/>
					<path class="st1" d="M470.8,104c0,0-9.1-4.2-13.7-11.2c0,0,13.1,6,14.6,9.1C473.2,105,470.8,104,470.8,104z"/>
					<path class="st1" d="M465.8,92.9c0,0-4.5-10.8-4-19.9c0,0,6.4,15.5,5.8,19.1C467,95.6,465.8,92.9,465.8,92.9z"/>
					<path class="st1" d="M467.5,97.6c0,0-6.7-8.9-8.2-17.7c0,0,9.6,12.7,9.8,16.4C469.3,99.8,467.5,97.6,467.5,97.6z"/>
					<path class="st1" d="M465.9,88.6c0,0-2.3-11.8-0.1-20.5c0,0,3.3,17,2,20.2C466.6,91.6,465.9,88.6,465.9,88.6z"/>
				</g>
				<g>
					<path class="st1" d="M471.2,100c0,0,7.8-7.2,10.6-15.6c0,0-11.2,10.4-12,13.9C469.2,101.8,471.2,100,471.2,100z"/>
					<path class="st1" d="M468,103.4c0,0,9.1-4.2,13.7-11.2c0,0-13.1,6-14.6,9.1C465.7,104.4,468,103.4,468,103.4z"/>
					<path class="st1" d="M473,92.3c0,0,4.5-10.8,4-19.9c0,0-6.4,15.5-5.8,19.1C471.8,95.1,473,92.3,473,92.3z"/>
					<path class="st1" d="M471.3,97.1c0,0,6.7-8.9,8.2-17.7c0,0-9.6,12.7-9.8,16.4C469.5,99.3,471.3,97.1,471.3,97.1z"/>
					<path class="st1" d="M472.9,88c0,0,2.3-11.8,0.1-20.5c0,0-3.3,17-2,20.2S472.9,88,472.9,88z"/>
				</g>
			</g>
			<g>
				<polygon class="st1" points="567,104.2 575.5,51.6 581.7,101.8 				"/>
				<g>
					<path class="st1" d="M572.9,83.3c0,0-8.8-6.5-12-14.1c0,0,12.6,9.4,13.5,12.5C575.3,84.9,572.9,83.3,572.9,83.3z"/>
					<path class="st1" d="M576.5,86.4c0,0-10.3-3.8-15.5-10.1c0,0,14.8,5.4,16.5,8.2S576.5,86.4,576.5,86.4z"/>
					<path class="st1" d="M570.9,76.4c0,0-5-9.7-4.5-17.9c0,0,7.2,14,6.5,17.2S570.9,76.4,570.9,76.4z"/>
					<path class="st1" d="M572.8,80.7c0,0-7.5-8-9.3-16c0,0,10.8,11.5,11,14.8S572.8,80.7,572.8,80.7z"/>
					<path class="st1" d="M571.1,72.5c0,0-2.6-10.7-0.2-18.5c0,0,3.7,15.3,2.3,18.3S571.1,72.5,571.1,72.5z"/>
				</g>
				<g>
					<path class="st1" d="M577,82.8c0,0,8.8-6.5,12-14.1c0,0-12.6,9.4-13.5,12.5C574.7,84.4,577,82.8,577,82.8z"/>
					<path class="st1" d="M573.5,85.9c0,0,10.3-3.8,15.5-10.1c0,0-14.8,5.4-16.5,8.2C570.8,86.8,573.5,85.9,573.5,85.9z"/>
					<path class="st1" d="M579.1,75.9c0,0,5-9.7,4.5-17.9c0,0-7.2,14-6.5,17.2S579.1,75.9,579.1,75.9z"/>
					<path class="st1" d="M577.1,80.2c0,0,7.5-8,9.3-16c0,0-10.8,11.5-11,14.8S577.1,80.2,577.1,80.2z"/>
					<path class="st1" d="M578.9,72c0,0,2.6-10.7,0.2-18.5c0,0-3.7,15.3-2.3,18.3S578.9,72,578.9,72z"/>
				</g>
			</g>
			<g>
				<polygon class="st1" points="588.8,115.7 597.3,63.1 603.5,113.3 				"/>
				<g>
					<path class="st1" d="M594.8,94.8c0,0-8.8-6.5-12-14.1c0,0,12.6,9.4,13.5,12.5C597.1,96.4,594.8,94.8,594.8,94.8z"/>
					<path class="st1" d="M598.4,97.9c0,0-10.3-3.8-15.5-10.1c0,0,14.8,5.4,16.5,8.2C601,98.8,598.4,97.9,598.4,97.9z"/>
					<path class="st1" d="M592.8,87.9c0,0-5-9.7-4.5-17.9c0,0,7.2,14,6.5,17.2S592.8,87.9,592.8,87.9z"/>
					<path class="st1" d="M594.7,92.2c0,0-7.5-8-9.3-16c0,0,10.8,11.5,11,14.8S594.7,92.2,594.7,92.2z"/>
					<path class="st1" d="M592.9,84c0,0-2.6-10.7-0.2-18.5c0,0,3.7,15.3,2.3,18.3S592.9,84,592.9,84z"/>
				</g>
				<g>
					<path class="st1" d="M598.9,94.3c0,0,8.8-6.5,12-14.1c0,0-12.6,9.4-13.5,12.5C596.5,95.9,598.9,94.3,598.9,94.3z"/>
					<path class="st1" d="M595.3,97.4c0,0,10.3-3.8,15.5-10.1c0,0-14.8,5.4-16.5,8.2S595.3,97.4,595.3,97.4z"/>
					<path class="st1" d="M600.9,87.4c0,0,5-9.7,4.5-17.9c0,0-7.2,14-6.5,17.2S600.9,87.4,600.9,87.4z"/>
					<path class="st1" d="M599,91.7c0,0,7.5-8,9.3-16c0,0-10.8,11.5-11,14.8S599,91.7,599,91.7z"/>
					<path class="st1" d="M600.8,83.5c0,0,2.6-10.7,0.2-18.5c0,0-3.7,15.3-2.3,18.3S600.8,83.5,600.8,83.5z"/>
				</g>
			</g>
			<g>
				<polygon class="st1" points="527,114.5 535.5,61.9 541.7,112.2 				"/>
				<g>
					<path class="st1" d="M532.9,93.6c0,0-8.8-6.5-12-14.1c0,0,12.6,9.4,13.5,12.5C535.3,95.2,532.9,93.6,532.9,93.6z"/>
					<path class="st1" d="M536.5,96.7c0,0-10.3-3.8-15.5-10.1c0,0,14.8,5.4,16.5,8.2S536.5,96.7,536.5,96.7z"/>
					<path class="st1" d="M530.9,86.7c0,0-5-9.7-4.5-17.9c0,0,7.2,14,6.5,17.2S530.9,86.7,530.9,86.7z"/>
					<path class="st1" d="M532.8,91c0,0-7.5-8-9.3-16c0,0,10.8,11.5,11,14.8S532.8,91,532.8,91z"/>
					<path class="st1" d="M531.1,82.8c0,0-2.6-10.7-0.2-18.5c0,0,3.7,15.3,2.3,18.3C531.8,85.6,531.1,82.8,531.1,82.8z"/>
				</g>
				<g>
					<path class="st1" d="M537,93.1c0,0,8.8-6.5,12-14.1c0,0-12.6,9.4-13.5,12.5C534.7,94.7,537,93.1,537,93.1z"/>
					<path class="st1" d="M533.5,96.2c0,0,10.3-3.8,15.5-10.1c0,0-14.8,5.4-16.5,8.2C530.8,97.1,533.5,96.2,533.5,96.2z"/>
					<path class="st1" d="M539.1,86.2c0,0,5-9.7,4.5-17.9c0,0-7.2,14-6.5,17.2S539.1,86.2,539.1,86.2z"/>
					<path class="st1" d="M537.1,90.5c0,0,7.5-8,9.3-16c0,0-10.8,11.5-11,14.8S537.1,90.5,537.1,90.5z"/>
					<path class="st1" d="M538.9,82.3c0,0,2.6-10.7,0.2-18.5c0,0-3.7,15.3-2.3,18.3C538.2,85.1,538.9,82.3,538.9,82.3z"/>
				</g>
			</g>
		</g>
	</g>
	<g>
		<linearGradient id="SVGID_1_" gradientUnits="userSpaceOnUse" x1="368.3761" y1="124.8245" x2="372.9664" y2="65.6599">
			<stop  offset="0" style="stop-color:#BF6B7D"/>
			<stop  offset="0.2558" style="stop-color:#C36D80"/>
			<stop  offset="0.5368" style="stop-color:#D17489"/>
			<stop  offset="0.8285" style="stop-color:#E77F97"/>
			<stop  offset="1" style="stop-color:#F788A2"/>
		</linearGradient>
		<path class="st2" d="M750,58.4c-464.6,86-750-38-750-38l0,82.9C108.4,121.7,463.8,169.1,750,58.4z"/>
		<path class="st3" d="M750,224.1l0-165.7C463.8,169.1,108.4,121.7,0,103.3l0,120.8L750,224.1z"/>
	</g>
</g>
</svg>
