<!-- Generator: Adobe Illustrator 23.0.1, SVG Export Plug-In  -->
<svg version="1.1" xmlns="http://www.w3.org/2000/svg" xmlns:xlink="http://www.w3.org/1999/xlink" x="0px" y="0px" width="735.8px"
	 height="300.8px" viewBox="0 0 735.8 300.8" style="enable-background:new 0 0 735.8 300.8;" xml:space="preserve">
<style type="text/css">
	.st0{fill:url(#SVGID_1_);}
	.st1{fill:url(#SVGID_2_);}
	.st2{fill:url(#SVGID_3_);}
	.st3{fill:url(#SVGID_4_);}
	.st4{fill:url(#SVGID_5_);}
	.st5{fill:url(#SVGID_6_);}
	.st6{fill:url(#SVGID_7_);}
	.st7{fill:url(#SVGID_8_);}
	.st8{fill:url(#SVGID_9_);}
	.st9{fill:url(#SVGID_10_);}
	.st10{fill:url(#SVGID_11_);}
	.st11{fill:url(#SVGID_12_);}
	.st12{fill:url(#SVGID_13_);}
	.st13{fill:url(#SVGID_14_);}
	.st14{fill:url(#SVGID_15_);}
	.st15{fill:url(#SVGID_16_);}
	.st16{fill:url(#SVGID_17_);}
	.st17{fill:url(#SVGID_18_);}
	.st18{fill:url(#SVGID_19_);}
	.st19{fill:url(#SVGID_20_);}
	.st20{fill:url(#SVGID_21_);}
	.st21{fill:url(#SVGID_22_);}
	.st22{fill:url(#SVGID_23_);}
	.st23{fill:url(#SVGID_24_);}
	.st24{fill:url(#SVGID_25_);}
	.st25{fill:url(#SVGID_26_);}
	.st26{fill:url(#SVGID_27_);}
	.st27{fill:url(#SVGID_28_);}
	.st28{fill:url(#SVGID_29_);}
	.st29{fill:url(#SVGID_30_);}
	.st30{fill:url(#SVGID_31_);}
	.st31{fill:url(#SVGID_32_);}
	.st32{fill:url(#SVGID_33_);}
	.st33{fill:url(#SVGID_34_);}
	.st34{fill:url(#SVGID_35_);}
	.st35{fill:url(#SVGID_36_);}
	.st36{fill:url(#SVGID_37_);}
	.st37{fill:url(#SVGID_38_);}
	.st38{fill:url(#SVGID_39_);}
	.st39{fill:url(#SVGID_40_);}
	.st40{fill:url(#SVGID_41_);}
	.st41{fill:url(#SVGID_42_);}
	.st42{fill:url(#SVGID_43_);}
	.st43{fill:url(#SVGID_44_);}
	.st44{fill:url(#SVGID_45_);}
	.st45{fill:url(#SVGID_46_);}
	.st46{fill:url(#SVGID_47_);}
	.st47{fill:url(#SVGID_48_);}
</style>
<defs>
</defs>
<g>
	<g>
		<g>
			<linearGradient id="SVGID_1_" gradientUnits="userSpaceOnUse" x1="704.9775" y1="225.1605" x2="705.5164" y2="123.3136">
				<stop  offset="0" style="stop-color:#4D111D"/>
				<stop  offset="1" style="stop-color:#631C2D"/>
			</linearGradient>
			<path class="st0" d="M735.8,231.3c0,0-7.7-26.7-8.8-26.1c-1.1,0.5-5.9,4.5-5.9,4.5l5-9l-0.7-3.2l-10.1,9.9l9.2-16l-3.8-12.2
				l-5.4,7l4.5-10.4l-1.6-10.1l-5.6,6.3l3.4-8.6l-3.4-18.4l-4.4,4.2l3.8-5.4l-3.9,3.1l3-5.9l-5.8-20.1l-4.6,19.1l2.2,3.6l-2.7-2.6
				l-3.1,9.8l5.5,4.2l-6.1-3.6l4.8,5.8l-5-3.8l-3.1,15.2l7.7,6.1l-8.2-5.4l-4,14.5l11.7,10.1l-12.7-8.6l11.5,10.6l-12.1-7.3
				l-3.2,12.1l12.9,10.6l-13.7-7.4l-9.1,27.1L735.8,231.3z"/>
			<linearGradient id="SVGID_2_" gradientUnits="userSpaceOnUse" x1="705.0348" y1="276.8816" x2="705.0348" y2="134.0804">
				<stop  offset="0" style="stop-color:#3C111D"/>
				<stop  offset="1" style="stop-color:#531C2D"/>
			</linearGradient>
			<polygon class="st1" points="707.2,272.2 702.9,272.2 704.4,135.3 706.2,135.3 			"/>
		</g>
		<g>
			<linearGradient id="SVGID_3_" gradientUnits="userSpaceOnUse" x1="627.9081" y1="218.472" x2="628.447" y2="116.6251">
				<stop  offset="0" style="stop-color:#4D111D"/>
				<stop  offset="1" style="stop-color:#631C2D"/>
			</linearGradient>
			<path class="st2" d="M658.8,224.7c0,0-7.7-26.7-8.8-26.1c-1.1,0.5-5.9,4.5-5.9,4.5l5-9l-0.7-3.2l-10.1,9.9l9.2-16l-3.8-12.2
				l-5.4,7l4.5-10.4l-1.6-10.1l-5.6,6.3l3.4-8.6l-3.4-18.4l-4.4,4.2l3.8-5.4l-3.9,3.1l3-5.9l-5.8-20.1l-4.6,19.1l2.2,3.6l-2.7-2.6
				l-3.1,9.8l5.5,4.2l-6.1-3.6l4.8,5.8l-5-3.8l-3.1,15.2l7.7,6.1l-8.2-5.4l-4,14.5l11.7,10.1l-12.7-8.6l11.5,10.6l-12.1-7.3
				l-3.2,12.1l12.9,10.6l-13.7-7.4l-9.1,27.1L658.8,224.7z"/>
			<linearGradient id="SVGID_4_" gradientUnits="userSpaceOnUse" x1="627.9655" y1="270.1931" x2="627.9655" y2="127.3919">
				<stop  offset="0" style="stop-color:#3C111D"/>
				<stop  offset="1" style="stop-color:#531C2D"/>
			</linearGradient>
			<polygon class="st3" points="630.1,265.5 625.8,265.5 627.3,128.6 629.1,128.6 			"/>
		</g>
		<g>
			<linearGradient id="SVGID_5_" gradientUnits="userSpaceOnUse" x1="668.2755" y1="199.9823" x2="668.8143" y2="98.1354">
				<stop  offset="0" style="stop-color:#631C2D"/>
				<stop  offset="1" style="stop-color:#7A233E"/>
			</linearGradient>
			<path class="st4" d="M699.1,206.2c0,0-7.7-26.7-8.8-26.1c-1.1,0.5-5.9,4.5-5.9,4.5l5-9l-0.7-3.2l-10.1,9.9l9.2-16L684,154l-5.4,7
				l4.5-10.4l-1.6-10.1l-5.6,6.3l3.4-8.6l-3.4-18.4l-4.4,4.2l3.8-5.4l-3.9,3.1l3-5.9l-5.8-20.1l-4.6,19.1l2.2,3.6l-2.7-2.6l-3.1,9.8
				l5.5,4.2l-6.1-3.6l4.8,5.8l-5-3.8l-3.1,15.2l7.7,6.1l-8.2-5.4l-4,14.5l11.7,10.1l-12.7-8.6l11.5,10.6l-12.1-7.3l-3.2,12.1
				l12.9,10.6l-13.7-7.4l-9.1,27.1L699.1,206.2z"/>
			<linearGradient id="SVGID_6_" gradientUnits="userSpaceOnUse" x1="668.3328" y1="251.7034" x2="668.3328" y2="108.9022">
				<stop  offset="0" style="stop-color:#3C111D"/>
				<stop  offset="1" style="stop-color:#531C2D"/>
			</linearGradient>
			<polygon class="st5" points="670.5,247 666.2,247 667.7,110.2 669.5,110.2 			"/>
		</g>
		<g>
			<linearGradient id="SVGID_7_" gradientUnits="userSpaceOnUse" x1="592.3315" y1="224.8355" x2="592.8704" y2="122.9886">
				<stop  offset="0" style="stop-color:#631C2D"/>
				<stop  offset="1" style="stop-color:#7A233E"/>
			</linearGradient>
			<path class="st6" d="M623.2,231c0,0-7.7-26.7-8.8-26.1s-5.9,4.5-5.9,4.5l5-9l-0.7-3.2l-10.1,9.9l9.2-16l-3.8-12.2l-5.4,7
				l4.5-10.4l-1.6-10.1l-5.6,6.3l3.4-8.6l-3.4-18.4l-4.4,4.2l3.8-5.4l-3.9,3.1l3-5.9l-5.8-20.1l-4.6,19.1l2.2,3.6l-2.7-2.6l-3.1,9.8
				l5.5,4.2l-6.1-3.6l4.8,5.8l-5-3.8l-3.1,15.2l7.7,6.1l-8.2-5.4l-4,14.5l11.7,10.1l-12.7-8.6l11.5,10.6l-12.1-7.3l-3.2,12.1
				l12.9,10.6l-13.7-7.4l-9.1,27.1L623.2,231z"/>
			<linearGradient id="SVGID_8_" gradientUnits="userSpaceOnUse" x1="592.3888" y1="276.5566" x2="592.3888" y2="133.7554">
				<stop  offset="0" style="stop-color:#3C111D"/>
				<stop  offset="1" style="stop-color:#531C2D"/>
			</linearGradient>
			<polygon class="st7" points="594.5,271.9 590.2,271.9 591.8,135 593.6,135 			"/>
		</g>
	</g>
	<g>
		<g>
			<linearGradient id="SVGID_9_" gradientUnits="userSpaceOnUse" x1="37.407" y1="126.1289" x2="38.0588" y2="2.9458">
				<stop  offset="0" style="stop-color:#4D111D"/>
				<stop  offset="1" style="stop-color:#631C2D"/>
			</linearGradient>
			<path class="st8" d="M74.7,133.6c0,0-9.3-32.3-10.6-31.6c-1.3,0.7-7.2,5.4-7.2,5.4L63,96.6l-0.9-3.9L50,104.6L61,85.3l-4.6-14.8
				L50,79l5.4-12.6l-2-12.2l-6.7,7.6l4.1-10.4l-4.1-22.2l-5.4,5.1l4.6-6.5l-4.7,3.7l3.6-7.2L37.7,0l-5.5,23.1l2.6,4.4l-3.3-3.1
				l-3.7,11.9l6.7,5.1L27.2,37l5.9,7l-6-4.6l-3.7,18.4l9.3,7.3l-9.9-6.5l-4.9,17.6l14.2,12.2L16.6,78l13.8,12.9l-14.7-8.8l-3.9,14.7
				l15.6,12.8L11,100.7L0,133.5L74.7,133.6z"/>
			<linearGradient id="SVGID_10_" gradientUnits="userSpaceOnUse" x1="37.4763" y1="188.6852" x2="37.4763" y2="15.9682">
				<stop  offset="0" style="stop-color:#3C111D"/>
				<stop  offset="1" style="stop-color:#531C2D"/>
			</linearGradient>
			<polygon class="st9" points="40.1,183 34.9,183 36.7,17.5 38.9,17.5 			"/>
		</g>
		<g>
			<linearGradient id="SVGID_11_" gradientUnits="userSpaceOnUse" x1="117.0594" y1="170.1275" x2="117.6182" y2="64.5138">
				<stop  offset="0" style="stop-color:#4D111D"/>
				<stop  offset="1" style="stop-color:#631C2D"/>
			</linearGradient>
			<path class="st10" d="M149.1,176.5c0,0-8-27.7-9.1-27.1c-1.1,0.6-6.1,4.7-6.1,4.7l5.2-9.3l-0.7-3.4l-10.4,10.2l9.5-16.6
				l-3.9-12.7l-5.6,7.3l4.7-10.8l-1.7-10.4L125,115l3.5-8.9L125,87l-4.6,4.3l3.9-5.6l-4.1,3.2l3.1-6.1l-6-20.8l-4.7,19.8l2.2,3.8
				l-2.8-2.7l-3.2,10.2l5.7,4.3l-6.3-3.8l5,6l-5.2-3.9l-3.2,15.8l8,6.3l-8.5-5.6l-4.2,15.1l12.2,10.5l-13.1-8.9l11.9,11l-12.6-7.5
				L95.1,145l13.4,11l-14.2-7.6L85,176.4L149.1,176.5z"/>
			<linearGradient id="SVGID_12_" gradientUnits="userSpaceOnUse" x1="117.1189" y1="223.7616" x2="117.1189" y2="75.6789">
				<stop  offset="0" style="stop-color:#3C111D"/>
				<stop  offset="1" style="stop-color:#531C2D"/>
			</linearGradient>
			<polygon class="st11" points="119.4,218.9 114.9,218.9 116.5,77 118.3,77 			"/>
		</g>
		<g>
			<linearGradient id="SVGID_13_" gradientUnits="userSpaceOnUse" x1="75.8035" y1="138.3588" x2="76.4433" y2="17.4225">
				<stop  offset="0" style="stop-color:#631C2D"/>
				<stop  offset="1" style="stop-color:#7A233E"/>
			</linearGradient>
			<path class="st12" d="M112.5,145.7c0,0-9.2-31.7-10.5-31s-7,5.3-7,5.3l6-10.7l-0.9-3.8l-11.9,11.7l10.9-19l-4.5-14.5l-6.4,8.3
				l5.3-12.4l-1.9-11.9l-6.6,7.5L89,65l-4.1-21.8l-5.3,5l4.5-6.4l-4.6,3.7l3.5-7l-6.9-23.8l-5.4,22.7l2.6,4.3l-3.3-3l-3.6,11.7
				l6.6,5l-7.2-4.3l5.8,6.9l-5.9-4.5l-3.7,18.1l9.1,7.2l-9.8-6.4l-4.8,17.3l13.9,12l-15-10.2l13.6,12.6l-14.4-8.6l-3.8,14.4
				l15.4,12.6l-16.2-8.7l-10.8,32.2L112.5,145.7z"/>
			<linearGradient id="SVGID_14_" gradientUnits="userSpaceOnUse" x1="75.8715" y1="199.7742" x2="75.8715" y2="30.2074">
				<stop  offset="0" style="stop-color:#3C111D"/>
				<stop  offset="1" style="stop-color:#531C2D"/>
			</linearGradient>
			<polygon class="st13" points="78.4,194.2 73.3,194.2 75.1,31.7 77.3,31.7 			"/>
		</g>
	</g>
	<g>
		<g>
			<linearGradient id="SVGID_15_" gradientUnits="userSpaceOnUse" x1="219.4939" y1="235.292" x2="219.7486" y2="187.1531">
				<stop  offset="0" style="stop-color:#4D111D"/>
				<stop  offset="1" style="stop-color:#631C2D"/>
			</linearGradient>
			<path class="st14" d="M234.1,238.2c0,0-3.7-12.6-4.2-12.4c-0.5,0.3-2.8,2.1-2.8,2.1l2.4-4.2l-0.3-1.5l-4.8,4.7l4.3-7.6l-1.8-5.8
				l-2.5,3.3l2.1-4.9l-0.8-4.8l-2.6,3l1.6-4.1l-1.6-8.7l-2.1,2l1.8-2.5l-1.8,1.5l1.4-2.8l-2.7-9.5l-2.2,9l1,1.7l-1.3-1.2l-1.4,4.6
				l2.6,2l-2.9-1.7l2.3,2.7l-2.4-1.8l-1.5,7.2l3.6,2.9l-3.9-2.5l-1.9,6.9l5.5,4.8l-6-4.1l5.4,5l-5.7-3.4l-1.5,5.7l6.1,5l-6.5-3.5
				l-4.3,12.8L234.1,238.2z"/>
			<linearGradient id="SVGID_16_" gradientUnits="userSpaceOnUse" x1="219.521" y1="259.7385" x2="219.521" y2="192.2422">
				<stop  offset="0" style="stop-color:#3C111D"/>
				<stop  offset="1" style="stop-color:#531C2D"/>
			</linearGradient>
			<polygon class="st15" points="220.5,257.5 218.5,257.5 219.2,192.8 220.1,192.8 			"/>
		</g>
		<g>
			<linearGradient id="SVGID_17_" gradientUnits="userSpaceOnUse" x1="256.5902" y1="259.7384" x2="256.8449" y2="211.5995">
				<stop  offset="0" style="stop-color:#4D111D"/>
				<stop  offset="1" style="stop-color:#631C2D"/>
			</linearGradient>
			<path class="st16" d="M271.2,262.7c0,0-3.7-12.6-4.2-12.4c-0.5,0.3-2.8,2.1-2.8,2.1l2.4-4.2l-0.3-1.5l-4.8,4.7l4.3-7.6L264,238
				l-2.5,3.3l2.1-4.9l-0.8-4.8l-2.6,3l1.6-4.1l-1.6-8.7l-2.1,2l1.8-2.5l-1.8,1.5l1.4-2.8l-2.7-9.5l-2.2,9l1,1.7l-1.3-1.2l-1.4,4.6
				l2.6,2l-2.9-1.7l2.3,2.7l-2.4-1.8l-1.5,7.2l3.6,2.9l-3.9-2.5l-1.9,6.9l5.5,4.8l-6-4.1l5.4,5l-5.7-3.4l-1.5,5.7l6.1,5l-6.5-3.5
				l-4.3,12.8L271.2,262.7z"/>
			<linearGradient id="SVGID_18_" gradientUnits="userSpaceOnUse" x1="256.6173" y1="284.1848" x2="256.6173" y2="216.6885">
				<stop  offset="0" style="stop-color:#3C111D"/>
				<stop  offset="1" style="stop-color:#531C2D"/>
			</linearGradient>
			<polygon class="st17" points="257.6,282 255.6,282 256.3,217.3 257.2,217.3 			"/>
		</g>
		<g>
			<linearGradient id="SVGID_19_" gradientUnits="userSpaceOnUse" x1="315.4896" y1="271.0764" x2="315.83" y2="206.7396">
				<stop  offset="0" style="stop-color:#631C2D"/>
				<stop  offset="1" style="stop-color:#7A233E"/>
			</linearGradient>
			<path class="st18" d="M335,275c0,0-4.9-16.9-5.6-16.5c-0.7,0.3-3.7,2.8-3.7,2.8l3.2-5.7l-0.5-2l-6.4,6.2l5.8-10.1l-2.4-7.7
				l-3.4,4.4l2.8-6.6l-1-6.4l-3.5,4l2.2-5.4l-2.2-11.6l-2.8,2.6l2.4-3.4l-2.5,2l1.9-3.7l-3.7-12.7l-2.9,12.1l1.4,2.3l-1.7-1.6
				l-1.9,6.2l3.5,2.6l-3.8-2.3l3.1,3.7l-3.1-2.4l-2,9.6l4.9,3.8l-5.2-3.4l-2.6,9.2l7.4,6.4l-8-5.4l7.2,6.7l-7.7-4.6l-2,7.7l8.2,6.7
				l-8.6-4.7l-5.7,17.1L335,275z"/>
			<linearGradient id="SVGID_20_" gradientUnits="userSpaceOnUse" x1="315.5258" y1="303.7487" x2="315.5258" y2="213.541">
				<stop  offset="0" style="stop-color:#3C111D"/>
				<stop  offset="1" style="stop-color:#531C2D"/>
			</linearGradient>
			<polygon class="st19" points="316.9,300.8 314.2,300.8 315.1,214.3 316.3,214.3 			"/>
		</g>
		<g>
			<linearGradient id="SVGID_21_" gradientUnits="userSpaceOnUse" x1="273.0631" y1="262.6937" x2="273.3548" y2="207.5545">
				<stop  offset="0" style="stop-color:#631C2D"/>
				<stop  offset="1" style="stop-color:#7A233E"/>
			</linearGradient>
			<path class="st20" d="M289.8,266c0,0-4.2-14.4-4.8-14.1c-0.6,0.3-3.2,2.4-3.2,2.4l2.7-4.9l-0.4-1.8l-5.4,5.3l5-8.7l-2-6.6
				l-2.9,3.8l2.4-5.6l-0.9-5.4l-3,3.4l1.8-4.7l-1.8-9.9l-2.4,2.3l2-2.9l-2.1,1.7l1.6-3.2l-3.1-10.9l-2.5,10.4l1.2,2l-1.5-1.4
				l-1.7,5.3l3,2.3l-3.3-2l2.6,3.1l-2.7-2l-1.7,8.2l4.2,3.3l-4.4-2.9l-2.2,7.9l6.3,5.5l-6.9-4.7l6.2,5.8l-6.6-3.9l-1.8,6.6l7,5.7
				l-7.4-4l-4.9,14.7L289.8,266z"/>
			<linearGradient id="SVGID_22_" gradientUnits="userSpaceOnUse" x1="273.0941" y1="290.6951" x2="273.0941" y2="213.3836">
				<stop  offset="0" style="stop-color:#3C111D"/>
				<stop  offset="1" style="stop-color:#531C2D"/>
			</linearGradient>
			<polygon class="st21" points="274.3,288.2 271.9,288.2 272.8,214.1 273.7,214.1 			"/>
		</g>
		<g>
			<linearGradient id="SVGID_23_" gradientUnits="userSpaceOnUse" x1="234.975" y1="232.3988" x2="235.1813" y2="193.4116">
				<stop  offset="0" style="stop-color:#631C2D"/>
				<stop  offset="1" style="stop-color:#7A233E"/>
			</linearGradient>
			<path class="st22" d="M246.8,234.8c0,0-3-10.2-3.4-10c-0.4,0.2-2.3,1.7-2.3,1.7l1.9-3.4l-0.3-1.2l-3.9,3.8l3.5-6.1l-1.4-4.7
				l-2.1,2.7l1.7-4l-0.6-3.9l-2.1,2.4l1.3-3.3l-1.3-7l-1.7,1.6l1.4-2.1l-1.5,1.2l1.1-2.3l-2.2-7.7l-1.8,7.3l0.8,1.4l-1-1l-1.2,3.8
				l2.1,1.6l-2.3-1.4l1.9,2.2l-1.9-1.4l-1.2,5.8l2.9,2.3l-3.1-2.1l-1.5,5.6l4.5,3.9l-4.8-3.3l4.4,4.1l-4.6-2.8l-1.2,4.6l5,4.1
				l-5.2-2.8l-3.5,10.4L246.8,234.8z"/>
			<linearGradient id="SVGID_24_" gradientUnits="userSpaceOnUse" x1="234.997" y1="252.1978" x2="234.997" y2="197.5331">
				<stop  offset="0" style="stop-color:#3C111D"/>
				<stop  offset="1" style="stop-color:#531C2D"/>
			</linearGradient>
			<polygon class="st23" points="235.8,250.4 234.2,250.4 234.8,198 235.4,198 			"/>
		</g>
	</g>
</g>
</svg>
