<!-- Generator: Adobe Illustrator 23.0.1, SVG Export Plug-In  -->
<svg version="1.1" xmlns="http://www.w3.org/2000/svg" xmlns:xlink="http://www.w3.org/1999/xlink" x="0px" y="0px" width="817.3px"
	 height="268.9px" viewBox="0 70 817.3 268.9" style="enable-background:new 0 0 817.3 268.9;" xml:space="preserve">
<style type="text/css">
	.st0{fill:url(#SVGID_4_);}
	.st1{opacity:0.2;}
	.st2{clip-path:url(#SVGID_5_);}
	.st3{fill:#D18297;}
	.st4{fill:url(#SVGID_6_);}
	.st5{opacity:0.1;fill:#A04B66;}
	.st6{fill:url(#SVGID_7_);}
	.st7{fill:url(#SVGID_8_);}
	.st8{opacity:0.15;fill:#A04B66;}
	.st9{fill:url(#SVGID_9_);}
	.st10{clip-path:url(#SVGID_10_);}
	.st11{fill:#91495C;}
	.st12{clip-path:url(#SVGID_11_);}
	.st13{opacity:0.1;fill:#FFFFFF;}
	.st14{fill:url(#SVGID_12_);}
	.st15{clip-path:url(#SVGID_13_);}
	.st16{fill:url(#SVGID_14_);}
	.st17{fill:url(#SVGID_15_);}
	.st18{fill:url(#SVGID_16_);}
	.st19{fill:url(#SVGID_17_);}
	.st20{clip-path:url(#SVGID_18_);}
	.st21{clip-path:url(#SVGID_19_);}
</style>
<defs>
</defs>
<g>
	<g>
		<g>
			<linearGradient id="SVGID_4_" gradientUnits="userSpaceOnUse" x1="387.6225" y1="60.1605" x2="405.2018" y2="166.1059">
				<stop  offset="0" style="stop-color:#FDD6C5"/>
				<stop  offset="0.1387" style="stop-color:#FBC9BC"/>
				<stop  offset="0.4226" style="stop-color:#F9B6AD"/>
				<stop  offset="0.7092" style="stop-color:#F7AAA5"/>
				<stop  offset="1" style="stop-color:#F7A6A2"/>
			</linearGradient>
			<rect x="30.7" y="68.9" class="st0" width="750" height="200"/>
			<g class="st1">
				<defs>
					<rect id="SVGID_3_" x="30.7" y="67.9" class="st1" width="750" height="115"/>
				</defs>
				<clipPath id="SVGID_5_">
					<use xlink:href="#SVGID_3_"  style="overflow:visible;"/>
				</clipPath>
				<g class="st2">
					<g>
						<g>
							<g>
								<path class="st3" d="M265.3,81.7c0,0-65.3,24.3-77.3,24.3s-28.7,14.2-42.7,17.4s-38-18.2-50.7-20.6C82,100.3,0,67.7,0,67.7
									h292L265.3,81.7z"/>
								
									<linearGradient id="SVGID_6_" gradientUnits="userSpaceOnUse" x1="0" y1="-161.6104" x2="157.6667" y2="-161.6104" gradientTransform="matrix(1 0 0 -1 0 -65.5403)">
									<stop  offset="0" style="stop-color:#F7A6A2"/>
									<stop  offset="1" style="stop-color:#F788A2"/>
								</linearGradient>
								<path class="st4" d="M142.5,124.4c0,0,8.4-2.2,15.2-6.1c0,0-6.8-3.7-5.7-4.2c1.2-0.5,4.7-2.6,5.5-3.9
									c0.8-1.3-20.9-2.5-21.7-2.7c-0.8-0.2,2-3.5,4.7-3.8c2.7-0.3,1-2.4,2.3-3.2c1.3-0.8-7.2-0.4-8.5-1c-1.3-0.6-7.7-9.9-4.7-11.5
									c3-1.6-23-2.8-27.3-2.8c-4.3,0,10.6-4.5,14.3-5.6s7-8.3,8-9.4c1-1.1,7.3-2.4,7.3-2.4H0c0,0,28.3,14.6,38.7,17.4
									C49,88,67.2,93.8,72.2,96.8s23.2,10.1,28.8,11.1C106.7,108.9,132.3,125.1,142.5,124.4z"/>
							</g>
							<g>
								<path class="st5" d="M134.9,120.3c0,0-15.8-6.4-15.8-7.6c0-1.2,18.3-0.3,18.3-0.3s-10.3,0.3-11,1.5
									c-0.8,1.2,6.8,1.1,6.8,1.1l-0.5,2.6L134.9,120.3z"/>
								<path class="st5" d="M107.9,108.3c0,0-7.8-3-7.3-5.2s-19.5-5.3-19.5-5.3s22,1.7,23.8,2.6s0.8,4.2,0.8,4.2l7,4.1L107.9,108.3
									z"/>
								<path class="st5" d="M123.3,97.4c1.3-1.2,0.3-5.1,0.3-6.5c0-1.4-18-2.6-18-2.6l13.3,3.4L123.3,97.4z"/>
								<path class="st5" d="M68.3,91.2c0-0.8-3.3-6.7-3.3-6.7s-14-4.6-15-4.9s1.7-6.3,1.7-6.3s1,5.7,3.3,6.3s14.3,3.8,14.7,4.9
									C70,85.5,68.3,91.2,68.3,91.2z"/>
							</g>
						</g>
						<g>
							<g>
								<path class="st3" d="M650.7,86.1c0,0,41.3,14.6,57.3,11.7s47.3-14.6,58.7-17.8c11.3-3.2,50.7-12.3,50.7-12.3H604L650.7,86.1
									z"/>
								
									<linearGradient id="SVGID_7_" gradientUnits="userSpaceOnUse" x1="595.999" y1="-148.7765" x2="741.6667" y2="-148.7765" gradientTransform="matrix(1 0 0 -1 0 -65.5403)">
									<stop  offset="0" style="stop-color:#F7A6A2"/>
									<stop  offset="1" style="stop-color:#F788A2"/>
								</linearGradient>
								<path class="st6" d="M706.7,98.4c0,0,14.3-3.6,15.3-4.2s-8-2.2-9-2.8s5.7-3.4,6.3-4.4c0.7-1-14.7-2.6-16.7-3.4
									s18-4.4,21.3-5.3s2-3.6,3.7-5.3c1.7-1.6,14-5.3,14-5.3H596c0,0,41.3,13.7,47,14.8s28,10.7,31.3,11.1
									C677.7,94,697.7,100.3,706.7,98.4z"/>
							</g>
							<path class="st5" d="M672.9,91.1c0,0,18.6,4.4,19.4,4.4c0.8,0-3-3-2.8-4.3c0.2-1.3,8-0.6,8-0.6s-10-2.2-10.5-3.1
								c-0.5-0.9,3.8-3.8,3.8-3.8s-9.8,3.6-10.8,3.8c-1,0.2,6.5,1.8,7,2.3c0.5,0.5,0.7,3.7,0,3.7S672.9,91.1,672.9,91.1z"/>
						</g>
					</g>
					<g>
						<g>
							<g>
								<path class="st3" d="M561.9,114.8c0,0-32.3,22.4-38.5,22.4c-6.2,0-14.4-0.6-18.5,1.6c-4.1,2.2-30.3,18-30.3,18
									s-23.1,5-25.7,7.2c-2.6,2.2-22.6,16.5-28.2,16.5s-68.7-41.4-78-45.4c-9.2-4-44.4-15.9-51.4-15.9s-24.2-25.2-27.7-29.4
									c-3.5-4.2-53.1-21.9-53.1-21.9h411.2L561.9,114.8z"/>
								
									<linearGradient id="SVGID_8_" gradientUnits="userSpaceOnUse" x1="213.1183" y1="-261.6974" x2="391.2857" y2="-96.1996" gradientTransform="matrix(1 0 0 -1 0 -65.5403)">
									<stop  offset="0" style="stop-color:#F7A6A2"/>
									<stop  offset="1" style="stop-color:#F788A2"/>
								</linearGradient>
								<path class="st7" d="M431.2,175.7l6.3-6.3c0,0-3.5-1.3-8.8-4.7c-8.3-5.3-11.3-3.4-11.6-4.2c-1.4-4.1,7.2-5.8,10.4-7.5
									c0.4-0.2,1.3-4.4-2.5-8.1c-2.9-2.8-14.3-1.4-18.2-1.9c-2.3-0.3,10.2-7.6,10.2-7.6c-17.8-3.7-8.1-10.4-8.1-10.4
									s-34.9-11.8-31.2-14.6s26.6-4.1,26.6-4.1s-17.6-16.1-18.5-21.2c-0.9-5.1,19.5-17.4,19.5-17.4l-249.9,0
									c0,0,86.3,21.3,89.3,23.7c3,2.4,34.5,21.2,39.6,24.7c5.1,3.5,7.4,4.4,7.4,4.4s50.9,15.1,52.7,16.1s56.3,34.3,63.7,38.4
									c7.4,4.1,13,6.2,15.1,6.2C425.4,181.1,431.2,175.7,431.2,175.7z"/>
							</g>
							<g>
								<path class="st8" d="M403.8,168.2c0,0-8.3-3.2-7.2-4.9c1.1-1.8,3.7-2.3,5.1-2.5c1.5-0.2,2,1.5,2,1.5s-2,0.8-3.5,1.2
									C398.9,163.8,403.8,168.2,403.8,168.2z"/>
								<path class="st5" d="M392.3,146.8c0,0-12.5,3.9-15.8,3.6c-3.3-0.3-15.7-6.1-15.7-6.1s12.3,3.2,15.5,2.5s10-2.1,10.8-1.6
									c0.8,0.5,8.7,0.8,10.2,1.6s4.7,2.1,4.7,2.1S394.8,146.9,392.3,146.8z"/>
								<path class="st5" d="M407.7,137c0,0-8.5-4.5-8.5-6.4s-25.5-2.7-25.5-2.7l-8.5,9.2c0,0,11-4.7,19-3.8
									C392.2,134.3,407.7,137,407.7,137z"/>
								<path class="st5" d="M344.2,130.2c0,0-41-9.7-46-11.5c-5-1.8-11-14.3-11-14.3s11.5,11.5,23,12.7
									c11.5,1.2,36.8,10.4,36.8,10.4l-3.3,1.4"/>
								<path class="st5" d="M271.7,101.7c0,0-22.5-11.8-24-12.7c-1.5-0.9-23-5.8-23-5.8l31.5,2.1L271.7,101.7z"/>
								<path class="st5" d="M346.2,110.2c0,0-26-2.7-29.5-5.2c-3.5-2.4,28.5-13.3,28.5-13.3l14,4.5l-15.5,1.2l-17,5.5L346.2,110.2z
									"/>
							</g>
						</g>
						<g>
							<g>
								<path class="st3" d="M608.5,133.2c0,0,6.8-5.6,8.1-7.1c1.2-1.6,21.6-10.5,23.2-11.4c1.7-0.9,10.2-13,13.2-14.5
									c3-1.5,27.3-16.1,31.3-17.6c4-1.5,17.3-14.9,17.3-14.9l-223.7-0.2l85,27.7l29,40.3L608.5,133.2z"/>
								
									<linearGradient id="SVGID_9_" gradientUnits="userSpaceOnUse" x1="477.9482" y1="-171.955" x2="651.3217" y2="-171.955" gradientTransform="matrix(1 0 0 -1 0 -65.5403)">
									<stop  offset="0" style="stop-color:#F7A6A2"/>
									<stop  offset="1" style="stop-color:#F788A2"/>
								</linearGradient>
								<path class="st9" d="M477.9,67.5c0,0,37.7,17.2,42.3,17.4c4.7,0.2,20.7,14,20.7,14l2.7,7.9l15.3,12l19.7,13.8
									c0,0,13.7,12.9,15.7,12.7c2-0.2,9.3-9.1,14-12c4.7-2.9-19-10.4-19-10.4s5.8-8.7,8-9.4c2.2-0.8-11.8-10-11.8-10
									s15.1-3.3,22.2-2.1c7.1,1.2,22.7-15.7,26.7-17.5s-8.4-8.8-5.8-9.7c2.7-0.9,22.7-6.3,22.7-6.3L477.9,67.5z"/>
							</g>
							<g>
								<path class="st5" d="M588.5,138.3c-0.5,0-4.5-5.3-4.5-5.3l9.8,2.8c0,0-5.5-1.5-5.5,0.2C588.3,137.8,588.5,138.3,588.5,138.3
									z"/>
								<path class="st5" d="M574.4,124c0,0,10-6.2,10-6.8s-19.5-4.5-23.8-6.1s5.3,5.5,5.3,5.5s10.3,0.6,10.3,1.5
									S574.4,124,574.4,124z"/>
								<path class="st5" d="M577.2,105c0,0-16.5-3.5-23-4.1s-9.5-4.5-13-6.8s9.8,4.9,15.3,4.9S577.2,105,577.2,105z"/>
								<path class="st5" d="M585.7,97c0,0,13-5.5,13-6.4s-25.5-9.9-26.3-11.5c-0.8-1.7-1-6.4-1-6.4s-2.5,8.2-2.3,8.6
									c0.3,0.5,16,5.8,19.5,7.4C592.2,90.4,585.7,97,585.7,97z"/>
								<path class="st5" d="M536.7,86.8c0,0,8.8-7.3,8.8-8.8s-28.3-4.9-32.5-6.8c-4.3-2,4.8,3.3,4.8,3.3s6.8,1.7,8.8,1.7
									s13.5,1.5,13.5,1.5l-14.5,3c0,0,11.5,0,11.8,0.6C537.4,82,536.7,86.8,536.7,86.8z"/>
							</g>
						</g>
					</g>
				</g>
			</g>
		</g>
		<g class="st1">
			<g>
				<defs>
					<rect id="SVGID_2_" x="30.7" y="68.9" width="318" height="64.3"/>
				</defs>
				<clipPath id="SVGID_10_">
					<use xlink:href="#SVGID_2_"  style="overflow:visible;"/>
				</clipPath>
				<g class="st10">
					<polygon class="st11" points="185.3,28.7 192.8,104.8 198.4,32.1 					"/>
					<polygon class="st11" points="179.6,25 187.2,101 192.7,28.3 					"/>
					<polygon class="st11" points="174.2,27.4 181.8,103.5 187.3,30.8 					"/>
					<polygon class="st11" points="171,17.9 178.6,94 184.1,21.3 					"/>
					<polygon class="st11" points="190.3,22.3 197.8,98.3 203.4,25.6 					"/>
					<polygon class="st11" points="195.1,25.8 202.7,101.8 208.2,29.1 					"/>
					<polygon class="st11" points="199.6,22 207.2,98.1 212.7,25.3 					"/>
					<polygon class="st11" points="203.7,13.6 211.3,89.7 216.8,17 					"/>
					<polygon class="st11" points="206.7,15.3 214.3,91.4 219.8,18.7 					"/>
					<polygon class="st11" points="182.7,19.1 190.3,95.2 195.8,22.4 					"/>
					<polygon class="st11" points="208,11.5 217.6,86.9 221.2,13.9 					"/>
					<polygon class="st11" points="212.9,23.4 222.5,98.9 226.1,25.9 					"/>
					<polygon class="st11" points="215.8,12.3 225.3,87.8 229,14.7 					"/>
					<polygon class="st11" points="221.3,20.6 230.8,96.1 234.5,23 					"/>
					<polygon class="st11" points="224.5,26.3 234.1,101.7 237.7,28.7 					"/>
					<polygon class="st11" points="219.3,24.4 228.8,99.9 232.5,26.9 					"/>
					<polygon class="st11" points="226.5,19.8 236.1,95.3 239.7,22.2 					"/>
					<polygon class="st11" points="229.5,19.8 239.1,95.3 242.7,22.2 					"/>
					<polygon class="st11" points="231.9,15.9 241.5,91.4 245.1,18.4 					"/>
					<polygon class="st11" points="234.1,19.2 243.7,94.6 247.3,21.6 					"/>
					<polygon class="st11" points="235.5,14.3 245.1,89.8 248.7,16.7 					"/>
					<polygon class="st11" points="237.9,23.2 247.4,98.7 251,25.7 					"/>
					<polygon class="st11" points="253.8,25.9 263.3,101.3 267,28.3 					"/>
					<polygon class="st11" points="255.8,20.4 265.3,95.9 269,22.9 					"/>
					<polygon class="st11" points="257.5,17.6 267.1,93.1 270.7,20.1 					"/>
					<polygon class="st11" points="259,19.8 268.6,95.3 272.2,22.3 					"/>
					<polygon class="st11" points="260.9,23.1 270.5,98.6 274.1,25.5 					"/>
					<polygon class="st11" points="262.4,17.1 272,92.5 275.6,19.5 					"/>
					<polygon class="st11" points="264.3,18.1 273.9,93.6 277.5,20.6 					"/>
					<polygon class="st11" points="277.1,15.9 286.6,91.4 290.2,18.4 					"/>
					<polygon class="st11" points="280.1,11.9 289.6,87.3 293.2,14.3 					"/>
					<polygon class="st11" points="282.1,11.7 291.7,87.2 295.3,14.2 					"/>
					<polygon class="st11" points="274.9,10.1 284.5,85.6 288.1,12.6 					"/>
					<polygon class="st11" points="284.5,10.2 294,85.7 297.7,12.7 					"/>
					<polygon class="st11" points="286.2,8 295.8,83.5 299.4,10.5 					"/>
					<polygon class="st11" points="288.2,4 297.8,79.4 301.4,6.4 					"/>
					<polygon class="st11" points="290,6.4 299.5,81.9 303.2,8.8 					"/>
					<polygon class="st11" points="291.9,7 301.4,82.5 305,9.5 					"/>
					<polygon class="st11" points="293.7,4.2 303.3,79.6 306.9,6.6 					"/>
					<polygon class="st11" points="295.4,5.4 304.9,80.9 308.5,7.8 					"/>
					<polygon class="st11" points="296.7,4.8 306.3,80.2 309.9,7.2 					"/>
					<polygon class="st11" points="298.9,5.8 308.5,81.3 312.1,8.3 					"/>
					<polygon class="st11" points="304.6,4.8 314.1,80.2 317.7,7.2 					"/>
					<polygon class="st11" points="300.5,2.7 310,78.2 313.7,5.2 					"/>
					<polygon class="st11" points="302.2,5.3 311.8,80.8 315.4,7.8 					"/>
					<polygon class="st11" points="303.2,1.7 312.8,77.1 316.4,4.1 					"/>
					<polygon class="st11" points="306.3,7.9 315.9,83.4 319.5,10.3 					"/>
					<polygon class="st11" points="307.4,5.8 317,81.3 320.6,8.3 					"/>
					<polygon class="st11" points="308.8,6.4 318.4,81.9 322,8.8 					"/>
					<polygon class="st11" points="310.5,4.2 320,79.7 323.7,6.7 					"/>
					<polygon class="st11" points="315.8,3.3 325.4,78.8 329,5.8 					"/>
					<polygon class="st11" points="317.5,2.9 327.1,78.4 330.7,5.4 					"/>
					<polygon class="st11" points="319.4,6.4 329,81.8 332.6,8.8 					"/>
					<polygon class="st11" points="320.7,1.9 330.2,77.4 333.9,4.3 					"/>
					<polygon class="st11" points="322,0 331.6,75.5 335.2,2.5 					"/>
					<polygon class="st11" points="324.8,0.1 334.3,75.6 337.9,2.6 					"/>
					<polygon class="st11" points="324.3,24.4 333.2,77.5 337.4,25.8 					"/>
					<polygon class="st11" points="327.1,24.6 336.1,77.7 340.3,26 					"/>
					<polygon class="st11" points="328.9,22.1 337.9,75.3 342,23.6 					"/>
					<polygon class="st11" points="313.3,28.1 322.2,78.9 326.4,29.5 					"/>
					<polygon class="st11" points="314.7,26.8 323.6,77.6 327.9,28.2 					"/>
					<polygon class="st11" points="271.4,2.3 281,77.8 284.6,4.8 					"/>
					<polygon class="st11" points="266.6,13.7 276.2,89.2 279.8,16.1 					"/>
					<polygon class="st11" points="269.2,5.6 278.8,81.1 282.4,8 					"/>
					<polygon class="st11" points="273.1,7.5 282.6,83 286.2,9.9 					"/>
					<polygon class="st11" points="270.4,7.5 280,83 283.6,9.9 					"/>
					<polygon class="st11" points="251,19.6 260.6,95.1 264.2,22.1 					"/>
					<polygon class="st11" points="248.8,19.6 258.3,95.1 262,22.1 					"/>
					<polygon class="st11" points="246.8,18.2 256.3,93.7 260,20.7 					"/>
					<polygon class="st11" points="243.8,13.6 253.3,89.1 257,16.1 					"/>
					<polygon class="st11" points="241.4,13.9 251,89.4 254.6,16.3 					"/>
					<polygon class="st11" points="167.8,26.7 175.4,102.8 180.9,30.1 					"/>
					<polygon class="st11" points="167.5,31 175.1,107.1 180.6,34.4 					"/>
					<polygon class="st11" points="187.7,25.4 195.3,101.4 200.8,28.7 					"/>
					<polygon class="st11" points="138.3,26.7 145.9,102.8 151.4,30.1 					"/>
					<polygon class="st11" points="133.1,19 140.7,95.1 146.2,22.4 					"/>
					<polygon class="st11" points="27.1,33.8 34.7,88.8 40.2,36.2 					"/>
					<polygon class="st11" points="23.6,33 31.2,88 36.7,35.4 					"/>
					<polygon class="st11" points="32.8,39.5 40.4,94.5 45.9,42 					"/>
					<polygon class="st11" points="30.8,39.2 38.4,94.2 43.9,41.6 					"/>
					<polygon class="st11" points="37.3,36.6 44.9,91.6 50.4,39 					"/>
					<polygon class="st11" points="41.1,31.9 48.7,86.9 54.2,34.3 					"/>
				</g>
			</g>
			<g>
				<defs>
					<rect id="SVGID_1_" x="558.7" y="69.4" width="222" height="63.8"/>
				</defs>
				<clipPath id="SVGID_11_">
					<use xlink:href="#SVGID_1_"  style="overflow:visible;"/>
				</clipPath>
				<g class="st12">
					<polygon class="st11" points="598,26.1 607.6,101.5 611.2,28.5 					"/>
					<polygon class="st11" points="601,17.4 610.6,92.9 614.2,19.9 					"/>
					<polygon class="st11" points="606.7,25 616.3,100.5 619.9,27.4 					"/>
					<polygon class="st11" points="611.4,24.4 620.9,99.9 624.5,26.9 					"/>
					<polygon class="st11" points="615.4,27.7 624.9,103.2 628.5,30.1 					"/>
					<polygon class="st11" points="619.4,25 628.9,100.5 632.5,27.4 					"/>
					<polygon class="st11" points="622,17.4 631.6,92.9 635.2,19.9 					"/>
					<polygon class="st11" points="625.4,21.2 634.9,96.7 638.5,23.6 					"/>
					<polygon class="st11" points="628,18.6 637.5,94 641.2,21 					"/>
					<polygon class="st11" points="631.5,20.2 641,95.7 644.7,22.6 					"/>
					<polygon class="st11" points="636.6,22.9 646.2,98.4 649.8,25.3 					"/>
					<polygon class="st11" points="645.9,28.3 655.5,103.8 659.1,30.7 					"/>
					<polygon class="st11" points="648.8,23.4 658.3,98.9 662,25.9 					"/>
					<polygon class="st11" points="651.8,15.6 661.3,91.1 665,18 					"/>
					<polygon class="st11" points="655.4,20.7 665,96.2 668.6,23.2 					"/>
					<polygon class="st11" points="658.6,17.7 668.2,93.2 671.8,20.2 					"/>
					<polygon class="st11" points="662.3,23.7 671.8,99.2 675.5,26.1 					"/>
					<polygon class="st11" points="664.9,19.9 674.5,95.4 678.1,22.4 					"/>
					<polygon class="st11" points="668.6,18.8 678.2,94.3 681.8,21.3 					"/>
					<polygon class="st11" points="671.6,12.3 681.2,87.8 684.8,14.8 					"/>
					<polygon class="st11" points="674.9,20.2 684.5,95.7 688.1,22.6 					"/>
					<polygon class="st11" points="678.3,17.6 687.8,93.1 691.5,20.1 					"/>
					<polygon class="st11" points="680,14.8 689.6,90.3 693.2,17.2 					"/>
					<polygon class="st11" points="681.7,16.5 691.3,92 694.9,19 					"/>
					<polygon class="st11" points="683.5,11.5 693.1,87 696.7,14 					"/>
					<polygon class="st11" points="685.4,13.1 695,88.6 698.6,15.6 					"/>
					<polygon class="st11" points="690.2,17.6 699.8,93.1 703.4,20.1 					"/>
					<polygon class="st11" points="692.7,12.3 702.3,87.8 705.9,14.8 					"/>
					<polygon class="st11" points="694.6,13.6 704.1,89 707.7,16 					"/>
					<polygon class="st11" points="696.6,10.3 706.1,85.8 709.7,12.8 					"/>
					<polygon class="st11" points="699.1,14.4 708.6,89.8 712.2,16.8 					"/>
					<polygon class="st11" points="708.8,10.7 718.4,86.2 722,13.2 					"/>
					<polygon class="st11" points="711.4,13.3 721,88.8 724.6,15.8 					"/>
					<polygon class="st11" points="713.8,7.9 723.4,83.4 727,10.3 					"/>
					<polygon class="st11" points="715.2,10.3 724.8,85.8 728.4,12.8 					"/>
					<polygon class="st11" points="720.2,9.9 729.8,85.4 733.4,12.4 					"/>
					<polygon class="st11" points="721.6,6 731.1,81.5 734.7,8.5 					"/>
					<polygon class="st11" points="724.3,15.2 733.9,90.7 737.5,17.6 					"/>
					<polygon class="st11" points="725.3,8.7 734.9,84.2 738.5,11.1 					"/>
					<polygon class="st11" points="728.7,8.7 738.3,84.2 741.9,11.1 					"/>
					<polygon class="st11" points="731,12.7 740.6,88.2 744.2,15.2 					"/>
					<polygon class="st11" points="737.1,11.9 746.7,87.4 750.3,14.4 					"/>
					<polygon class="st11" points="739.3,5.4 748.8,80.9 752.5,7.9 					"/>
					<polygon class="st11" points="741.3,6.3 750.8,81.7 754.5,8.7 					"/>
					<polygon class="st11" points="743,10.9 752.6,86.4 756.2,13.4 					"/>
					<polygon class="st11" points="744.6,6.3 754.2,81.7 757.8,8.7 					"/>
					<polygon class="st11" points="746,5.4 755.6,80.9 759.2,7.9 					"/>
					<polygon class="st11" points="747.8,7.5 757.4,83 761,9.9 					"/>
					<polygon class="st11" points="749.1,8.7 758.7,84.2 762.3,11.1 					"/>
					<polygon class="st11" points="750.4,8 760,83.5 763.6,10.4 					"/>
					<polygon class="st11" points="751.8,6.8 761.4,82.2 765,9.2 					"/>
					<polygon class="st11" points="753.2,3.7 762.8,79.2 766.4,6.2 					"/>
					<polygon class="st11" points="754.8,4.4 764.4,79.9 768,6.8 					"/>
					<polygon class="st11" points="756.6,4.7 766.2,80.1 769.8,7.1 					"/>
					<polygon class="st11" points="757.7,1.6 767.3,77 770.9,4 					"/>
					<polygon class="st11" points="759.2,7.2 768.8,82.7 772.4,9.7 					"/>
					<polygon class="st11" points="760.3,4.4 769.9,79.9 773.5,6.8 					"/>
					<polygon class="st11" points="761.2,4.5 770.8,80 774.4,7 					"/>
					<polygon class="st11" points="762.7,3.9 772.3,79.3 775.9,6.3 					"/>
					<polygon class="st11" points="767.2,4.9 776.8,80.4 780.4,7.3 					"/>
					<polygon class="st11" points="768.5,1.2 778,76.7 781.6,3.7 					"/>
					<polygon class="st11" points="769.8,3.4 779.4,78.9 783,5.9 					"/>
					<polygon class="st11" points="770.8,0.6 780.4,76.1 784,3.1 					"/>
					<polygon class="st11" points="727.1,5.6 736.6,81.1 740.2,8.1 					"/>
					<polygon class="st11" points="593.4,15.8 602.9,91.3 606.5,18.2 					"/>
					<polygon class="st11" points="590.2,11.3 599.8,86.8 603.4,13.8 					"/>
					<polygon class="st11" points="587.6,6.5 597.1,81.9 600.7,8.9 					"/>
					<polygon class="st11" points="585.4,5.6 595,81.1 598.6,8.1 					"/>
					<polygon class="st11" points="585.3,3.9 592.8,80 598.4,7.3 					"/>
					<polygon class="st11" points="583.6,3.3 591.1,79.4 596.7,6.7 					"/>
					<polygon class="st11" points="581.9,7.1 589.4,83.2 595,10.5 					"/>
					<polygon class="st11" points="579.9,5.8 587.4,81.8 593,9.1 					"/>
					<polygon class="st11" points="577.9,3.6 585.4,79.7 591,7 					"/>
					<polygon class="st11" points="576,3.4 583.6,79.5 589.2,6.8 					"/>
					<polygon class="st11" points="574.4,2.4 581.9,78.5 587.5,5.8 					"/>
				</g>
			</g>
		</g>
	</g>
	<g>
		<path class="st13" d="M411.2,80.2c0,0-214,1-236,0.5s0,0,0,0L574,85.2L411.2,80.2z"/>
		<path class="st13" d="M431.8,90.2c0,0-214,1-236,0.5s0,0,0,0l398.8,4.5L431.8,90.2z"/>
		<path class="st13" d="M447.8,102.9c0,0-214,1-236,0.5s0,0,0,0l398.8,4.5L447.8,102.9z"/>
		<path class="st13" d="M520.8,110.4c0,0-214,1-236,0.5s0,0,0,0l398.8,4.5L520.8,110.4z"/>
		<path class="st13" d="M434.8,98.9c0,0-214,1-236,0.5s0,0,0,0l398.8,4.5L434.8,98.9z"/>
	</g>
</g>
</svg>
