<!-- Generator: Adobe Illustrator 23.0.1, SVG Export Plug-In  -->
<svg version="1.1" xmlns="http://www.w3.org/2000/svg" xmlns:xlink="http://www.w3.org/1999/xlink" x="0px" y="0px" width="2262px"
	 height="2616.2px" viewBox="0 0 2262 2616.2" style="enable-background:new 0 0 2262 2616.2;" xml:space="preserve">
<style type="text/css">
	.st0{fill:#FFFFFF;}
	.st1{fill:#000072;}
	.st2{opacity:0.15;}
	.st3{fill:#010268;}
	.st4{opacity:0.2;}
	.st5{fill:#ED1E79;}
	.st6{fill:#C7B299;}
	.st7{opacity:0.6;}
	.st8{fill:#FF7C7E;}
	.st9{fill:#ED1E79;stroke:#ED1E79;stroke-miterlimit:10;}
</style>
<defs>
</defs>
<g>
	<g>
		<g>
			<path class="st0" d="M737.8,1707.3l-117.1,155.6c-139.1,85.4-252.4,41-175.4-42.3c-24.7-4-46.8-9.1-66.5-15
				c-193.1-58.3-150.9-198,40.4-189.9c-311.1-164.8-74.8-221.4,224.3-166.7c20.5,3.7,41.3,8,62.3,12.8L737.8,1707.3z"/>
		</g>
		<g>
			<path class="st0" d="M1366.3,1514.7c377.2-142.5,855.8-106.9,463.4,101c210.8-8.9,240.5,161.7-26.1,204.9
				c77,83.3-36.3,127.7-175.4,42.3L1366.3,1514.7z"/>
		</g>
		<g>
			<path class="st1" d="M1767,1930.1c-43,0-97.1-16.8-149.8-49.2c-2.3-1.4-4.2-3.2-5.8-5.3l-261.9-348.2c-4-5.3-5.3-12.2-3.4-18.6
				c1.9-6.4,6.6-11.5,12.8-13.9c124.6-47.1,269-78.3,396.3-85.7c77.2-4.5,210.8-3.1,237.7,56.3c17.5,38.8-12.5,82.6-91.6,133.2
				c73.9,13,111.1,52.3,115.2,92.7c5,48.9-39.2,113.6-176.3,143.7c19.2,36.4,3.8,60.7-2.5,68.4
				C1823,1921.4,1797.9,1930.1,1767,1930.1z M1642.7,1847c83.3,50,148.8,46.3,162.3,29.8c6.3-7.7-0.2-23.7-16.9-41.8
				c-5.3-5.7-7-13.9-4.5-21.2c2.5-7.4,8.9-12.7,16.6-14c124.9-20.3,177.8-68.1,174.2-104.1c-3.3-32.2-53.8-62.7-143.8-58.9
				c-9.8,0.5-18.7-6-21.3-15.6c-2.6-9.5,1.8-19.6,10.5-24.2c148.4-78.6,135.1-112.7,134.5-114.1c-7.6-16.8-66.3-39.1-196.7-31.5
				c-114.2,6.6-242.9,33.1-357.2,73.4L1642.7,1847z"/>
		</g>
		<g>
			<path class="st1" d="M482,1930.1c-30.9,0-56-8.7-70.6-26.5c-6.3-7.7-21.7-32-2.5-68.4c-137.1-30.2-181.2-94.8-176.3-143.7
				c4.1-40.4,41.4-79.6,115.2-92.7c-79.1-50.6-109.1-94.4-91.6-133.2c26.8-59.4,160.4-60.8,237.7-56.3
				c127.3,7.4,271.7,38.6,396.3,85.7c6.2,2.3,11,7.5,12.8,13.9c1.9,6.4,0.6,13.3-3.4,18.6l-261.9,348.2c-1.6,2.1-3.6,3.9-5.8,5.3
				C579.1,1913.3,524.9,1930.1,482,1930.1z M403.4,1636.5c-80.7,0-125.7,28.9-128.8,59.2c-3.7,35.9,49.3,83.8,174.2,104.1
				c7.7,1.2,14,6.6,16.6,14c2.5,7.4,0.8,15.5-4.5,21.2c-16.7,18.1-23.2,34.1-16.9,41.8c13.5,16.5,79,20.2,162.3-29.8l242.4-322.2
				c-114.4-40.2-243-66.7-357.2-73.4c-130.5-7.6-189.1,14.7-196.7,31.5c-0.6,1.4-13.9,35.5,134.5,114.1c8.7,4.6,13.1,14.7,10.5,24.2
				c-2.6,9.5-11.5,16.1-21.3,15.6C413.3,1636.6,408.3,1636.5,403.4,1636.5z"/>
		</g>
		<g class="st2">
			<path class="st3" d="M737.8,1707.3l-117.1,155.6c-139.1,85.4-252.4,41-175.4-42.3c-24.7-4-46.8-9.1-66.5-15
				c118.4-78.9,211.2-191.8,264.7-356.6c20.5,3.7,41.3,8,62.3,12.8L737.8,1707.3z"/>
		</g>
		<g class="st4">
			<path class="st3" d="M1506,1707.3l117.1,155.6c139.1,85.4,252.4,41,175.4-42.3c24.7-4,46.8-9.1,66.5-15
				c-118.4-78.9-211.2-191.8-264.7-356.6c-20.5,3.7-41.3,8-62.3,12.8L1506,1707.3z"/>
		</g>
	</g>
	<g>
		<g>
			<path class="st5" d="M1477.4,2471c17.8,148.3-292.8,234.4-237.5-164.6c0-0.6,0.1-1.2,0.2-1.7c-73,17.6-153.8,15.1-239.4,0
				c56.4,400.9-255.1,314.8-237.3,166.3c-146-99.4-185.4-231.1-150.9-385c4.3-19.3,9.8-38.9,16.4-58.8v0
				c-33.1-149,7.1-285.9,72.9-418.4c3.9-7.8,7.8-15.6,11.9-23.4c16.2-31.3,33.7-62.3,51.9-93.2c10.6-18.2,21.5-36.4,32.5-54.6h644.6
				c9.8,16.2,19.6,32.5,29.1,48.8c23.9,40.5,46.7,81.2,67.1,122.3c0,0.1,0,0.1,0.1,0.2c65.7,132.6,105.9,269.4,72.8,418.3
				c0.2,0.7,0.4,1.3,0.6,2c6.3,19.3,11.6,38.3,15.7,56.9c4.3,18.9,7.3,37.5,9.3,55.6C1651.6,2271.7,1605.5,2383.7,1477.4,2471z"/>
		</g>
		<g>
			<path class="st6" d="M1011,2308.6c-319.3-86.9-290.4-416.7,40.5-559.9c62.4-27,133.9-22.7,192.4,11.9
				c202.5,119.4,374.6,442.8-30.3,548C1147,2325.8,1077.2,2326.6,1011,2308.6z"/>
		</g>
		<g>
			<path class="st1" d="M1360.1,2616.2c-24.2,0-47.9-6.7-68.7-20.2c-36.8-24-93.7-89.8-75.8-264.7c-56.3,9.5-119.1,9.1-190.5-1.3
				c18.3,175.8-38.7,241.9-75.6,265.9c-42.3,27.6-97.2,26.9-143.1-1.7c-41.3-25.7-65.3-68.1-64.8-112.8
				c-151.4-108.2-196.7-261.3-134.5-455.5c-45.2-214.8,56-406.1,172.9-599.5c3.8-6.3,10.7-10.2,18.1-10.2h644.6
				c7.4,0,14.2,3.9,18.1,10.2c117,193.3,218.1,384.7,172.9,599.5c62.2,194.1,16.9,347.3-134.5,455.5c0.6,44.7-23.4,87-64.8,112.8
				C1411.1,2608.9,1385.3,2616.2,1360.1,2616.2z M1240.2,2283.6c5.2,0,10.3,1.9,14.2,5.5c5.2,4.7,7.7,11.7,6.7,18.6
				c-17.9,127,1.6,219.2,53.4,252.9c34,22.1,72.8,13.4,97.7-2.1c24.5-15.2,49-45.6,44.3-84.9c-0.9-7.8,2.6-15.5,9.1-20
				c145.4-99,186.8-236.4,126.3-419.8c-1.2-3.6-1.4-7.5-0.6-11.2c44.1-198.5-45.7-373.3-160.5-564H810.1
				c-114.8,190.6-204.5,365.4-160.5,564c0.8,3.7,0.6,7.6-0.6,11.2c-60.4,183.4-19.1,320.7,126.3,419.8c6.5,4.4,10,12.1,9.1,20
				c-4.7,39.4,19.8,69.7,44.3,84.9c25,15.5,63.8,24.2,97.7,2.1c51.8-33.7,71.3-125.9,53.4-252.9c-0.9-6.7,1.4-13.4,6.2-18.1
				c4.9-4.7,11.7-6.8,18.3-5.6c90.4,15.9,165.8,16,230.7,0.3C1236.8,2283.8,1238.5,2283.6,1240.2,2283.6z"/>
		</g>
		<g>
			<path class="st1" d="M825.7,2234.7c143.2,54.7,297.4,69.3,448.5,45.5c50.4-7.5,100.5-18.4,150.9-30.4c8.9-2.2,13.7,10.8,5.2,14.8
				c-190.9,89.5-428.3,96.7-613.2-11.6C806.7,2246.8,814.1,2230.5,825.7,2234.7L825.7,2234.7z"/>
		</g>
		<g>
			<path class="st1" d="M879.7,2584.2l10.9-59.8c1-5.7,6.5-9.4,12.1-8.4c4.4,0.8,7.6,4.2,8.4,8.4l10.9,59.8
				c2.1,11.7-5.6,22.8-17.3,25C890.2,2612.1,876.8,2598.6,879.7,2584.2L879.7,2584.2z"/>
		</g>
		<g>
			<path class="st1" d="M810.7,2575.1l13-64c1.8-8.8,14.5-8.7,16.2,0c0,0,13,64,13,64c2.4,11.7-5.2,23-16.8,25.4
				C821.4,2603.8,807.4,2589.7,810.7,2575.1L810.7,2575.1z"/>
		</g>
		<g>
			<path class="st1" d="M1329.3,2586.1l11.6-57.2c1.1-5.2,6.2-8.6,11.4-7.6c3.9,0.8,6.8,3.9,7.6,7.6l11.6,57.2
				c2.4,11.7-5.2,23-16.8,25.4C1339.9,2614.8,1326,2600.8,1329.3,2586.1L1329.3,2586.1z"/>
		</g>
		<g>
			<path class="st1" d="M1393.8,2576.7l9.4-61.8c2-13.3,21.4-13.1,23.4,0c0,0,9.4,61.8,9.4,61.8
				C1439,2609.2,1390.9,2609.2,1393.8,2576.7L1393.8,2576.7z"/>
		</g>
		<g>
			<path class="st1" d="M770.3,2451.2c34.3,15.9,72,27.8,109.6,19.4c10.1-2.3,14.9,12.1,5.5,16.4c-40.3,18.3-87.3,13.8-129,3.8
				C727.1,2482.2,741.9,2439.6,770.3,2451.2L770.3,2451.2z"/>
		</g>
		<g>
			<path class="st1" d="M1486.3,2490c-38.9,14.4-84.6,14.2-121.9-3.3c-9.5-4.4-4.7-18.8,5.5-16.6c34.6,7.7,69.5,0.6,98.8-18
				C1495.9,2436.9,1515.4,2478.7,1486.3,2490L1486.3,2490z"/>
		</g>
		<g class="st2">
			<path class="st3" d="M1477.4,2471c17.8,148.3-292.8,234.4-237.5-164.6l127.2-28.4c151.5,132,227.7,46.2,270.4-136.4
				C1651.6,2271.7,1605.5,2383.7,1477.4,2471z"/>
		</g>
		<g class="st2">
			<path class="st3" d="M763.5,2471c-17.8,148.3,292.8,234.4,237.5-164.6l-127.2-28.4c-151.5,132-227.7,46.2-270.4-136.4
				C589.3,2271.7,635.4,2383.7,763.5,2471z"/>
		</g>
		<g class="st2">
			<path class="st3" d="M1628.3,2086c-66.6,43.4-178.9,26-326.6-103.7c-249.5-39.4-31.2-386.8,280.6-97.3
				c-2.6-39.6-8.6-86.4-21.4-138c-10.3-41.5-22.9-78-35.6-109.1c-11.5-32.1-25.3-73.3-20-75.7c3.5-1.6,14.7,13.9,33.9,46.6
				c65.7,132.6,105.9,269.4,72.8,418.3C1618.5,2047.1,1624,2066.7,1628.3,2086z"/>
		</g>
		<g class="st2">
			<path class="st3" d="M939.3,1982.4c-147.7,129.6-260.1,147-326.6,103.7c4.3-19.3,9.8-38.9,16.4-58.9
				c-33.1-149,7.1-285.9,72.9-418.4c23.1-30.5,37.1-44.3,42.2-41.6c10.6,5.7-17.8,83.5-85.3,233.4c-0.1,28.2-0.1,56.3-0.2,84.5
				C970.4,1595.5,1188.7,1943,939.3,1982.4z"/>
		</g>
	</g>
	<g>
		<g>
			<path class="st5" d="M1612.5,2029.1c-67.9,29.8-173.4,5-308.4-113.5c-249.5-39.3-31.2-386.8,280.6-97.2l-90.2-196.7l-77.6-169.4
				c19.4,10.7,37.7,22.1,54.9,33.9c46,31.6,84.5,67,116,104.3C1735.2,1764.5,1729.7,1977.9,1612.5,2029.1z"/>
		</g>
		<g class="st7">
			<g>
				<path class="st0" d="M1584.8,1862.9l-33.8-73.7c-217.2-174.2-379.8-42.1-352.2,53.8C1222.7,1753.8,1384.4,1676.9,1584.8,1862.9z
					"/>
			</g>
		</g>
		<g>
			<path class="st5" d="M941.7,1915.6c-137.9,121-244.9,144.2-312.7,111.5c-117.7-56.8-116.8-282.4,47.6-457.6
				c25.6-27.4,55.2-53.5,89-77.5c19.6-14,40.7-27.3,63.2-39.7L760.3,1602l-99.2,216.4C972.9,1528.8,1191.2,1876.3,941.7,1915.6z"/>
		</g>
		<g class="st7">
			<g>
				<path class="st0" d="M649.6,1862.9c214.6-199.3,384.9-96.8,388.9-0.7c59.8-97.9-120.7-267.9-362.2-57.4L649.6,1862.9z"/>
			</g>
		</g>
		<g class="st4">
			<g>
				<path class="st3" d="M1695.5,1814.4c-16.6,151.3-161.4,225.1-393.8,21.1c-50.2-7.9-81.4-28.3-96.8-53.4
					c-25.2,53.7,0,118,99.2,133.6C1574.8,2153.2,1726.7,2013.9,1695.5,1814.4z"/>
			</g>
		</g>
		<g class="st2">
			<g>
				<path class="st3" d="M1038.6,1777.4c-14.3,27.3-46.1,49.7-99.4,58.1C716.1,2031.3,573.6,1971,548,1832
					c-19.8,189.9,131,314.2,393.7,83.7C1043.8,1899.6,1067.5,1831.9,1038.6,1777.4z"/>
			</g>
		</g>
		<g>
			<path class="st1" d="M691,2061.8c-23,0-44.5-4.1-64.3-12.4c-59.9-25.2-96.8-86.6-101.1-168.4c-7.3-137.8,80.5-329.5,293.1-447
				c10.2-5.6,23.1-1.9,28.7,8.3c5.6,10.2,1.9,23.1-8.3,28.7c-196.6,108.7-277.9,283.1-271.3,407.8c3.5,65,30.9,113,75.3,131.8
				c68.1,28.7,171.9-11.6,284.7-110.6c3-2.6,6.7-4.4,10.6-5c51.4-8.1,84.1-31.4,89.7-63.8c5.5-32.2-16-67.6-53.7-87.9
				c-29.8-16.2-139.6-57.3-299,90.7c-8.5,7.9-21.9,7.4-29.8-1.1c-7.9-8.5-7.4-21.9,1.1-29.8c180-167.2,311.8-116.5,347.8-96.9
				c53.6,29,83.8,82.1,75.2,132.2c-8.6,49.9-51.6,85.1-118.6,97.3C855.2,2018.5,765.4,2061.8,691,2061.8z"/>
		</g>
		<g>
			<path class="st1" d="M1554.9,2061.8c-74.4,0-164.2-43.2-260.1-126.3c-67-12.2-110.1-47.4-118.6-97.3
				c-8.6-50.1,21.6-103.2,75.2-132.2c36.1-19.5,167.8-70.2,347.8,96.9c8.5,7.9,9,21.3,1.1,29.8c-7.9,8.5-21.3,9-29.8,1.1
				c-159.5-148.1-269.2-106.9-299-90.7c-37.6,20.4-59.2,55.7-53.7,87.9c5.6,32.4,38.2,55.6,89.7,63.8c3.9,0.6,7.6,2.3,10.6,5
				c112.8,99,216.6,139.3,284.7,110.6c44.4-18.7,71.9-66.7,75.3-131.8c6.6-124.7-74.7-299.1-271.3-407.8
				c-10.2-5.6-13.9-18.5-8.3-28.7c5.6-10.2,18.5-13.9,28.7-8.3c212.6,117.5,300.4,309.2,293.1,447c-4.3,81.8-41.2,143.2-101.1,168.4
				C1599.3,2057.6,1577.8,2061.8,1554.9,2061.8z"/>
		</g>
		<g>
			<path class="st1" d="M1032.4,1803.2L941,1773c-11.9-4-8-21.8,4.4-20.6c0,0,95.8,9.8,95.8,9.8
				C1071.7,1767,1062.3,1811.3,1032.4,1803.2L1032.4,1803.2z"/>
		</g>
		<g>
			<path class="st1" d="M1037.3,1869.8l-88.6-22.2c-14.4-3.8-11.1-25,3.7-24.3c0,0,91.2,5.1,91.2,5.1
				C1073.9,1831.6,1067.2,1875.8,1037.3,1869.8L1037.3,1869.8z"/>
		</g>
		<g class="st2">
			<path class="st3" d="M1587.9,1590.6c-15.7,6.5-32.1,12.5-49,18c-14.4,4.7-29.2,9.1-44.4,13.1c-97.9,25.9-213.4,37.1-348.2,29.5
				c-149.5,4.2-278.1-14-386.1-49.2c-15.9-5.2-31.4-10.7-46.5-16.7c-12.7-5-25.1-10.2-37.2-15.7c25.6-27.4,55.2-53.5,89-77.5
				c10.6-18.2,21.5-36.4,32.5-54.6h644.6c9.8,16.2,19.6,32.5,29.1,48.8C1517.9,1517.9,1556.4,1553.3,1587.9,1590.6z"/>
		</g>
		<g>
			<path class="st1" d="M1205.6,1762.2l95.8-9.8c12.5-1.2,16.2,16.7,4.4,20.6c0,0-91.4,30.2-91.4,30.2
				C1184.5,1811.4,1175,1766.9,1205.6,1762.2L1205.6,1762.2z"/>
		</g>
		<g>
			<path class="st1" d="M1203.1,1828.4l91.2-5.1c14.9-0.6,18,20.6,3.7,24.3c0,0-88.6,22.2-88.6,22.2
				C1179.5,1875.8,1172.8,1831.6,1203.1,1828.4L1203.1,1828.4z"/>
		</g>
	</g>
	<g>
		<g>
			<g>
				<g>
					<path class="st5" d="M2226.5,433.3c24.6,93.5,19.5,206.8-29.5,337.6l-58.3-60.7c5.7,97-48.1,158.8-133.8,201.6l-19.6-78.1
						c-51.6,100.8-141.1,123.3-254.5,97.1l-312.5-400.9l-52.2-66.9C1508.4-1.2,2124.4,45.6,2226.5,433.3z"/>
				</g>
				<g class="st7">
					<g>
						<path class="st0" d="M2198.8,359.1c-156.1-317.5-700.1-328.8-832.5,103.8l34.3,44C1529.6,108.5,2013,96.6,2198.8,359.1z"/>
					</g>
					<g>
						<path class="st0" d="M2016.8,886.6c-4,7.8-8.2,15-12.6,21.8l0.9,3.4c5.5-2.7,10.8-5.5,16-8.4L2016.8,886.6z"/>
					</g>
				</g>
				<g>
					
						<ellipse transform="matrix(0.7071 -0.7071 0.7071 0.7071 155.0467 1439.6183)" class="st8" cx="1815.3" cy="532.7" rx="235.3" ry="235.3"/>
				</g>
				<g class="st2">
					<path class="st3" d="M2003.3,674.2c51.1-68,63.5-161.3,24.2-243.3c-29.5-61.5-82.3-104.4-142.8-123
						c39.3,22.9,72.4,57.4,93.6,101.5c31.8,66.2,29.8,139.9,0.9,201.6c-25.3,54-88.4,77.4-143,53.2c-10.9-4.8-21.5-10.4-31.6-16.7
						c-145.4-89.6-266.2-105-386.1-117.6l312.5,400.9c113.3,26.3,202.9,3.7,254.5-97.1l19.6,78.1c85.7-42.8,139.5-104.6,133.8-201.6
						l58.3,60.7c49-130.8,54.1-244.1,29.5-337.6C2171.5,548.6,2102.5,643.2,2003.3,674.2z"/>
				</g>
				<g>
					<path class="st1" d="M1810.8,961.9c-26.2,0-54.4-3.5-84.7-10.5c-4.7-1.1-8.9-3.8-11.9-7.6l-364.6-467.9
						c-4.2-5.4-5.5-12.6-3.5-19.2c54.8-179.1,185.5-302.6,358.5-338.8c170.6-35.7,349.8,21.6,456.6,146
						c111.4,129.8,131.2,312.5,55.6,514.4c-2.5,6.8-8.4,11.8-15.5,13.3c-7.1,1.5-14.5-0.8-19.5-6.1l-24.3-25.3
						c-11.4,72.1-58.6,128.2-143.1,170.4c-5.7,2.9-12.4,3-18.2,0.3c-5.8-2.7-10.1-7.8-11.7-14l-7.7-30.7
						C1936.8,936.6,1881.2,961.9,1810.8,961.9z M1742.9,911.9c109.8,23.6,181-4.4,223.7-87.7c4-7.8,12.4-12.3,21.2-11.4
						c8.7,1,15.9,7.3,18.1,15.8l13,51.7c71.6-42.3,103.1-96.4,98.8-168.8c-0.5-8.8,4.5-17,12.6-20.6c8.1-3.5,17.6-1.7,23.7,4.7
						l34.5,35.9c56.5-174,35.8-329.3-59.3-440.1c-96.9-112.9-260.2-164.7-415.9-132.1c-154.1,32.2-271.5,141.1-323.5,299.4
						L1742.9,911.9z"/>
				</g>
				<g>
					<path class="st1" d="M1815.5,785c-28.2,0-56.5-4.8-83.9-14.4c-63.5-22.4-114.6-68.1-143.7-128.9
						c-29.1-60.7-32.9-129.2-10.5-192.7s68.1-114.6,128.9-143.7c60.7-29.1,129.2-32.9,192.8-10.5c63.5,22.4,114.6,68.1,143.7,128.9
						c29.1,60.7,32.9,129.2,10.5,192.7c-22.4,63.6-68.1,114.6-128.9,143.7C1889.8,776.6,1852.7,785,1815.5,785z M1815.1,314.1
						c-32.3,0-64.4,7.2-94.3,21.6c-52.6,25.2-92.2,69.4-111.6,124.5c-19.4,55-16.1,114.3,9.1,166.9c25.2,52.6,69.4,92.2,124.5,111.6
						c55,19.4,114.3,16.1,166.9-9.1c52.6-25.2,92.2-69.4,111.6-124.5c19.4-55,16.1-114.3-9.1-166.9l0,0
						c-25.2-52.6-69.4-92.2-124.5-111.6C1864.1,318.3,1839.6,314.1,1815.1,314.1z"/>
				</g>
			</g>
			<g>
				<g>
					<path class="st5" d="M35.4,433.3C10.8,526.9,16,640.2,64.9,771l58.3-60.7c-5.7,97,48.1,158.8,133.8,201.6l19.6-78.1
						c51.6,100.8,141.1,123.3,254.5,97.1l312.5-400.9l52.2-66.9C753.6-1.2,137.6,45.6,35.4,433.3z"/>
				</g>
				<g class="st7">
					<g>
						<path class="st0" d="M63.2,359.1C219.2,41.6,763.3,30.4,895.7,462.9l-34.3,44C732.4,108.5,249,96.6,63.2,359.1z"/>
					</g>
					<g>
						<path class="st0" d="M245.2,886.6c4,7.8,8.2,15,12.6,21.8l-0.9,3.4c-5.5-2.7-10.8-5.5-16-8.4L245.2,886.6z"/>
					</g>
				</g>
				<g>
					<circle class="st8" cx="446.7" cy="532.7" r="235.3"/>
				</g>
				<g class="st2">
					<path class="st3" d="M258.7,674.2c-51.1-68-63.5-161.3-24.2-243.3c29.5-61.5,82.3-104.4,142.8-123
						c-39.3,22.9-72.4,57.4-93.6,101.5C252,475.6,254,549.2,282.9,611c25.3,54,88.4,77.4,143,53.2c10.9-4.8,21.5-10.4,31.6-16.7
						c145.4-89.6,266.2-105,386.1-117.6L531.1,930.8c-113.3,26.3-202.9,3.7-254.5-97.1L257,911.8C171.3,869,117.5,807.2,123.2,710.2
						L64.9,771C16,640.2,10.8,526.9,35.4,433.3C90.5,548.6,159.5,643.2,258.7,674.2z"/>
				</g>
				<g>
					<path class="st1" d="M451.1,961.9c-70.4,0-125.9-25.3-166-75.6l-7.7,30.7c-1.6,6.2-5.9,11.4-11.7,14
						c-5.8,2.7-12.5,2.6-18.2-0.3c-84.5-42.2-131.7-98.3-143.1-170.4l-24.3,25.3c-5,5.2-12.4,7.5-19.5,6.1
						c-7.1-1.5-13-6.5-15.5-13.3c-75.6-202-55.8-384.7,55.6-514.4c106.8-124.4,286-181.6,456.6-146
						c173,36.2,303.7,159.7,358.5,338.8c2,6.6,0.7,13.7-3.5,19.2L547.7,943.8c-3,3.8-7.2,6.5-11.9,7.6
						C505.6,958.4,477.3,961.9,451.1,961.9z M276.6,812.6c7.9,0,15.2,4.4,18.8,11.5c42.7,83.3,113.8,111.3,223.7,87.7l353.1-453.1
						c-52-158.3-169.3-267.2-323.5-299.4c-155.8-32.6-319,19.3-415.9,132.1C37.7,402.2,17,557.6,73.5,731.5l34.5-35.9
						c6.1-6.4,15.6-8.3,23.7-4.7c8.1,3.5,13.1,11.8,12.6,20.6c-4.2,72.4,27.3,126.6,98.8,168.8l13-51.7c2.1-8.5,9.4-14.8,18.1-15.8
						C275,812.7,275.8,812.6,276.6,812.6z"/>
				</g>
				<g>
					<path class="st1" d="M446.5,785c-37.2,0-74.3-8.4-108.9-24.9c-60.7-29.1-106.5-80.2-128.9-143.7
						c-22.3-63.5-18.6-132,10.5-192.7l0,0c29.1-60.7,80.2-106.5,143.7-128.9c63.6-22.3,132-18.6,192.8,10.5
						c60.7,29.1,106.5,80.2,128.9,143.7c22.4,63.6,18.6,132-10.5,192.7c-29.1,60.7-80.2,106.5-143.7,128.9
						C503,780.2,474.7,785,446.5,785z M446.9,314.1c-24.4,0-48.9,4.1-72.6,12.5c-55,19.4-99.2,59-124.5,111.6l0,0
						c-25.2,52.6-28.5,111.9-9.1,166.9c19.4,55,59,99.2,111.6,124.5c52.6,25.2,111.9,28.5,166.9,9.1c55-19.4,99.2-59,124.5-111.6
						c25.2-52.6,28.5-111.9,9.1-166.9c-19.4-55-59-99.2-111.6-124.5C511.2,321.3,479.1,314.1,446.9,314.1z"/>
				</g>
			</g>
		</g>
		<g>
			<g>
				<path class="st9" d="M1349.2,178.3c-285.7-298.7-376.4-97.1-206.5,0c-101.3-28.3-187.9-37.9-237.5,0
					C622.6,299.9,439.9,503.9,364.3,718.1c-144.3,408.4,100.3,853.7,782.1,834.6C2323.1,1619,2030.8,254.5,1349.2,178.3z"/>
			</g>
			<g class="st7">
				<g>
					<path class="st0" d="M1349.2,236c339.3,37.9,582.1,395.1,595.3,736.1c14-357.3-236.8-753.8-595.3-793.8
						c-216.9-226.7-321.4-165.2-284.8-79.9C1090.8,58.4,1189.5,69.1,1349.2,236z"/>
				</g>
				<g>
					<path class="st0" d="M364.3,775.8C439.9,561.6,622.6,357.6,905.1,236c49.6-37.9,136.3-28.3,237.5,0
						c-38.8-22.2-63.9-49.7-76.3-75.6c-67.9-12.2-124.6-10.1-161.2,17.9C622.6,299.9,439.9,503.9,364.3,718.1
						c-29.9,84.6-43,170.7-39.1,254C328.2,907.2,341.2,841,364.3,775.8z"/>
				</g>
			</g>
			<g class="st2">
				<path class="st3" d="M1921,750.9c44.4,366.1-165.3,737.8-793,702.5c-466.6,13-728.4-191.4-800.9-452.6
					c29.1,306.6,294.8,566.7,819.2,552C1831,1591.3,2018.3,1145.5,1921,750.9z"/>
			</g>
			<g>
				<ellipse class="st6" cx="1160.1" cy="1190.6" rx="267.6" ry="206.5"/>
			</g>
			<g>
				<path class="st1" d="M1105.9,749.2c-74.6,52.4-114.5,145.9-103.2,299.7c2.4,32.4,22.8,61.9,54.4,77.1
					c64.5,31.2,129.4,32.8,194.6,5.9c40.4-16.6,66.5-53.1,67-93.4c1.6-147.2-34.2-241.4-102.7-289.4
					C1183.5,726.5,1138.3,726.4,1105.9,749.2z"/>
			</g>
			<g>
				<path class="st1" d="M1228.4,1576.2c-26.8,0-54.3-0.8-82.4-2.3c-13.6,0.4-27.2,0.6-40.6,0.6c-312.4,0-557.3-101-692.5-286.6
					c-116.5-160-141.5-370.2-68.6-576.8c83-235,283.5-435.8,550.1-551.2c37.6-27.4,91.3-34.6,169.1-21.4
					c-19.6-25.6-29.6-53.2-27.2-79c2.4-26.2,17.8-46.2,42.3-54.8c62.7-21.9,164.7,34,280.4,153.6
					c176.4,22.2,337.4,128.3,454.1,299.4c111.1,163,165.9,362.6,150.4,547.8c-14.5,172.7-88.3,316.8-213.4,416.6
					C1621.8,1524.5,1446.5,1576.2,1228.4,1576.2z M1146.3,1531.6c0.4,0,0.8,0,1.2,0c454.5,25.5,744-172.5,774-529.8
					c29-345.3-210.6-761.9-574.7-802.6c-4.9-0.5-9.5-2.8-12.9-6.4C1210.8,64.2,1127,32.5,1092.6,44.5c-8.8,3.1-13.3,9-14.2,18.7
					c-2.3,24.7,20.2,65.5,74.7,96.7c9.3,5.3,13.1,16.6,9,26.5c-4.1,9.8-14.9,15.1-25.2,12.2c-111.7-31.3-181.3-32.4-219-3.6
					c-1.4,1.1-2.9,1.9-4.5,2.6c-257,110.6-450,302.9-529.3,527.5c-68.3,193.2-45.3,389.3,62.9,537.8
					c132.7,182.1,380.9,277.6,698.7,268.7C1146,1531.6,1146.2,1531.6,1146.3,1531.6z"/>
			</g>
			<g>
				<path class="st1" d="M921.6,191.5c-47.6,44,99.1,86.8,128.2,95.6c11.3,3.5,7.4,20.2-4.3,18.3c-50.3-10.3-128.4-23.6-161.6-66.3
					c-17.3-22.2-11.7-53.4,4.8-74.2C906.9,141.4,940.8,168.8,921.6,191.5L921.6,191.5z"/>
			</g>
			<g>
				<path class="st1" d="M576.8,922.2c23.6-108.6,136.4-204.3,248.9-148.6c59.7,30.8,90.3,97,95.3,160.7
					c1.2,17.8-23.1,23.8-30.4,7.8c-23.5-57.5-64.9-124.6-132.8-123.1c-65.6,2.3-115.5,59.5-147.3,116.1
					C600.3,953.7,572,942.8,576.8,922.2L576.8,922.2z"/>
			</g>
			<g>
				<path class="st1" d="M1709,935.1c-18.1-31.4-38.7-60-64-81.1c-49.2-42.7-115.2-49.4-162-0.5c-24.3,24.1-40.1,56.4-54.1,88.5
					c-3.6,8-13,11.6-21,8c-6.3-2.8-9.9-9.3-9.4-15.8c1.6-20.1,5.9-40.2,12.5-60c14.3-41.2,42.2-79.8,82.8-100.6
					c64-33.9,142.4-11.3,189.9,39.2c30.3,31.3,49.5,70,59,109.4c2.4,9.8-3.7,19.6-13.4,22C1721.1,946.2,1712.8,942.2,1709,935.1
					L1709,935.1z"/>
			</g>
			<g>
				<path class="st1" d="M1160.5,1167.7c-37.2,0-74.3-8.8-110.8-26.5c-36.6-17.7-61.1-52.6-63.9-91.1
					c-11.1-151.8,25-254.8,110.4-314.8c38.1-26.8,91.3-26.8,129.5,0c74.5,52.2,111.5,154.3,109.9,303.4
					c-0.5,46.9-30.9,89.6-77.4,108.8C1225.5,1161,1192.9,1167.7,1160.5,1167.7z M1115.6,763c-74.8,52.6-106.2,145.7-96.1,284.7
					c1.9,26.5,19.1,50.7,44.9,63.2c60.1,29.1,119.3,30.9,180.9,5.5c34-14,56.1-44.6,56.5-77.9c1.5-137.3-30.6-230-95.5-275.4
					C1179.5,744.3,1142.2,744.3,1115.6,763L1115.6,763z"/>
			</g>
			<g>
				<path class="st1" d="M1100.7,1250.6c-22.1,0-48.8-7-80.5-21.1c-8.5-3.8-12.4-13.8-8.6-22.3c3.8-8.5,13.8-12.4,22.3-8.6
					c42.5,18.9,73.6,23.1,90,12.3c13-8.6,19.4-28.8,18.9-59.8c-0.1-9.3,7.3-17,16.6-17.2c9.3,0,17,7.3,17.2,16.6
					c0.7,43.3-10.8,73.1-34,88.5C1131,1246.8,1117.1,1250.6,1100.7,1250.6z"/>
			</g>
			<g>
				<path class="st1" d="M1218.8,1250.6c-16.4,0-30.3-3.8-41.8-11.5c-23.3-15.4-34.7-45.2-34-88.5c0.1-9.2,7.7-16.6,16.9-16.6
					c0.1,0,0.2,0,0.3,0c9.3,0.1,16.8,7.8,16.6,17.2c-0.5,31.1,5.9,51.2,18.9,59.8c16.4,10.8,47.5,6.6,90-12.3
					c8.5-3.8,18.5,0.1,22.3,8.6c3.8,8.5-0.1,18.5-8.6,22.3C1267.6,1243.6,1240.9,1250.6,1218.8,1250.6z"/>
			</g>
			<g class="st7">
				
					<ellipse transform="matrix(0.1415 -0.9899 0.9899 0.1415 43.0666 1836.9347)" class="st0" cx="1080.6" cy="893.6" rx="64.7" ry="32.8"/>
			</g>
		</g>
	</g>
</g>
</svg>
