<!-- Generator: Adobe Illustrator 23.0.1, SVG Export Plug-In  -->
<svg version="1.1" xmlns="http://www.w3.org/2000/svg" xmlns:xlink="http://www.w3.org/1999/xlink" x="0px" y="0px"
	 width="1992.5px" height="3162.9px" viewBox="0 0 1992.5 3162.9" style="enable-background:new 0 0 1992.5 3162.9;"
	 xml:space="preserve">
<style type="text/css">
	.st0{fill:#37DBFF;stroke:#000072;stroke-width:0;stroke-miterlimit:10;}
	.st1{opacity:0.3;}
	.st2{fill:#6B184E;stroke:#000072;stroke-width:0;stroke-miterlimit:10;}
	.st3{fill:#000072;}
	.st4{fill:#FF1563;}
	.st5{opacity:0.6;}
	.st6{fill:#FFFFFF;}
	.st7{fill:#B5CFDD;}
	.st8{fill:#32B1D1;stroke:#000072;stroke-width:0;stroke-miterlimit:10;}
	.st9{fill:#FF7878;}
	.st10{fill:none;stroke:#000072;stroke-width:29.0486;stroke-linecap:round;stroke-miterlimit:10;}
	.st11{opacity:0.7;}
	.st12{fill:#FFC200;}
	.st13{fill:#FF57BC;}
	.st14{fill:#00C3FF;}
</style>
<defs>
</defs>
<g>
	<g>
		<g>
			<path class="st0" d="M1395.2,791.7c0,20.6-13.3,21.7-29.8,21.7s-29.8-1.2-29.8-21.7s29.8-41.7,29.8-41.7
				S1395.2,771.1,1395.2,791.7z"/>
		</g>
		<g class="st1">
			<path class="st2" d="M1395.2,791.7c0,20.6-13.3,21.7-29.8,21.7s-29.8-1.2-29.8-21.7s29.8-41.7,29.8-41.7
				S1395.2,771.1,1395.2,791.7z"/>
		</g>
		<g>
			<path class="st3" d="M1365.5,828c-13.3,0-44.3,0-44.3-36.3c0-26.7,29.9-49.3,35.9-53.5l8.4-6l8.4,6c6,4.2,35.9,26.8,35.9,53.5
				C1409.8,828,1378.7,828,1365.5,828z M1365.5,768.8c-7.8,7.3-15.2,16.7-15.2,22.9c0,4.4,0.9,5.7,0.9,5.7c1.2,1,6.1,1.5,14.4,1.5
				s13.1-0.5,14.4-1.6l0,0c0,0,0.8-1.3,0.8-5.6C1380.7,785.5,1373.3,776.2,1365.5,768.8z"/>
		</g>
		<g>
			<path class="st4" d="M1631.6,343.2c0,203.1-119.2,406.8-266.1,406.8s-266.1-203.7-266.1-406.8s119.2-328.7,266.1-328.7
				S1631.6,140.1,1631.6,343.2z"/>
		</g>
		<g class="st1">
			<path class="st3" d="M1365.5,565c-123.9,0-227.9-144.6-257.6-311.7c-5.5,27.9-8.5,57.9-8.5,89.9c0,203.1,119.2,406.8,266.1,406.8
				c147,0,266.1-203.7,266.1-406.8c0-31.9-3-62-8.5-89.9C1593.4,420.4,1489.3,565,1365.5,565z"/>
		</g>
		<g class="st5">
			<path class="st6" d="M1626.4,267.1c-1.3,9.6-2.9,19.1-4.7,28.5c-20.9-98.3-73.6-170-142.6-206.9c2.3,3.6,3.6,7.5,3.6,11.5
				c0,18.3-26.1,33.2-58.3,33.2c-32.2,0-58.3-14.9-58.3-33.2c0-17.8,24.8-32.4,56-33.1c-18.2-4.3-37.1-6.5-56.5-6.5
				c-122.1,0-224.9,87.6-256.3,235c-1.8-9.4-3.3-18.9-4.7-28.5c24.4-162.8,131.9-260.7,261-260.7S1602.1,104.3,1626.4,267.1z"/>
		</g>
		<g>
			<path class="st3" d="M1365.5,764.6c-74.7,0-145.9-47.6-200.5-134c-51-80.8-80.2-185.5-80.2-287.3c0-100.7,28.1-187.1,81.4-249.9
				C1217.2,33.1,1288,0,1365.5,0s148.2,33.1,199.3,93.3c53.2,62.8,81.4,149.2,81.4,249.9c0,101.8-29.2,206.6-80.2,287.3
				C1511.4,717,1440.2,764.6,1365.5,764.6z M1365.5,29.1c-148.1,0-251.6,129.2-251.6,314.2c0,205.3,119.9,392.3,251.6,392.3
				s251.6-187,251.6-392.3C1617.1,158.2,1513.6,29.1,1365.5,29.1z"/>
		</g>
	</g>
	<g>
		<path class="st7" d="M369.5,2722.2c13.6,49.2,86.6,93.2,161,53.1c48-25.9,64.6-63,48.7-108.6c-25.8-73.9-78.2-67.5-127.4-44.1
			C402.5,2645.9,356.7,2675.7,369.5,2722.2z"/>
		<path class="st3" d="M470.8,2793.5c-15.6,0-31-3.1-45.7-9.4c-28.8-12.3-51-35.8-58.1-61.3c-13.5-49,34.7-79.4,83.6-102.6
			c35.3-16.7,63.2-20.4,85.4-11.1c19.9,8.3,35.2,27.4,45.4,56.7c16.3,46.7-0.9,85.3-49.8,111.7
			C511.9,2788.1,491.2,2793.5,470.8,2793.5z M371.9,2721.5c6.6,24.1,27.8,46.3,55.2,58c32.5,13.9,68.8,11.6,102.2-6.4
			c47.1-25.4,63.1-61,47.5-105.6c-9.7-27.9-24.1-45.9-42.7-53.7c-20.8-8.7-47.4-5.1-81.3,11C405.8,2647.1,359.4,2676,371.9,2721.5z"
			/>
	</g>
	<g class="st5">
		<path class="st6" d="M420.4,2779.2c-13.4-11.7-23-26.2-27.1-41c-12.8-46.5,33-76.3,82.2-99.6c27.7-13.1,56.4-20.9,80.8-12.1
			c-28-29.6-67.2-21.6-104.6-3.9c-49.3,23.3-95,53.1-82.2,99.6C375.7,2744.8,394.6,2766.4,420.4,2779.2z"/>
	</g>
	<g class="st1">
		<path class="st3" d="M530.4,2775.3c48-25.9,64.6-63,48.7-108.6c-17.5-50.1-47.2-63.3-79.8-59.3c20.2,37.2,11.5,74.2-25.7,108.4
			c-28.5,26.3-61.2,35.3-90.6,33.1C410.6,2784.9,470.1,2807.9,530.4,2775.3z"/>
	</g>
	<g>
		<path class="st3" d="M470.8,2805.5c-17.2,0-34.2-3.4-50.4-10.4c-32.1-13.7-57-40.2-64.9-69.1c-18-65.4,57.7-101.3,90-116.6
			c38.5-18.3,69.7-22,95.2-11.3c23.2,9.7,40.8,31.2,52.2,63.8c18.3,52.2-1.4,97.1-55.5,126.2
			C515.8,2799.7,493.2,2805.5,470.8,2805.5z M383.5,2718.3c5.7,20.6,24.2,39.8,48.3,50.1c29.1,12.4,61.6,10.3,91.7-5.9
			c41.7-22.5,55.4-52.3,41.8-91.1c-8.6-24.5-20.7-40.2-35.9-46.6c-17.5-7.3-40.9-3.8-71.5,10.8
			C397.7,2664.2,375.4,2689,383.5,2718.3z"/>
	</g>
	<g>
		<path class="st7" d="M1445.8,2088.2c-1.6,16.7-5.5,38.2-10,59.4c-8.8,41.2-19.8,81-19.8,81c-74.6,212.3-247.5,221.5-247.5,221.5
			s2.1,12.3,2.5,37.5c0.6,37-2.5,101.8-21,196.2c-34.4,175.9-128.2,267.4-216.7,291.4c0.3,28.7-6.5,146.4-41.7,159.9
			c-18.8,7.2-38.9-8.8-38.9-8.8s-13.3,27-44.4,21.1c-23.8-4.5-30.3-31.6-30.3-31.6s-24.6,9.3-38.4,2.1
			c-14.5-7.6-18.7-26.1-23.3-41.5c-22.3-73.9,20.9-162.9,36.9-190.7c16.3-28.3,22.8-34.4,29.2-47c-22.2-5.1-35.5-10.9-35.5-10.9
			c-28.9,76.4-86.5,109.5-138.9,108.4c0.8,23.1-8.8,156.8-42.8,173.1c-23.2,11.1-47.6-12.3-47.6-12.3s-10.6,23.4-34.4,20.1
			c-19.4-2.7-28.3-27.1-28.3-27.1s-25.3,27.9-53.5-17.6c-47.1-76.1,8.9-207.9,28.4-239.6c17.5-28.6,52.3-81.3,52.3-81.3
			s-12.6-53.4-0.3-106.1c1.4-6.1,4-15.2,7.3-26.5c11.1-37.5,31.2-99,50.1-155.8c23.7-71.3,45.7-135.3,45.7-135.3l49.3-7.3
			l370.2-54.4c0,0,118.7-4.6,224.5-119.2c26.8-29,52.8-65.2,75.8-110.1c0,0,18-41,73.7-35.4
			C1413.3,2004.8,1451.7,2025.7,1445.8,2088.2z"/>
	</g>
	<g class="st1">
		<path class="st3" d="M1435.8,2147.7c-8.8,41.2-19.8,81-19.8,81c-74.6,212.3-247.5,221.5-247.5,221.5s2.1,12.3,2.5,37.5l-10.6,4.4
			c0,0-2.5-18.4-6.4-40.3c-6.1-34,11.7-68.4,43.8-81C1326.8,2319.9,1374.1,2277.5,1435.8,2147.7z"/>
	</g>
	<g class="st1">
		<path class="st3" d="M526,2618.5c-12.3,52.7,0.4,136.8,0.4,136.8s-32.6,31-50.2,59.6c-19.5,31.7-91.5,157.8-42.1,232.4
			c9.2,14,26.2-1,26.2-1s10.8,29.5,28.3,30.1c17.5,0.6,26-20.1,26-20.1s14.2,19.7,39.4,21.6c16.5,1.3,28.1-17.3,28.1-17.3
			s8.5,7.9,2.4,22.9c-5.3,12.7-11.6,22-19.1,25.7c-23.2,11.1-47.6-12.3-47.6-12.3s-10.6,23.4-34.4,20.1
			c-19.4-2.7-28.3-27.1-28.3-27.1s-25.3,27.9-53.5-17.6c-47.1-76.1,8.9-207.9,28.4-239.6c17.5-28.6,52.3-81.3,52.3-81.3
			s-12.6-53.4-0.3-106.1c1.4-6.1,4-15.2,7.3-26.5c11.1-37.5,31.2-99,50.1-155.8c23.7-71.3,45.7-135.3,45.7-135.3l36.9-5.4
			c-8.4,24.7-23,67.8-38.4,114c-18.9,56.8-39,118.3-50.1,155.8C529.9,2603.3,527.4,2612.4,526,2618.5z"/>
	</g>
	<g class="st1">
		<path class="st3" d="M880.3,3107.8c14.5,1.9,19.7-1.9,29,1.2c-5.5,13.3-12.5,23.1-21.2,26.4c-18.4,7.1-38.1-8.6-38.1-8.6
			s-13,26.5-43.6,20.7c-23.3-4.5-29.7-31-29.7-31s-24.1,9.2-37.7,2.1c-14.2-7.4-18.3-25.6-22.8-40.7
			c-21.9-72.5,20.5-159.7,36.2-187.1c16-27.7,22.3-33.8,28.6-46.1c-3-0.7-32.2-10-34.8-10.7c-5.7-6.6-7.2-13.4-6.7-20.1
			c0.9-11.6,12.9-18.9,23.7-14.8c29,11.1,110.4,25.3,211.3-2.5c8.6-2.4,14.2,9,7.1,14.4c-83.3,63.1-167.3,23.3-174.8,35.1
			c-3.1,4.9-6.7,10.8-11.1,18.4c-15.7,27.3-52,113-36.2,187.1c10,47.1,34.3,18.1,34.3,18.1s0.9,32.9,15.8,40.5
			c20.9,10.6,37.7-23.7,37.7-23.7S865.9,3105.9,880.3,3107.8z"/>
	</g>
	<g>
		
			<ellipse transform="matrix(0.9958 -9.145215e-02 9.145215e-02 0.9958 -236.0953 89.2058)" class="st6" cx="855.3" cy="2620.8" rx="205.6" ry="189.6"/>
	</g>
	<g>
		<path class="st3" d="M785.2,2826.6c16.2,2.1,33.5,3.7,50.4,4.7c17,0.9,34.1,1.4,51.1,0.3c4.2-0.4,8.5-0.5,12.7-1l12.7-1.5
			c4.2-0.8,8.3-1.6,12.6-2.3c4.2-0.7,8.3-2,12.4-2.9c16.5-4.4,32.6-10.7,47.8-19.7l0,0c0.9-0.5,2-0.2,2.5,0.6
			c0.4,0.7,0.3,1.6-0.3,2.2c-12.7,12.9-28.2,23.2-44.9,30.9c-16.7,7.8-34.6,12.9-52.7,16.1c-18.1,3.2-36.5,4.8-54.9,4.4
			c-4.6,0-9.2-0.2-13.7-0.6c-4.6-0.3-9.1-0.7-13.7-1.4c-9.2-1.2-18.1-2.7-27.4-5.5c-6.6-2-10.4-8.9-8.5-15.6c1.8-6,7.6-9.7,13.6-8.9
			L785.2,2826.6z"/>
	</g>
	<g>
		<path class="st3" d="M523.7,2922c15-1,29.3-0.6,43.4-0.6c7,0.1,13.9-0.1,20.7,0.3c6.8,0.3,13.5,0.7,20.2,2l0.3,0.1
			c6.9,1.3,11.4,8,10.1,14.8c-1,5.3-5.2,9.2-10.2,10.1c-7.6,1.3-15.3,1-22.7,0.1c-7.5-0.9-14.8-2.9-21.9-5.1
			c-14.2-4.5-27.9-10.2-40.7-18.2c-0.9-0.5-1.1-1.7-0.6-2.6C522.6,2922.4,523.1,2922.1,523.7,2922z"/>
	</g>
	<g>
		<path class="st3" d="M817,3162.9c-3.6,0-7.4-0.3-11.3-1.1c-18.3-3.5-29.8-16.3-36.2-28.3c-10.6,2.2-25.1,3.4-36.5-2.6
			c-18.6-9.7-24.5-29.7-29.2-45.8l-1.3-4.3c-25.6-84.7,27.4-183.2,38.3-202.1c8.6-14.9,14.7-24.1,19.2-30.8c-1.7-0.5-3.3-1-4.8-1.5
			c-31.7,70.9-86.4,99.9-133,104c-2,40.6-11.1,153.2-50.5,172.1c-18.3,8.8-37.2,3.1-50.8-5c-8.7,8.9-22,16.5-39.5,14.1
			c-15.1-2.1-25.3-12.1-31.7-21.1c-4.9,1.8-10.7,3-17.4,2.4c-16-1.5-30.5-12.5-43-32.8c-52.9-85.5,10-224.9,28.4-254.9
			c14.3-23.2,40.1-62.7,49.2-76.6c-3-16.3-9.6-61.3,1-106.5c12.2-52.4,99.7-308.1,103.5-319l2.9-8.4l429.8-63.1
			c7.3-0.3,179.5-10.1,287.8-221.2c2.7-5.8,25.7-49.8,88.3-43.4c55.9,5.7,86,44.1,80.4,102.8v0c-4.7,49.8-29.2,139.2-30.2,143
			l-0.3,1c-64.7,184.3-199.6,221.8-245.2,229.4c2.2,29.5,3.6,102.6-20.2,223.8c-30.2,154.3-110.7,265.2-216.6,299.5
			c-1,35.6-7.7,146-50.9,162.6c-15.3,5.9-30.1,1.7-40.2-3.1C848.1,3154.5,834.7,3162.9,817,3162.9z M788.3,3096.5l3.9,16
			c0,0.1,4.8,18,18.9,20.7c19.2,3.6,27.8-11.6,28.7-13.3l8.2-15.6l13.9,10.8c0.1,0,14.1,10.6,24.6,6.6c19.7-7.5,33-92.5,32.4-146.2
			l-0.1-11.2l10.8-2.9c100.1-27.2,177.2-131.9,206.2-280.2c30.1-153.5,18.5-227.8,18.4-228.5l-2.6-16l16.2-0.9
			c6.6-0.4,164-11.8,234.4-211.3c2-7.2,24.9-92,29.2-137.5v0c5.1-53.7-26.8-68.3-54.4-71.1c-43.9-4.4-58.4,25.6-59,26.9l-0.3,0.7
			c-113.7,221.8-296,236.3-311.8,237.2l-410,60.3c-15.5,45.5-89.1,262-99.8,307.8c-11.3,48.6,0.2,99,0.3,99.5l1.4,6.1l-3.4,5.2
			c-0.3,0.5-34.8,52.9-52,80.9c-21.3,34.8-69.8,157.5-28.4,224.4c7.3,11.8,14.7,18.6,21,19.2c5.1,0.5,9.4-3.6,9.4-3.6l16.2-17.8
			l8.2,22.6c1.6,4.2,8.1,16.5,16.7,17.7c12.9,1.9,19-11.5,19.1-11.7l8.5-18.7l14.8,14.2c0.1,0.1,17.8,16.2,31.3,9.7
			c20.8-10,36-120.2,34.5-159.5l-0.6-15.4l15.4,0.4c0.8,0,1.5,0,2.3,0c41.6,0,95-25.9,122.7-99l5.4-14.3l14,6.2
			c0.1,0,12.5,5.4,32.9,10l18.1,4.1l-8.4,16.6c-3.4,6.7-6.7,11.6-10.9,17.9c-4.5,6.8-10.2,15.2-18.6,29.9
			c-6,10.5-58.2,104.5-35.6,179.3l1.3,4.5c3.5,11.9,7.1,24.3,14.8,28.3c5,2.6,18.8,0.1,26.6-2.8L788.3,3096.5z M1445.8,2088.2
			L1445.8,2088.2L1445.8,2088.2z"/>
	</g>
	<g>
		<path class="st3" d="M847.2,2975.2c15.1-0.8,29.1-2.2,42.7-4.7c6.8-1.2,13.4-2.8,20.1-4.1c6.7-1.3,13.2-2.7,20.2-3.2l0.3,0
			c7-0.5,13.1,4.7,13.6,11.7c0.4,5.4-2.7,10.3-7.3,12.4c-7.2,3.3-14.9,5-22.7,5.9c-7.8,0.9-15.7,0.6-23.6-0.2
			c-15.6-1.7-31-6.2-44.2-14.4c-0.9-0.5-1.1-1.7-0.6-2.6C846,2975.5,846.6,2975.2,847.2,2975.2z"/>
	</g>
	<g>
		<path class="st7" d="M659.1,2254.2l-25,66.2l-56.8,150.5l-49.3,130.6c-10.5,5.4-23.8,11.4-39,17.3
			c-60.1,23.3-149.7,45.2-211.4,27.9c-33.6-9.4-30-36.3-30-36.3s-28.2,1.5-44-21.4c-8.4-12.2,11.5-39.5,11.5-39.5
			s-23.1-8.8-24.8-23.3c-2.3-19.3,35.8-34.4,64-45.4c52.4-20.6,116.2-43.2,179.3-71.3C520.4,2371,605.8,2322.1,659.1,2254.2z"/>
	</g>
	<g class="st1">
		<path class="st3" d="M528.1,2601.5L528.1,2601.5c-10.5,5.4-23.8,11.4-39,17.3c-60.1,23.3-149.7,45.2-211.4,27.9
			c-33.6-9.4-30-36.3-30-36.3s-28.2,1.5-44-21.4c-8.4-12.2,11.5-39.5,11.5-39.5s-23.1-8.8-24.8-23.3c-1.5-13.1,15.5-24.2,35.4-33.5
			c-24.9,47.9,38.5,37.5,38.5,37.5s-43.6,16.7-38.6,30.7c7.9,21.8,54.3,8.5,54.3,8.5s-14.9,36.9,18.9,45.4
			c54,13.6,157.7-16.3,209.7-33.6C521.1,2577.2,532.7,2589.3,528.1,2601.5z"/>
	</g>
	<g>
		<path class="st3" d="M328,2667.4c-19.2,0-37.6-2-54.3-6.7c-25.4-7.1-35.9-23.2-39.4-36.9c-12.4-2.2-30.3-8.6-42.6-26.5
			c-8.8-12.8-3.4-29.9,3.1-42.3c-8.4-5.8-17.3-14.7-18.7-27.1c-3.6-30.5,38.9-47.2,73.1-60.6c14.6-5.7,30-11.6,46.1-17.7
			c121.8-46.3,273.4-104,352.4-204.4c5-6.3,14.1-7.4,20.4-2.4c6.3,5,7.4,14.1,2.4,20.4c-84,106.8-239.8,166-364.9,213.6
			c-16,6.1-31.3,11.9-45.8,17.6c-35.4,13.9-53.8,24.1-54.8,30.3c0.4,2.6,8.6,8.6,15.5,11.3l17.7,6.8l-11.2,15.3
			c-5.8,8.1-11,19.4-10.8,23.4c10.9,15,30.6,14.5,30.8,14.5l17.5-0.9l-2.3,17.3c-0.3,3.2,0.3,15,19.5,20.4
			c68.6,19.2,183.6-15,239.8-44.1c7.1-3.7,15.9-0.9,19.6,6.2c3.7,7.1,0.9,15.9-6.2,19.6C495.7,2634.7,405.6,2667.4,328,2667.4z"/>
	</g>
	<g>
		<path class="st8" d="M704.7,2543.5"/>
	</g>
	<g>
		<path class="st7" d="M761.4,1658.4c0,0,58.7-329.5,326.4-273.3c30.8,6.5,182.3,52.9,228.5,182.7c6.6,18.5,2.5,44.7-25.6,40.6
			c0,0,43.6,74.2,21.8,145c-21.7,70.8-59.5,31.9-59.5,31.9s-8,103.7-86.9,85.8L761.4,1658.4z"/>
		<path class="st3" d="M1183.6,1875.7c-5.7,0-11.7-0.7-18-2.1l-0.6-0.2l-406.4-213.6l0.3-1.8c0.3-1.7,31.1-167.9,143.6-243.9
			c52.8-35.6,115.3-46.2,185.8-31.4c1.8,0.4,178.7,39.1,230.4,184.3c3.7,10.4,5.1,26.1-3.2,36.2c-3.3,4.1-9.4,8.5-20.3,8.1
			c8.7,16.8,38.7,81.4,19.8,142.9c-7.9,25.6-18.8,40.3-32.6,43.6c-11.7,2.8-22-3.4-27.4-7.5c-1.8,14-9.4,54.3-36.4,74.2
			C1208.5,1872,1196.8,1875.7,1183.6,1875.7z M1167.1,1868.8c19,4.2,35.4,1.5,48.6-8.3c30.5-22.5,34.9-74.9,34.9-75.4l0.4-5.5l3.9,4
			c0.1,0.1,12.6,12.7,26.4,9.4c11.9-2.9,21.6-16.4,29-40.2c21.2-69-21.1-142.3-21.6-143l-2.6-4.5l5.2,0.8c9.2,1.4,16.1-0.6,20.5-5.9
			c6.5-7.9,5.9-21.5,2.4-31.3c-42.1-118.4-177.9-170.9-226.7-181.1c-69.1-14.5-130.4-4.2-182,30.6
			c-104.5,70.6-137.5,220.7-141.1,238.8L1167.1,1868.8z"/>
	</g>
	<g class="st5">
		<path class="st6" d="M1316.4,1567.9c1.3,3.5,2.1,7.4,2.5,11.2c-55.8-109.7-188.5-150.1-217.1-156.1
			c-220.2-46.2-299,168.5-320,246.2l-20.3-10.7c0,0,58.7-329.4,326.4-273.3C1118.6,1391.6,1270.2,1438.1,1316.4,1567.9z"/>
	</g>
	<g>
		<path class="st3" d="M1183.8,1887.8c-6.7,0-13.6-0.8-20.8-2.5l-1.9-0.4l-415.8-218.6l1.9-10.5c1.3-7,32-173,148.7-251.7
			c55.6-37.5,121.2-48.7,195-33.2c1.9,0.4,185.3,40.5,239.2,192.1c4.7,13.3,6.2,33.9-5.3,47.9c-2.3,2.9-6.2,6.6-12,9.2
			c12.3,28.1,30.5,83.2,13.7,137.7c-9.2,30-23.1,47.4-41.3,51.8c-7.9,1.9-15.1,1-21.4-1c-4.8,20-15.3,48.9-38.1,65.7
			C1213.5,1883.3,1199.4,1887.8,1183.8,1887.8z M1171.2,1857.4c15,3,27.2,0.9,37.2-6.5c26-19.1,30.1-66.2,30.2-66.7l2.6-32l22.3,23
			c2,2,9.2,7.5,15,6c7-1.8,14.6-13.7,20.2-32.1c19.6-64-20-132.7-20.4-133.4l-15.4-26.2l30,4.5c3.3,0.5,7.6,0.6,9.4-1.7
			c2.5-3.1,3.3-11.3,0.4-19.7c-47.7-134.2-216.1-173-217.8-173.4c-65.8-13.8-123.9-4.1-172.7,28.8c-90.7,61.1-125.7,186-134.2,222.5
			L1171.2,1857.4z"/>
	</g>
	<g>
		<path class="st7" d="M510.4,1751.1c0,0-258.7-212.3-425.7,4.4c-19.2,24.9-104.2,158.7-55,287.4c7,18.4,27.2,35.6,45.8,14.2
			c0,0,15.1,84.7,77.7,124.4c62.6,39.7,65.9-14.4,65.9-14.4s73.5,73.6,121.8,8.8L510.4,1751.1z"/>
		<path class="st3" d="M292.5,2205c-31.8,0-61.4-23.9-71.4-32.9c-1.4,6.6-5.2,18-15.9,23.5c-12.6,6.4-30.5,2.4-53.1-12
			c-54.3-34.5-73.5-103-77.8-121.4c-8,7.3-15.5,7.9-20.7,7c-12.9-2.3-22-15.1-26-25.4c-55.1-144,54.2-288.3,55.3-289.8
			c44-57.1,98.4-89.7,161.6-96.9c134.8-15.4,266.3,91,267.6,92.1l1.4,1.2l-0.7,1.7l-169.5,425l-0.2,0.3
			c-12.7,17-28.2,26.2-46.1,27.5C295.4,2204.9,293.9,2205,292.5,2205z M217.1,2161.3l3.9,3.9c0.4,0.4,37.6,37.2,75.6,34.6
			c16.3-1.2,30.6-9.7,42.3-25.3l168.6-422.7c-14.5-11.4-137.2-104.2-262.4-89.8c-61.9,7.1-115.1,39-158.2,95
			c-30.4,39.5-99.5,167.6-54.6,284.9c3.7,9.8,12.1,20.5,22.2,22.3c6.7,1.2,13.3-1.8,19.4-8.8l3.4-3.9l0.9,5.1
			c0.2,0.8,15.7,84.1,76.5,122.7c21,13.3,37.2,17.3,48.2,11.8c12.7-6.4,14-24.1,14-24.3L217.1,2161.3z"/>
	</g>
	<g class="st5">
		<path class="st6" d="M86.9,2094.6c0.6-0.6,1.2-1.3,1.8-2c0,0,1,5.6,3.6,14.6C90.3,2102.9,88.5,2098.6,86.9,2094.6z"/>
		<path class="st3" d="M90.1,2108.3c-2-4.3-3.8-8.6-5.5-12.8L84,2094l1.2-1.2c0.6-0.6,1.1-1.2,1.7-1.8l3.4-3.9l0.9,5.1
			c0,0.1,1,5.6,3.5,14.4L90.1,2108.3z"/>
	</g>
	<g class="st5">
		<path class="st6" d="M510.5,1751.1l-8,20c-65-44.7-266.2-159.5-404.6,19.9c-17.9,23.2-93,141.1-63.2,261.3c-2-3-3.7-6.2-4.9-9.5
			c-49.2-128.7,35.8-262.5,55-287.4C251.8,1538.8,510.5,1751.1,510.5,1751.1z"/>
	</g>
	<g>
		<path class="st9" d="M494.8,1863.9c69.1,79.6,6.3,193.6-92.6,230.1c-98.9,36.5-225.8,9.9-265.6-97.8
			c-36.5-98.9,11.6-216.3,113-245.2C339,1725.4,439.6,1800.2,494.8,1863.9z"/>
		<path class="st3" d="M315.7,2111.9c-23.9,0-47.4-3.4-69.2-10.4c-53.8-17.1-93.6-54.2-112.2-104.5c-19.3-52.2-15.9-110.4,9.1-159.7
			c22.5-44.2,59.9-75.8,105.5-88.8c88.1-25.1,188.6,45.6,247.8,113.7l0,0c26.8,30.8,35.9,69.8,25.7,109.6
			c-13.8,54-60.7,102.8-119.3,124.4C375.1,2106.7,345.1,2111.9,315.7,2111.9z M287,1748.3c-12.4,0-24.7,1.6-36.7,5
			c-44.2,12.6-80.6,43.2-102.4,86.2c-24.4,48.1-27.7,104.9-8.9,155.7c23.1,62.6,72.1,89.8,109,101.5c47.7,15.1,103.6,13.2,153.4-5.1
			c57.1-21.1,102.7-68.6,116.2-121c6.9-27,8.3-67.2-24.6-105.1C442.9,1807.9,363,1748.3,287,1748.3z"/>
	</g>
	<g>
		<path class="st9" d="M463.7,2057.7c-17.8,15.3-38.7,27.8-61.4,36.2c-98.9,36.5-225.9,9.9-265.6-97.8
			c-36.5-98.9,11.6-216.3,113-245.2c20.4-5.8,41.4-6.4,62.2-3.1c70.7,11.2,140.3,67,183,116.1C548,1925.1,523.1,2006.7,463.7,2057.7
			z"/>
		<path class="st3" d="M315.7,2111.9c-23.9,0-47.4-3.4-69.2-10.4c-53.8-17-93.6-54.2-112.2-104.5c-19.3-52.2-16-110.4,9.1-159.7
			c22.5-44.2,59.9-75.8,105.5-88.8c19.7-5.6,41-6.7,63.3-3.2c70.9,11.2,141.8,67.7,184.5,116.9c21.6,24.9,31.8,54.9,29.5,86.6
			c-2.9,39.7-25.1,80-60.9,110.7c-18.3,15.7-39.8,28.4-62.2,36.7C375.1,2106.7,345.1,2111.9,315.7,2111.9z M287,1748.3
			c-12.7,0-25,1.7-36.7,5c-44.2,12.6-80.6,43.2-102.4,86.2c-24.4,48.1-27.6,104.9-8.9,155.7c23.1,62.6,72.1,89.8,109,101.5
			c47.7,15.1,103.6,13.2,153.4-5.1c21.9-8.1,42.9-20.4,60.7-35.8l0,0c34.8-29.8,56.3-68.9,59.1-107.3c2.2-30.4-7.5-59.1-28.3-83
			c-42.2-48.5-112-104.3-181.5-115.3C303.1,1749,295,1748.3,287,1748.3z"/>
	</g>
	<g class="st1">
		<path class="st3" d="M463.7,2057.7c-79.2,2.7-157.8-32.4-187.6-113.1c-25.3-68.6-10-146.1,35.7-196.8
			c70.7,11.2,140.3,67,183,116.1C548,1925.1,523.1,2006.7,463.7,2057.7z"/>
	</g>
	<g>
		<path class="st3" d="M315.7,2123.9c-25.1,0-49.8-3.6-72.8-10.9c-57.4-18.2-100-57.9-119.9-111.8c-20.4-55.3-16.9-117,9.7-169.3
			c24-47.3,64.1-81,113-94.9c93.6-26.6,198.6,46.6,260.2,117.4l0,0c29.4,33.9,39.5,76.7,28.3,120.5
			c-14.8,57.7-64.5,109.8-126.8,132.7C377.9,2118.4,346.5,2123.9,315.7,2123.9z M287.3,1760.3c-11.4,0-22.7,1.5-33.7,4.6
			c-41,11.7-74.7,40.1-95,80.1c-22.9,45.1-25.9,98.4-8.3,146.1c21.4,58.1,67,83.3,101.4,94.2c45.2,14.3,98.2,12.5,145.6-5
			c53.5-19.8,96.2-64,108.7-112.7c6.2-24.2,7.4-60.3-22.1-94.2C435.6,1817.8,359.1,1760.3,287.3,1760.3z"/>
	</g>
	<g>
		<path class="st9" d="M834.7,1738.4c-0.8,105.4,121,151.2,219.9,114.7c98.9-36.5,178.1-139.2,138.3-247
			c-36.5-98.9-149.4-156.9-245.2-113C863.2,1531.9,835.3,1654.1,834.7,1738.4z"/>
		<path class="st3" d="M984.7,1868.1c-37.1,0-73-10.1-100.8-29.6c-33.7-23.6-52-59.2-51.7-100c0.7-90.3,31.1-209.3,114.4-247.5
			c43.1-19.8,92.1-20.2,137.9-1.1c51.1,21.2,91.5,63.3,110.7,115.5c18.6,50.4,12.4,104.5-17.4,152.4c-27,43.4-71.6,79-122.4,97.8
			C1032.6,1863.9,1008.4,1868.1,984.7,1868.1z M1015.9,1480.8c-23.1,0-45.9,4.9-67.2,14.6c-81.2,37.2-110.8,154.1-111.5,243
			c-0.4,50.2,26.7,79.8,49.6,95.9c44.3,31.1,109.8,37.6,166.9,16.5c49.8-18.4,93.5-53.3,119.9-95.8c20.5-32.9,40.1-85.4,16.9-148
			c-18.8-50.9-58.1-91.9-107.9-112.6C1060.7,1485.4,1038.2,1480.8,1015.9,1480.8z"/>
	</g>
	<g>
		<path class="st9" d="M1192.9,1606.2c39.8,107.7-39.4,210.4-138.3,247c-26.5,9.8-54.7,13.7-81.6,12
			c-73.7-4.4-138.8-49.6-138.2-126.8c0.5-61.2,15.3-142.4,55.7-197.1c15.2-20.7,34.1-37.5,57.2-48.1
			C1043.5,1449.3,1156.4,1507.3,1192.9,1606.2z"/>
		<path class="st3" d="M984.8,1868c-4,0-8-0.1-12-0.4c-68.1-4-141.2-46.2-140.6-129.3c0.2-29.1,5-129.3,56.2-198.6
			c16.4-22.2,36-38.7,58.2-48.9c43.1-19.7,92.1-20.1,137.9-1.1c51.1,21.2,91.5,63.3,110.7,115.5l0,0
			c18.6,50.4,12.4,104.5-17.4,152.4c-27,43.4-71.6,79-122.4,97.8C1033,1863.8,1008.8,1868,984.8,1868z M1015.9,1480.8
			c-23.1,0-45.9,4.9-67.2,14.6c-21.4,9.8-40.4,25.8-56.3,47.3c-50.4,68.1-55,167-55.2,195.7c-0.6,79.8,70,120.3,135.9,124.2
			c27.3,1.6,55.1-2.5,80.6-11.9c49.8-18.4,93.5-53.3,119.9-95.8c20.5-32.9,40.1-85.4,16.9-148l0,0c-18.8-50.9-58.1-91.9-107.9-112.6
			C1060.7,1485.4,1038.2,1480.8,1015.9,1480.8z"/>
	</g>
	<g>
		<path class="st9" d="M1192.9,1606.2c39.8,107.7-39.4,210.4-138.3,247c-22.1,8.2-45.4,12.2-68.1,12.4c-4.5,0-9-0.1-13.5-0.3
			c-73.7-4.4-138.8-49.6-138.2-126.8c0.5-61.2,15.3-142.4,55.7-197.1c3-4.1,6.2-8,9.5-11.8c13.4-15.3,29.2-27.8,47.7-36.3
			C1043.5,1449.3,1156.4,1507.3,1192.9,1606.2z"/>
		<path class="st3" d="M984.7,1868c-4,0-8.1-0.1-12-0.4c-68.1-4-141.2-46.2-140.6-129.3c0.2-29.1,5-129.3,56.2-198.6
			c3.1-4.2,6.4-8.3,9.6-12c14.2-16.2,30.5-28.7,48.6-36.9c43.1-19.7,92.1-20.1,137.9-1.1c51.1,21.2,91.5,63.3,110.7,115.5l0,0
			c18.6,50.4,12.4,104.5-17.4,152.4c-27,43.4-71.6,79-122.4,97.8c-22.1,8.1-45.3,12.4-69,12.5C985.9,1868,985.3,1868,984.7,1868z
			 M1015.9,1480.8c-23.1,0-45.9,4.9-67.2,14.6c-17.4,8-33.1,20-46.9,35.7c-3.2,3.6-6.3,7.5-9.4,11.6c-50.4,68.1-55,167-55.2,195.7
			c-0.6,79.8,70,120.3,135.9,124.2c4.4,0.3,8.8,0.4,13.4,0.3c23.1-0.2,45.8-4.3,67.3-12.2c49.8-18.4,93.5-53.3,119.9-95.8
			c20.5-32.9,40.1-85.4,16.9-148l0,0c-18.8-50.9-58.1-91.9-107.9-112.6C1060.7,1485.4,1038.2,1480.8,1015.9,1480.8z"/>
	</g>
	<g class="st1">
		<path class="st3" d="M1057.4,1656.2c30.1,81.5-7.9,160.1-71,209.3c-4.5,0-9-0.1-13.5-0.3c-73.7-4.4-138.8-49.6-138.2-126.8
			c0.5-61.2,15.3-142.4,55.7-197.1c3-4.1,6.2-8,9.5-11.8C968.5,1537.5,1031.8,1586.7,1057.4,1656.2z"/>
	</g>
	<g>
		<path class="st3" d="M984.8,1880c-39.6,0-78-10.8-107.8-31.8c-37-26-57.2-65-56.8-109.9c0.7-93.8,33-217.8,121.5-258.3
			c46.2-21.2,98.6-21.6,147.5-1.3c54.2,22.5,97,67.1,117.4,122.4c19.9,53.9,13.4,111.8-18.4,162.9c-28.4,45.6-75.2,83.1-128.5,102.7
			C1035.4,1875.7,1009.9,1880,984.8,1880z M1015.9,1492.9c-21.4,0-42.5,4.5-62.2,13.5c-76.1,34.9-103.8,146.8-104.5,232.1l0,0
			c-0.3,45,24,71.6,44.5,85.9c41.1,28.9,102.3,34.8,155.9,15c47.3-17.5,88.8-50.6,113.9-90.8c19.1-30.7,37.3-79.4,15.9-137.5
			c-17.6-47.7-54.5-86.3-101.3-105.7C1057.6,1497.1,1036.6,1492.9,1015.9,1492.9z M834.7,1738.4L834.7,1738.4L834.7,1738.4z"/>
	</g>
	<g>
		<path class="st3" d="M292.6,2217c-26.3,0-50.8-14-66.4-25.4c-3.4,5.6-8.4,10.9-15.6,14.6c-16.7,8.5-38.5,4.3-65-12.5
			c-48.1-30.5-70.1-84.2-79-113.6c-6.1,1.8-11.5,1.5-15.1,0.8c-17.8-3.2-30.1-19.7-35.1-32.9c-57.5-150.2,55.9-299.9,57-301.4
			c46-59.8,103.2-93.9,169.8-101.5c139.8-15.9,271.1,90.2,276.6,94.7l8.2,6.7l-174,436.3l-1.1,1.5c-14.8,19.9-33.3,30.8-54.9,32.3
			C296,2216.9,294.3,2217,292.6,2217z M207.3,2134.7l22.2,22.1c0.3,0.3,34,33.5,66.2,31.1c12.5-0.9,23.1-7.2,32.5-19.3L492.9,1756
			c-30.3-22.3-138-94.4-246.6-81.9c-58.5,6.7-108.9,37.1-150,90.4c-1,1.4-103.8,140.3-52.9,273.3c3.2,8.3,9.1,14,13.1,14.7
			c2.9,0.5,6.1-2.4,8.3-4.9l19.9-22.9l5.3,29.9c0.1,0.8,14.9,79,71.2,114.7c16.2,10.3,29.7,14.5,36.2,11.2
			c5.4-2.7,7.2-11.5,7.5-14.4L207.3,2134.7z"/>
	</g>
	<g class="st1">
		<path class="st3" d="M1228.8,2146.7c-25.9,95.8-109,174.1-223,232.6c-36.4,18.7-76,35.3-117.8,49.9c-94.7,32.9-186.9,50-268.2,46
			c-14.5-0.7-28.7-2.1-42.5-4.2c-13.1-2-25.9-4.6-38.2-7.9c-39.7-10.6-75.3-28.1-105.4-53.4c86.6-38.6,172-87.5,225.3-155.3
			l-25,66.2l370.2-54.4C1004.3,2266,1123,2261.4,1228.8,2146.7z"/>
	</g>
	<g>
		<path class="st7" d="M633.8,1647.2c239.6-88.5,517.3,76.3,587.4,266.2c62.3,168.9-36.8,304.2-207,395.7
			c-36,19.4-75.3,36.8-116.8,52.1c-94,34.7-185.9,53.6-267.2,51.2c-124.3-3.8-224.2-57.5-269.9-181.2
			C290.3,2041.4,394.2,1735.7,633.8,1647.2z"/>
	</g>
	<g class="st1">
		<path class="st3" d="M1221.2,1913.4c75.5,204.6-86.1,360-323.7,447.8c-237.7,87.8-461.5,74.6-537.1-130
			c-2.3-6.3-4.5-12.7-6.4-19.3c82.4,185.6,299.2,195.1,529.1,110.2c229.8-84.8,388.5-232.9,330.5-427.6
			C1216.3,1900.8,1218.8,1907,1221.2,1913.4z"/>
	</g>
	<g class="st5">
		<path class="st6" d="M1221.2,1913.4c1.9,5,3.6,10,5.1,15c-78.2-183.8-348.1-338.5-581.8-252.2
			c-233.7,86.3-338.4,379.2-278.4,569.7c-2-4.8-4-9.7-5.9-14.7c-70.1-189.8,33.9-495.5,273.5-584
			C873.4,1558.7,1151.1,1723.5,1221.2,1913.4z"/>
	</g>
	<g>
		<path class="st6" d="M980.9,2184c21.6,58.5-25.8,110.5-98.2,137.3s-142.2,18-163.8-40.5c-21.6-58.5,28.8-102.4,101.2-129.1
			S959.3,2125.5,980.9,2184z"/>
	</g>
	<g>
		<path class="st3" d="M630,2417.2c-49,5.6-100.7-1.3-146.9-23.6c-46.4-21.6-86-58.8-111-103.1c-26-43.8-40.4-93.5-45.4-143.3
			c-2.6-24.9-3-50-1.5-74.8c1.6-24.9,5.1-49.6,10.1-73.9c5-24.4,11.8-48.3,20.1-71.7c8.4-23.4,18-46.3,29.5-68.3
			c11.5-22,24.3-43.4,38.7-63.7c14.5-20.2,30.5-39.5,47.8-57.5c34.9-35.7,75.5-66.2,120.8-87.9c5.7-2.6,11.2-5.6,17.1-7.9l17.4-7.1
			c5.9-2.2,11.9-4.1,17.8-6.1c3-1,5.9-2.1,8.9-2.9l9.1-2.4c12-3.6,24.4-5.8,36.7-8.4c12.4-1.8,24.8-3.9,37.3-4.7
			c49.9-4.5,100.3,0.4,148.7,11.9c24.2,6,47.9,13.6,71,22.7c23.1,9.2,45.4,20.1,67.1,32.3c21.7,12.1,42.4,25.9,62.2,40.9
			c19.7,15.1,38.7,31.3,56.1,49.1c34.8,35.6,65,76.4,85.6,122.7c10.1,23.2,17.8,47.3,22.5,72.4c4.7,25,6,50.8,3.5,76.3
			c-2.5,25.5-8.8,50.6-18.4,74.3c-9.8,23.6-22.6,45.7-37.6,66c-15,20.3-32.1,38.8-50.3,55.8c-9.1,8.6-18.5,16.7-28.1,24.6
			c-9.6,7.9-19.4,15.5-29.6,22.7c-20.2,14.4-41.6,26.9-63.9,37.6c-22.3,10.5-45.5,19.2-69.9,24c-2.7,0.5-5.3-1.2-5.8-3.9
			c-0.4-1.9,0.4-3.8,1.9-4.9l0,0c19.8-14.7,40.2-27.2,60.3-39.9c20.2-12.5,40.2-25.2,59.7-38.4c9.8-6.6,19.4-13.4,28.7-20.5
			c9.3-7.2,18.2-14.8,26.9-22.6c17.2-15.9,33-33.1,46.7-51.7c13.7-18.6,25.4-38.6,34.1-59.7c8.6-21.2,14.2-43.4,16.4-66.1
			c4.7-45.3-5.1-91.8-23.6-134.1c-18.8-42.3-46.9-80.5-79.7-114c-16.4-16.8-34.3-32.1-53-46.4c-18.7-14.2-38.3-27.3-58.9-38.8
			c-81.7-46.4-176.8-71.2-270-63.2c-11.7,0.7-23.2,2.7-34.7,4.4c-11.4,2.4-22.9,4.5-34.1,7.8l-8.4,2.3c-2.8,0.8-5.5,1.8-8.3,2.7
			c-5.5,1.9-11.1,3.6-16.5,5.7l-16.2,6.5c-5.4,2.1-10.6,4.9-15.9,7.3c-42,20.2-79.9,48.6-112.6,82c-16.2,16.9-31.2,35-44.9,54
			c-13.6,19.2-25.7,39.4-36.5,60.2c-10.9,20.8-20,42.6-28,64.8c-7.9,22.2-14.4,44.9-19.1,67.9c-4.8,23-8,46.3-9.6,69.8
			c-1.4,23.4-1,46.9,1.4,70.1c2.4,23.2,6.8,46.1,13.8,68.1c7,21.9,16.6,43.2,28.5,62.7c11.9,19.5,26.2,37.5,42.9,52.7
			c16.7,15.3,35.5,28.2,55.7,38.8l7.6,3.9l3.8,1.9l4,1.6c5.3,2.1,10.5,4.6,15.9,6.7l16.3,5.8c5.5,1.8,11.1,3.4,16.7,5.1
			c22.5,6.5,45.6,11.1,69.4,16l0.1,0c2.6,0.5,4.4,3.1,3.8,5.8C633.8,2415.4,632.1,2417,630,2417.2z"/>
	</g>
	<g>
		<path class="st10" d="M897.4,2361.2"/>
	</g>
	<g>
		<path class="st7" d="M497.4,1766.6c-8-62.1,78.9-257.7,152.3-211.7c10.8,6.8,31.4,30.8,12,58.5c-17.7,25.3-31.6,53.1-27.7,47.2
			c18.6-28.5,103.3-112.5,139.6-68.8c17.3,20.8-3.3,57.6-28.4,73.1"/>
		<path class="st3" d="M495,1766.9c-6.1-47.4,43.2-174.5,100.5-211.2c19.8-12.7,38.5-13.7,55.6-2.9c6.1,3.8,17.4,14.4,20.4,29.6
			c2.2,11-0.4,22-7.7,32.4c-5.8,8.3-11.1,16.7-15.5,24.2c23.6-25.8,63.8-60.1,96.1-61.9c12.9-0.7,23.4,3.7,31.3,13.2
			c5.9,7.1,8.1,16.5,6.4,27.1c-3,18.3-17.5,38.7-35.4,49.7l-2.6-4.3c16.7-10.3,30.3-29.3,33.1-46.3c1.5-9.3-0.3-17-5.3-23.1
			c-6.8-8.2-15.9-12.1-27.1-11.4c-38.5,2.2-93.5,57-108.5,80c-0.6,0.9-1.3,2-2.9,1.9l-1.5-0.1l-0.6-1.3
			c-1.6-3.3,19.5-37.6,28.6-50.5c6.5-9.3,8.8-18.9,6.9-28.6c-2.7-13.6-13.1-23.2-18.2-26.4c-15.3-9.6-32.2-8.6-50.3,2.9
			c-56.1,35.9-104.3,160.1-98.3,206.4L495,1766.9z"/>
	</g>
	<g class="st5">
		<path class="st6" d="M501.9,1764.8l-4.4,1.8c-8-62.1,78.9-257.7,152.4-211.7c9,5.6,24.7,23.1,18.7,44.8
			c-4.3-8.3-10.9-14.5-15.6-17.5C588.7,1542,514.3,1686.3,501.9,1764.8z"/>
	</g>
	<g class="st5">
		<path class="st6" d="M778.6,1621.5c-0.5-0.8-1.1-1.6-1.7-2.3c-36.3-43.7-105.5,23.3-135.4,48.6c-5.4,4.5-3.6-7.5,14.1-32.8
			c5.5-7.9,17.2-9.7,17.4-16.7c33.1-29.2,77.2-54.9,100.8-26.4C780.5,1600,781.5,1610.6,778.6,1621.5z"/>
	</g>
	<g>
		<path class="st3" d="M497.4,1781.1c-7.2,0-13.4-5.3-14.4-12.7c-6.6-51.3,44.3-183.3,106-222.9c29.9-19.2,53.7-12.2,68.5-3
			c9.6,6,22.2,19.5,25.8,37.4c0.7,3.5,1,6.9,1,10.4c19.2-13.7,40.1-24.2,59.4-25.3c16.7-0.9,30.9,5.1,41.2,17.5
			c8.2,9.9,11.3,22.6,9,36.7c-3.6,21.8-20,45.1-40.9,58c-6.8,4.2-15.8,2.1-20-4.7c-4.2-6.8-2.1-15.8,4.7-20
			c13.5-8.3,25.3-24.7,27.5-38c1.4-8.6-1.7-12.2-2.7-13.5c-4.4-5.3-9.7-7.5-17.2-7.1c-34,2-85.6,53.8-99.1,74.5
			c-4.5,6.9-10.5,7.6-13.7,7.3l-8.5-0.6l-3.7-7.7c-3.6-7.6-0.8-12.6,8.6-29.2c4.7-8.3,12.1-20.8,21-33.5c4.6-6.6,6.2-12.9,5-19.3
			c-1.8-8.8-8.8-16.1-12.8-18.6c-7.2-4.5-18.8-9.1-37.4,2.8c-51.2,32.8-98.4,151.3-92.8,194.7c1,8-4.6,15.2-12.5,16.3
			C498.7,1781.1,498,1781.1,497.4,1781.1z"/>
	</g>
	<g>
		<path class="st3" d="M756.9,1996.3c5.8-4.3,12.8-6.9,20-7.4c45.6-3.4,103,45.2,129.1,88.9c24,40.3,45.7,108.6-54,145.4
			c-99.7,36.8-127.6-29.2-135.5-75.4C708,2097.6,720.1,2023.4,756.9,1996.3z"/>
	</g>
	<g class="st11">
		<path class="st6" d="M751.5,2081.4c-18.6,13.8-10.4,60,2.9,80.2c13.7,20.9,25.8,30.8,37.1,23.1c15.7-10.7,10.6-31-1.1-51
			C782.1,2119.5,774.5,2064.4,751.5,2081.4z"/>
		<path class="st3" d="M783.6,2189.8c-1,0-2-0.1-3.1-0.3c-8.5-1.7-17.5-10.1-28.2-26.5c-12.9-19.6-22.7-68.4-2.3-83.5l0,0
			c4.7-3.5,9.2-4.5,13.5-3.1c11.1,3.5,17.1,22.3,22.5,38.9c2.3,7.1,4.5,13.8,6.5,17.3c18.8,32.2,10.6,47.3,0.3,54.3
			C789.9,2188.7,786.8,2189.8,783.6,2189.8z M753,2083.4c-16.8,12.4-9.7,56.7,3.5,76.8c9.8,15,18,23,25,24.3c3,0.6,5.8-0.1,8.6-1.9
			c12.3-8.5,11.7-24.5-1.8-47.7c-2.3-4-4.5-10.6-7-18.2c-4.5-13.9-10.7-32.9-19.3-35.6C759.3,2080.2,756.4,2081,753,2083.4
			L753,2083.4z"/>
	</g>
	<g>
		<g>
			<path class="st12" d="M1114.9,1106.1c2.3,20.4-10.8,23.1-27.1,24.9c-16.3,1.8-29.7,2.2-32-18.3c-2.3-20.4,24.9-44.7,24.9-44.7
				S1112.6,1085.7,1114.9,1106.1z"/>
		</g>
		<g>
			<path class="st3" d="M1076.5,1144.4c-5.1,0-10-0.6-14.6-2.5c-10.7-4.2-17-13.6-18.6-27.7c-2.9-26.1,25.7-52.5,29-55.5l6.6-5.9
				l7.8,4.3c3.8,2.1,37.7,21.5,40.6,47.6c1.6,14.2-2.4,24.6-11.9,31.2c-7.5,5.1-16.7,6.5-26.2,7.6
				C1084.8,1144,1080.6,1144.4,1076.5,1144.4z M1082.4,1084c-7.6,8.6-15.1,20.1-14.3,27.4c0.5,4.2,1.5,6.7,2.9,7.3
				c3.4,1.3,11.1,0.4,15.3,0c4.2-0.5,11.9-1.3,14.9-3.4c1.3-0.9,1.7-3.5,1.2-7.7C1101.6,1100.2,1091.7,1090.7,1082.4,1084z"/>
		</g>
		<g class="st1">
			<path class="st3" d="M1114.9,1106.1c2.3,20.4-10.8,23.1-27.1,24.9c-16.3,1.8-29.7,2.2-32-18.3c-2.3-20.4,24.9-44.7,24.9-44.7
				S1112.6,1085.7,1114.9,1106.1z"/>
		</g>
		<g>
			<path class="st12" d="M1299.5,634c22.8,201.8-72.8,417.6-218.9,434.1c-146.1,16.5-287.3-172.6-310-374.4
				c-22.8-201.8,81.6-340,227.6-356.5C1144.2,320.7,1276.7,432.2,1299.5,634z"/>
		</g>
		<g class="st1">
			<path class="st3" d="M1299.5,634c-5.3-47.3-16.8-89.6-32.9-126.4c13.1,194.7-80.6,394.7-221,410.5
				c-112.1,12.6-221.3-95.7-276.3-238c0.4,4.5,0.8,9,1.3,13.6c22.8,201.8,164,390.9,310,374.4
				C1226.7,1051.6,1322.2,835.8,1299.5,634z"/>
		</g>
		<g class="st5">
			<path class="st6" d="M1285.8,559c-0.2,9.6-0.7,19.3-1.4,28.8c-31.8-95.3-92.2-160.7-164.9-189.6c2.7,3.3,4.4,7,4.9,11
				c2.1,18.2-22.2,35.9-54.3,39.5c-32,3.6-59.6-8.2-61.7-26.4c-2-17.7,21-35,51.9-39.2c-18.6-2.2-37.6-2.3-56.9-0.2
				C882,396.7,789.6,495.3,775,645.2c-2.8-9.2-5.4-18.4-7.8-27.8c6-164.5,101.9-273.9,230.1-288.3
				C1125.5,314.7,1243.3,399.9,1285.8,559z"/>
		</g>
		<g>
			<path class="st3" d="M1062.5,1083.6c-67.9,0-136.3-39.1-194.5-111.8c-59.7-74.5-100.5-175.3-111.9-276.5
				c-11.3-100.1,7-189.1,52.9-257.5c44-65.5,110.6-106.4,187.5-115.1c77-8.7,151,16.3,208.5,70.4c60,56.4,97.6,139.1,108.9,239.2
				l0,0c11.4,101.2-5.9,208.5-47.5,294.5c-44.5,92-109.9,147.3-184.2,155.6C1075.7,1083.2,1069.1,1083.6,1062.5,1083.6z
				 M1027.4,350.1c-9.1,0-18.2,0.5-27.5,1.6C852.6,368.2,764.3,508.2,785,692c10.8,95.9,49.3,191.3,105.7,261.6
				c57.4,71.7,124.2,107.2,188.3,100c64-7.2,121.3-56.7,161.3-139.4c39.3-81.2,55.6-182.7,44.8-278.6l0,0
				C1265.6,463.4,1161.5,350.1,1027.4,350.1z"/>
		</g>
	</g>
	<g>
		<g>
			<path class="st13" d="M1694.3,1113c-2.1,20.5-15.5,20.3-31.8,18.6s-29.5-4.2-27.4-24.7c2.1-20.5,33.9-38.4,33.9-38.4
				S1696.4,1092.5,1694.3,1113z"/>
		</g>
		<g class="st1">
			<path class="st3" d="M1694.3,1113c-2.1,20.5-15.5,20.3-31.8,18.6s-29.5-4.2-27.4-24.7c2.1-20.5,33.9-38.4,33.9-38.4
				S1696.4,1092.5,1694.3,1113z"/>
		</g>
		<g>
			<path class="st3" d="M1673.1,1146.8c-4,0-8.1-0.4-12.1-0.8c-9.4-1-19.3-2.4-27.2-7.7c-7-4.7-15-14.3-13.1-32.9
				c2.7-26.6,34.8-46,41.2-49.6l9-5.1l7.7,6.8c5.5,4.8,33,30.3,30.2,56.9l0,0c-1.9,18.6-11.7,26.4-19.6,29.6
				C1684.1,1146.1,1678.6,1146.8,1673.1,1146.8z M1667,1087.2c-8.6,6.5-16.9,15-17.5,21.2c-0.4,4.4,0.3,5.7,0.3,5.8
				c1.1,1.1,5.9,2.1,14.1,3c8.3,0.8,13.1,0.8,14.5-0.1l0,0c0,0,1-1.2,1.4-5.5l0,0C1680.5,1105.4,1674.1,1095.3,1667,1087.2z
				 M1694.3,1113L1694.3,1113L1694.3,1113z"/>
		</g>
		<g>
			<path class="st13" d="M1975.3,691.1c-20.8,202-160.1,392.5-306.4,377.4S1425,838.6,1445.8,636.6s152.2-314.8,298.4-299.8
				C1890.4,351.9,1996.1,489,1975.3,691.1z"/>
		</g>
		<g class="st1">
			<path class="st3" d="M1961.5,526.4c-0.4,4.9-0.7,9.7-1.2,14.6c-20.8,202-160.1,392.5-306.4,377.4
				c-101-10.4-178.9-116.2-210.5-247.3c-7.1,191.3,87.6,383.1,225.5,397.3c146.2,15,285.6-175.4,306.4-377.4
				C1981.6,629.6,1976.2,574.2,1961.5,526.4z"/>
		</g>
		<g class="st5">
			<path class="st6" d="M1977.9,614.8c-2.3,9.4-4.8,18.7-7.5,27.9c-10.8-99.9-55.9-176.6-120.7-220.4c2,3.8,2.8,7.8,2.4,11.8
				c-1.9,18.2-29.4,30.3-61.4,27c-32.1-3.3-56.5-20.7-54.6-39c1.8-17.7,28-29.7,59-27.2c-17.7-6.2-36.3-10.3-55.6-12.3
				c-121.4-12.5-232.7,64.1-279,207.5c-0.8-9.6-1.4-19.2-1.7-28.8c40.9-159.5,157.9-245.9,286.3-232.7
				C1873.4,342,1970.4,450.4,1977.9,614.8z"/>
		</g>
		<g>
			<path class="st3" d="M1685.5,1083.9c-6,0-12-0.3-18-0.9c-74.3-7.6-140.3-62.3-185.7-153.8c-42.4-85.5-60.8-192.7-50.4-294
				c10.3-100.2,47.1-183.3,106.5-240.3c56.9-54.6,130.7-80.4,207.8-72.4c77.1,7.9,144.1,48.1,188.7,113.2
				c46.5,67.9,65.7,156.7,55.4,256.9c-10.4,101.3-50.2,202.5-109.2,277.6C1822.6,1044.1,1753.9,1083.9,1685.5,1083.9z M1718.5,350.1
				c-59.6,0-115.8,22.9-160.5,65.8c-54.4,52.2-88.2,129-97.8,222.3c-9.9,96,7.4,197.4,47.5,278.1c40.8,82.3,98.6,131.2,162.7,137.8
				c64.1,6.6,130.6-29.6,187.3-101.8c55.7-70.9,93.2-166.6,103.1-262.6c9.6-93.2-7.9-175.4-50.5-237.5
				c-39.7-57.9-99.3-93.7-167.7-100.7C1734.6,350.5,1726.5,350.1,1718.5,350.1z"/>
		</g>
	</g>
	<g>
		<g>
			<path class="st14" d="M1395.2,1270.9c0,20.6-13.3,21.7-29.8,21.7s-29.8-1.2-29.8-21.7c0-20.6,29.8-41.7,29.8-41.7
				S1395.2,1250.4,1395.2,1270.9z"/>
		</g>
		<g class="st1">
			<path class="st3" d="M1395.2,1270.9c0,20.6-13.3,21.7-29.8,21.7s-29.8-1.2-29.8-21.7c0-20.6,29.8-41.7,29.8-41.7
				S1395.2,1250.4,1395.2,1270.9z"/>
		</g>
		<g>
			<path class="st3" d="M1365.5,1307.2c-13.3,0-44.3,0-44.3-36.3c0-26.7,29.9-49.3,35.9-53.5l8.4-6l8.4,6c6,4.2,35.9,26.8,35.9,53.5
				C1409.8,1307.2,1378.7,1307.2,1365.5,1307.2z M1365.5,1248.1c-7.8,7.3-15.2,16.7-15.2,22.9c0,4.4,0.9,5.7,0.9,5.7
				c1.2,1,6.1,1.5,14.4,1.5s13.1-0.5,14.4-1.6l0,0c0,0,0.8-1.3,0.8-5.6C1380.7,1264.8,1373.3,1255.4,1365.5,1248.1z"/>
		</g>
		<g>
			<path class="st14" d="M1631.6,822.5c0,203.1-119.2,406.8-266.1,406.8s-266.1-203.7-266.1-406.8s119.2-328.7,266.1-328.7
				S1631.6,619.4,1631.6,822.5z"/>
		</g>
		<g class="st1">
			<path class="st3" d="M1365.5,1049.3c-124.5,0-229-146.1-258.1-314.3c-5.2,27.2-8.1,56.4-8.1,87.5
				c0,203.1,119.2,406.8,266.1,406.8c147,0,266.1-203.7,266.1-406.8c0-31-2.8-60.2-8.1-87.5C1594.5,903.1,1490,1049.3,1365.5,1049.3
				z"/>
		</g>
		<g class="st5">
			<path class="st6" d="M1626.4,746.4c-1.3,9.6-2.9,19.1-4.7,28.5c-20.9-98.3-73.6-170-142.6-206.9c2.3,3.6,3.6,7.5,3.6,11.5
				c0,18.3-26.1,33.2-58.3,33.2c-32.2,0-58.3-14.9-58.3-33.2c0-17.8,24.8-32.4,56-33.1c-18.2-4.3-37.1-6.5-56.5-6.5
				c-122.1,0-224.9,87.6-256.3,235c-1.8-9.4-3.3-18.9-4.7-28.5c24.4-162.8,131.9-260.7,261-260.7S1602.1,583.5,1626.4,746.4z"/>
		</g>
		<g>
			<path class="st3" d="M1365.5,1243.8c-74.7,0-145.9-47.6-200.5-134c-51-80.8-80.2-185.5-80.2-287.3c0-100.7,28.1-187.1,81.4-249.9
				c51-60.2,121.8-93.3,199.3-93.3s148.2,33.1,199.3,93.3c53.2,62.8,81.4,149.2,81.4,249.9c0,101.8-29.2,206.6-80.2,287.3
				C1511.4,1196.2,1440.2,1243.8,1365.5,1243.8z M1365.5,508.3c-148.1,0-251.6,129.2-251.6,314.2c0,205.3,119.9,392.3,251.6,392.3
				s251.6-187,251.6-392.3C1617.1,637.5,1513.6,508.3,1365.5,508.3z"/>
		</g>
	</g>
	<g>
		<path class="st3" d="M1368.9,2169.3c-5.5,0-10-4.5-10-10v-866.6c0-5.5,4.5-10,10-10s10,4.5,10,10v866.6
			C1378.9,2164.8,1374.4,2169.3,1368.9,2169.3z"/>
	</g>
	<g>
		<path class="st3" d="M1368.9,2184.4c-5.5,0-10-4.5-10-10v-104.7l288.9-936.5c1.6-5.3,7.2-8.2,12.5-6.6c5.3,1.6,8.2,7.2,6.6,12.5
			l-288,933.6v101.7C1378.9,2179.9,1374.4,2184.4,1368.9,2184.4z"/>
	</g>
	<g>
		<path class="st3" d="M1381.8,2197.3c-5.5,0-10-4.5-10-10v-114.5l-288-933.6c-1.6-5.3,1.3-10.9,6.6-12.5c5.3-1.6,10.9,1.3,12.5,6.6
			l288.9,936.5v117.5C1391.8,2192.8,1387.4,2197.3,1381.8,2197.3z"/>
	</g>
	<g>
		<path class="st7" d="M1368,1984.6c-14.9-2-49.1-1.7-48.6,27.1c0.4,22.9,33.4,42.5,33.4,42.5s-24.8,14.9-18.2,43.5
			c5.2,22.6,25.2,31.5,25.2,31.5s-47.6,30.9-20.1,58.8c27.5,27.9,80.6,21,80.6,21s16.2-30.3,24.2-113.1
			C1451.9,2020.3,1400.4,1988.8,1368,1984.6z"/>
		<path class="st3" d="M1405.4,2212.3c-18.2,0-48.5-3.2-67.5-22.6c-7-7.1-10-15-9.1-23.5c1.8-16.9,18.9-31.3,26.2-36.8
			c-6.3-3.9-18.9-13.5-23-31.3c-5.4-23.6,9.4-38.5,16.2-43.9c-8.5-5.7-31.1-22.7-31.5-42.6c-0.1-8.8,2.7-15.9,8.5-21
			c13-11.5,36.2-9.5,43-8.6l0,0c35.7,4.7,86,39,78.7,114.1c-8,82.4-23.8,112.8-24.5,114l-0.6,1.1l-1.3,0.2
			C1419.9,2211.6,1414,2212.3,1405.4,2212.3z M1357,1986.4c-10.6,0-21.7,2.1-28.4,8.1c-4.6,4.1-6.9,9.9-6.8,17.2
			c0.3,21.2,31.9,40.2,32.2,40.4l3.6,2.1l-3.6,2.2c-0.9,0.6-23.1,14.3-17.1,40.8c4.8,21.1,23.6,29.7,23.8,29.8l4.2,1.9l-3.8,2.5
			c-0.2,0.2-25.3,16.7-27.4,35.5c-0.8,7,1.8,13.5,7.7,19.5c23.9,24.3,68.9,21.2,77.2,20.4c2.9-6.3,16.3-38.5,23.4-111
			c7-71.6-40.7-104.2-74.4-108.7C1364.3,1986.6,1360.7,1986.4,1357,1986.4z"/>
	</g>
	<g>
		<path class="st3" d="M1418.4,2234.1c-1.2,0-2.4-0.1-3.6-0.5c-6.7-1.7-11.1-7.8-10.9-14.4c-2.9,3.4-7.4,5.4-12.1,5
			c-41.4-3.3-58.8-21.4-63.1-26.7c-11.4-12-12.8-24.3-11.9-32.6c1.6-14.4,10.8-26.7,19.5-35.2c-6.5-6.6-13-16.1-16-28.8
			c-4.4-19.2,1.6-34.6,9.7-45.3c-11.4-9.8-25-25.2-25.3-43.7c-0.2-12.3,4.1-22.7,12.5-30.2c16.3-14.5,42.2-12.9,52.5-11.6
			c40.3,5.3,97.3,43.5,89.1,127.2c-6.1,62.2-13,83-19.6,103.1c-2.4,7.2-4.6,14-6.9,22.7C1430.8,2229.8,1424.9,2234.1,1418.4,2234.1z
			 M1357.1,1998.4c-8.1,0-16.4,1.4-20.4,5c-1.3,1.2-2.9,3.2-2.8,8.1c0.2,11,18.1,25.4,26.3,30.2l20.9,12.4l-20.8,12.5
			c-1.5,0.9-15.5,10.4-11.5,27.8c3.4,14.9,16.6,21.3,17.1,21.6l23.5,11.1l-21.6,14.3c-6.7,4.4-20.9,16.8-22,26.8
			c-0.2,2.2,0,5.4,4.3,9.7l1.6,1.9c0.2,0.2,10.6,13,42.5,15.6c6.4,0.5,11.5,5.1,12.9,11c1.6-5.4,3.2-10.3,4.8-15
			c6.4-19.4,12.5-37.8,18.3-96.8c6.6-68.1-39-92.3-64-95.6C1363.3,1998.6,1360.2,1998.4,1357.1,1998.4z"/>
	</g>
	<g>
		<g>
			
				<ellipse transform="matrix(0.9891 -0.147 0.147 0.9891 -303.7843 111.2899)" class="st3" cx="601.3" cy="2111.7" rx="66.8" ry="92.3"/>
		</g>
		<g>
			
				<ellipse transform="matrix(0.9891 -0.1469 0.1469 0.9891 -301.1395 113.2717)" class="st6" cx="616.1" cy="2094.8" rx="20.2" ry="31"/>
		</g>
	</g>
	<g>
		<path class="st3" d="M1023.4,1935.9c-8.2,6.3-15.3,13.2-21.8,20.3c-6.5,7.1-12.3,14.7-17.1,22.8c-4.8,8.1-8.9,16.6-12.2,25.4
			c-3.4,8.8-6.1,17.8-8.4,27l-22.1-14.3l0,0c4-3.3,7.5-5.7,11.4-8.1c3.8-2.4,7.8-4.5,11.8-6.5c8.1-3.9,16.5-7.2,25.2-9.7
			c8.7-2.4,17.6-4.3,26.7-4.5c9-0.3,18.2,0.8,26.7,4.1c0.9,0.3,1.3,1.3,0.9,2.2c-0.2,0.5-0.5,0.8-1,1l0,0c-8.3,3-16,5.7-23.4,8.8
			c-3.7,1.6-7.4,3-10.9,4.7c-3.6,1.6-7.2,3.3-10.6,5.2c-7,3.6-13.8,7.6-20.4,11.8c-3.3,2-6.6,4.3-9.8,6.4l-9.2,6.4l-0.5,0.4
			c-6.2,4.5-14.8,3.2-19.3-3c-2.5-3.5-3.2-7.8-2.2-11.7c2.8-10.6,6.7-20.9,11.8-30.8c5-9.9,11.3-19.1,18.5-27.5
			c7.4-8.3,15.5-15.8,24.8-21.7c9.3-5.7,19.6-10.2,30.6-11c0.7-0.1,1.3,0.4,1.3,1.1c0,0.4-0.2,0.8-0.5,1.1L1023.4,1935.9z"/>
	</g>
	<g>
		<path class="st3" d="M817.5,2266.2c11.2-2.5,21.5-4.8,31.4-8c9.8-3.2,19.1-7,28-11.8c17.7-9.7,32.8-23.8,46.5-41.2l0-0.1
			c1.7-2.2,4.9-2.6,7.1-0.8c1.6,1.3,2.3,3.4,1.8,5.2c-5.9,23.2-22.3,44.4-44.1,57c-10.8,6.3-23,10.4-35.3,11.7
			c-12.3,1.3-24.8,0.1-36.1-4.3c-2.1-0.8-3.1-3.2-2.3-5.2c0.5-1.3,1.6-2.2,2.8-2.5L817.5,2266.2z"/>
	</g>
</g>
</svg>
