<!-- Generator: Adobe Illustrator 23.0.1, SVG Export Plug-In  -->
<svg version="1.1" xmlns="http://www.w3.org/2000/svg" xmlns:xlink="http://www.w3.org/1999/xlink" x="0px" y="0px"
	 width="2760.4px" height="3057.4px" viewBox="0 0 2760.4 3057.4" style="enable-background:new 0 0 2760.4 3057.4;"
	 xml:space="preserve">
<style type="text/css">
	.st0{opacity:0.2;}
	.st1{fill:#000072;}
	.st2{fill:#A1A7B5;}
	.st3{opacity:0.6;}
	.st4{fill:#FFFFFF;}
	.st5{fill:#EDEDED;}
	.st6{opacity:0.25;}
	.st7{fill:#42477F;}
	.st8{fill:#F9ED32;}
	.st9{fill:#4A81FD;}
</style>
<defs>
</defs>
<g>
	<g class="st0">
		
			<ellipse transform="matrix(6.193091e-02 -0.9981 0.9981 6.193091e-02 -1311.3219 4073.2847)" class="st1" cx="1511.3" cy="2734.2" rx="315.3" ry="1184.7"/>
	</g>
	<g>
		<path class="st2" d="M2730.3,2053.1c-11.5,19.9-31.6,31.6-64,48.7l-175.5,3.4l-154.6,3.1l-55.3,1.1c0,0,55.4,75.7,100.3,185.8
			c13.9,34.2,26.8,71.6,36.7,111.2c7.5,29.7,13.2,60.7,16.4,92.2c28.4,278.3-161.2,295.1-161.2,295.1s-35.6,109.3-188.3,119.6
			c-220.8,14.7-260.2-185.7-260.2-185.7s-219.3,61-436.8,3.8c0,0-106.8,38.2-286.2,15.3c0,0-156.9,98.9-328.8,25.8
			c-9.9-4.2-19.9-9-29.9-14.4c-47-25.5-86.3-67-116.1-115.8c-35.6-58.2-57.8-126.7-63.6-190.5c-4.7-52.5,1.5-101.7,20.3-139.6
			c13.8-27.8,34.4-49.5,62.6-61.7c110.2-47.7,198.7,72.5,198.7,72.5s5.6-42.7,56.4-81.4c23-17.5,55.4-34.1,100.8-45.6
			c9.9-2.4,20.3-4.7,31.4-6.6v-64.8c0,0-48.4-65-38.6-165.4v-0.1c1.9-20.1,6.2-41.6,13.7-64.3c2.4-7.4,5.2-14.8,8.3-22.4
			c12.8-31.2,31.8-64.3,58.9-98.9c155.8-198.4,766.3-206,1022-160.3c15.6,2.8,30.9,5.5,46.1,8.1c15,2.6,29.7,5.2,44.2,7.7
			c0,0,0.2,0.1,0.7,0.1c212,36.7,375,63.1,432,110c0,0,58.4,20.8,93.4,87.1c12.5,23.4,22,52.5,24.9,88.4
			C2745.2,1990.9,2744.5,2028.3,2730.3,2053.1z"/>
	</g>
	<g class="st3">
		<path class="st4" d="M1037,2244.4c0,0-100-18.2-162.9,127.2c0,0-102.7-98.9-185-77.9C578.7,2321.8,563.5,2452,563.5,2452
			s-0.1-0.1-0.1-0.2c-4.7-52.5,1.5-101.7,20.3-139.6c13.8-27.8,34.4-49.5,62.6-61.7c110.2-47.7,198.7,72.5,198.7,72.5
			s5.6-42.7,56.4-81.4c23-17.5,55.4-34.1,100.8-45.6c9.9-2.4,20.3-4.7,31.4-6.6L1037,2244.4z"/>
	</g>
	<g class="st3">
		<path class="st5" d="M2730.3,2053.1c-12.9-58.8,19.4-141.1-74.1-232.6c-100.2-98.1-450.1-187.6-467.6-191.3
			c212,36.7,375,63.1,432,110c0,0,106.8,38.2,118.3,175.5C2745.2,1990.9,2744.5,2028.3,2730.3,2053.1z"/>
	</g>
	<g>
		<path class="st4" d="M773,2772.4c-9.9-4.2-19.9-9-29.9-14.4c-47-25.5-86.3-67-116.1-115.8c-2.8-44.9,13.7-82.9,44.8-94.3
			c42.3-15.5,95.8,24.2,119.4,88.6C811.6,2692.3,803,2748.3,773,2772.4z"/>
	</g>
	<g>
		
			<ellipse transform="matrix(0.9913 -0.1318 0.1318 0.9913 -320.224 97.8083)" class="st4" cx="578.9" cy="2468.3" rx="29.3" ry="44.5"/>
	</g>
	<g>
		<path class="st1" d="M2257.9,2114.8c-36.6-140.4-72.4-297.7-172.4-407.4c-13.2-11.8,5.4-32.7,18.7-20.8
			c111.9,111.8,154.7,270.1,199.9,417.3C2312.2,2134.8,2264.5,2146.3,2257.9,2114.8L2257.9,2114.8z"/>
	</g>
	<g>
		<path class="st4" d="M1932.4,2331.7c0,0,96.7-45.7,193.8,7.5c-87.3,128.3-241.5,217.6-420.3,238.2
			c-302.7,34.9-522.7-95.9-547.4-451c-18.3-264.3,207.9-491.6,496-507c288.1-15.5,533.2,186.4,547.4,451
			c2.8,52.1-3.6,101.9-17.9,148.8C2101.8,2223.5,1995.7,2247.3,1932.4,2331.7z"/>
	</g>
	<g>
		<path class="st1" d="M1964.5,2300.6c79.7-68.5,190.4-109.5,293.4-77c5,1.4,8,6.6,6.6,11.6c-1.3,4.7-5.9,7.6-10.6,6.8
			c-23.9-4.1-48-7.1-71.9-3.8c-70,7.4-136.5,46.8-184.4,96.5C1975.1,2358.3,1940.2,2322.4,1964.5,2300.6L1964.5,2300.6z"/>
	</g>
	<g>
		<path class="st1" d="M2062.2,2931.8c-174.5,0-233.9-133.4-249.9-182.8c-56.1,13.1-238.6,48-423.7,0.9
			c-24.1,7.4-125.3,34.2-283,15.1c-30.7,17.6-177.6,92.6-339.6,23.8c-10.4-4.3-20.9-9.4-31.4-15.1c-47.2-25.5-89.6-67.8-122.8-122.1
			c-61.7-100.9-84.1-229-55.6-318.8c15.1-47.6,43.8-81.8,83-98.7c81.4-35.2,157,11.3,199.2,54.1c17.8-35.4,63.1-89.9,177.3-113.5
			V2130c-18.7-29.8-100-181.4,46.1-367.4c170.6-217.3,812.5-207.4,1039.1-166.8c41.8,7.5,82.2,14.5,120.8,21.1
			c201.9,34.9,348.5,60.3,408,106.8c18.9,7.8,115.7,54.1,127,189.6c11.9,142.9-1.5,161.9-82,204.2c-2.4,1.3-5.2,2-8,2l-352.6,7
			c37.9,59.1,121.2,205,138.1,370.3c10.7,105.7-7.5,188-54.3,244.6c-40.2,48.7-90,63.8-111.9,68.2
			c-13.7,29.8-63.7,112.3-199.8,121.4C2078,2931.6,2070,2931.8,2062.2,2931.8z M1824.7,2709.8c3.3,0,6.5,0.9,9.4,2.6
			c4.2,2.6,7.2,6.8,8.2,11.7c1.5,7.5,39.2,184.4,241.6,171.4c137.9-9.2,171.2-103.4,172.6-107.4c2.2-6.6,8.3-11.5,15.2-12.1
			c0.6-0.1,57-6.1,99.3-57.8c40.1-49,55.5-122.3,45.8-217.7c-20.6-201.5-148.9-378.8-150.1-380.6c-4-5.4-4.5-12.5-1.6-18.4
			c3-5.9,9-9.8,15.6-9.9l381.2-7.5c62.1-32.7,70-39.5,59.4-167.8c-10.4-124.5-105.6-159.9-106.6-160.2c-1.9-0.7-3.7-1.7-5.3-3
			c-50.6-41.7-202.1-67.9-393.8-101c-38.6-6.7-79.1-13.7-120.9-21.2c-263.2-47.1-856.3-35.5-1004.8,153.7
			c-145,184.7-46.2,323.7-42,329.5c2.2,3.1,3.5,6.8,3.5,10.6v64.8c0,8.6-6.3,16.1-14.7,17.6c-158.5,27.7-173.4,114.8-174,118.5
			c-1.1,7.1-6.3,13-13.3,14.7c-7.3,1.7-14.4-0.9-18.6-6.6c-3.3-4.4-81.5-108.2-177.3-66.8c-29.9,12.9-51.1,38.7-63.2,76.8
			c-25.1,79.3-3.7,198.3,52.1,289.4c29.9,49,67.7,86.8,109.4,109.4c9.5,5.1,18.9,9.7,28.3,13.6c161,68.5,310.9-23.6,312.4-24.5
			c3.5-2.2,7.8-3,11.7-2.6c172.4,22,277.1-14,278-14.4c3.4-1.2,7.1-1.3,10.5-0.4c210.2,55.3,425.3-3.1,427.4-3.7
			C1821.5,2710,1823.2,2709.8,1824.7,2709.8z M2666.3,2101.7h0.4H2666.3z"/>
	</g>
	<g>
		<path class="st1" d="M859.8,2313.3c19.8,36.2,37.3,72.6,52.1,110.7c1.9,4.8-0.5,10.3-5.4,12.2c-4.4,1.7-9.4-0.2-11.7-4.3
			c-19.3-34.5-41.7-68-65.1-99.4C815.1,2312.3,847.5,2291.5,859.8,2313.3L859.8,2313.3z"/>
	</g>
	<g>
		<path class="st1" d="M1383.6,2748.6c-94.2-32.7-167.9-104.7-220.2-186.9c-3.1-5-1.6-11.6,3.4-14.7c4.8-3,11.2-1.6,14.5,3
			c26.5,37.9,58,72.1,93.6,100.8c34.8,27.3,76.8,52.4,118.7,63.7C1416.6,2720.2,1406.1,2756.2,1383.6,2748.6L1383.6,2748.6z"/>
	</g>
	<g>
		<path class="st1" d="M1051.3,2189.5c-0.4,97.8,18.7,199.8,62.8,288.2c1.9,3.7,0.5,8.2-3.1,10.1c-3.5,1.8-7.9,0.5-10-2.8
			c-52.4-89.9-78.6-191.5-85.3-295.6c-0.5-9.8,7-18.2,16.8-18.8C1043,2170,1051.9,2179,1051.3,2189.5L1051.3,2189.5z"/>
	</g>
	<g>
		<path class="st2" d="M2275.5,2714.9c1.1,88.1-56.4,167.6-141.5,190.3c-14.9,4-31.2,6.8-49,8.1
			c-203.1,14.5-260.3-185.7-260.3-185.7s-92.6-369.6,156.6-410.2C2265.9,2271,2273.6,2568.4,2275.5,2714.9z"/>
	</g>
	<g>
		<path class="st1" d="M2065.1,2931.8c-198.1,0-256.8-197.2-257.4-199.3c-2.3-9.4-53.3-218.1,29.6-344.2
			c32-48.6,79.5-78.4,141.2-88.5c87.5-14.1,158,0.8,209.7,44.7c104.7,89,104.9,273.8,105,362.5l0,0c0.2,133.9-101.4,208.5-203,223.6
			c-1,0.3-2.1,0.5-3.1,0.6c-1.1,0.1-2.1,0.1-3,0.1C2077.6,2931.6,2071.3,2931.8,2065.1,2931.8z M2039.1,2330.2
			c-17.3,0-35.6,1.6-54.9,4.7c-51.5,8.4-90.9,32.9-117.2,72.9c-74.4,113.2-25.5,313.4-25,315.5c2.1,7,56.7,184.6,241.1,172.3
			c80.7-11.3,174.6-67.4,174.4-188.5l0,0c0-83.4-0.2-257.1-92.5-335.4C2132.6,2344,2090.4,2330.2,2039.1,2330.2z"/>
	</g>
	<g>
		
			<ellipse transform="matrix(0.9913 -0.1318 0.1318 0.9913 -314.3092 274.4037)" class="st4" cx="1916" cy="2511.9" rx="29.3" ry="44.5"/>
	</g>
	<g>
		
			<ellipse transform="matrix(0.9913 -0.1318 0.1318 0.9913 -312.591 107.8055)" class="st4" cx="658.2" cy="2415.6" rx="29.3" ry="44.5"/>
	</g>
	<g>
		
			<ellipse transform="matrix(0.9913 -0.1318 0.1318 0.9913 -316.3989 123.0616)" class="st4" cx="771.6" cy="2452" rx="29.3" ry="44.5"/>
	</g>
	<g>
		
			<ellipse transform="matrix(0.9913 -0.1318 0.1318 0.9913 -304.8432 286.5525)" class="st4" cx="2012.5" cy="2446.4" rx="29.3" ry="44.5"/>
	</g>
	<g>
		
			<ellipse transform="matrix(0.9913 -0.1318 0.1318 0.9913 -307.7711 301.8322)" class="st4" cx="2126.5" cy="2476.2" rx="29.3" ry="44.5"/>
	</g>
	<g>
		
			<ellipse transform="matrix(0.996 -8.912819e-02 8.912819e-02 0.996 -230.6416 193.2117)" class="st4" cx="2048.2" cy="2679.2" rx="108.1" ry="118.1"/>
	</g>
	<g class="st6">
		<path class="st1" d="M2273.3,2805.2c0,0-35.6,109.3-188.3,119.6c-220.8,14.7-260.2-185.7-260.2-185.7s-219.3,61-436.8,3.8
			c0,0-106.8,38.2-286.2,15.3c0,0-156.9,98.9-328.8,25.8c-9.9-4.2-19.9-9-29.9-14.4c-47-25.5-86.3-67-116.1-115.8
			c-64.8-106-85.1-246.2-43.3-330.2c-4.8,134.3,46.3,313.5,164.6,367c100.3,45.4,151.2-18.5,174.9-70c12.6-27.3,43.5-41.3,72.2-32.5
			c52.7,16.1,131.1,28.2,177.1-21c0,0,186.4,121.6,397.6,87.8c211.1-33.8,187-221.8,110.1-237.2c-72.8-14.5-426.7,14.2-677.9-210.3
			c9.9-2.4,20.3-4.7,31.4-6.6v-64.8c0,0,53.1-87.3,78.7-71.6c170,104.6,515.7,151.4,1180.3-15.7l43.9,70.9l-55.3,1.1
			c0,0,55.4,75.7,100.3,185.8c-58.3-6.7-140.1,0.4-223.1,61c0,0,3.4,6,9.7,15.6c-45.8-42.6-105.6-65.1-167.6-56.8
			c-119.4,15.9-201.5,139.6-183.3,276.2c18.2,136.6,159.9,169.8,253.5,158.6c80.1-9.5,197.1-79.5,178.9-216.1
			c-0.1-0.4-0.1-0.7-0.2-1.1c-3.6-26.5,21.6-46.8,47-38.2c42.1,14.2,86.7-1.7,121.9-87.9c7.5,29.7,13.2,60.7,16.4,92.2
			C2462.8,2788.4,2273.3,2805.2,2273.3,2805.2z"/>
	</g>
	<g>
		<path class="st7" d="M1881.2,1857.1l0.1-29.9c0-18,13.9-33,31.9-34.4l144.5-11.2c20.1-1.6,37.3,14.4,37.3,34.5l0,21.6
			L1881.2,1857.1z"/>
	</g>
	<g>
		<path class="st7" d="M2273,1801.7l0.1-29.9c0.1-18,14-33,32-34.3l144.5-10.8c20.1-1.5,37.3,14.5,37.2,34.7l-0.1,21.6L2273,1801.7z
			"/>
	</g>
	<g>
		<path class="st7" d="M2706,2188.3c18.1,41.5-1.1,90.3-43.1,107.2c-0.4,0.2-0.9,0.3-1.3,0.5c-63.2,24.9-135.4,5.3-179.4-46.5
			l-109.7-128.8l-227.1,30.6c0,0-80.7,116.3-132.9,196.5c-31.8,49-91.7,71.6-139.1,50.9c-30.3-13.2-55.5-43.9-65.3-96.6
			c-21.2-114-4.5-297.9,9.4-394.9c3.7-26.1,24.9-46.2,51.2-48.6l42-3.9l191.6-17.7c9.9-0.9,19.5,1.9,27.1,7.6c3.9,3,7.4,6.6,10,11
			l4.3,7.1l108.7-13.9V1836c0-15.9,11.9-29.4,27.7-31.3l202.8-25.8c20.4-2.6,40.2,6,52.3,21.8c2.8,3.6,5.2,7.7,7.1,12L2706,2188.3z"
			/>
	</g>
	<g>
		<path class="st1" d="M1910.9,2421.2c-14.9,0-29.6-2.9-43.5-8.9c-37.8-16.5-64.1-54.7-73.9-107.5c-20-107.4-7.5-282.5,9.3-399.7
			c4.7-33,31.2-58.2,64.5-61.3l233.5-21.7c13.8-1.1,26.8,2.6,37.4,10.5c5.2,3.9,9.6,8.6,13,14l86.3-11.1
			c0.2-23.2,17.6-42.7,40.6-45.6l202.8-25.8c24.7-3.3,50.5,7.3,65.9,27.5c3.5,4.5,6.5,9.6,8.9,15.1l163.9,375.7l0,0
			c10.4,24.1,10.7,50.7,0.8,75c-9.8,23.9-28.3,42.3-52,51.9c-70,27.5-148.8,7.3-197.6-50.1l-104.4-122.6l-212.5,28.6
			c-16.5,23.8-83.8,121.4-129,190.7C1998.2,2397.2,1953.9,2421.2,1910.9,2421.2z M2105.8,1851.5c-0.8,0-1.5,0-2.3,0.1l-233.4,21.7
			c-19.5,1.8-35.1,16.6-37.8,35.9c-16.5,115.1-28.8,286.3-9.5,390.1c8.1,43.5,27.6,73.1,56.6,85.7c40.5,17.7,92.5-1.8,120.8-45.4
			c51.8-79.4,132.4-195.7,133.2-196.8c2.4-3.4,6.1-5.7,10.2-6.3l227.1-30.6c5.4-0.8,10.1,1.2,13.3,5.1l109.7,128.8
			c40.6,47.6,105.8,64.6,162.7,42.3c17.4-7,30.1-19.7,36.8-36.1c6.9-16.8,6.7-35.3-0.6-51.9l-163.8-375.6c-1.4-3.2-3.1-6.2-5.2-8.8
			c-9.1-11.9-24-18-38.7-16.2l-202.9,25.8c-8.3,1-14.6,8.2-14.6,16.6v12.6c0,7.5-5.6,13.8-12.9,14.7l-108.8,13.9
			c-5.8,0.6-11.6-2-14.6-7.1l-4.3-7.1c-1.6-2.6-3.7-4.9-6.3-6.8C2116.1,1853.2,2111.1,1851.5,2105.8,1851.5z"/>
	</g>
	<g class="st0">
		<path class="st1" d="M2686.6,2155.4l-144.4-331.2c-1.9-4.3-4.3-8.4-7.1-12l-172.3,18.9c-17.7,2-31.2,17-31.2,34.8v37.3
			l-161.3,20.4l-26.7-49.6l-14.3-18.1c-7.6-5.7-17.2-8.5-27.1-7.6l-191.6,17.7c0,0-57,263.6-68.5,346.3
			c-11.5,82.5,3.8,178.9,31.3,197.8c47.5,20.7,107.3-1.9,139.1-50.9c52.2-80.1,132.9-196.5,132.9-196.5l227.1-30.6l68.3-8.9
			c0,0,79.2,97.9,131.4,132.3c1.4,0.9,2.9,1.8,4.4,2.7C2642.3,2295.2,2716.7,2224.4,2686.6,2155.4z M2615,2171.6
			c-49.3,21.2-119.3-52.4-151.9-91.4c-11.8-14.2-30.2-21.2-48.5-18.8l-264.9,35.2c-14.5,1.9-27.6,9.6-36.3,21.4
			c-30.4,41.2-107,136.4-153.1,118.1c-58.6-23.3,9-293.7,9-293.7l126.6-8.1l11.3,26.1c6.6,15.4,22.6,24.5,39.2,22.5l227.6-27.6
			c15-1.8,27.4-12.4,31.6-26.8l12.1-41.1l69.9-11.1c-19.8,49.9,0,117.9,0,117.9C2546.4,2164.5,2681.3,2143.2,2615,2171.6z"/>
	</g>
	<g>
		<path class="st1" d="M1910.9,2421.2c-14.9,0-29.6-2.9-43.5-8.9c-38.5-26.1-51.2-133-40-213.4c11.4-82.3,66.4-336.6,68.7-347.4
			c1.4-6.3,6.7-11,13.1-11.6l191.6-17.7c13.8-1.1,26.8,2.6,37.4,10.5c1.5,1.1,2.8,2.6,3.8,4.2l36.1,59.5l138.8-17.5v-24.3
			c0-25.4,19.1-46.7,44.3-49.5l172.4-19c5.1-0.8,10.2,1.6,13.3,5.6c3.6,4.6,6.6,9.7,9,15.2l144.5,331.2c16.6,38.1,7.2,81-24,109.2
			c-30.1,27.1-71.9,32.1-106.9,12.6c-1.9-1.1-3.7-2.1-5.5-3.3c-46-30.3-110.4-106.1-129.3-128.8l-280.7,37.5
			c-16.5,23.8-83.8,121.4-129,190.7C1998.2,2397.2,1953.9,2421.2,1910.9,2421.2z M1922.8,1868.4c-10.7,50.1-56.1,262.8-66,334.6
			c-12,86.7,6.9,171.1,25,183.5c37.9,16.3,89.9-3.1,118.3-46.7c51.8-79.4,132.4-195.7,133.2-196.9c2.4-3.4,6.1-5.7,10.2-6.2
			l295.5-39.5c5.1-0.6,10.2,1.4,13.4,5.4c0.8,1,78.4,96.5,128,129.2l3.6,2.2c28.5,15.9,56.1,5.9,72.4-8.8
			c16.4-14.8,30.6-43.5,16.7-75.3l-144.4-331.2c-0.3-0.7-0.6-1.5-1-2.2l-163.2,18c-10.2,1.1-17.9,9.8-17.9,20v37.4
			c0,7.5-5.6,13.8-13,14.7l-161.3,20.4c-5.8,0.5-11.5-2-14.6-7l-39.4-65c-4.3-2.6-9.4-3.5-14.7-3.3L1922.8,1868.4z"/>
	</g>
	<g>
		<path class="st1" d="M1881.2,1872c-3.7,0-7.3-1.4-10-3.9c-3.1-2.8-4.8-6.8-4.8-11l0-29.9c0.1-25.6,20.1-47.2,45.7-49.2l144.4-11.2
			c13.5-1.1,27.3,3.7,37.5,13c10.1,9.3,15.9,22.6,15.9,36.3l0,21.6c0,7.7-5.9,14.1-13.5,14.7l-213.7,19.4
			C1882.1,1872,1881.7,1872,1881.2,1872z M2060.4,1796.3c-0.5,0-1.1,0-1.6,0.1l-144.4,11.2c-10.2,0.8-18.3,9.4-18.3,19.7l0,13.6
			l184-16.7v-8.1c0-5.6-2.2-10.7-6.3-14.5C2070,1798.2,2065.3,1796.3,2060.4,1796.3z"/>
	</g>
	<g>
		<path class="st1" d="M2273,1816.6c-3.7,0-7.3-1.4-10.1-3.9c-3.1-2.8-4.8-6.8-4.8-11l0.1-29.9c0.1-25.6,20.3-47.1,45.8-49
			l144.5-10.8c13.7-1,27.3,3.8,37.4,13.1c10.1,9.4,15.8,22.7,15.7,36.4l-0.1,21.6c0,7.7-5.9,14-13.5,14.7l-213.7,18.8
			C2273.8,1816.6,2273.4,1816.6,2273,1816.6z M2452.3,1741.4c-0.5,0-1,0-1.5,0l-144.5,10.8c-10.2,0.8-18.3,9.4-18.3,19.6l0,13.6
			l184-16.2l0-8.1c0-5.6-2.2-10.7-6.3-14.5C2462,1743.3,2457.2,1741.4,2452.3,1741.4z"/>
	</g>
	<g>
		<path class="st2" d="M1960.4,2081.4c-0.7,175.9-218.7,282.4-521.5,231.4c-302.7-51-405.4-188.1-405.4-188.1l69.7-131.2
			l116.9-219.9c45.9,36.7,97.9,64.6,149.6,85.5c148.6,60.4,295.6,64.5,295.6,64.5c61.1-117,159.5-61,159.5-61l-9.9,43.8l-6.8,30
			c0,0,62.2,6.7,107.1,45C1940.7,2003,1960.5,2034.9,1960.4,2081.4z"/>
	</g>
	<g class="st3">
		<path class="st4" d="M1824.8,1862.6l-9.9,43.8c-68.8-18.6-100.2,16.2-113.8,43c-8.4,16.6-26.1,26.4-44.6,25.2
			c-230.7-15.5-312.9-109.9-312.9-109.9l26.1-5.6c148.6,60.4,295.6,64.5,295.6,64.5C1726.4,1806.6,1824.8,1862.6,1824.8,1862.6z"/>
	</g>
	<g class="st6">
		<path class="st1" d="M2149.3,1626.9c-128.7,124.2-354.5,226.2-620.9,265.7c-186.3,27.6-362.5,20.2-506-14.7
			c12.8-31.2,31.8-64.3,58.9-98.9c155.8-198.4,766.3-206,1022-160.3C2118.8,1621.5,2134.1,1624.2,2149.3,1626.9z"/>
	</g>
	<g>
		<path class="st1" d="M1586.6,2343.5c-47.8,0-98.2-4.3-150.7-13.2c-306.2-51.6-412.3-189.2-416.7-195c-5.9-7.8-4.3-18.9,3.6-24.9
			c7.7-5.9,18.9-4.3,24.9,3.5c1,1.3,103.4,132.3,394.2,181.3c181.1,30.4,342,3.9,431-71c45.5-38.3,69.6-87.7,69.8-142.9
			c0.4-111.1-130.8-126.6-136.4-127.2c-5.1-0.5-9.6-3.2-12.6-7.3c-2.9-4.1-4-9.3-2.9-14.3l13.4-59.4c-13-4.6-35.2-9.5-58.3-2.6
			c-25.7,7.7-47.5,28.3-64.7,61.4c-3.1,6.1-9.4,9.7-16.3,9.6c-11.2-0.3-275.2-9.4-455.9-154c-7.7-6.2-8.9-17.4-2.8-25
			c6.2-7.7,17.4-8.9,25-2.8c151.4,121.1,372.9,142.3,423.9,145.6c21.2-36.2,48.4-59.4,81-69c51.2-14.9,95.7,9.8,97.5,10.9
			c6.8,3.9,10.3,11.7,8.6,19.4l-12.5,55.3c60.4,12.7,149,57.2,148.6,159.6c-0.3,66-28.8,124.8-82.5,170
			C1824,2311.9,1715.4,2343.5,1586.6,2343.5z"/>
	</g>
	<g>
		<path class="st2" d="M2611.7,1773.6c0,0-117,50.9-84,180.6c33.1,129.7,120.3,140.6,180.5,88.6L2611.7,1773.6z"/>
	</g>
	<g>
		<path class="st1" d="M2659.7,2106.1c-11.7,0-23.6-1.8-35.4-5.5c-53.7-16.9-95.2-68.6-113.9-142c-36.4-142.8,92.8-200.8,94.1-201.3
			c8.9-3.8,19.4,0.2,23.3,9.2c4,9-0.1,19.5-9.1,23.5c-4.2,1.9-102.6,46.9-73.9,159.9c15.6,61.1,48.4,103.7,90.1,116.8
			c26.7,8.4,54.2,2.8,75.2-15.4c7.4-6.4,18.7-5.7,25.1,1.8c6.4,7.4,5.6,18.7-1.9,25.1C2712.2,2096.5,2686.5,2106.1,2659.7,2106.1z"
			/>
	</g>
	<g>
		<path class="st2" d="M1066.5,1178.7c-13.4,24.7-28.8,48.8-46.5,72.2c-108,143.4-256.8,235.5-377.2,251.1
			C422.1,1530.6,306.7,1357,306.7,1357l-3.9,24.9c-5.9,37.4-53.6,49.4-76.9,19.5c-70.2-90.5-70.6-210.1-70.6-212.9l-31.2,68.5
			c-3.2,7-8.7,11.6-15,13.8c-11.9,4.2-26.5-0.5-32.5-13.9c-191.8-433.1,104.4-963.2,553.8-912.6c4.9,0.6,9.7,1.1,14.5,1.8
			C1045.8,398.2,1251.8,838.7,1066.5,1178.7z"/>
	</g>
	<g class="st3">
		<path class="st5" d="M1134.4,938.8C1121.2,681,933.6,442.1,645,404.4c-4.7-0.6-9.6-1.2-14.5-1.7c-11.4-1.3-22.7-2.2-33.8-2.7
			c0.1,0.2,0.1,0.4,0.2,0.6c3.3,18.6-22.2,38.6-56.8,44.6c-34.6,6-65.3-4.2-68.5-22.9c-0.8-4.5,0.1-9.1,2.4-13.5
			C211.5,460.7,29.6,719.6,17.9,1004C3,643.2,266.5,303.2,630.5,344.2c4.9,0.6,9.7,1.1,14.5,1.8
			C955.3,386.5,1148.9,659.6,1134.4,938.8z"/>
	</g>
	<g>
		<circle class="st4" cx="556.1" cy="911.5" r="288.7"/>
	</g>
	<g class="st6">
		<path class="st1" d="M1075,1089.1c0,34.5-2.9,68.4-8.5,101.1c-13.4,24.7-28.8,48.8-46.5,72.2c-108,143.4-256.8,235.5-377.2,251.1
			c-220.8,28.6-336.1-145.1-336.1-145.1l-3.9,24.9c-5.9,37.4-53.6,49.4-76.9,19.5c-70.2-90.5-70.6-210.1-70.6-212.9l-31.2,68.5
			c-3.2,7-8.7,11.6-15,13.8c-20.5-60.1-31.8-125.2-31.8-193.2c0-303.4,223.3-549.3,498.8-549.3C851.7,539.8,1075,785.7,1075,1089.1z
			"/>
	</g>
	<g>
		<g>
			<path class="st1" d="M593.5,1523.1c-142.6,0-235.3-79.5-276.7-125.2c-7,17.8-22,31.2-41.3,36.2c-24,6.1-48.3-2.2-63.6-21.8
				c-40.3-52-58.8-112.3-67.3-157.3l-4.2,9.4c-7.2,15.9-22.5,25.7-39.9,25.7c0,0-0.1,0-0.2,0c-17.5-0.1-32.8-10.1-39.8-26
				c-102.1-230.6-73.1-509.1,73.9-709.5c122.4-166.8,303.8-249.9,498.2-228l14.7,1.8c206.4,26.9,378,158.1,459.1,350.9
				c82.2,195.5,55.2,413.2-72.1,582.4l0,0c-105.1,139.8-257.9,241.1-389.2,258.1C627.2,1522,610,1523.1,593.5,1523.1z M306.8,1339.2
				c5.9,0,11.5,2.9,14.8,7.9c4.4,6.7,112.8,163.5,318.9,137.3c122.2-15.8,265.6-111.7,365.3-244.2c0,0,0,0,0,0
				c119.6-159,144.9-363.5,67.7-547.2c-76.1-181-237.1-304.1-430.8-329.3l-14.2-1.7c-181.1-20.5-350.8,57.5-465.4,213.7
				C23.5,765.9-4,1030.4,93,1249.6c1.9,4.2,5.5,4.8,7.4,4.8c0,0,0,0,0,0c1.7,0,5.6-0.5,7.5-4.8l31.2-68.6c3.5-7.6,11.5-11.9,20-10
				c8.2,1.8,14.1,9,14.1,17.4c0,1.1,0.6,116.6,66.9,202c6.4,8.3,16.3,11.8,26.6,9.1c10.1-2.6,17-10.3,18.7-20.5l3.9-24.8
				c1.1-7.3,6.6-13,13.8-14.6C304.2,1339.3,305.5,1339.2,306.8,1339.2z"/>
		</g>
	</g>
	<g>
		<path class="st2" d="M2674.8,806.7c-4,22-32.4,28.9-46.1,11.2l-46.2-59.2c0.9,3.9,27.8,119.6-19,223.4
			c-6.7,14.8-19.5,23.2-33.2,25.1c-18.2,2.6-37.8-6.1-46.1-26.1l-9.6-23.3c0,0-71.5,195.8-292.9,219.6c-120.8,13-287-41.8-425.5-156
			c-64.5-53.2-113.4-116.1-147.5-184.1c-142.9-284.6-26-658.4,300.7-783.5c4.5-1.7,9-3.4,13.7-5
			C2348.3-105.5,2760.1,340.7,2674.8,806.7z"/>
	</g>
	<g class="st3">
		<path class="st5" d="M2674.8,806.7c-2,10.9-10,18.1-19.2,20.4c38.5-315.1-145.4-613.3-400.6-713.1c0.2,2.1,0,4.2-0.5,6.2
			c-4.9,21.2-40.4,31.2-79.5,22.2c-39.1-9-66.7-33.4-61.9-54.7c0.6-2.5,1.5-4.8,3-6.9c-70.8-6.5-144.4,2.1-218.6,29
			c-4.6,1.7-9.1,3.4-13.7,5.1c-141.9,54.3-244.2,155.5-302.9,276c51.4-146.9,163-273.8,328.3-337.1c4.5-1.7,9-3.4,13.7-5
			C2348.3-105.5,2760.1,340.7,2674.8,806.7z"/>
	</g>
	<g>
		<path class="st1" d="M2145.6,1197c-125.5,0-278.4-61-400.7-162l0,0c-163.3-134.8-240.4-340.2-206.2-549.5
			c33.8-206.4,170-374,364.4-448.4l14-5.2c183.6-66.5,379.7-28.2,537.6,105.2c189.8,160.5,283.2,424.5,237.7,672.6
			c-3.2,17.2-15.7,30.4-32.6,34.6c-17.3,4.2-34.3-1.8-45.1-15.6l-6.3-8.1c2.3,45.7-1.6,108.7-28.7,168.6
			c-10.1,22.3-31.3,36.1-55.7,36.1c-0.3,0-0.7,0-1.1,0c-19.9-0.3-37.6-9.8-48.6-25.6c-33.1,60.4-118.3,176.6-290.7,195.1
			C2171.3,1196.4,2158.6,1197,2145.6,1197z M2096.5,35.6c-56,0-112.3,9.8-167.3,29.8l-13.4,5c-182.4,69.8-310.2,227.1-341.9,420.9
			c-32.2,196.6,40.2,389.6,193.7,516.2c127.9,105.5,289.4,165.3,412.3,152.1c207.2-22.3,275.2-200.4,278.1-208
			c2.5-6.9,9-11.5,16.4-11.7c8.8,0.4,14,4.2,16.8,11l9.6,23.2c4,9.6,12.5,15.5,22.9,15.6c0.1,0,0.3,0,0.5,0
			c10.3,0,18.9-5.6,23.2-15.1c44.5-98.5,18.2-210.9,17.9-212c-2-8.2,2-16.6,9.6-20.2c7.5-3.7,16.7-1.5,21.8,5.1l46.3,59.4
			c3,3.8,6.9,3.3,8.5,2.9c1.9-0.5,5.2-1.9,6.1-6.4c43.2-235.7-45.4-486.5-225.7-639C2331.2,79.5,2214.6,35.6,2096.5,35.6z"/>
	</g>
	<g>
		<circle class="st4" cx="2128" cy="582.9" r="288.7"/>
	</g>
	<g class="st6">
		<path class="st1" d="M2530.2,1018.7c-18.2,2.6-37.8-6.1-46.1-26.1l-9.6-23.3c0,0-71.5,195.8-292.9,219.6
			c-120.8,13-287-41.8-425.5-156c-64.5-53.2-113.4-116.1-147.5-184.1c-63-244.6,24.2-490.3,222.8-584.7
			c231.6-110.1,527.2,27.6,660.1,307.4C2563.5,722.8,2573.1,884.5,2530.2,1018.7z"/>
	</g>
	<g>
		<g>
			<path class="st4" d="M2202.7,534.9c-19.8,11.6-45.2,5-56.9-14.8c-0.7-1.2-76-126.5-233.6-225c-53.1-33.2-108.7-59.6-166.8-79.1
				c-171.7-57.8-364.8-55.8-576.4,6.3c-184.9,54.3-328.3,139.6-428.1,254.8c-39.8,45.9-72.8,96.6-98.7,151.8
				c-68,145.1-60,270.3-60,271.5c1.7,22.9-15.5,42.8-38.3,44.5c-1.1,0.1-2.1,0.1-3.1,0.1c-21.5,0-39.7-16.5-41.4-38.3
				c-0.4-5.8-10-144.7,65.6-308.8c25.2-54.7,62.1-116.2,115.9-177.2v-0.1c93.9-106.6,239.5-212,464.8-278.1
				c260.2-76.3,468.2-56.8,624.9-5c74.8,24.8,137.9,56.9,189.4,89.5c173.3,109.5,254.2,245.4,257.6,251.2
				C2229.2,497.8,2222.6,523.2,2202.7,534.9z"/>
		</g>
	</g>
	<g>
		<g>
			<path class="st1" d="M544.8,962.5c-35,0-60.8-24-63.2-54.6c-1-15.6-7.9-154.6,67.2-317.6c30-65.2,69.9-126.2,118.7-181.5
				C781.4,279.4,940.6,184,1140.6,125.3c228.6-67,442.3-68.6,635.4-4.8c68.2,22.6,133.3,53.3,193.4,91.3
				c177.3,112.1,260,251.3,263.5,257.2c8,13.6,10.3,29.5,6.3,44.9c-4,15.4-13.8,28.3-27.5,36.3l0,0c-13.6,8-29.5,10.3-45,6.2
				c-15.4-4-28.2-13.7-36.3-27.4c-0.7-1.2-74.3-123-227.6-219c-51.8-32.3-106.6-58.4-163-77.3c-167.9-56.5-358.3-54.4-565.7,6.5
				c-181.1,53.1-322.3,137-419.7,249.4c-38.6,44.4-70.9,94.1-96.1,147.7C592.7,776.3,600,897.8,600.1,899c1.1,15.8-4,31.1-14.3,43.1
				c-10.4,12-24.8,19.3-40.6,20.4C545.1,962.5,544.9,962.5,544.8,962.5z M1479.5,109.4c-105.2,0-215,16.7-328.8,50
				c-193.5,56.8-347,148.6-456.4,272.8c-46.5,52.8-84.5,110.9-113.1,172.9c-71.4,155-65,285.7-64,300.1
				c0.9,12.2,11.3,21.8,23.6,21.8c8.2-0.5,13.9-3.4,18-8.2c4.2-4.8,6.2-10.9,5.7-17.3c-0.1-1.2-9.2-129.5,61.6-280.4
				c26.6-56.6,60.7-109,101.4-155.9c102-117.6,248.8-205.1,436.5-260.2c214.6-62.9,412.1-65,587.1-6.1
				c59,19.8,116.5,47.1,170.6,80.9c162.6,101.8,238.9,230.1,239.6,231.3c3.1,5.3,8.3,9.2,14.4,10.8c6.2,1.7,12.5,0.7,17.9-2.5
				c0,0,0,0,0,0c5.5-3.2,9.4-8.4,11-14.6c1.6-6.1,0.7-12.5-2.5-17.9c-3.3-5.6-81.7-137.7-251.8-245.1
				c-57.7-36.5-120.1-66-185.5-87.6C1674.4,124.4,1579,109.4,1479.5,109.4z"/>
		</g>
	</g>
	<g>
		<path class="st7" d="M1770.5,137.4l-25,78.5v0c-9.8,30.9-41.5,49.3-73.2,42.3c-86.5-19-263.8-43.6-452.2,14.4
			C1032.3,330.4,891.9,430,826.2,482.9c-24.4,19.6-59.5,18.2-82.3-3.1l-3-2.8l-60.1-56.4v-0.1c93.9-106.6,239.5-212,464.8-278.1
			C1405.8,66.1,1613.8,85.6,1770.5,137.4z"/>
	</g>
	<g class="st3">
		<path class="st5" d="M1770.5,137.4l-12.8,40c-154.1-46.8-355.1-61.4-603.9,11.6c-210.5,61.8-351.5,157.8-445.7,257.2l-27.3-25.6
			v-0.1c93.9-106.6,239.5-212,464.8-278.1C1405.8,66.1,1613.8,85.6,1770.5,137.4z"/>
	</g>
	<g>
		<path class="st1" d="M787,514.5c-19.9,0-39.8-7.3-55.2-21.7l-63.1-59.2c-7-6.6-7.5-17.5-1.2-24.8
			C781.4,279.4,940.6,184,1140.6,125.3c228.6-67,442.3-68.6,635.4-4.8c9.3,3.1,14.4,13,11.4,22.3l-25,78.5
			c-12.7,39.9-53.2,63.1-93.9,54.3c-86.6-19-259.4-42.5-443.2,14C1041,346.4,903.1,443.8,837.4,496.8
			C822.7,508.6,804.8,514.5,787,514.5z M705.8,419.5l47.4,44.5c19.3,18,44.6,19,61.9,5c67.7-54.6,209.8-154.9,399.8-213.4
			c191.6-59,371.2-34.6,461.3-14.8c22.6,4.8,45.2-8.1,52.4-30.4l19.6-61.5c-181.7-56-382.7-52.5-597.5,10.5
			C963.9,214.3,814.4,301.7,705.8,419.5z"/>
	</g>
	<g>
		<path class="st8" d="M2457,804.9l-123.9,88l-270.9-395.3l117.1-83.3c8.7-6.2,17.9-11.2,27.3-15.1c57.4-23.6,125.4-5.5,162.9,47.2
			l119.5,168.2c8.7,12.3,15.1,25.5,19.4,39.2C2525.2,708.5,2506.1,770,2457,804.9z"/>
	</g>
	<g class="st3">
		<path class="st5" d="M2478.9,785.5c9.4-27.1,10.3-56.8,1.7-84.8c-4.2-13.7-10.6-26.9-19.4-39.2l-119.5-168.2
			c-37.5-52.7-105.5-70.8-162.9-47.2c-9.4,3.9-18.6,8.9-27.3,15.1l-76.9,54.7l-12.4-18.2l117.1-83.3c8.7-6.2,17.9-11.2,27.3-15.1
			c57.4-23.6,125.4-5.5,162.9,47.2l119.5,168.2c8.7,12.3,15.1,25.5,19.4,39.2C2522.4,699.5,2511.5,749.7,2478.9,785.5z"/>
	</g>
	<g class="st6">
		<path class="st1" d="M2457,816.5l-123.9,88l-270.9-395.3l117.1-83.3c8.7-6.2,17.9-11.2,27.3-15.1l186.6,236.7
			c27.8,35.3,78.1,43.1,115.3,17.9l0,0C2525.2,720.1,2506.1,781.5,2457,816.5z"/>
	</g>
	<g>
		<path class="st1" d="M2333.2,910.8c-1,0-2.1-0.1-3.1-0.3c-4.7-0.8-8.9-3.5-11.6-7.5l-270.9-395.3c-5.5-8-3.5-18.9,4.4-24.6
			l117.1-83.3c33.6-23.9,74.4-33.3,115-26.4c40.6,6.8,76.1,29.1,100,62.7l119.6,168.2c23.9,33.6,33.3,74.4,26.4,115.1
			s-29.2,76.1-62.7,100l-123.8,88C2340.4,909.7,2336.8,910.8,2333.2,910.8z M2086.8,502.1L2337.6,868l109.1-77.5
			c25.8-18.4,43-45.7,48.2-76.9c5.3-31.3-2-62.7-20.3-88.5L2355,456.9c-18.4-25.8-45.7-42.9-76.9-48.2c-31.3-5.3-62.6,1.9-88.5,20.3
			L2086.8,502.1z"/>
	</g>
	<g>
		<path class="st9" d="M2349,1030.7l-3.9,2.8c-99.2,70.5-237,46-305.8-54.4L1882,749.7c-25.8-37.6-38.2-80.5-38.2-122.9
			c0-68.1,31.9-135.2,91.6-177.7c14.9-10.6,30.7-18.9,47.1-24.9c84.1-31.2,181.8-3.7,236.2,72.8l178.1,250.5
			c15.4,21.6,25.9,45.2,31.8,69.5C2447.8,895.4,2418.9,981.1,2349,1030.7z"/>
	</g>
	<g class="st3">
		<path class="st5" d="M2408.7,964.2c5.8-29,5.3-59.1-1.8-88.3c-5.9-24.3-16.4-47.9-31.8-69.5L2197,555.9
			c-54.4-76.5-152.1-104-236.2-72.8c-16.4,6.1-32.2,14.3-47.1,24.9c-28,19.9-49.8,45.2-65.1,73.4c10.9-51.6,40.5-99.4,86.8-132.4
			c14.9-10.6,30.7-18.9,47.1-24.9c84.1-31.2,181.8-3.7,236.2,72.8l178.1,250.5c15.4,21.6,25.9,45.2,31.8,69.5
			C2440.8,866.8,2433.6,919.6,2408.7,964.2z"/>
	</g>
	<g class="st6">
		<path class="st1" d="M2349,1042.3l-3.9,2.8c-99.2,70.5-237,46-305.8-54.4L1882,761.2c-25.8-37.6-38.2-80.5-38.2-122.9
			c0-68.1,31.9-135.2,91.6-177.7c14.9-10.6,30.7-18.9,47.1-24.9l200.1,269.2c57.8,77.8,149,123.6,245.9,123.6l0,0
			C2447.8,906.9,2418.9,992.6,2349,1042.3z"/>
	</g>
	<g>
		<path class="st1" d="M2220.7,1089.8c-14.2,0-28.4-1.3-42.6-3.8c-64-11.4-119.4-47.1-156.2-100.7l-154.6-225.5l0,0
			c-72.2-105.3-46.2-251.2,57.9-325.2c99.3-70.7,237.5-47.3,308.1,52.1l178.1,250.5c34.2,48.1,47.7,106.6,37.8,164.8
			c-9.9,58.2-41.7,109.1-89.9,143.3C2318.1,1074.5,2270.1,1089.8,2220.7,1089.8z M1896.7,739.6l154.6,225.5
			c31.3,45.6,78.5,76.1,133,85.8c54.6,9.8,109.3-2.6,154.4-34.7c40.3-28.7,67.1-71.4,75.4-120.2c8.3-48.8-3-97.9-31.7-138.3
			l-178.1-250.5c-59.2-83.3-175.2-102.9-258.5-43.7C1857.5,526.4,1835.4,650.2,1896.7,739.6L1896.7,739.6z"/>
	</g>
	<g>
		<path class="st8" d="M646.2,813.5L561,1246.8l-136.9-29.4c-67.8-14.5-111.1-81.4-96.5-149.3l2.4-11.1l37.5-174.8
			c12.8-59.7,66-100.3,124.9-99.2c8,0.1,16.2,1,24.4,2.7L646.2,813.5z"/>
	</g>
	<g class="st3">
		<path class="st5" d="M646.2,813.5l-11.3,57.4l-104.8-22.5c-8.2-1.7-16.4-2.7-24.4-2.7c-58.9-1.1-112.1,39.6-124.9,99.2
			l-37.5,174.8l-2.4,11.1c-1.5,6.8-2.4,13.7-2.7,20.4c-12.5-24.8-17-53.8-10.7-83l2.4-11.1l37.5-174.8
			c12.8-59.7,66-100.3,124.9-99.2c8,0.1,16.2,1,24.4,2.7L646.2,813.5z"/>
	</g>
	<g class="st6">
		<path class="st1" d="M646.2,825L561,1258.3l-136.9-29.4c-67.8-14.5-111.1-81.4-96.5-149.3l2.4-11.1h0c45.3,8.4,89.6-19,102.3-63.3
			l60.1-210.8c8,0.1,16.2,1,24.4,2.7L646.2,825z"/>
	</g>
	<g>
		<path class="st1" d="M561,1264.6c-1.3,0-2.5-0.1-3.7-0.4l-136.9-29.4c-37.5-8-69.6-30.2-90.4-62.4c-20.8-32.2-27.8-70.6-19.8-108
			L350,878.5c8.1-37.5,30.2-69.6,62.4-90.4c32.2-20.8,70.7-27.8,108-19.8L650,796.1c9.5,2,15.6,11.3,13.7,20.8l-85.2,433.3
			c-0.9,4.7-3.7,8.8-7.7,11.4C567.9,1263.6,564.5,1264.6,561,1264.6z M490.2,800.7c-20.6,0-40.7,5.9-58.4,17.4
			c-24.2,15.6-40.9,39.8-46.9,67.9L345,1071.9c-6.1,28.2-0.8,57,14.9,81.2c15.6,24.2,39.8,40.8,67.9,46.9l119.2,25.6l78.3-398.3
			L513,803.1C505.4,801.5,497.7,800.7,490.2,800.7z"/>
	</g>
	<g>
		<path class="st9" d="M894.4,922.1c0,12.9-1.2,25.9-3.8,38.9l-49.5,251.5c-21.6,110.1-129.3,181-239,157.5l-4.3-0.9
			c-71.2-15.3-124.1-69-141.7-134.9c-7.4-27.7-8.5-57.5-2.1-87.4l59.4-276.9c21.7-101.1,121.2-165.4,222.3-143.8
			c6.2,1.4,12.3,3,18.3,4.9C838.1,757.4,894.4,835.6,894.4,922.1z"/>
	</g>
	<g class="st3">
		<path class="st5" d="M862,813.1c-20.5-18.1-44.9-32.2-72.2-40.8c-6-1.9-12.1-3.5-18.3-4.9c-101.1-21.7-200.6,42.7-222.3,143.8
			l-59.4,276.9c-6.4,30-5.3,59.8,2.1,87.4c5,18.6,12.8,36.2,23,52.3c-28.4-24.5-48.9-57.2-58.6-93.6c-7.4-27.7-8.5-57.5-2.1-87.4
			l59.4-276.9c21.7-101.1,121.2-165.4,222.3-143.8c6.2,1.4,12.3,3,18.3,4.9C799.8,745.4,837.3,775,862,813.1z"/>
	</g>
	<g class="st6">
		<path class="st1" d="M894.4,933.6c0,12.9-1.2,25.9-3.8,38.9l-49.5,251.5c-21.6,110.1-129.3,181-239,157.5l-4.3-0.9
			c-71.2-15.3-124.1-69-141.7-134.9c42.8,1.5,101.7-5.9,152.2-46.6c73.7-59.4,127.6-346.5,145.8-456.7
			C838.1,768.9,894.4,847.1,894.4,933.6z"/>
	</g>
	<g>
		<path class="st1" d="M644.7,1392.4c-15.4,0-30.9-1.6-46.3-5c-57.8-12.4-103.7-44-133.4-90c-29.8-46-39.8-100.8-28.3-154.3
			l59.4-276.9c11.5-53.5,43.1-99.4,89.1-129.1c46-29.7,100.8-39.8,154.3-28.3c115.8,24.8,191.4,139.6,168.6,255.8l0,0L858.6,1216
			c-11.4,58-44.9,107.8-94.2,140.3C728.2,1380.1,686.9,1392.4,644.7,1392.4z M696.2,739.7c-32.3,0-64,9.3-91.7,27.2
			c-38,24.6-64.2,62.5-73.6,106.7l-59.4,276.9c-9.5,44.2-1.2,89.5,23.3,127.5c24.6,38,62.5,64.2,106.7,73.6
			c52.8,11.3,102,2.1,143.3-25.2c41.3-27.2,69.3-68.9,78.9-117.4l49.5-251.5c19.1-97.2-44.2-193.3-141.1-214.1
			C720.1,741,708.1,739.7,696.2,739.7z M890.6,961h0.4H890.6z"/>
	</g>
	<g>
		<path class="st2" d="M1262.1,376.9c316.7-95.4,629.6,42,854.8,343.4s347.8,688.9-15.3,873.9
			c-404.5,206.1-944.2,263.3-1163.9,171.7c-119.6-49.9-316.7-183.2-225.1-564.8C804.2,819.6,826.9,508,1262.1,376.9z"/>
	</g>
	<g class="st3">
		<path class="st5" d="M2330.4,1276.2c-11.3-159.6-99.2-334.8-213.5-487.8c-151.8-203.3-343.5-340.1-549.4-378.4
			c0.1,0.5,0.1,0.9,0.1,1.4c0,23.8-43.7,43.1-97.7,43.1c-53.9,0-97.6-19.3-97.6-43.1c0-2.7,0.5-5.3,1.7-7.8
			c-37.1,4.4-74.4,12.1-111.7,23.4c-435.2,131.1-458,460.6-549.6,842.3c-12.9,54-20.1,103-22.6,147.6
			c-3.6-61.3,2.6-132.6,22.6-215.7c91.6-381.6,114.3-693.2,549.5-824.3c316.7-95.4,629.6,42,854.8,343.5
			C2247.7,895.5,2343.9,1099.7,2330.4,1276.2z"/>
	</g>
	<g>
		<path class="st4" d="M1521.6,1359.5c-140.3,56.1-181.3,145-164.3,217.5c13,55.9,110.9,166,315.1,99.2
			c185.1-60.5,167-227.1,124-288.1C1751,1323.9,1617,1321.4,1521.6,1359.5z"/>
	</g>
	<g class="st6">
		<path class="st1" d="M2101.6,1605.7c-404.5,206.1-944.2,263.3-1163.9,171.7c-106.8-44.5-275.4-155.5-245-450.5
			c36.1,167.9,128.2,281.8,210.7,316.3c219.6,91.6,789.9,43,1194.4-163c139.8-71.2,204.3-221.1,221.9-335.8
			C2357.9,1328.3,2309,1500,2101.6,1605.7z"/>
	</g>
	<g>
		<path class="st1" d="M1221.1,1826.1c-119.6,0-220.9-14.9-290.2-43.8c-156-65-323.4-219.4-235.6-585.4
			c9.6-39.9,18.4-79.1,27.1-117.3c75.5-334.9,135.3-599.5,534.7-719.8l0,0c317.9-95.9,636.6,31.7,874.2,349.8
			c100.9,135,262,396.5,207.5,629.9c-27,115.8-104.1,206.9-229,270.5C1821.3,1757,1478.8,1826.1,1221.1,1826.1z M1463.3,364.5
			c-64.9,0-130.6,9.7-196.1,29.5l0,0C887.6,508.3,830,763.9,757,1087.5c-8.7,38.4-17.5,77.7-27.1,117.8
			c-82,341.6,71.5,484.5,214.6,544.2c211.2,88,747.3,33.5,1148.9-171.2c115.2-58.7,186-141.7,210.5-246.9
			c37.4-160.2-36-379.1-201.4-600.5C1923.9,491.7,1698.3,364.5,1463.3,364.5z M1262.1,376.9h0.4H1262.1z"/>
	</g>
	<g>
		<path class="st1" d="M1434.4,1541.9c29.4,24,69.9,37.6,99.3,12c16.1-9.7,22.7-42,46.3-36.5c71.7,18,134.2-26.4,137.9-101.7
			c0.6-12.1,19.6-11.3,19.1,0.8c6.9,95.2-73,159.4-165.6,147.6c0,0,23.4-9.2,23.4-9.2c-31.4,41-93,61.3-138.1,30.5
			c-11.1-8.7-47.7-28.2-35.1-43.8C1425.3,1538.2,1430.9,1538.6,1434.4,1541.9L1434.4,1541.9z"/>
	</g>
	<g>
		<path class="st1" d="M1583.9,1564.5c-9.1,0-17.9-5.3-21.8-14.3l-28.5-65.3c-5.2-12,0.2-26,12.3-31.3c12.1-5.4,26,0.2,31.3,12.3
			l28.5,65.3c5.2,12-0.2,26-12.3,31.3C1590.3,1563.9,1587.1,1564.5,1583.9,1564.5z"/>
	</g>
	<g>
		<path class="st1" d="M1408.4,1020.5c118.1-47.2,296.4,211.2,282.4,320.5c-15.1,118.1-208.1,193.5-320.5,109.4
			C1279.2,1382.4,1306.6,1061.2,1408.4,1020.5z"/>
	</g>
	<g>
		<path class="st1" d="M1484.8,1510.2c-47.7,0-92.9-13.7-128.9-40.7c-60.1-45-73.4-168.6-59.9-271.1
			c13.8-104.8,52.5-179.5,103.5-199.9l0,0l0,0c42.9-17.2,93.4-4.5,146.2,36.4c97.3,75.3,179.2,225.6,168.6,309.2
			c-7.7,60.5-54.6,114.5-125.3,144.4C1554.7,1503,1519.2,1510.2,1484.8,1510.2z M1438.7,1038.6c-7.3,0-14.6,1.2-21.5,4l0,0
			c-33.3,13.3-63,78.4-74,162c-13.4,101.7,4.3,199.2,41.2,226.8c58,43.4,134.1,35.3,186,13.3c54.2-22.9,91.3-63.8,96.8-106.7
			c7.6-59.8-61.7-196.9-150.5-265.6C1495.3,1055.9,1466.3,1038.6,1438.7,1038.6z M1408.4,1020.5h0.5H1408.4z"/>
	</g>
	<g>
		
			<ellipse transform="matrix(0.7678 -0.6407 0.6407 0.7678 -146.9897 1268.0447)" class="st4" cx="1675.8" cy="836.8" rx="77.6" ry="56.6"/>
	</g>
	<g>
		
			<ellipse transform="matrix(0.3964 -0.9181 0.9181 0.3964 -195.7479 1576.2184)" class="st4" cx="1100.9" cy="937" rx="56.6" ry="77.6"/>
	</g>
	<g>
		<g>
			<path class="st4" d="M1983.6,1467.6c-17.2,3.7-35.5-3.7-44.8-19.8c-11.5-19.9-4.7-45.3,15.1-56.8l316.7-183.6
				c69.2-40.1,99-126.3,69.4-200.6L2298,901.2c-8.5-21.3,1.9-45.5,23.2-54c21.3-8.4,45.5,1.9,54,23.2l42.1,105.7
				c44.7,112.3-0.4,242.6-105,303.2L1995.6,1463C1991.8,1465.2,1987.7,1466.7,1983.6,1467.6z"/>
		</g>
	</g>
	<g class="st6">
		<g>
			<path class="st1" d="M2312.3,1290.9l-316.7,183.6c-3.9,2.2-7.9,3.7-12,4.6c-17.2,3.7-35.5-3.7-44.8-19.8
				c-4.3-7.4-6.1-15.6-5.6-23.6c9.4,6.5,21.3,9,32.6,6.5c4.1-0.9,8.2-2.4,12-4.7l316.7-183.5c104.5-60.6,149.6-191,104.9-303.3
				l-32.6-81.8c3.4,3.7,6.3,8,8.3,13l42.1,105.7C2462,1100,2416.8,1230.3,2312.3,1290.9z"/>
		</g>
	</g>
	<g>
		<g>
			<path class="st1" d="M1974.7,1486.4c-20.8,0-40.5-11-51.3-29.6c-16.4-28.3-6.7-64.7,21.6-81.1l316.7-183.6
				c61.6-35.7,88.1-112.5,61.8-178.6l-42.1-105.7c-12.1-30.4,2.8-65,33.2-77.1c30.5-12.2,65,2.8,77.1,33.2l42.1,105.7
				c47.9,120.4-0.5,260.2-112.6,325.2l-316.7,183.6c-5.5,3.1-11.2,5.3-17.1,6.6C1983.2,1486,1978.9,1486.4,1974.7,1486.4z
				 M2336.5,862.1c-2.9,0-5.9,0.5-8.7,1.7c-12.2,4.8-18.1,18.7-13.3,30.9l42.1,105.7c32.8,82.4-0.3,178.1-77.1,222.6l-316.7,183.6
				c-11.3,6.6-15.2,21.1-8.6,32.4c5.2,9,15.6,13.6,25.6,11.3c0,0,0,0,0.1,0c2.3-0.5,4.6-1.4,6.8-2.7l316.7-183.6
				c97-56.2,138.8-177.1,97.4-281.2l-42.1-105.7C2354.9,867.8,2346,862.1,2336.5,862.1z"/>
		</g>
	</g>
	<g>
		<path class="st7" d="M2015.1,1503.2l-84.8,44.9c-42,22.2-94.2,6.2-116.4-35.9l0,0c-22.2-42-6.2-94.2,35.9-116.4l84.8-44.9
			c42-22.2,94.2-6.2,116.4,35.9v0C2073.1,1428.8,2057.1,1480.9,2015.1,1503.2z"/>
	</g>
	<g class="st6">
		<path class="st1" d="M2060.9,1438.5c0,30.9-16.7,60.7-45.9,76.2l-84.8,44.8c-42.1,22.3-94.1,6.2-116.4-35.9
			c-6.8-12.8-10-26.6-10-40.2c0-12,2.6-23.9,7.4-34.8c24.9,33.5,71.2,44.8,109.3,24.6l84.8-44.8c17.9-9.4,31-24.3,38.5-41.4
			c2.7,3.5,5,7.2,7.1,11.2C2057.7,1411.1,2060.9,1424.9,2060.9,1438.5z"/>
	</g>
	<g>
		<path class="st1" d="M1890.1,1575.9c-10.3,0-20.6-1.5-30.7-4.7c-26.5-8.2-48.3-26.2-61.2-50.7c-13-24.5-15.7-52.7-7.5-79.2
			c8.2-26.5,26.2-48.3,50.7-61.3l84.9-44.8c24.5-13,52.5-15.7,79.2-7.4c26.5,8.2,48.3,26.2,61.2,50.7c13,24.5,15.7,52.7,7.5,79.2
			c-8.2,26.5-26.2,48.3-50.7,61.3c0,0,0,0,0,0l-84.8,44.8C1923.4,1571.8,1906.8,1575.9,1890.1,1575.9z M1974.7,1358.7
			c-11,0-21.9,2.7-31.8,8l-84.9,44.8c-16.1,8.5-27.9,22.8-33.3,40.3c-5.4,17.4-3.7,35.9,4.9,52.1c8.5,16.1,22.9,28,40.3,33.3
			c17.3,5.4,35.9,3.6,52-4.9l84.8-44.8c16.2-8.5,28-22.8,33.3-40.3s3.7-35.9-4.9-52.1c-8.5-16.1-22.9-28-40.3-33.3
			C1988.2,1359.7,1981.5,1358.7,1974.7,1358.7z M2015.1,1503.2h0.4H2015.1z"/>
	</g>
	<g class="st6">
		<path class="st1" d="M1960.4,2092.9c-0.7,175.9-218.7,282.4-521.5,231.4c-302.7-51-405.4-188.1-405.4-188.1v-2
			c0,0-69.7-93.7-24.9-229.8c-13.7,66.4,39.9,231,406.2,296.6c505.1,90.5,529.1-97.1,500.4-208.1
			C1940.7,2014.6,1960.5,2046.4,1960.4,2092.9z"/>
	</g>
	<g class="st6">
		<path class="st1" d="M2730.3,2064.6c-5.3,9.3-12.6,16.8-22.1,23.9c-10.9,8.1-24.6,15.7-41.9,24.8l-24.3,0.5
			c-61.6-15.5-108.2-127.5-108.2-127.5c-16.6-50.2-18.9-102.8,14.3-148.3c6.1,54.2,26.7,149.5,96.6,148.3
			c54.4-0.9,67.9-79.2,69.2-148.3c12.5,23.4,22,52.5,24.9,88.4C2745.2,2002.4,2744.5,2039.9,2730.3,2064.6z"/>
	</g>
	<g>
		<g>
			<g>
				<g>
					<path class="st1" d="M1020.1,1108.6c-11,24.2-14.3,54.7-7.1,85.9c14.6,63,66.2,104.9,115.3,93.5
						c49.1-11.4,77.1-71.6,62.6-134.6c-2.7-11.7-6.7-22.7-11.7-32.7c-5.9-0.4-12.3-1-19.4-2.1
						C1112.7,1111.7,1061.5,1107,1020.1,1108.6z"/>
				</g>
			</g>
		</g>
		<g>
			<g>
				<path class="st1" d="M1238,1072c-11.4,23.6-18.3,37.8-75.6,29.5c-28.3-4.1-68.5-9-107.6-10.2c-53.3-0.7-85.2,42.3-85.2,42.3
					c31.4-11.6,99.9-10.8,187.8,2c43,6.3,67.9,0.6,84.3-11.6c26.1-19.5-2.1-55.4-2.1-55.4L1238,1072z"/>
			</g>
		</g>
		<g>
			<g>
				<path class="st4" d="M1131.3,1135.7c-12.4,2.9-19.5,18.1-15.8,34.1c3.7,15.9,16.7,26.5,29.2,23.6c12.4-2.9,19.5-18.1,15.8-34.1
					C1156.8,1143.4,1143.7,1132.8,1131.3,1135.7z"/>
			</g>
		</g>
	</g>
	<g>
		<g>
			<g>
				<g>
					<path class="st1" d="M1806.9,875.9c-32.3,25.9-67.9,63.1-99,99.2c-4.6,5.4-9,10.1-13.2,14.3c2.8,10.9,7,21.8,12.6,32.4
						c30.3,57.1,91,84.3,135.5,60.6c44.5-23.6,56.1-89.1,25.8-146.2C1853.6,907.9,1831.1,887,1806.9,875.9z"/>
				</g>
			</g>
		</g>
		<g>
			<g>
				<path class="st1" d="M1694.8,963.8c-37.8,43.9-52.3,37.7-76.4,27.3l-3.4-1.5c0,0,19.1,54.7,57.4,37.1
					c14.4-6.7,30.3-19.2,48.6-40.5c58-67.4,109.2-112.8,140.5-124.7c0,0-45.5-18-94.6,26.3C1739.1,913.9,1712.9,942.8,1694.8,963.8z
					"/>
			</g>
		</g>
		<g>
			<g>
				<path class="st4" d="M1740.7,969.3c-11.3,6-14.2,22.5-6.5,37c7.7,14.4,23,21.3,34.3,15.3c11.3-6,14.2-22.5,6.5-37
					C1767.4,970.1,1752,963.3,1740.7,969.3z"/>
			</g>
		</g>
	</g>
</g>
</svg>
