<!-- Generator: Adobe Illustrator 23.0.1, SVG Export Plug-In  -->
<svg version="1.1" xmlns="http://www.w3.org/2000/svg" xmlns:xlink="http://www.w3.org/1999/xlink" x="0px" y="0px"
	 width="2718.6px" height="2870.4px" viewBox="0 0 2718.6 2870.4" style="enable-background:new 0 0 2718.6 2870.4;"
	 xml:space="preserve">
<style type="text/css">
	.st0{fill:#390176;}
	.st1{fill:#F99C28;}
	.st2{fill:#CFCFE2;}
	.st3{fill:#B2B2CC;}
	.st4{fill:#B5CFDD;}
	.st5{fill:#E4EAF2;}
	.st6{opacity:0.7;}
	.st7{fill:#FFFFFF;}
	.st8{fill:#FC9595;}
	.st9{fill:#F97D7D;}
	.st10{fill:#F8FDFF;}
	.st11{opacity:0.35;}
	.st12{fill:#512717;}
	.st13{fill:#FF8080;}
	.st14{fill:#FFBE83;}
	.st15{fill:#DD975E;}
	.st16{fill:#824E27;}
	.st17{fill:#363D56;}
	.st18{fill:#C1813D;}
	.st19{fill:#9E612B;}
	.st20{fill:#93B3C1;}
</style>
<defs>
</defs>
<g>
	<g>
		<path class="st0" d="M2649.9,687.6c2.9,0.6,5.8,1.7,8.7,1.7c11.7,0.1,21.1-4.7,27.8-14.3c4-5.7,4.1-12.5,3.8-19.3
			c-0.6-11.8-5.1-22.6-8.8-33.6c-1.6-4.7-3.3-9.3-5-14.2c-3,0.7-5.9,1.5-8.8,2c-28,5.1-51.5-3.6-71.1-23.7
			c-13.1-13.4-20.8-29.7-23.2-48.4c-2-15.7,1.2-30.7,7.1-45.2c6.2-15.1,14.9-28.7,24.9-41.5c4.9-6.3,9.8-12.6,14.9-18.9
			c1.3-1.6,1.5-2.9,0.8-4.9c-7-19.2-11.8-38.8-11.5-59.4c0.3-15.6,2.5-30.7,9.7-44.8c3.1-6,7.3-10.9,12.7-14.9c5.3-4,8.3-4,13,0.6
			c8.4,8.2,14.6,18,18.5,28.9c15.4,43.4,9.8,83.7-18.1,120.7c-0.7,0.9-1,2.5-0.7,3.5c3,9.8,6.1,19.4,9.1,29.2
			c0.5,1.5,1.1,2.1,2.8,1.8c22.6-4.2,39.9,4.6,51.6,23.4c12.9,20.7,14.6,42.6,2.7,64.6c-4.6,8.5-11.6,14.8-20,19.4
			c-2,1.1-2.4,2.2-1.7,4.3c3.9,12.1,7.8,24.3,11.5,36.5c2.1,7.1,3.6,14.5,2.9,22c-1.4,16.2-9.8,27.8-24.5,34.1
			c-17.9,7.7-35.3,6.3-50.7-6.4c-12.2-10.1-14-28.9-4.8-41.8c11-15.4,32.4-13.6,40.6,3.5c7.5,15.5-0.5,29.6-12.8,33.5
			c-0.3,0.1-0.6,0.3-1,0.4C2650,687,2650,687.3,2649.9,687.6z M2634.1,471c-1,1-1.7,1.5-2.2,2.1c-7.3,9.4-14.9,18.6-21.7,28.3
			c-7,9.9-11.7,20.9-13.8,33c-2.5,14.6-0.7,28.4,7.7,41.1c14.1,21.5,42.1,29.7,65.4,21.3c2.5-0.9,3.2-1.7,2.3-4.4
			c-6.1-19.4-12-38.9-18-58.4c-0.7-2.1-1.4-4.3-2.1-6.7c-5.6,3.2-9.5,7.4-12.5,12.5c-5,8.5-5.1,17.1,0.1,25.7
			c3.5,5.8,8.1,9.7,14.6,11.6c2.7,0.8,4.3,3.1,3.8,5.3c-0.4,2.2-3.1,3.7-5.9,3.3c-19.2-2.7-35.7-21.3-35.4-40.5
			c0.3-19.4,8-35,24.3-46c0.7-0.5,1.5-1.7,1.3-2.3C2639.5,488.3,2636.8,479.9,2634.1,471z M2630.7,420.6c1.8-2.1,3.1-3.3,4.2-4.8
			c9.5-12.9,16.5-26.9,19.6-42.7c1.6-7.7,1.8-15.5-0.8-23.1c-2.1-6-6.7-7.9-12.4-4.8c-3.9,2.1-6.6,5.6-8.2,9.6
			c-6.8,16.5-9.3,33.7-6.3,51.4C2627.5,410.9,2629.2,415.3,2630.7,420.6z M2684,590c11.7-5,18.2-25.9,13-41.1
			c-5.5-16.2-20.2-26-33.4-24C2670.4,546.6,2677.2,568.3,2684,590z"/>
	</g>
	<g>
		<path class="st0" d="M282.9,1373c-26.2,12.5-52.5,25.1-78.7,37.6c-21.7,10.4-44,21.1-66,31.6c-11.5,5.5-17.5,18.3-14.4,30.6
			c11.3,44.6,22.6,90.2,33.8,134.5c0.1,0.2,0.2,0.6,0.2,0.9c0.2,0.6-0.1,0.9-0.8,1c-5,0.9-9.8,2.5-14.5,4.6
			c-15.7,7.3-28,18.2-36,33.6c-4.3,8.3-6.3,17.1-4.6,26.5c0,0.9,0.4,1.7,0.6,2.6c1.7,7.3,6.3,12.4,12.5,16
			c6.4,3.7,13.4,4.9,20.7,4.7c2.6-0.1,5-0.6,7.6-0.9c0.6-0.2,1.6-0.5,2.2-0.7c0.5-0.2,1-0.2,1.5-0.4c1.3-0.2,2.5-0.9,3.9-0.7
			c0.6-0.2,1.1-0.4,1.7-0.6c0.1-0.1,0.3-0.1,0.5,0l0.6-0.1c0-0.3,0.2-0.3,0.5-0.4c9.7-3.4,18.4-8.5,26-15.4
			c8.7-7.8,15.2-17.1,18.3-28.5c1.9-6.8,2-13.7,0.2-20.7c-12.5-48.6-24.9-97.3-37.3-146c-0.3-1.3-0.2-2,1.1-2.6
			c14.5-6.7,28.9-13.5,43.4-20.3c22.9-10.8,45.9-21.5,68.8-32.4c1.2-0.5,1.3-0.2,1.5,0.8c2.6,10.3,5.2,20.6,7.8,30.9
			c6.4,25.2,12.8,50.4,19.2,75.5c0.3,1.1,0.2,1.5-1,1.6c-3.8,0.5-7.4,1.5-11,2.8c-15.7,5.8-28.4,15.4-37.8,29.3
			c-5.2,7.6-8.5,15.9-9,25.2c-0.7,12.9,6,23.6,17.7,28.2c8.2,3.3,16.6,3.4,25.1,1.8c13.8-2.6,25.8-9,36.2-18.3
			c8.9-8,15.9-17.3,19.7-28.9c2.2-6.8,2.5-13.6,0.7-20.7c-14.8-57.9-29.8-117.3-44.5-175.4c-1.8-7.1-9.7-10.8-16.3-7.6
			C283,1372.9,283,1372.9,282.9,1373z"/>
	</g>
	<g>
		<path class="st0" d="M2132.2,2193.7c0.1-1.3,0-2.7,0-4c0.1-2.5,0-5-0.2-7.7c-0.1-1.7-0.3-3.4-0.6-5.1c-2.1-15-9-33-24.6-53.2
			c-1.8-3.4-3.5-6.8-5.4-10.2c-2.1-3.7-3.8-7.5-5-11.6c-1.9-6.7-3.8-13.5-5.8-20.2c-0.9-3.3-3.9-5.2-7.7-5.1c-3.4,0.1-5.8,2-6.6,5.5
			c-6.5,27.2-12.9,54.3-19.4,81.5c-0.1,0-0.2,0-0.3-0.1c-1.2,5-2.3,10.1-3.5,15.1c-5.5,22.3-11,44.7-16.6,67c-0.8,3.1-2.3,6-4.5,8.4
			c-2,2.1-4.1,2.5-6.8,1.4c-0.6-0.3-1.1-0.6-1.6-0.9c-6.4-4.1-13.3-7-20.8-8.5c-15.1-3.2-29.6-1-43.5,5
			c-10.3,4.4-18.2,11.7-23.3,21.8c-2.8,5.6-4.4,11.5-3.8,17.8c0.8,8.7,5.4,15.3,11.9,20.8c3.7,3.1,8.1,5.1,12.6,7.1
			c9.5,4.2,19.3,5.6,29.6,4.7c6.2-0.6,12.2-2.1,18.2-3.9c8.1-2.4,16-5.3,23-10.1c8.4-5.7,14.2-13.1,16.6-23.2
			c5.7-24.2,11.7-48.4,17.5-72.7c3.3-13.9,6.6-27.8,9.9-41.6c1.5-6.5,3.1-12.9,4.7-19.4c0.5-2.1,0.8-4.2,1.5-6.2
			c0.6-1.5,1.4-3.1,2.5-4.3c2.6-3,7.2-3.1,10.9-0.4c0.6,0.4,1.2,0.9,1.8,1.4c-0.6-0.5-1.2-1-1.8-1.4c0,0,26,31.9,19.1,76.5
			c-1.1,2.9-1.2,5.8,0,8.7c0.8,1.9,2.2,3.1,4.3,3c2.3-0.1,4.2-1,5.5-2.9c0,0,4.1-4.9,7.5-13.7
			C2130.2,2206.7,2131.8,2200.4,2132.2,2193.7z"/>
	</g>
	<g>
		<g>
			<g>
				<path class="st1" d="M1329.2,2257.8c91.3,117.2,18.6,479.5,91.4,564.4c16.1,18.8,46.7,31,76.5,31c66.8,0,140.5,0,205.2,0
					c94.7,0,104.9-70,94-108.8c-10.1-36.1-41.8-57.2-74.4-65.3c80.7-258.4,62-613.4,20.5-691"/>
			</g>
			<g>
				<path class="st2" d="M1329.2,2257.8c91.3,117.1,18.7,479.5,91.4,564.4c16.1,18.8,46.7,31,76.5,31h205.2
					c77.2,0,98.2-46.5,97.4-84.8c-0.2-8.7-1.4-16.9-3.4-24c-10.1-36.1-41.8-57.2-74.4-65.3c40.6-129.9,56-284.2,56.1-415.4
					c0.1-129.8-14.9-237-35.6-275.6L1329.2,2257.8z"/>
			</g>
			<g>
				<path class="st3" d="M1329.2,2257.8c91.3,117.1,18.7,479.5,91.4,564.4c16.1,18.8,46.7,31,76.5,31h205.2
					c77.2,0,98.2-46.5,97.4-84.8c-24.7,16.6-68.9,31.2-147.7,28.4c-184.2-6.4-150.3-79.1-61.5-110.2c0,0-119.7,17.4-131.1-42.7
					c-13.5-71.1,0.3-125.7,136.1-200.3c107.7-59.2,148.4-116,182.4-180c0.1-129.8-14.9-237-35.6-275.6L1329.2,2257.8z"/>
			</g>
			<g>
				<path class="st0" d="M1702.4,2868.8h-205.2c-34.6,0-69.3-14.3-88.3-36.5c-38-44.3-39.9-144.5-42.1-260.5
					c-2.2-115.6-4.7-246.7-49.7-304.5c-5.3-6.8-4.1-16.5,2.7-21.8c6.8-5.3,16.5-4.1,21.8,2.7c51.4,65.9,53.9,196.6,56.3,323
					c1.9,100.8,3.9,205,34.6,240.8c13.2,15.3,39.2,25.6,64.7,25.6h205.2c32.7,0,56-8.9,69.4-26.5c14.6-19.3,14.4-45.8,9.7-62.6
					c-10.5-37.6-47.7-50.6-63.2-54.4l-16-4l4.9-15.7c77.6-248.6,62.2-603.1,21.6-679c-4-7.6-1.2-17,6.4-21c7.6-4.1,17-1.2,21,6.4
					c41.4,77.3,62.6,424.6-14.8,688c35.7,13.1,60.8,38.5,70,71.5c6.9,24.8,6.7,61.4-14.8,89.7
					C1783.1,2847.7,1755.9,2868.8,1702.4,2868.8z"/>
			</g>
			<g>
				<path class="st0" d="M1566.1,2693.5c49.9-21,104.1-31.5,158.4-29.7c20.5,1.7,18.8,31.8-1.8,31.2c-25.5-5.7-52.3-9-78.7-9.1
					C1617.8,2685.5,1591.8,2688.1,1566.1,2693.5L1566.1,2693.5z"/>
			</g>
			<g>
				<path class="st0" d="M1635.7,2727.7c37.5,38.4,33.1,121.3-22.9,140.7c0,0-6.8-30.3-6.8-30.3c20.1-0.9,34-22.6,39.9-41.4
					C1652.5,2773.6,1649.1,2748.1,1635.7,2727.7L1635.7,2727.7z"/>
			</g>
			<g>
				<path class="st0" d="M1718.4,2727.7c46.6,27.5,39.3,117.7-10.7,140.1c0,0-10.7-29.2-10.7-29.2
					C1737.5,2828,1750.8,2754.6,1718.4,2727.7L1718.4,2727.7z"/>
			</g>
		</g>
		<g>
			<path class="st4" d="M1323.3,2379.1c-116,53.7-190.5,359.7-263.4,444.7c-16.2,18.8-46.8,31.1-76.7,31.1c-66.9,0-140.7,0-205.6,0
				c-94.8,0-105.1-70.2-94.2-109c10.1-36.2,38.3-60.1,89.1-68.1c0,0,38.2-530.6,233.7-667.1"/>
		</g>
		<g>
			<path class="st2" d="M1323.3,2379.1c-116,53.7-190.5,359.7-263.4,444.7c-16.2,18.8-46.8,31.1-76.7,31.1H777.6
				c-81.6,0-100.6-51.9-97.3-91.1c0.5-6.4,1.6-12.5,3.1-17.9c10.1-36.1,38.2-60.1,89.1-68.1c0,0,16.2-225,81.5-419.7
				c34.9-104.3,84-199.8,152.2-247.4L1323.3,2379.1z"/>
		</g>
		<g>
			<path class="st3" d="M1323.3,2379.1c-116,53.7-190.5,359.7-263.4,444.7c-16.2,18.8-46.8,31.1-76.7,31.1H777.6
				c-81.6,0-100.6-51.9-97.3-91.1c14.2,15.5,51.3,37.1,135.8,37.1c159.2,0,161.2-64,85.5-109.6c0,0,112.5,48.2,150.4-5.4
				c37.9-53.6,59.2-124.1,13.6-162.9c-43.2-36.7-192.6-120.4-211.6-264.8c34.9-104.3,84-199.8,152.2-247.4L1323.3,2379.1z"/>
		</g>
		<g>
			<path class="st0" d="M983.2,2870.4H777.6c-53.6,0-80.9-21.1-94.3-38.9c-21.5-28.4-21.8-65-14.8-89.9c11.3-40.6,41.4-66.5,89.5-77
				c7.1-82,54.3-537.6,239.3-666.7c7-4.9,16.7-3.2,21.6,3.8c4.9,7,3.2,16.7-3.8,21.6C828,2154.1,788.4,2673.6,788,2678.9
				c-0.5,7.2-5.9,13.1-13.1,14.2c-42.7,6.7-67.7,25.4-76.6,57c-4.7,16.9-5,43.4,9.7,62.7c13.4,17.6,36.8,26.6,69.6,26.6h205.6
				c25.6,0,51.7-10.3,64.9-25.7c26.5-30.9,54.7-96.1,84.5-165.1c50.3-116.3,107.3-248,184.1-283.6c7.8-3.6,17-0.2,20.6,7.6
				c3.6,7.8,0.2,17-7.6,20.6c-66.1,30.6-120.6,156.6-168.6,267.7c-32.2,74.3-59.9,138.5-89.5,173
				C1052.6,2856.1,1017.9,2870.4,983.2,2870.4z"/>
		</g>
		<g>
			<path class="st0" d="M914.2,2694.8c-45.9-8.3-94.1-10.6-139.9-1.6c-20.2,4.3-27.2-25.1-7.2-30.4
				C817.4,2661.7,868,2676,914.2,2694.8L914.2,2694.8z"/>
		</g>
		<g>
			<path class="st0" d="M844.4,2729.1c-13.4,20.4-16.8,46-10.2,69.1c5.9,18.8,19.9,40.7,40,41.5c0,0-6.8,30.3-6.8,30.3
				C811.2,2850.6,806.9,2767.6,844.4,2729.1L844.4,2729.1z"/>
		</g>
		<g>
			<path class="st0" d="M761.5,2729.1c-32.4,26.9-19.1,100.5,21.4,111.2c0,0-10.7,29.2-10.7,29.2
				C722.2,2847.1,714.8,2756.7,761.5,2729.1L761.5,2729.1z"/>
		</g>
		<g>
			<path class="st3" d="M1584.2,1601.8c0,0,342.5,449,150.5,715.9l-205.6,133c-60.9,38.6-234.4,92-381.3,37.6l-223.4-108.7
				c-174.7-254.3,52.3-533.4,40-730.4c0,0,159.5-182.3,324.2-207.8C1453.3,1416,1584.2,1601.8,1584.2,1601.8z"/>
		</g>
		<g>
			<path class="st5" d="M1287,2419.3c-400.1-14.1-330.8-369.7-285.9-511.1c24.2-76.3,47.3-148.9,50.1-219.3
				c50.8-51.7,438.5-66.8,463.5-31.8l0.8,1.2l0.7,0.9c0.7,1,88.3,101.4,134.2,236C1718.3,2094.2,1669.9,2432.8,1287,2419.3z"/>
		</g>
		<g>
			<path class="st0" d="M924.4,2379.6c-172-199.2-31.3-425.7,21.4-638.5c7-30.2,11.7-60.9,10.9-91.4c-0.2-4.3,3.2-8,7.6-8.1
				c4.1-0.1,7.6,3.1,7.9,7.1c4.9,64.7-11.6,128.2-28.8,189.6c-26,90.8-56.9,179.1-65.4,272.8
				C867.6,2206.1,880.4,2293.6,924.4,2379.6L924.4,2379.6z"/>
		</g>
		<g>
			<path class="st0" d="M1529.1,2450.7c-94.5,80.7-273.3,101.8-381.3,37.6C1276.6,2508.9,1406.2,2492.5,1529.1,2450.7L1529.1,2450.7
				z"/>
		</g>
		<g>
			<path class="st0" d="M1590.4,1597.1c120.1,156.5,276.8,438.3,196.9,637c-12,31.2-30.1,59.9-52.6,83.6
				c14.9-29.1,26.4-58.9,33.2-89.6c31.8-154-22.7-318.8-91.9-456c-29-57.1-61.5-113.1-98-165.6
				C1572.3,1598.7,1583.8,1589.1,1590.4,1597.1L1590.4,1597.1z"/>
		</g>
		<g>
			<g>
				<path class="st2" d="M1053.4,1509.9c-184.1,22.1-408.1,183.7-372.6,399c141.1,389.1,488.3-30.5,488.3-30.5
					s193.7-211.8,150.7-301.7C1276.8,1486.7,1053.4,1509.9,1053.4,1509.9z"/>
			</g>
			<g>
				<path class="st3" d="M1169.1,1878.3c0,0-9.7,11.7-26.4,29.4c-88.9,11.2-168.5-2.6-193.3-76.7
					c-55.9-167.3-166.6-147.6-224.3-123.3c70.9-109.5,208.1-183.4,328.3-197.8c0,0,223.4-23.2,266.4,66.7
					C1362.8,1666.6,1169.1,1878.3,1169.1,1878.3z"/>
			</g>
			<g>
				<path class="st0" d="M859.3,2089.8c-9.8,0-19.6-0.8-29.3-2.5c-71.5-12.4-126.7-70.6-163.8-173.1c-0.3-0.9-0.6-1.8-0.7-2.8
					c-13.4-81.3,7.7-161.8,61.1-233c72.6-96.8,200.2-169,324.9-184c8.4-1.1,16.3,5,17.3,13.6c1,8.5-5,16.2-13.6,17.3
					c-114.9,13.8-237,82.8-303.8,171.8c-47.9,63.8-67.1,135.6-55.6,207.9c33,90.4,79.9,141.4,139.4,151.7
					c143.4,24.9,320.1-186.1,321.9-188.2c5.5-6.6,15.3-7.5,21.9-2.1c6.6,5.5,7.5,15.3,2.1,21.9
					C1173.8,1897,1012.4,2089.8,859.3,2089.8z"/>
			</g>
		</g>
		<g>
			<g>
				<path class="st3" d="M1449.4,1438.5c277.4-11.8,460.3,278.6,567,275.7c38.3,63.4,24.1,195.5-58.2,224.9
					c-249,89-421.1-189.5-421.1-189.5"/>
			</g>
			<g>
				<path class="st0" d="M1860.3,1972c-73.4,0-146.6-27.6-215.7-82.1c-75.4-59.5-119-129.2-120.8-132.1c-4.5-7.3-2.3-16.9,5-21.4
					c7.3-4.5,16.9-2.3,21.4,5c0.4,0.7,42.9,68.5,114.3,124.6c93.7,73.7,190.8,93.3,288.4,58.4c32.9-11.8,49.6-41.7,57.8-64.7
					c15.1-42.4,13.3-95.6-3.9-130.4c-44-4.3-94-44.5-156.3-94.4c-104.5-83.8-234.5-188.1-400.6-181c-8.5,0.5-15.8-6.3-16.2-14.9
					c-0.4-8.6,6.3-15.8,14.9-16.2c177.5-7.6,318.5,105.3,421.4,187.7c58.8,47.1,109.8,87.9,144.7,87.9c0.4,0,0.8,0,1.2,0
					c0.1,0,0.3,0,0.4,0c5.4,0,10.5,2.8,13.3,7.5c25.5,42.2,29.8,109.6,10.4,164c-14.8,41.5-42,71.2-76.7,83.6
					C1929.3,1965.9,1894.8,1972,1860.3,1972z"/>
			</g>
		</g>
		<g>
			<g>
				<g>
					<path class="st4" d="M993.4,525.8c-17-197.5-405.5-465.7-673.7-354.5c-58,24-60.4,73.3-15.9,107.1
						C-50.5,421.3-18.6,846.1,87.2,973.8c69.4,83.7,118.4,47.7,134.4,26.5c43.6,67,220.4,163.7,383.1,98.4
						C604.7,1098.7,1003.3,641.1,993.4,525.8z"/>
				</g>
				<g>
					<path class="st2" d="M993.4,525.8c-17-197.5-405.5-465.7-673.7-354.5c-58,24-60.4,73.3-15.9,107.1
						C-50.5,421.3-18.6,846.1,87.2,973.8c69.4,83.7,118.4,47.7,134.4,26.5c43.6,67,220.4,163.7,383.1,98.4
						C604.7,1098.7,1003.3,641.1,993.4,525.8z"/>
				</g>
				<g class="st6">
					<path class="st7" d="M947.2,409.1C822.8,255,574.9,121.6,376.6,189.1c-46.4,15.8-60,49.2-43.5,80.6
						c7.4,14.1,1.9,31.7-12.9,37.7C-8.6,441.5-1.5,844.9,92.7,974.9c9.1,12.6,18,22.7,26.6,30.7c-10.1-7.9-20.8-18.3-32.1-31.9
						C-18.6,846.1-50.5,421.3,303.9,278.4c-44.5-33.9-42.1-83.1,15.9-107.1C537.1,81.2,833.6,240.4,947.2,409.1z"/>
				</g>
				<g>
					<path class="st3" d="M514.3,1076.4c-119.3,10.3-230.5-59.3-256.7-99.5l-33.4-51.3l-37,48.8c-0.6,0.9-6.5,8.3-14.6,9
						c-4.7,0.4-22.6-1.1-52.4-37.1c-18.4-22.2-36.2-59.3-47.9-106.8c-7.4-28-24.1-94.8,99.9-54.2c119.3,39,238.7,7.9,373.5-47.9
						c118.8-49.2,250.8-103.9,376.1-133.1c-65.4,121-227.2,324.9-342.5,458C558.6,1069.7,536.8,1074.4,514.3,1076.4z"/>
				</g>
				<g>
					<path class="st0" d="M490,1136c-117.9,0-224.8-60-269.9-112c-10.5,8.6-26.4,17.6-47.2,18c-32.1,0.8-65.1-18.9-97.8-58.3
						c-59.2-71.4-99.7-235.4-58.4-398.9c25.6-101.1,91.4-235.2,259.2-311.4c-14-16.8-20.5-36-18.1-54.8
						c3.4-26.3,23.2-48.2,55.7-61.7c127.4-52.8,297.4-27.2,454.8,68.4c137.5,83.6,231.8,201,240.3,299.1l0,0
						c10.2,118.4-351.2,537.1-392.4,584.4c-1.6,1.9-3.6,3.3-5.9,4.2C570.4,1129.2,529.6,1136,490,1136z M221.6,984.8
						c0.2,0,0.4,0,0.6,0c5.1,0.2,9.7,2.8,12.5,7.1c36.6,56.2,202.8,154.9,360.9,93.8c158.4-182.2,389.2-479.2,382.4-558.5l0,0
						c-7.5-87.3-98.1-197.9-225.5-275.3c-149-90.5-308.5-115.3-426.8-66.3c-21.8,9.1-34.9,22.2-36.8,37c-1.9,14.4,7,30.2,24.4,43.5
						c4.4,3.4,6.7,8.9,6,14.4c-0.7,5.5-4.4,10.2-9.6,12.3C137.7,362.1,71.9,494,47,592.4c-37.4,147.9-2.9,305,52.2,371.4
						c25.5,30.8,50.5,47.1,72.2,47.1c0.3,0,0.6,0,1,0c20.6-0.5,33.5-15.4,36.9-20C212.2,987,216.7,984.8,221.6,984.8z M604.7,1098.7
						L604.7,1098.7L604.7,1098.7z"/>
				</g>
				<g>
					<path class="st8" d="M858,686.2c-9.5,178.3-75.1,231.8-242.7,293.6c-183.8,67.8-388.2-34.3-408.5-270.1
						c-15.3-177.9,127.6-349.1,306.2-350.9C670.4,357.3,869.3,476.2,858,686.2z"/>
				</g>
				<g>
					<path class="st9" d="M858,686.2c-9.6,178.3-75.1,231.8-242.7,293.6c-157.5,58.1-330.1-8.5-389-177.2
						c40.4,29.2,170.5,114.6,222,47.6c57.3-74.5-30.9-137.4-3.6-197.4c27.1-59.6,207.1,10.5,108.6-291.9
						C702.2,377.8,868.3,493.8,858,686.2z"/>
				</g>
				<g>
					<path class="st0" d="M217.6,597.9C246.4,459.2,373,344.7,517.1,344.3c162.8-1.4,334,112.5,356.7,281
						c5.9,40.1,2.5,82.5-3.2,122.4c-5.9,36-16,71.5-33.9,103.4c-13.5,22.6-30.7,44.1-51.1,60.7c-40.2,33.9-86.6,53.9-133.6,72.4
						c0,0-27.9,10.3-27.9,10.3c-57.6,21-121.4,28.1-181.8,15.3c-123.8-24-214.7-128.2-228.5-252c16.9,56,44.6,107.5,86.3,147.8
						c67.1,65.7,167.2,92.2,258.6,73c26.7-4.8,55.3-16.2,80.6-26.3c124.4-50.7,184.8-99,197.6-238.5c5.1-45.6,3.4-93.4-12.9-136.5
						C786,471.2,681.1,399.9,572.8,379.5C415.9,346,269,451.6,217.6,597.9L217.6,597.9z"/>
				</g>
			</g>
			<g>
				<g>
					<path class="st4" d="M1435.1,487.8c-17-197.5,320-528.1,603.2-464.4c61.2,13.8,72,61.9,33.9,102.8
						c373.6,80.2,414.7,504.3,332.3,648.2c-54,94.3-108.5,67.2-127.9,49.1c-31.5,73.4-189.2,199-360.7,162.4
						C1915.9,985.9,1445,603.1,1435.1,487.8z"/>
				</g>
				<g>
					<path class="st2" d="M1435.1,487.8c-17-197.5,320-528.1,603.2-464.4c61.2,13.8,72,61.9,33.9,102.8
						c373.6,80.2,414.7,504.3,332.3,648.2c-54,94.3-108.5,67.2-127.9,49.1c-31.5,73.4-189.2,199-360.7,162.4
						C1915.9,985.9,1445,603.1,1435.1,487.8z"/>
				</g>
				<g class="st6">
					<path class="st7" d="M1460.7,364.9c96.3-173,317.7-346.9,524.6-314.2c48.5,7.7,67.5,38.3,56.6,72c-4.9,15.2,3.6,31.5,19.2,34.9
						c346.9,76,408.9,474.7,338.2,618.9c-6.8,14-13.9,25.5-20.9,34.8c8.6-9.5,17.4-21.6,26.2-36.9
						c82.4-143.9,41.3-567.9-332.3-648.2c38.1-41,27.3-89-33.9-102.8C1808.7-28.3,1543.7,179.3,1460.7,364.9z"/>
				</g>
				<g>
					<path class="st3" d="M2001.2,948.4c119.3-10.3,217-97.8,235.9-141.9l24.1-56.3l44.8,41.8c0.8,0.7,7.9,7.1,15.9,6.4
						c4.7-0.4,22-4.9,45.3-45.5c14.3-25,25.5-64.7,29-113.4c2.5-28.9,7.5-97.5-107.7-36.3c-110.9,58.9-233.8,48.5-376.2,16.6
						c-125.5-28.2-264.9-59.5-393.3-66.9c85.1,108.1,279.4,281.3,415.7,392.7C1956.4,949.4,1978.7,950.3,2001.2,948.4z"/>
				</g>
				<g>
					<path class="st0" d="M1978.4,1008c-21.5,0-43.5-2.2-65.7-6.9c-2.4-0.5-4.7-1.6-6.6-3.1c-48.7-39.6-476.3-390.4-486.5-508.8
						c-8.4-98.2,64.4-230,185.6-335.8C1744,32.2,1907.1-22,2041.7,8.2c34.4,7.7,57.6,25.9,65.5,51.2c5.6,18.1,2.5,38.1-8.4,57.1
						c178.4,46.5,266.2,167.3,308.6,262.6c68.7,154,56.7,322.5,10.6,403c-25.4,44.4-54.5,69.3-86.4,74.1c-20.5,3.1-37.7-3-49.5-9.7
						C2240.8,914.9,2119.6,1008,1978.4,1008z M1922.7,971.4c166.2,33.2,313.1-92.5,339.6-154.1c2-4.6,6.1-8,11.1-9.1
						c5-1,10.1,0.4,13.8,3.8c4.2,3.9,19.5,16.5,39.8,13.4c21.7-3.3,43.9-23.6,64-58.9c42.9-74.8,50.1-235.5-12.1-374.9
						c-41.3-92.7-128.7-211.4-310-250.4c-5.5-1.2-9.9-5.2-11.6-10.5c-1.7-5.3-0.4-11.1,3.4-15.2c14.9-16,20.9-33.1,16.6-47
						c-4.4-14.2-19.5-24.9-42.6-30.1C1910,10.4,1757,62.1,1625.7,176.7c-112.3,98-182.6,222.5-175.1,309.7
						C1457.4,565.8,1735.5,819,1922.7,971.4z"/>
				</g>
				<g>
					<path class="st8" d="M1595.9,622.7c39.9,174.1,113.6,215.6,289.3,247.8c192.7,35.4,376.6-100.1,356.3-335.9
						c-15.3-177.9-185.4-322.2-361.6-293.4C1724.5,266.6,1548.9,417.7,1595.9,622.7z"/>
				</g>
				<g>
					<path class="st9" d="M1595.9,622.8c39.9,174,113.6,215.6,289.3,247.8c165.1,30.3,323.8-64.8,353.1-241
						c-34.9,35.6-148.4,142-210.6,84.8c-69.2-63.6,7-140.7-30.1-195.1c-36.9-54.1-202.2,45.8-156.8-269.1
						C1696.7,292.3,1552.8,434.9,1595.9,622.8z"/>
				</g>
				<g>
					<path class="st0" d="M2211.7,426.3C2136.1,291,1973.3,212,1824.5,271.8c-141.2,52.2-248.3,192.8-210.4,347
						c31.6,133.6,78.6,189.2,214.5,222.3c14,3.4,42.3,9.7,56.5,12.4c109.8,23.7,231.8-17.5,297.9-109.8
						c34.2-46.8,52.7-102.3,59.8-160.4c7.5,124.3-64.2,242.5-182.1,287.3c-57.3,23-121.3,26.9-181.7,16c0,0-29.2-5.4-29.2-5.4
						c-49.4-10.2-98.6-21.9-144-48.5c-76.3-43-109.6-123.8-128-205.5c-45.9-195.3,109-367.1,295.6-399.6
						C2015.4,203.4,2159.7,294.6,2211.7,426.3L2211.7,426.3z"/>
				</g>
			</g>
			<g>
				<path class="st4" d="M1304.2,1554.3L1304.2,1554.3c-361.4,31.1-818.8-83.2-775.2-488.2c-25.2-560.3,216.8-801.8,659.1-859.2
					l0.1,0l0.1,0l0.1,0c445.6-19.1,725.3,177.6,796.2,734c112.2,391.6-319,582.3-680.3,613.4L1304.2,1554.3z"/>
			</g>
			<g>
				<path class="st4" d="M2002.4,1046.9c13.2,320.3-371.1,479.2-698,507.3l-0.3,0c-327,28.1-732.8-62.8-774.4-380.6
					c-4.4-33.3-4.8-69.1-0.6-107.6c-25.2-560.2,216.8-801.8,659.1-859.2l0.3,0c445.6-19,725.3,177.7,796.2,734
					C1995.3,978,2001,1013.3,2002.4,1046.9z"/>
			</g>
			<g>
				<path class="st2" d="M2002.4,1046.9c6.3,151.1-76,266.3-198.9,348.8c-137.6,92.4-326.4,143.7-499.1,158.6l-0.3,0
					c-172.9,14.9-367.8-3.5-519.3-71.2l0,0c-135-60.3-235.5-159.7-255.2-309.4c-4.4-33.3-4.8-69.1-0.6-107.6
					c-25.2-560.2,216.8-801.8,659.1-859.2l0.3,0c445.6-19,725.4,177.7,796.2,734C1995.3,978,2001,1013.4,2002.4,1046.9z"/>
			</g>
			<g>
				<path class="st3" d="M1912.8,1300.2c-30.5,35.7-67.6,67.5-109.3,95.5c-137.6,92.4-326.4,143.7-499.1,158.6h-0.3
					c-172.8,14.9-367.8-3.5-519.2-71.2v0c-84.8-37.9-156.1-91.2-202.1-162.8c43.4,42.3,96.6,76.8,156.1,104.4v0.1
					c164.2,76.1,376.6,99.2,565.3,85.7l0.3,0c188.6-13.5,395.3-66.6,546.9-165.2C1873,1331.2,1893.6,1316.1,1912.8,1300.2z"/>
			</g>
			<g class="st6">
				<path class="st7" d="M2002.3,1046c-2.9-23.2-7.7-47.2-14.9-72c-70.8-556.3-350.6-753-796.2-733.9l-0.2,0
					c-442.3,57.3-684.4,298.9-659.1,859.1c-2.8,25.6-3.5,50.1-2.4,73.5c-4.3-33.1-4.6-68.6-0.5-106.7
					c-25.2-560.2,216.8-801.8,659.1-859.2l0.2,0c445.6-19.1,725.3,177.6,796.2,734C1995.2,977.7,2000.9,1012.7,2002.3,1046z"/>
			</g>
			<g>
				<path class="st0" d="M1161.8,1558.7c-221.7,11.9-500-50.3-612.4-262.2c-36.7-71.2-46.8-153.7-38.5-232.5
					c-1.5-36.8-3.3-104.6-0.4-152.1C529.8,499.3,735.1,256,1148,196.6c0,0,39-5.2,39-5.2l39.3-1.5c193.9-6.2,402.2,38.8,542.4,181.5
					c149.5,149.6,208,363,234,567.1c32.1,107.9,22.9,237.8-52.1,339.5c-74.7,104.1-190.4,171.3-309,212.1
					c-63.5,21.8-129.7,36.8-196.3,44.3c73.5-21.1,145.6-45.2,214.2-76.4c166.8-73.7,333.5-204.8,325-404
					c-1-36.8-7.5-73.6-17.8-109.4c-26.8-196-81.3-402.5-224.4-546.6c-144.1-145.7-355.1-182.6-552.7-175.6
					c-98.6,14.5-198,37.9-288.1,80.8c-236,111.3-331.1,323.4-351.1,573.1c-5,62.9-5.7,127.2-3.2,190.4c-8.2,73-0.1,148.4,32.8,214.4
					C685,1483.8,953.4,1534.7,1161.8,1558.7L1161.8,1558.7z"/>
			</g>
			<g>
				<path class="st4" d="M974.3,290.6c69.1-184.9,217-295.8,276.9-236c38.6,38.5-39.8,109.3-34.6,111.1s151.3-74.6,185.4-11.2
					c23.6,43.8-49,70.2-63.6,90.9"/>
			</g>
			<g>
				<path class="st2" d="M974.3,290.6c69.1-184.9,217-295.8,276.9-236c38.6,38.5-39.8,109.3-34.6,111.1s151.3-74.6,185.4-11.2
					c23.6,43.8-49,70.2-63.6,90.9"/>
			</g>
			<g class="st6">
				<path class="st7" d="M1380.8,211.8c2.8-8.3,2.5-17.4-2.9-27.5c-34.1-63.4-191.1,12.3-196.3,10.6c-5.2-1.8,65.9-84.4,45.5-110.4
					c-27.4-35-128.2,9.9-206.6,110.7c75.3-124.9,182.1-189,230.8-140.5c38.6,38.5-39.8,109.3-34.6,111.1
					c5.2,1.8,151.3-74.6,185.4-11.2C1414.6,178,1399.6,196.5,1380.8,211.8z"/>
			</g>
			<g>
				<path class="st0" d="M967,287.9c22.8-97.3,103.9-215.8,197.7-256.2c19.2-7.8,40.3-12.4,61.6-8.1c23.1,4.6,46,22,50.5,46.1
					c5.5,38-20.2,68.1-41.5,95.5c0,0-3.9,4.9-3.9,4.9c0-0.1-1.7,2.5-0.9,1.2c4.6-9.1-2.7-20.8-12.8-21.2c-2.6,0-2,0-3.8,0.3
					c0.1,0,1.2-0.4,1.4-0.5c32.9-13.3,65.2-26.7,100.5-33.6c18.7-3.5,38.5-5.8,60.2-0.4c37.9,8.2,61.7,53.7,35.7,86.6
					c-17.3,23.8-45.3,34.4-68.5,48.4c-3.6,2.3-8.4,1.2-10.7-2.4c-4.2-7.6,5-15.7,8.7-20.6c9-10,20.1-18.7,29.5-27.3
					c9.2-8.5,20.9-18.8,19.5-30.5c-1.7-10.7-11-19.4-22.6-22.1c-13.1-3.5-29.7-2.3-45.8,0.4c-32.6,5.5-64.9,18.7-95.9,30.9
					c-0.8,0.2-2.6,0.9-3.4,1.1c-8.6,3-19.3-1.8-21.3-11.6c-1.5-7.4,1.6-12.2,5.4-17.4c14.4-19.3,58-67.1,30.2-88
					c-42.7-30.5-109.6,26.9-139.8,57.4c-24,24.4-44.7,52.3-63.3,81.5c-18.8,29.2-35.4,59.7-52.1,91
					C977.5,301.3,964.8,296.8,967,287.9L967,287.9z"/>
			</g>
			<g>
				<path class="st0" d="M1142,230.5c12.4-23.5,29-43.2,48.2-61.2c11.6-9.4,27.3-30.7,41.8-14.4c5.3,6.8,4.2,16.6-2.6,21.9
					c-7.3,4.7-15.1,8.6-22.3,13.7c-19.2,13-37.8,29.1-51.6,47.6C1150.2,246.3,1137.7,239.3,1142,230.5L1142,230.5z"/>
			</g>
			<g>
				<path class="st10" d="M1498.9,1253.1c-4.6,82.3-100.9,153.4-206.7,162.5c-105.8,9.1-212.7-44.5-231.2-124.8
					c-17.4-75.1,53-259.3,197.2-271.7c0,0,0,0,0.1,0C1402.4,1006.7,1503.2,1176.1,1498.9,1253.1z"/>
			</g>
			<g>
				<ellipse class="st0" cx="910.9" cy="982" rx="128.9" ry="138.4"/>
			</g>
			<g>
				<g>
					
						<ellipse transform="matrix(0.9963 -8.572940e-02 8.572940e-02 0.9963 -77.9315 84.0743)" class="st7" cx="939.9" cy="949.4" rx="45.2" ry="51.7"/>
				</g>
			</g>
			<g class="st11">
				<g>
					
						<ellipse transform="matrix(0.6734 -0.7393 0.7393 0.6734 -491.4359 988.5795)" class="st7" cx="873.1" cy="1050.5" rx="23.2" ry="41.4"/>
				</g>
			</g>
			<g>
				<ellipse class="st0" cx="1584.2" cy="912.3" rx="128.9" ry="138.4"/>
			</g>
			<g>
				<g>
					
						<ellipse transform="matrix(8.573087e-02 -0.9963 0.9963 8.573087e-02 545.4235 2353.7112)" class="st7" cx="1555.2" cy="879.7" rx="51.7" ry="45.2"/>
				</g>
			</g>
			<g class="st11">
				<g>
					
						<ellipse transform="matrix(0.7393 -0.6734 0.6734 0.7393 -237.5523 1347.9347)" class="st7" cx="1622" cy="980.7" rx="41.4" ry="23.2"/>
				</g>
			</g>
			<g>
				<path class="st7" d="M944.7,678.9c-53.3,11-90.3-9.4-92-40.9c-2.1-37.8,56.4-62.8,110.2-54.9
					C1030.9,593,993.6,668.8,944.7,678.9z"/>
			</g>
			<g>
				<path class="st7" d="M1509.3,630.3c54.3,1.7,87.3-24.7,83.7-56c-4.4-37.6-66.3-52.2-117.9-35.3
					C1409.7,560.4,1459.3,628.7,1509.3,630.3z"/>
			</g>
			<g>
				<g>
					<polygon class="st12" points="1281.5,1212.4 1279.9,1212.8 1279.9,1212.2 					"/>
				</g>
				<g>
					<polygon class="st12" points="1283.1,1212 1283.2,1212.5 1281.5,1212.4 					"/>
				</g>
				<g>
					<path class="st12" d="M1389.9,1203.4c-23.2,33.5-27.7,64.5-36.1,90.6c-1.6,5.1-3.4,10-5.6,14.6c-17.5,38.7-55.2,43.7-61.2,43.9
						c-8.1,0.4-44.2,2.3-67.8-32.8c-2.9-4.3-5.5-8.8-8-13.6c-12.7-24.2-22.6-53.9-51.1-82.9c30.8-36.6,113.2-28.2,113.2-28.2
						S1353.3,1172.6,1389.9,1203.4z"/>
				</g>
				<g>
					<path class="st0" d="M1383.5,1219c-21.5,31.1-25.6,59.9-33.5,84c-0.9,2.9-1.9,5.8-3,8.5c-0.6,1.7-1.4,3.4-2.1,5.1
						c-16.3,35.9-51.2,40.5-56.7,40.7c-7.6,0.3-41,2.1-62.8-30.5c-1-1.6-2-3.1-3-4.8c-1.5-2.5-3-5.1-4.4-7.8
						c-11.8-22.4-20.9-50-47.4-76.9c28.5-33.9,105-26.2,105-26.2S1349.5,1190.5,1383.5,1219z"/>
				</g>
				<g>
					<path class="st13" d="M1346.9,1311.5c-0.6,1.7-1.4,3.4-2.1,5.1c-16.3,35.9-51.2,40.5-56.7,40.7c-7.6,0.3-41,2.1-62.8-30.5
						c-1-1.6-2-3.1-3-4.8c8.5-10.2,21-17.2,35.3-18.4c9.3-0.8,18.3,1,26.3,4.7c7.2-5,15.8-8.3,25.1-9.1
						C1323.3,1298,1336.8,1302.8,1346.9,1311.5z"/>
				</g>
				<g>
					<path class="st0" d="M1309,1299.2c0,0-18.2,2.9-22.4,20.9c-0.4,1.7-2.7,1.9-3.4,0.3c-7.2-17-25.7-16.7-25.7-16.7l7.1-22
						l17.1,2.5l16.5-5.4L1309,1299.2z"/>
				</g>
				<g>
					<path class="st0" d="M1284,1371c-29.5,0-54.2-12.9-70.1-36.6c-6.3-9.3-11-19.4-16.1-30.1c-8.9-18.8-18.1-38.2-37.1-57.5
						c-4.9-5-5.2-12.9-0.7-18.3c30.1-35.8,98.3-32.5,114.2-31.2c15.4-4,82.1-18.9,117.9,11.2c5.4,4.5,6.4,12.4,2.4,18.1
						c-15.3,22.1-21,42.6-26.5,62.5c-3.2,11.6-6.2,22.5-11,32.9c-20.9,46-66.6,48.6-68.5,48.7C1287.1,1370.9,1285.6,1371,1284,1371z
						 M1189.8,1238.4c15.9,19,24.7,37.6,32.6,54.3c4.6,9.7,9,18.9,14.1,26.6c11.5,17.2,28.6,25.5,50.7,24.5
						c0.5,0,31.1-1.8,45.2-32.8c3.9-8.5,6.6-18.4,9.5-28.9c4.9-17.7,10.4-37.4,22.7-58.7c-26.1-11.2-69.1-3.6-85.5,0.9
						c-1.6,0.5-3.3,0.6-5,0.4C1257.3,1223,1213.6,1222.9,1189.8,1238.4z"/>
				</g>
				<g>
					<path class="st10" d="M1411.6,1168.9c-6.8,10.6-16,46.4-42.2,63.8c-30.3,20.2-66.1,8.4-84-11c-7.7-8.4-11.5-21.5-12.2-29.2
						l-2.1-24.8l2.1,24.8c0.7,7.7-0.9,21.3-7,30.9c-14.3,22.2-47.6,39.9-80.9,25.2c-28.8-12.7-43.9-46.3-52.5-55.7
						c0,0,38.1-97.9,131.3-105.9C1357.4,1078.9,1411.6,1168.9,1411.6,1168.9z"/>
				</g>
				<g>
					<path class="st0" d="M1417.3,1172.5c-7.7,42.8-33.2,83.6-81.4,84.9c-38.6,1.2-76.9-27-78.1-67.3c-0.5-4.5-1.5-16.5-1.9-21.2
						c-0.8-8.4,5.4-15.8,13.8-16.6c8.4-0.8,15.8,5.4,16.6,13.8c0.1,0,1.1,14.2,1.2,14.3c0.1,2.4,0.7,8.3,0.9,10.6
						c2.5,25.6-12,51.1-33.8,64.1c-28.7,19.5-70.5,16.3-95.4-7.8c-15.1-13.7-24-31.9-31.3-49.9c-2-3.7-0.9-8.5,3.2-10.1
						c2.4-1,5-0.5,6.9,0.9c4.8,3.8,7.9,7.3,11.2,10.9l9.3,10.3c10.8,11.6,22.8,24.1,38.1,28.4c29.2,8.8,66.9-15.1,61.4-47.7
						c-0.5-4.5-1.5-16.5-1.9-21.2c0,0,30.5-2.6,30.5-2.6c0.3,4.8,1.4,16.6,1.7,21.2c0.1,8.1,3.6,18.7,8.3,23.9
						c20.6,22.8,58.3,23.7,78.1-1.3c12.1-12.9,19.8-30.7,31.5-44.9C1411.1,1159.5,1420.1,1165.3,1417.3,1172.5L1417.3,1172.5z"/>
				</g>
			</g>
			<g>
				<path class="st0" d="M1271.9,1170.1c-162.1,13.9-176.4-111.2-171.9-193.5c7.4-136.2,97.2-199,137.8-202.5
					c40.6-3.5,139.8,43.1,170.4,176C1426.7,1030.5,1434,1156.2,1271.9,1170.1z"/>
			</g>
			<g class="st6">
				<path class="st7" d="M1177.5,889.9c-32.9,14.3-38.6,96.5-26.7,137.1c12.3,42,26.4,64.6,46.1,57.1c27.4-10.6,27.8-47.2,18.1-86.8
					C1208.1,969.2,1218.1,872.3,1177.5,889.9z"/>
			</g>
		</g>
		<g>
			<g>
				<path class="st14" d="M1752.4,1688.4c62.8,137.6,81.3,274.1-12.2,329.5c-80.1,47.5-123.1,7.2-207.4,50.3
					c-88.6,45.4-100.6,202.9-286.1,220.5c-189.2,18-296.6-234.1-296.6-234.1s-120.2-246.3,17.3-377.4
					c134.8-128.6,261.7-34.5,354-71.7c87.8-35.4,85.5-94.3,173.8-123.7C1598.6,1447.5,1689.6,1550.8,1752.4,1688.4z"/>
			</g>
			<g>
				<path class="st15" d="M1251.6,2248.8c-2.8,0.3-5.6,0.7-8.5,0.9c-158,15-255.8-208.2-256.7-210.4l-0.4-0.9l-0.4-0.9
					c-1-2.2-149.9-260,115.8-228.7c34.9,4.1,119.2-49.2,168.8-8.5c42.4,34.7-1.8,78.5,8.1,99.9c139.3,299.4,401.1-277.1,438.4-195.4
					c30.4,66.6,91.6,227.2,3.5,279.4c-18.6,11-35.1,16.8-55.3,19.4c-9.9,1.2-20.1,1.6-30.8,2.1c-12.2,0.5-24.9,1-38.8,2.7
					c-28.4,3.6-54,11.5-80.3,25c-40.9,20.9-67.1,58.2-92.5,94.3C1382.8,2183.8,1345.3,2237,1251.6,2248.8z"/>
			</g>
			<g>
				<path class="st0" d="M1227.2,2305.3c-183.1,0-284.8-229.6-291.1-244.1c-7.1-14.8-122-259,20.8-395.1
					c90.9-86.7,180.8-77.7,253.1-70.4c40.7,4.1,75.8,7.6,105.9-4.5c39.6-16,59-36.6,79.5-58.5c22.7-24.2,46.2-49.2,95.3-65.5
					c99.6-33.2,197.6,43.2,276,214.9c78.4,171.7,71.9,295.8-18.4,349.3c-44.5,26.4-78.8,27.7-111.9,29c-30,1.2-58.3,2.3-96.3,21.8
					c-28.8,14.8-49.2,43.6-72.7,77.1c-41.8,59.3-93.9,133.2-219,145.1C1241.1,2304.9,1234.1,2305.3,1227.2,2305.3z M1141.3,1622.1
					c-52.3,0-106.3,12.3-163,66.4c-127.6,121.7-15.3,357-14.1,359.4c0.1,0.2,0.2,0.5,0.3,0.7c1,2.3,98.4,225.6,263.3,225.6
					c5.8,0,11.6-0.3,17.5-0.8c110.9-10.6,154.4-72.3,196.5-132.1c24.8-35.3,48.3-68.6,84-86.8c44.1-22.6,78.7-23.9,109.2-25.1
					c32-1.3,59.6-2.3,97.3-24.7c104.7-62.1,39.1-237.3,6-309.7c-33.1-72.4-122.5-236.8-237.9-198.3c-41.6,13.9-60.5,34-82.4,57.3
					c-20.9,22.3-44.6,47.5-90.5,66.1c-37.1,15-77.7,10.9-120.6,6.6C1185.2,1624.3,1163.4,1622.1,1141.3,1622.1z"/>
			</g>
			<g>
				<path class="st16" d="M1174.7,2049.2l-73.3-160.5c-4.6-10.2-0.2-22.2,10-26.8l14.6-6.7c10.2-4.6,22.2-0.2,26.8,10l73.3,160.5
					c4.6,10.2,0.2,22.2-10,26.8l-14.6,6.7C1191.3,2063.8,1179.3,2059.4,1174.7,2049.2z"/>
			</g>
			<g>
				<path class="st17" d="M1193.1,2076.6c-13.6,0-26.6-7.8-32.6-20.9l0,0l-73.3-160.5c-4-8.7-4.3-18.4-1-27.3c3.3-9,10-16.1,18.7-20
					l14.6-6.7c17.9-8.2,39.2-0.3,47.4,17.7l73.3,160.5c8.2,17.9,0.3,39.2-17.7,47.4l-14.6,6.7
					C1203.1,2075.5,1198.1,2076.6,1193.1,2076.6z M1188.8,2042.8c1.1,2.4,3.9,3.4,6.2,2.3l14.6-6.7c2.4-1.1,3.4-3.9,2.3-6.2
					l-73.3-160.5c-0.7-1.5-1.8-2.1-2.6-2.4c-0.8-0.3-2.1-0.5-3.6,0.1l-14.6,6.7c-1.5,0.7-2.1,1.8-2.5,2.6c-0.3,0.8-0.5,2.1,0.1,3.6
					L1188.8,2042.8z"/>
			</g>
			<g>
				
					<rect x="1733.3" y="1284.6" transform="matrix(0.4154 0.9097 -0.9097 0.4154 2569.2734 -668.4677)" class="st18" width="142.8" height="759.9"/>
			</g>
			<g>
				
					<rect x="1457.1" y="1657.5" transform="matrix(-0.9097 0.4154 -0.4154 -0.9097 4184.0981 2452.7749)" class="st19" width="736.3" height="47.8"/>
			</g>
			<g>
				<path class="st0" d="M1488.7,1902.8c-5.9,0-11.5-3.4-14.1-9.1l-59.3-129.9c-1.7-3.7-1.9-8-0.4-11.9c1.4-3.9,4.4-7,8.1-8.7
					l691.3-315.6c3.8-1.7,8-1.9,11.9-0.4c3.9,1.4,7,4.4,8.7,8.1l59.3,129.9c3.6,7.8,0.1,17-7.7,20.6l-691.3,315.6
					C1493,1902.4,1490.9,1902.8,1488.7,1902.8z M1450,1765.1l46.4,101.6l663-302.7l-46.4-101.6L1450,1765.1z"/>
			</g>
			<g>
				<path class="st0" d="M1204.3,1981.9c-1.5,0-2.9-0.8-3.5-2.3c-0.9-1.9,0-4.3,1.9-5.1l960.8-438.9c1.9-0.9,4.3,0,5.1,1.9
					c0.9,1.9,0,4.3-1.9,5.1l-960.8,438.9C1205.4,1981.8,1204.9,1981.9,1204.3,1981.9z"/>
			</g>
			<g>
				<path class="st0" d="M1174.6,1917c-1.5,0-2.9-0.8-3.5-2.3c-0.9-1.9,0-4.3,1.9-5.1l960.8-438.9c1.9-0.9,4.3,0,5.1,1.9
					c0.9,1.9,0,4.3-1.9,5.1l-960.8,438.9C1175.7,1916.9,1175.2,1917,1174.6,1917z"/>
			</g>
			<g>
				<path class="st0" d="M1189.5,1949.5c-1.5,0-2.9-0.8-3.5-2.3c-0.9-1.9,0-4.3,1.9-5.1l960.8-438.9c1.9-0.9,4.2,0,5.1,1.9
					c0.9,1.9,0,4.3-1.9,5.1l-960.8,438.9C1190.6,1949.4,1190,1949.5,1189.5,1949.5z"/>
			</g>
			<g>
				
					<ellipse transform="matrix(0.7071 -0.7071 0.7071 0.7071 -841.9413 1583.4508)" class="st0" cx="1490.4" cy="1808" rx="112.3" ry="112.3"/>
			</g>
			<g>
				<path class="st0" d="M1490.5,1935.9c-15.1,0-30.2-2.7-44.7-8.1c-32-11.9-57.4-35.6-71.6-66.7c-14.2-31-15.4-65.8-3.5-97.7
					c11.9-32,35.6-57.4,66.7-71.6c64.1-29.3,140-0.9,169.3,63.2c14.2,31,15.4,65.8,3.5,97.7c-11.9,32-35.6,57.4-66.7,71.6
					C1526.6,1932,1508.6,1935.9,1490.5,1935.9z M1490.3,1711.3c-13.4,0-27,2.8-40,8.7c-23.5,10.7-41.4,30-50.4,54.2
					c-9,24.2-8.1,50.5,2.6,74c10.7,23.5,30,41.4,54.2,50.4c24.2,9,50.5,8.1,74-2.6l0,0c23.5-10.7,41.4-30,50.4-54.2
					c9-24.2,8.1-50.5-2.6-74C1562.2,1732.3,1527,1711.3,1490.3,1711.3z"/>
			</g>
			<g>
				<path class="st18" d="M2150.3,1506.7l29.7,64.9c0,0,54.4,34.7,115-6c48.5-32.5,59.7-50.5,112-59.1
					c33.5-5.5,154.8-3.2,85.1-155.9l0,0c-69.7-152.7-147.5-59.5-173.5-37.8c-40.7,33.9-61.7,30.6-118,45.9
					c-70.4,19.2-79.8,83-79.8,83L2150.3,1506.7L2150.3,1506.7z"/>
			</g>
			<g class="st6">
				<path class="st7" d="M2342.9,1322.7c13.6-12.5,34.2-31.4,55-34c17.9-2.2,35.5,9.4,52.5,34.6c0,0-27.7-20.7-53.1-17.5
					C2374.4,1308.7,2342.9,1322.7,2342.9,1322.7z"/>
			</g>
			<g>
				<path class="st19" d="M2242.9,1561.3c-20,2.5-36.6-3.1-44.9-6.8c0,0,53.7-5.1,81-35.5c35-38.9,33.9-65,66.1-71
					c37.2-6.9,138.9,69.2,125.5-87.5l0,0c19.3,42.4,24.1,74.5,13.9,92.9c-10.5,18.8-38.2,24.5-61.1,27.4c-2.8,0.3-5.4,0.6-7.8,0.9
					c-2.3,0.3-4.5,0.5-6.4,0.8c-2.2,0.3-4.1,0.5-5.9,0.8c-45,7.4-64.7,21.9-92,42c-8.4,6.2-17.8,13.1-29.3,20.8
					C2269.4,1554.5,2256.3,1559.6,2242.9,1561.3z"/>
			</g>
			<g>
				<path class="st0" d="M2232.9,1601.1c-35,0-59.6-15.3-61.2-16.3c-2.5-1.6-4.5-3.9-5.8-6.6l-29.7-64.9c0-0.1-0.1-0.2-0.1-0.2
					l-29.5-64.7c-1.2-2.7-1.7-5.8-1.2-8.7c0.4-3,11.8-74.1,91.1-95.7c14.2-3.9,26.1-6.6,36.6-8.9c30.8-6.9,47.7-10.8,75.6-33.9
					c2.2-1.9,4.9-4.3,7.9-7c19.8-18.2,56.7-52,100.6-43.1c34.4,7,63.6,37.5,89.1,93.4c25.5,55.9,29.5,97.9,12.2,128.5
					c-22,39-71.8,44.7-98.5,47.8c-4,0.5-7.6,0.9-10.5,1.3c-35.7,5.9-49.7,16.2-75.1,34.9c-8.7,6.4-18.5,13.6-30.7,21.8
					C2278.2,1595.7,2253.7,1601.1,2232.9,1601.1z M2192,1560.6c11.9,6,51,21.3,94.3-7.8c11.6-7.8,21.2-14.8,29.6-21
					c27.3-20.1,45.4-33.4,88.5-40.5c3.3-0.5,7.3-1,12-1.5c22.7-2.6,60.7-7,75-32.2c11.9-21,7.4-54.8-13.4-100.4
					c-20.8-45.6-43.3-71.1-67-75.9c-28.4-5.8-56.6,20.1-73.5,35.6c-3.4,3.1-6.5,5.9-9,8c-33.6,27.9-55.5,32.9-88.6,40.4
					c-10.2,2.3-21.8,4.9-35.3,8.6c-50.2,13.7-64.3,53.4-67.6,66.2l27.5,60.3c0,0.1,0.1,0.2,0.1,0.2L2192,1560.6z"/>
			</g>
			<g>
				<path class="st0" d="M2113.8,1611.6c-3.7,0-7.2-2.1-8.8-5.7l-29.6-64.9c0,0,0-0.1,0-0.1l-29.6-64.8c-2.2-4.9-0.1-10.6,4.8-12.9
					c4.9-2.2,10.6-0.1,12.9,4.8l29.6,64.9c0,0,0,0,0,0.1l29.6,64.8c2.2,4.9,0.1,10.6-4.8,12.9
					C2116.5,1611.4,2115.1,1611.6,2113.8,1611.6z"/>
			</g>
			<g>
				<path class="st17" d="M2022.3,1653.4c-3.7,0-7.2-2.1-8.8-5.7l-59.3-129.9c-2.2-4.9-0.1-10.6,4.8-12.9c4.9-2.2,10.6-0.1,12.9,4.8
					l59.3,129.9c2.2,4.9,0.1,10.6-4.8,12.9C2025,1653.2,2023.7,1653.4,2022.3,1653.4z"/>
			</g>
			<g>
				
					<rect x="1891.5" y="1549.2" transform="matrix(0.9097 -0.4154 0.4154 0.9097 -501.3741 936.0934)" class="st17" width="19.4" height="142.8"/>
			</g>
			<g>
				<path class="st0" d="M1839.4,1737.1c-3.7,0-7.2-2.1-8.8-5.7l-29.7-64.9c0,0,0-0.1,0-0.1l-29.6-64.8c-2.2-4.9-0.1-10.6,4.8-12.9
					c4.9-2.2,10.6-0.1,12.9,4.8l29.6,64.9c0,0,0,0.1,0,0.1l29.6,64.8c2.2,4.9,0.1,10.6-4.8,12.9
					C1842.1,1736.8,1840.8,1737.1,1839.4,1737.1z"/>
			</g>
			<g>
				<path class="st0" d="M1748,1778.9c-3.7,0-7.2-2.1-8.8-5.7l-59.3-129.9c-2.2-4.9-0.1-10.6,4.8-12.9c4.9-2.2,10.6-0.1,12.9,4.8
					l59.3,129.9c2.2,4.9,0.1,10.6-4.8,12.9C1750.7,1778.6,1749.3,1778.9,1748,1778.9z"/>
			</g>
			<g>
				
					<rect x="1617.1" y="1674.7" transform="matrix(0.9097 -0.4154 0.4154 0.9097 -578.2595 833.4631)" class="st0" width="19.4" height="142.8"/>
			</g>
			<g>
				
					<ellipse transform="matrix(8.135270e-02 -0.9967 0.9967 8.135270e-02 826.8854 3609.0574)" class="st0" cx="2371.3" cy="1356" rx="22.5" ry="22.5"/>
			</g>
			<g>
				
					<ellipse transform="matrix(0.7679 -0.6406 0.6406 0.7679 -390.5194 1760.1476)" class="st0" cx="2233.4" cy="1418.9" rx="22.5" ry="22.5"/>
			</g>
			<g>
				
					<ellipse transform="matrix(7.251021e-02 -0.9974 0.9974 7.251021e-02 799.555 3736.8228)" class="st0" cx="2409" cy="1438.5" rx="22.5" ry="22.5"/>
			</g>
			<g>
				
					<ellipse transform="matrix(0.1138 -0.9935 0.9935 0.1138 520.8677 3586.8816)" class="st0" cx="2271.1" cy="1501.5" rx="22.5" ry="22.5"/>
			</g>
		</g>
		<g>
			<g>
				<path class="st3" d="M1958.2,1939.1c215.8-76.2,179.5-364.1,71.1-439.5c-19.4-13.5-45.8-17.3-72-4.4
					c-69.1-8-94.5,46.9-87.1,75.7c-49,20-39.5,86.2-9.3,114c-6,43.5,14.6,79.2,25.8,98.6"/>
			</g>
			<g>
				<path class="st2" d="M2096,1809.7c46.2-113.7,6-259.6-66.7-310.2c-19.4-13.5-45.8-17.3-72-4.4c-69.1-8-94.5,46.9-87.1,75.7
					c-49,20-39.5,86.2-9.3,114c-6,43.5,14.6,79.2,25.8,98.6C1886.7,1783.5,1970.8,1970.9,2096,1809.7z"/>
			</g>
			<g>
				<path class="st0" d="M1953.2,1924.7c96.8-32.8,148.5-122.1,147.3-221.8c-1.2-69.4-22.9-147.7-79.6-190.7
					c-16.7-11.9-38.5-12.6-56.8-3.4c-2.1,1.1-4.4,1.6-6.7,1.5c-27.1-2.4-56.9,7.6-67,34.3c-3,7.5-4.1,16.3-2.6,21.8
					c2.3,8.7-2.3,17.7-10.4,21.1c-15.9,6.4-23.7,19.7-24.3,36.8c-1,18.3,6.6,38.7,19.2,51.6c2.8,3.1,3.8,7.2,3,10.9
					c-1.5,7.4-2.4,15.1-2.6,22.9c-0.8,25.2,6.9,49.6,14.1,73.8c-26.1-26.3-43.3-62.8-40.2-100.6c0,0,4.5,12.6,4.5,12.6
					c-36.5-31.6-46.6-96.7-6.8-130.1c5.9-4.8,12.4-8.5,19-11.3l-10.7,21.2c-10.1-43.8,24.9-87.9,67.4-95.1c13.3-2.6,26.5-2.3,39-0.2
					l-8.4,1.5c27.1-13.9,62.7-12.4,87.7,5.8c84.8,63.8,107.9,196.9,82.9,294.8c-19.9,80.4-79.4,145-157.8,171.4
					C1944.1,1959.6,1934.4,1931.9,1953.2,1924.7L1953.2,1924.7z"/>
			</g>
			<g>
				<path class="st0" d="M1961.3,1480.1c32.2,15,57.6,43.1,70.9,75.7c-20-23.7-48.2-41.6-79-45.7
					C1953.2,1510.1,1961.3,1480.1,1961.3,1480.1L1961.3,1480.1z"/>
			</g>
			<g>
				<path class="st0" d="M1850.3,1565.2c49.1-9.9,94,3.5,106.1,56.8c-14.1-27.9-39.2-44.2-70.3-36.4c-9.1,2-17.9,5.4-26.9,9.4
					L1850.3,1565.2L1850.3,1565.2z"/>
			</g>
		</g>
		<g>
			<g>
				<path class="st2" d="M874.4,1734.4c74.7,11.6,154.8,75.2,226.9,74.4c32-0.3,79.1-21,102.1-27.4c25.2-7,108.6,28,18.8,106.2
					c14.1,62.9,112.1,99.7,102,163.4c-6.2,39.2-55.5,58.1-55.5,58.1s-10.4,39.7-55.4,54.7c-29.2,9.7-103,30.1-167.2-32.9
					c-132.9,17-334-25.6-365.4-222.1L874.4,1734.4z"/>
			</g>
			<g>
				<path class="st20" d="M1180.6,1875.1c8.4-30.5,59.9-29.3,53.6-58.9c7.1,13.2,6.7,23.4-14.4,40.8c-6.7,5.6-16.8,14.6-19.5,24.5
					c-4.8,17.3,22.7,56.1,18.6,55.4C1204.3,1934.2,1173.9,1899.4,1180.6,1875.1z"/>
			</g>
			<g>
				<path class="st3" d="M1168.3,2142.4c-39.1,4.9-71.9-6.2-100-33.8l-10.9-10.7l-15.9,2c-71.3,8.9-145.3-1.5-203.1-28.6
					c-66.4-31.1-102.9-86.2-123.4-150.9c64.4,123.3,202.8,161.3,356.4,144.7c53.3,61.6,109,43.4,73.8-11.6
					c12.7,13.6,151.3,27.5,107.4-69.8c27.2,26.9,42.6,36.4,43.8,61.7c0.7,13.9-10.3,30.5-38.8,40.7c-27.8,10-71.8,1.7-71.8,1.7
					l52.7,13.1c-0.9,2.7-8.7,24.3-35,33.1C1195.4,2136.7,1182.9,2140.5,1168.3,2142.4z"/>
			</g>
			<g>
				<path class="st0" d="M874.4,1734.4c43.2-3,85.8,13.8,125,28.8c28.7,10.9,55.4,24.3,85.2,28.9c36.9,5.5,72.7-12.8,108.2-23.6
					c28.4-10.3,65.4,5,79.9,31.7c19.1,37.9-13.4,76.1-40.2,99.2c0,0,5-15.1,5-15.1c13.4,48.2,70.3,75,93.8,121.3
					c18.6,34.4,7.7,74.3-22.4,97.6c-10.8,8.7-21.6,15.3-34.5,20.6c0,0,9.5-10.6,9.5-10.6c-0.4,1.5-0.6,2.1-0.9,3
					c-17.3,50.5-67.5,69.4-116.7,73.7c-47.5,5-97.6-13.7-130.8-47.7c0,0,12.8,4.3,12.8,4.3c-81.8,9.7-166.6-0.4-240.8-38
					c-75.9-37.1-130.5-113.4-141.9-197.1c-2.5-20.4,26.9-25,30.7-4.9c5.9,37.2,19.3,72.8,41,102.9
					c68.2,93.6,197.4,119.2,307.1,106.3c4.9-0.6,9.6,1.1,12.8,4.3c14.2,14,30.7,24.9,48.9,31.6c27.5,10.3,58.6,9.7,87.1,2.2
					c26.2-5.4,51.5-21.2,60.4-47.6c0.1-0.3,0.3-1.1,0.3-0.9l9.5-10.6c24.6-10.4,52.4-32.7,45.2-62.1c-9.4-31.9-36.7-50-59.8-75.4
					c-17.7-18.3-35.6-40.2-41.4-66.1c-1.4-5.8,0.7-11.5,5-15.1c15.8-14.6,42.7-39,33-61.4c-5.4-11-24.7-19.7-37.1-18.2
					c-1.3,0.3-4.5,1.3-5.9,1.7c-56.3,19-93.8,36.5-155.1,18.6C983.6,1799.8,934,1759.5,874.4,1734.4L874.4,1734.4z"/>
			</g>
			<g>
				<path class="st0" d="M1155.1,2064.5c18.4,14,40.1,23.9,62.4,28.2c21.3,4.3,43.2,1.8,62.7-6.5c0,0,8.8,29.8,8.8,29.8
					C1238.8,2126,1187.2,2102.8,1155.1,2064.5L1155.1,2064.5z"/>
			</g>
		</g>
	</g>
</g>
</svg>
