<!-- Generator: Adobe Illustrator 23.0.1, SVG Export Plug-In  -->
<svg version="1.1" xmlns="http://www.w3.org/2000/svg" xmlns:xlink="http://www.w3.org/1999/xlink" x="0px" y="0px"
	 width="2662.4px" height="3116.8px" viewBox="0 0 2662.4 3116.8" style="enable-background:new 0 0 2662.4 3116.8;"
	 xml:space="preserve">
<style type="text/css">
	.st0{fill:#777782;}
	.st1{fill:#C7CEE2;}
	.st2{opacity:0.3;}
	.st3{fill:#FFFFFF;}
	.st4{fill:#A3B0CE;}
	.st5{fill:#390176;}
	.st6{opacity:0.4;}
	.st7{fill:#93B3C1;}
	.st8{fill:#F8FDFF;}
	.st9{fill:#C97043;}
	.st10{fill:#E0B299;}
	.st11{fill:#B25B36;}
	.st12{fill:#D2EFFF;}
	.st13{opacity:0.5;}
	.st14{fill:#FC9595;}
	.st15{fill:#F97D7D;}
	.st16{fill:#B5CFDD;}
	.st17{fill:#A2B4BC;}
	.st18{fill:#FF7B7B;}
	.st19{fill:#5E3519;}
	.st20{fill:#F28475;}
	.st21{opacity:0.2;}
	.st22{fill:#FF0068;}
</style>
<defs>
</defs>
<g>
	<g>
		<g>
			<g>
				<path class="st0" d="M1574.7,2338.8c0,0,90.6,113,191.6,102.6c98.5-10.1,133.8-120.3,106-186c-30.7-72.6-129.6-96-187.1-24.2"/>
			</g>
			<g>
				<path class="st1" d="M1574.7,2338.8c0,0,90.6,113,191.6,102.7c67.4-6.9,105.3-60.8,113.5-115.2c3.8-25,1.3-50.2-7.5-70.9
					c-26-61.4-100.9-87.7-158.1-50.7c-10.4,6.7-20.2,15.5-29,26.5L1574.7,2338.8z"/>
			</g>
			<g class="st2">
				<path class="st3" d="M1732.3,2226.4c-2.4-5.7,23.3-15.5,39-15.5c34.6,0,65.8,21,79.6,53.5c7,16.5,7.4,41.6,1.7,42.3
					c-7.3,0.9-10.6-39.2-51.3-63.9C1769,2223.3,1735.4,2233.8,1732.3,2226.4z"/>
			</g>
			<g>
				<path class="st4" d="M1574.7,2338.8c0,0,90.6,113,191.6,102.7c67.4-6.9,105.3-60.8,113.5-115.2c-18.8,20.2-46.7,36.7-84.6,26.8
					c-64.6-17-58-124.4-81-148.4c-10.4,6.7-20.2,15.5-29,26.5L1574.7,2338.8z"/>
			</g>
		</g>
		<g>
			<g>
				<path class="st5" d="M1753,2457.2c-101.5,0-186.4-104.3-190.1-109c-5.2-6.5-4.2-16.1,2.3-21.3c6.5-5.2,16.1-4.2,21.3,2.3l0,0
					c0.9,1.1,86.8,106.4,178.2,97.1c45-4.6,69.9-31.7,82.9-53.5c20.2-34.1,24.5-78.9,10.7-111.5c-13.1-31-41.7-53-74.6-57.6
					c-32.7-4.5-64.3,8.9-86.7,36.9c-5.2,6.5-14.8,7.6-21.3,2.4c-6.5-5.2-7.6-14.8-2.4-21.3c29.2-36.5,71-54,114.5-48
					c43.4,6,81.1,35,98.4,75.8c17.6,41.6,12.7,96.1-12.5,138.8c-23.3,39.4-60.9,63.7-105.9,68.3
					C1762.9,2457,1757.9,2457.2,1753,2457.2z"/>
			</g>
		</g>
	</g>
	<g>
		<path class="st1" d="M1675.9,2447.8c32.5-49.8,103.6-78.5,160.5-54.6c66.4,27.9,100.3,135.9,109.2,172.3
			c34.4,141.2-9.7,216-104.9,224.8c-104.2,12.2-118.7-73.7-124.8-115.5L1675.9,2447.8z"/>
	</g>
	<g>
		<path class="st4" d="M1821.5,2763.6c-37.7,0-56.7-17.5-67.7-47.8c-4.6-12.9,13.1,0.7,13.1,0.7c3.8,4.9,166.2,52,151.7-144.4
			c17,69.5,14,123-8.6,154.6c-14.8,20.8-38.9,32.8-71.7,35.8l-0.7,0.1C1832,2763.3,1826.6,2763.6,1821.5,2763.6z"/>
	</g>
	<g>
		<path class="st5" d="M1821.3,2806.7c-101.4,0-115.5-96.6-120.3-129.7l30-4.4c8.6,58.9,27.6,112.1,108,102.7
			c37-3.4,64.2-17.2,81.3-41.1c24.8-34.7,28.5-91.8,10.6-165c-3.3-13.7-34.5-134.3-100.4-161.9c-47.6-20-111.3,1.9-141.9,48.9
			l-25.4-16.6c38.3-58.6,118.6-85.7,179.1-60.3c78,32.7,112.1,158,118.1,182.7c20.3,83.2,15.1,147.1-15.4,189.8
			c-22.4,31.4-57,49.4-102.8,53.6C1834.9,2806.3,1827.9,2806.7,1821.3,2806.7z"/>
	</g>
	<g>
		<path class="st5" d="M1764.2,2690.7c4.4,41.3,28.9,92.1,77.5,84.3c0,0,0,30.3,0,30.3C1781.1,2800.9,1758.6,2744.3,1764.2,2690.7
			L1764.2,2690.7z"/>
	</g>
	<g>
		<path class="st5" d="M1821.1,2677.1c9.8,36.6,35.8,90.8,81.4,77.7c0,0,4.4,30,4.4,30C1846.7,2789.1,1822.5,2727.2,1821.1,2677.1
			L1821.1,2677.1z"/>
	</g>
	<g>
		<path class="st1" d="M1196.4,1535.7l-38.7,59.3l-97.6,149.6l-79.7,122.1c0,0-437.7-606.1-494-639.8
			c-65.1-12.2-204,48.2-241.9-31.9c-4.5-9.5-6.4-20.7-6.2-32.6c0.4-22.6,8.5-47.8,20.7-69.7c5.6-9.9,12-19.2,18.9-27.2
			c8.8-10.1,19-19.1,30.2-27.2c56.4-40.7,137.9-56.5,195.9-64.5c-10.7-27.9-21.9-72.6,11.1-91.9c51-30.3,83.7,38,154.1,99.4
			c84.5,73.7,187.8,179.6,280.5,279.1C1084.2,1404.8,1196.4,1535.7,1196.4,1535.7z"/>
	</g>
	<g class="st6">
		<path class="st3" d="M1196.4,1535.7l-12.5,19.2c-9.8-11.5-117.7-136.9-245.9-274.5c-92.7-99.5-196.1-205.4-280.5-279.1
			c-70.4-61.4-103-129.8-154-99.4c-3.1,1.8-5.8,3.8-8.2,6.1c2.8-10.5,8.9-19.7,19.9-26.1c51-30.3,83.7,38,154.1,99.4
			c84.5,73.7,187.8,179.6,280.5,279.1C1084.2,1404.8,1196.4,1535.7,1196.4,1535.7z"/>
	</g>
	<g>
		<path class="st4" d="M1060.1,1744.6l-79.7,122.1c0,0-437.7-606.1-494-639.8c-65.1-12.2-204,48.2-241.9-31.9
			c-4.5-9.5-6.4-20.7-6.2-32.6c13,15.5,37.2,32.5,81.6,35.8c74,5.5,157.7-50.3,220.9,9.6c50.5,47.9,397.6,544.1,486.8,491.6
			C1055,1683.3,1062.7,1705.7,1060.1,1744.6z"/>
	</g>
	<g>
		<path class="st7" d="M1196.4,1535.7l-38.7,59.3c-134.7-58.8-229.9-164-280.1-251.7l-45.4-94.3l117.5,11.5
			C1084.2,1404.8,1196.4,1535.7,1196.4,1535.7z"/>
	</g>
	<g>
		<path class="st8" d="M426.2,1010.5c-63.8,20.8-67.1,73.3-23.1,83.7c46,10.9,132.9-24.9,127.1-67.3
			C526.5,999.7,478.7,993.4,426.2,1010.5z"/>
	</g>
	<g>
		<path class="st8" d="M305.1,1094.6c-32.1,11.5-39.4,45.6-15.9,53.3c26.6,8.7,69.3-19.2,61.6-45.6
			C348.1,1093.2,330.2,1085.6,305.1,1094.6z"/>
	</g>
	<g>
		<path class="st8" d="M284.6,1078.6c-2.1-8.4,4.2-13.9,4.2-13.9l38.3-30.3c0,0,10.5-4.2,13.7,3.6
			C352.1,1065.3,297.4,1090.6,284.6,1078.6z"/>
	</g>
	<g>
		<path class="st5" d="M968.1,1875.5c-172.4-238.7-441.3-600.1-487.4-634.2c-19.1-2.7-46.2,0.8-74.8,4.6
			c-64.6,8.5-145,19.1-175.1-44.5c-20.1-42.6,2.4-107.6,35.7-145.9c40.5-46.5,111.7-77.4,217.3-94.1c-16.8-58.2,6.9-82.8,23.6-92.6
			c46.8-27.9,81,8.4,120.5,50.4c14.8,15.8,31.7,33.7,51.1,50.6c205.4,179.3,525.5,552.2,528.7,556l-23,19.7
			c-3.2-3.7-321.8-375-525.6-552.9c-20.6-18-38-36.4-53.3-52.7c-42.2-44.9-59.1-59.3-83-45.1c-22.3,13-14.9,47.1-4.7,73.4
			c1.7,4.3,1.3,9.2-1.1,13.2c-2.4,4-6.4,6.7-11,7.3c-108,14.9-178.9,43.3-216.7,86.6c-26.5,30.4-45.3,83.1-31.2,113
			c19.1,40.5,71.6,36.9,143.7,27.4c32.6-4.3,63.3-8.4,87.2-3.9c1.8,0.3,3.5,1,5,1.9c57.3,34.3,453.5,581.6,498.5,643.9L968.1,1875.5
			z"/>
	</g>
	<g>
		<path class="st9" d="M1314.8,2394.1c7.5,162.3,93.5,292.9,123.7,420.4c17.4,69.9,28.9,294.5-163.7,287
			c-147.6-5.2-125.3-182.9-126.6-215.3c-21-27.1-228.7-287.4-260.7-656.6L1314.8,2394.1z"/>
	</g>
	<g>
		<path class="st1" d="M1274.8,3101.5c-52-1.8-82.9-25.1-101.2-55.9c-33.6-56.5-24.5-138.4-25.4-159.4
			c-17.6-22.6-165.4-208-232.2-483.6c-13.2-54.3-23.2-112.2-28.5-173l427.3,164.5c7.6,162.3,93.5,292.9,123.7,420.4
			C1455.9,2884.4,1467.4,3109,1274.8,3101.5z"/>
	</g>
	<g>
		<path class="st4" d="M1299.6,2869.8c-3.5,16.5-112.3,25.9-113.9,5.7c-1.1-14.4,11.4-41.2,31.8-44.9
			C1246.4,2825.3,1303.5,2851.2,1299.6,2869.8z"/>
	</g>
	<g>
		<path class="st4" d="M1274.8,3101.5c-52-1.8-82.9-25.1-101.2-55.9c24.6,10.9,58.6,20.3,101.2,18.2c108-5.2,146-106.4,133.5-205.5
			c-15.7-124.3-79.5-225.5-99.8-241.5c-35.1-27.6-236.7-2.2-392.4-214.2c-13.2-54.3-23.2-112.2-28.5-173l427.3,164.5
			c7.6,162.3,93.5,292.9,123.7,420.4C1455.9,2884.4,1467.4,3109,1274.8,3101.5z"/>
	</g>
	<g>
		<path class="st5" d="M1284.2,3116.8c-3.3,0-6.6-0.1-10-0.2c-146.7-5.2-142.6-163.7-141.3-215.8c0.1-3.5,0.2-6.8,0.2-9.4
			c-56.1-72.5-231.5-324-260.6-660.5l30.2-2.6c28.7,331.8,203.3,578.9,256.1,646.7l4.4,5.7l0.2,4.8c0.2,4,0,9.3-0.1,16.1
			c-2.1,84.1,8.6,181,112.1,184.7c50.9,2,90-13.4,116.3-45.7c54.8-67.3,41.3-186.2,32.2-222.5c-11.1-46.9-29.9-94.1-49.7-144.2
			c-34.2-86.1-69.5-175.2-74.4-279.2l30.3-1.4c4.6,98.9,39,185.6,72.3,269.4c20.3,51.1,39.4,99.4,51,148.2
			c10.7,42.9,24.7,171.5-38.2,248.8C1384.3,3097.7,1340.3,3116.8,1284.2,3116.8z"/>
	</g>
	<g>
		<path class="st1" d="M1680,2400.8c0,0-59.5,158.8-326.8,158.8s-336.7-68.8-336.7-68.8c-70.4-61.5-111.7-131.5-132.3-204.8
			c-66.9-238,85.8-510.3,176.1-633.8c0,0,180.1-232.1,309.6-239.3c129.5-7.2,315.8,387.7,315.8,387.7c9.5,114.5,22.4,254.2,41.7,396
			c1.2,8.6,2.2,17.2,2.9,25.8C1734.5,2275.9,1727.5,2330.8,1680,2400.8z"/>
	</g>
	<g>
		<path class="st4" d="M1680,2400.8c0,0-59.5,158.8-326.8,158.8s-336.7-68.8-336.7-68.8c-70.4-61.5-111.7-131.5-132.3-204.8
			c26.3,30.8,154.9,158.7,456.6,130c94-8.9,226.2-124.7,305.9-173.6c44-96,9.9-235.1,48.2-246.2c0,0,18.2,250.1,35.3,226.3
			C1734.5,2275.9,1727.5,2330.8,1680,2400.8z"/>
	</g>
	<g>
		<path class="st4" d="M1565.3,1610.8c-4.9,1.6-10,3.2-15.4,4.7c-174.1,49.3-319.7,20.5-433-40.3c44.6-44.9,117.4-92.8,225.3-92.8
			C1430.6,1482.3,1507.1,1542.6,1565.3,1610.8z"/>
	</g>
	<g>
		<path class="st5" d="M1685.5,1800.5c12.5,49.2,21,101.1,28.9,151.3c7.7,50.5,9.5,101.6,16.3,152.2
			c14.5,124.4,38.3,191.9-38.2,305.2c-11.6,16.2-36-0.1-25.1-17c71.6-104.9,45.8-169.6,33.2-284.6c-5.4-51-14.4-101.6-16.6-152.8
			C1682.1,1904,1681.3,1851.2,1685.5,1800.5L1685.5,1800.5z"/>
	</g>
	<g>
		<path class="st5" d="M1016.4,2490.7c-138.7-94.4-186.4-260.9-159.1-421.4c26.7-154.2,100.8-299.8,202.9-417.2
			c-93.8,163.5-179.2,342.4-174.6,534.4C887.4,2301.1,939.8,2406.8,1016.4,2490.7L1016.4,2490.7z"/>
	</g>
	<g>
		<path class="st1" d="M1821.1,2597c-15.1,135-127.9,161.1-207.8,142.2c-96.7-22.8-139.1-111.7-169.8-183.7l0,0
			c-84.2,18.5-235.3,13.2-316.2-18.4l213.5-121.1l386.5-219.4c8.8,89.8,38.4,192,48.6,283.8c0,0,31.6,6.1,38.6,31.9
			C1823.2,2544.7,1821.1,2597,1821.1,2597z"/>
	</g>
	<g>
		<path class="st4" d="M1786.3,2594.4c-11.8,100.4-84,115.5-126,115.5c-13.2,0-26.3-1.5-39-4.5c-43-10.1-73.5-36.7-97.4-70.7
			c0,0,50.4,34,138.6,28.3C1750,2657.3,1786.3,2594.4,1786.3,2594.4z"/>
	</g>
	<g>
		<path class="st4" d="M1760.5,2385.4c-57.3-38.6-194.5,113.1-317.1,170.1l0,0c-84.2,18.5-235.3,13.2-316.2-18.4l213.5-121.1
			c185.9-30.7,272.7-101.6,305.9-173.6l80.6-45.8C1733.1,2256.2,1748.1,2321.4,1760.5,2385.4z"/>
	</g>
	<g>
		<path class="st10" d="M1557.1,2340.6c-76.6,147.5-272.2,181.3-415.6,143.7c-96.6-23.5-153.9-76.5-186.8-139.7
			c69.7,43.5,192.1,89.7,385.9,71.3c7.7-0.7,15.7-2.2,24-4.3C1449.3,2395.3,1511.8,2370.2,1557.1,2340.6z"/>
	</g>
	<g>
		<path class="st11" d="M1364.6,2411.6c-8.2,2.1-16.2,3.6-24,4.3C1348.9,2414.6,1356.8,2413.1,1364.6,2411.6z"/>
	</g>
	<g>
		<path class="st5" d="M1742.3,2195.1c4.6,94.8,27.8,190,33.5,285.2c-7.9-47.4-20.1-93.8-32.1-140.3c-11.9-46.6-24.1-93.3-31.6-142
			L1742.3,2195.1L1742.3,2195.1z"/>
	</g>
	<g>
		<path class="st5" d="M1821.1,2597c-1.7,178.5-221.5,210.6-323.4,89c-32.4-37.1-52.8-81-70.5-123.6l20,10.3
			c-96.3,17.5-233.3,11.5-320-35.6c52.2,10.9,104.7,13.3,157.6,14.1c51.5,0.4,104.9-1.8,154.8-12.9c0,0,14.1-3.1,14.1-3.1
			c19.8,45.3,40.3,91.9,70.4,128.3c52.1,67.8,155.9,89.3,229.1,43.9C1791.1,2683.6,1812.4,2640.1,1821.1,2597L1821.1,2597z"/>
	</g>
	<g>
		<path class="st8" d="M1141.6,2484.3c170.6,44.7,415.3-11.7,445.2-240.7c16.6-127.3-38-516.3-298-553.6
			c-187.8-26.9-338.5,161.2-370.9,385.1C904.4,2205.1,911.6,2428.3,1141.6,2484.3z"/>
	</g>
	<g>
		<path class="st12" d="M1557.1,2340.6c-76.6,147.5-272.2,181.3-415.6,143.7c-96.6-23.5-153.9-76.5-186.8-139.7
			c69.7,43.5,192.1,89.7,385.9,71.3c7.7-0.7,15.7-2.2,24-4.3C1449.3,2395.3,1511.8,2370.2,1557.1,2340.6z"/>
	</g>
	<g>
		<path class="st5" d="M1199.3,2983.1c5.5,38,23.7,100.2,68.9,102.9c0,0-4.9,29.9-4.9,29.9C1206.5,3100.8,1196,3032.8,1199.3,2983.1
			L1199.3,2983.1z"/>
	</g>
	<g>
		<path class="st5" d="M1284.1,2979.3c2.9,30.4,27.5,109.4,68.4,93.1c0,0,8.3,29.2,8.3,29.2
			C1295.3,3112.5,1279.7,3027.6,1284.1,2979.3L1284.1,2979.3z"/>
	</g>
	<g>
		<polygon class="st5" points="506.8,958.8 548.5,981.9 501.4,988.7 506.8,958.8 		"/>
	</g>
	<g>
		<g>
			<g>
				<path class="st1" d="M1317.9,393.8c-3.4,38.8-72.1,115.1-150.5,190.5C1059.3,688.6,932.6,791,932.6,791
					c-137.2,28.9-263-71.8-288-130.6c-15.6,14.5-59.2,36-102.2-39.5c-6.6-11.6-12.2-25.4-16.6-41
					c-39.5-139.5,14.8-419.4,283.6-476.5c-30.4-32.8-21.6-71.2,27.3-82.2C1063.2-29,1331.9,235.9,1317.9,393.8z"/>
			</g>
			<g>
				<path class="st4" d="M1167.4,584.4C1059.3,688.6,932.6,791,932.6,791c-137.2,28.9-263-71.8-288-130.6
					c-15.6,14.5-59.2,36-102.2-39.5c-6.6-11.6-12.2-25.4-16.6-41c39.8,40.6,112.3,63.8,217.2-91.5
					C879.3,286.1,1095.6,502.2,1167.4,584.4z"/>
			</g>
			<g class="st13">
				<path class="st3" d="M1297.7,295.5C1221.1,157,1044.5,17.5,879,43.2c-38.8,6-54.1,30.4-45.4,57.4c3.9,12.1-2.9,25.2-15.4,27.9
					c-277.5,60.1-327.9,378.7-271.7,494.1c5.4,11.2,11,20.4,16.7,27.9c-6.9-7.6-13.9-17.3-20.8-29.5
					c-65.6-115.2-31.9-454.1,267-517.5c-30.4-32.8-21.6-71.2,27.3-82.2C1020.3-19.5,1231.7,146.9,1297.7,295.5z"/>
			</g>
			<g>
				<path class="st5" d="M883.3,811.3c-112.7,0-209.6-73.5-244.2-128.8c-9.8,5-23.2,9.2-39.1,6.7c-26.4-4-50.2-24.5-70.9-60.8
					c-37-65-46.4-200.9,9.2-324.6c34.1-76,104.2-172.2,245.7-209.9c-7.7-14.9-9.6-30.5-5.2-44.7c6.6-21.2,26-36.4,54.5-42.7
					c108.5-24.1,239.7,19.8,351,117.5c97.3,85.4,155.7,191.8,148.7,271.1c-8.5,95.8-351.9,376-391,407.7c-1.9,1.5-4.1,2.6-6.4,3
					C918,809.6,900.4,811.3,883.3,811.3z M932.5,791L932.5,791L932.5,791z M644.5,645.3c1.1,0,2.1,0.1,3.2,0.3
					c4.8,1,8.9,4.3,10.8,8.9c20.7,48.6,136.2,147.8,267.4,122.4c144.1-116.8,371.5-322.4,377-384.4l0,0
					c6.1-68.9-49.5-167.6-138.4-245.7C1060.3,55.5,939,14.1,840,36.1c-17.5,3.9-28.9,11.7-32.1,22.1c-3.2,10.1,1.4,22.8,12.6,34.9
					c3.7,4,5,9.7,3.3,14.9c-1.7,5.2-6,9.1-11.3,10.2C668.6,148.8,599,242.8,566,316.3c-49.6,110.5-44.3,237.9-10.5,297.2
					c15.6,27.4,32.6,43.3,49.1,45.8c15.1,2.3,26.4-7,29.6-9.9C637,646.7,640.7,645.3,644.5,645.3z"/>
			</g>
			<g>
				<path class="st14" d="M1189.1,501.4c-32.2,139.1-91.3,172.1-231.8,197.6c-154.1,27.9-300.9-80.8-284.2-269.3
					c12.6-142.2,148.9-257.2,289.7-233.8C1087,216.4,1227.1,337.6,1189.1,501.4z"/>
			</g>
			<g>
				<path class="st15" d="M1189.1,501.4c-32.2,139.1-91.3,172.1-231.8,197.6c-132.1,23.9-258.7-52.5-281.8-193.4
					c27.8,28.6,118.4,113.8,168.2,68.2c55.4-50.7-5.3-112.5,24.5-155.9c29.6-43.2,161.6,37,125.9-214.8
					C1109.2,236.9,1223.9,351.3,1189.1,501.4z"/>
			</g>
			<g>
				<path class="st5" d="M909.1,718.5c-64.5,0-125.1-22.5-171.4-64.8c-59.4-54.2-87.7-134.3-79.6-225.4
					c6.7-75.3,46.2-146.1,108.3-194.2c59.1-45.8,129.8-64.7,199-53.2c80.3,13.3,158.1,63.5,203.2,130.8
					c38.9,58.2,51.1,124.9,35.3,193.1l0,0c-34.3,148.2-100,183-243.8,209.1C942.9,717,925.9,718.5,909.1,718.5z M925.8,207.9
					c-49.4,0-98.3,17.3-140.8,50.1c-55.5,43-90.8,106-96.7,172.9c-7.2,81.4,17.6,152.6,69.8,200.3c51.3,46.9,122.9,66.1,196.6,52.7
					c138.3-25,189.4-55.5,219.7-186.1l0,0c13.8-59.8,3.1-118.4-31-169.4c-40.6-60.7-110.7-105.8-182.9-117.8
					C948.9,208.9,937.3,207.9,925.8,207.9z M1189.1,501.4L1189.1,501.4L1189.1,501.4z"/>
			</g>
		</g>
		<g>
			<path class="st1" d="M1099.4,372.3C912.5,479,835,664,790.8,880C553,1208,937.6,1498.6,1356.4,1579
				c386.3,74.3,620.8-48.9,703.8-250.3c128.8-340.8,18.8-669.2-99.8-793.1C1688.4,251.4,1297.9,258.9,1099.4,372.3z"/>
		</g>
		<g>
			<path class="st4" d="M792,1230.6c90.3,145.1,309.6,270.1,569.9,320c27.3,5.3,54.4,9.6,80.5,12.9c295.7,37.4,511-52,591-245.4
				c35.9-95.3,51.3-185.4,54.9-265.2c-8.3,63.5-24,131.8-50.8,202.8c-83.5,202-308.5,295.3-617.2,256.3c-27.3-3.5-55.5-8-84-13.5
				C1105,1454.1,904.7,1353.1,792,1230.6z"/>
		</g>
		<g>
			<path class="st5" d="M1570.8,1616.1c-67.6,0-140.1-7.4-217.2-22.3c-141.9-27.2-280.6-79-390.4-145.8
				c-119.2-72.5-201.7-160-238.4-252.8c-41.5-104.9-23.6-216,51.8-321.4c36.6-177.4,105.9-395.1,315.3-514.7
				c193.5-110.5,594.3-132,879.6,166.1c121.7,127.1,234.1,462.1,103,808.9c-44.9,108.9-130.2,190.8-246.8,237.2
				C1752.7,1601.2,1666.7,1616.1,1570.8,1616.1z M1099.4,372.3l7.5,13.2c-158.2,90.3-248.3,239.2-301.3,497.6l-0.7,3.2l-1.9,2.7
				c-71.6,98.8-88.5,198.1-50.1,295.1c67.6,170.7,311.2,323.4,606.3,380c75.7,14.6,146.9,21.7,212.8,21.7
				c235.1,0,403.4-91.2,474.2-262.9c126.2-334,19.5-655.4-96.7-776.8c-274-286.3-657.7-266.3-842.7-160.7L1099.4,372.3z M790.8,880
				L790.8,880L790.8,880z"/>
		</g>
		<g>
			<path class="st8" d="M1340.6,1202.1c-23.8-2-144.7-34-197-1.2c-56.1,35.2-50.8,113.8-7.8,171c48.1,63.8,168.9,101.6,277.4,82.2
				c141.3-25.3,193.5-154.9,106.1-226.2C1476.5,1192.9,1398.9,1207,1340.6,1202.1z"/>
		</g>
		<g>
			<g>
				<path class="st1" d="M1387.1,356.8c0,0-111.2,19.1-172.1-31.7c-44.3-51.6-29-105.9-8.6-139.3c57,73.3,104.1,13.7,221.4,78.9
					c1.4-62.2,60.6-95.8,109.4-89.4c13.2,113.7,125,156,218.9,201.4c251.5,137.5,292.8,282.5,328.5,362.5"/>
			</g>
			<g>
				<path class="st5" d="M1387.1,356.8c-59.2,16.3-133.1,18.1-183.6-21.9c-42-43.3-44.8-108.6-10-157.1c5.2-9.1,18.8-9.8,24.9-1.4
					c25.8,35.1,54.2,35.4,96.3,38.1c41.8,2.7,84.1,16.2,120.5,36.9c0,0-22.5,12.9-22.5,12.9c0.1-64.9,64.3-112.6,126.6-104.1
					c7,0.9,12.3,6.5,13.1,13.3c1.9,15.4,5.8,30.5,12,44.5c19.9,44.2,59.2,73.3,101.5,97.1c35.9,20.7,76.7,36.3,113.5,57.2
					c112.5,63.4,217,150.3,276.9,267.2c16.3,30.7,29,63.2,42.3,93.5l-27.7,12.4c-13.9-31.8-25.9-62.6-41.5-91.9
					c-57.1-111.4-157-193.9-264.9-254.7c-81.8-44.5-185.9-75.8-227.9-168.4c-7.5-17-12.3-35.1-14.5-53.3l13.1,13.3
					c-21.9-2.8-45.9,3.9-63.5,17.7c-17.9,13.7-28.4,34.5-28.8,57c0,11.1-12.9,18.4-22.4,13c-16.9-9.3-34.4-17.3-52.5-22.8
					c-66.1-22.1-124.8,5.7-173.6-60.1c0,0,24.9-1.4,24.9-1.4c-21.3,39.6-22.5,85.7,7.1,121.5
					C1259.9,346.3,1333.7,357.9,1387.1,356.8L1387.1,356.8z"/>
			</g>
		</g>
		<g>
			<g>
				<path class="st16" d="M1756.4,558.1c27.8-164.2,371.4-361.9,588.3-250.3c46.9,24.1,45.5,65.5,5.9,90.8
					c286.8,144,230.8,497.4,133.5,596.9c-63.8,65.3-102.4,31.8-114.3,12.9c-41.1,53.1-195.8,121.8-327.5,56
					C2042.2,1064.4,1740.1,653.9,1756.4,558.1z"/>
			</g>
			<g>
				<path class="st17" d="M1756.4,558.1c27.8-164.2,371.4-361.9,588.3-250.3c46.9,24.1,45.5,65.5,5.9,90.8
					c286.8,144,230.8,497.4,133.5,596.9c-63.8,65.3-102.4,31.8-114.3,12.9c-41.1,53.1-195.8,121.8-327.5,56
					C2042.2,1064.4,1740.1,653.9,1756.4,558.1z"/>
			</g>
			<g>
				<path class="st1" d="M2562.5,769c-3.8,97.5-37.5,184.5-78.5,226.5c-63.8,65.3-102.4,31.8-114.3,12.9
					c-41.1,53.1-195.8,121.9-327.5,56c0,0-33.3-45.2-77.1-109.1c-88.3-128.6-219.6-333.2-208.7-397.2
					c27.8-164.1,371.4-361.8,588.3-250.3c46.8,24.1,45.5,65.5,5.9,90.8C2516.4,481.8,2567.6,635.2,2562.5,769z"/>
			</g>
			<g>
				<path class="st4" d="M2042.2,1064.4c131.7,65.9,286.4-2.9,327.5-56c11.9,18.9,50.5,52.4,114.3-12.9c41-42,74.7-129,78.5-226.5
					c1.3-34.5-1.1-70.3-8.3-105.9c0,0.8-0.1,1.7-0.1,2.5c-3.8,97.5-37.5,184.5-78.5,226.5c-63.8,65.3-102.4,31.8-114.3,12.9
					c-41.2,53.1-272.4,15.1-319.7,61C2005.4,1001.2,2042.2,1064.4,2042.2,1064.4z"/>
			</g>
			<g class="st13">
				<path class="st3" d="M1803.1,463.6c114.7-120.4,331.4-215,492.7-144.8c37.8,16.4,46.8,45.3,30.9,70.4
					c-7.2,11.3-3.7,26.4,8.2,32.4c266,134.9,232.3,472.1,144.5,574.4c-8.5,9.9-16.6,17.8-24.3,23.9c9-5.9,18.7-13.9,29-24.5
					c97.4-99.6,153.3-453-133.5-597c39.6-25.3,40.9-66.6-5.9-90.8C2168.9,217.4,1909.7,330.2,1803.1,463.6z"/>
			</g>
			<g>
				<path class="st5" d="M1798.2,469.9c47.4-105.3,193.7-176.9,302.2-200.1c76.8-16,159.4-15.4,232.7,15.8
					c15.3,7,31.4,14.2,43.5,26.5c33,32.8,18.6,76.9-17.9,99.2c0,0-1.4-26.3-1.4-26.3c32,16.2,62.3,36.1,89.3,60
					c111.1,95.3,150.1,253.1,123.2,393.8c-13.7,70.6-40.6,145.2-100.4,189.5c-16.6,11.8-36.4,21.4-57.2,20.7
					c-22.6-0.2-43.4-13.8-55.4-32.4c0,0,24.8,1.2,24.8,1.2c-38.4,50.2-104.6,73.6-164.7,82.1c-59.9,8-124.1-2.4-174.7-35.4
					c28,9.9,56.6,15.9,85.3,16.9c70.6,2.9,141.1-19.2,199.9-57.2c11.3-7.6,21.9-16,30.3-25c5.4-6.7,15.3-7.7,21.9-2.1
					c29.8,45.5,76,9.1,102.1-21.8c31.7-40.6,48.9-91.6,58.3-141.9c24.9-130.6-10.3-277.2-113.4-365.5c-25-22-53-40.5-82.9-55.7
					c-10-4.7-11.1-19.6-2.1-25.8c36.9-23.9,26.4-52.4-10.8-68.2c-69.1-33.1-149.6-32.5-223.2-15.4c-57.1,13.2-112.1,35.7-163.5,64.4
					C1891.7,396.7,1846.1,432.3,1798.2,469.9L1798.2,469.9z"/>
			</g>
			<g>
				<path class="st18" d="M2036,921.8c5,29.6,27.3,53.2,56.4,60.4c136.3,33.8,280-41.9,309.6-216c25.1-147.8-82.8-301-232.1-314.7
					c-84-7.7-185.5,24.4-249.3,94.6c-23.8,26.2-26.3,65.4-5.7,94.3C1959.9,703.2,2015.9,802.7,2036,921.8z"/>
			</g>
			<g>
				<g>
					<path class="st14" d="M2242.2,974.7c-46.7,17.5-98.8,20.1-149.8,7.5c-29.1-7.2-51.4-30.8-56.4-60.4
						c-20.1-119.2-76.2-218.6-121.1-281.5c-20.6-28.8-18.1-68.1,5.7-94.3c63.8-70.2,165.3-102.4,249.3-94.6
						c26.9,2.5,52.5,9.5,76.2,20.2c0,0,0,0,0,0c107.7,48.6,176.4,173.3,155.9,294.5C2383.5,875.1,2320.4,945.5,2242.2,974.7z"/>
				</g>
				<g>
					<path class="st5" d="M2156.2,992.7c-21.3,0-42.9-2.7-64.4-8c-30.3-7.5-53.2-32-58.3-62.5c-20.4-120.7-76.8-219.1-120.7-280.4
						c-21.1-29.5-18.7-70.5,5.8-97.5c60.4-66.5,159.1-104,251.4-95.4c26.6,2.5,52.5,9.3,77,20.5c110,49.7,177.7,177.5,157.4,297.3
						c-17.2,101.9-76.1,178.6-161.4,210.5l0,0C2215.5,987.5,2186.1,992.7,2156.2,992.7z M2144.9,452.9
						c-82.5,0-169.3,36.5-222.4,94.9c-22.9,25.2-25.2,63.5-5.5,91c44.1,61.7,101,160.8,121.5,282.5c4.8,28.4,26.2,51.3,54.5,58.3
						c50.5,12.5,101.8,10,148.3-7.4l0,0c83.5-31.2,141.2-106.5,158.1-206.5c19.9-117.6-46.5-243-154.4-291.7
						c-24-10.9-49.3-17.6-75.4-20C2161.5,453.3,2153.2,452.9,2144.9,452.9z"/>
				</g>
			</g>
			<g>
				<path class="st15" d="M2242.2,974.7c-46.7,17.5-98.8,20.1-149.8,7.5c-29.1-7.2-51.4-30.8-56.4-60.4
					c-20.1-119.2-76.2-218.6-121.1-281.5c-20.6-28.8-18.1-68.1,5.7-94.3c63.8-70.2,165.3-102.4,249.3-94.6
					c26.9,2.5,52.5,9.5,76.2,20.2c-4.7,0.3-165.4,10.1-171.9,95c-7.6,99.1,90,76.4,110.6,194.5
					C2194.4,817,2093.5,968.1,2242.2,974.7z"/>
			</g>
			<g>
				<path class="st5" d="M2156.6,1005.3c-22.4,0-45.1-2.8-67.9-8.4c-35.2-8.7-61.8-37.2-67.7-72.6c0,0,0,0,0,0
					c-20-118.4-75.5-215-118.5-275.2c-24.5-34.3-21.7-81.9,6.8-113.3c63-69.3,165.8-108.4,261.9-99.5
					c73.1,6.7,139.7,44.7,187.5,106.8c50.2,65.3,71.5,147.6,58.2,225.6c-14.6,85.8-56,153.3-119.8,195.1
					C2255.2,991.3,2206.9,1005.3,2156.6,1005.3z M2051,919.3c4,23.5,21.7,42.4,45.1,48.2c65.5,16.3,131,6,184.4-29
					c56.6-37.1,93.4-97.5,106.5-174.8c11.8-69.8-7.3-143.4-52.4-202.1c-42.5-55.3-101.6-89.1-166.2-95
					c-85.6-7.9-180.8,28.2-236.7,89.7c-18.9,20.8-20.8,52.5-4.6,75.2C1972.1,694.3,2030.1,795.2,2051,919.3L2051,919.3z"/>
			</g>
		</g>
		<g>
			<g>
				<path class="st19" d="M1402.4,1428.3c76.7-14,136.9-72.1,105.3-140.7c-40.7-72.1-105-16.1-223.7-41.2
					c-70.5-14.9-91.1-44.7-125.4-24.6c-31.3,18.4-42.1,83.2-1.1,132.9C1205.1,1412.4,1308,1445.6,1402.4,1428.3z"/>
			</g>
			<g>
				<path class="st5" d="M1407.9,1427.2c-1.8,0.4-3.6,0.7-5.5,1.1c-68.7,12.6-141.8-1.5-194.9-32.4c-19.9-11.6-37.1-25.5-50.1-41.3
					c-40.9-49.6-30.2-114.5,1.1-132.9c15.7-9.2,28.5-8,44.5-2.5c19.1,6.5,42.6,19,81,27.1c60.8,12.9,107.3,4.5,143.7,2.9
					c34.7-1.5,60.1,3.2,79.9,38.3C1538.6,1354.5,1481.9,1411.5,1407.9,1427.2z"/>
			</g>
			<g>
				<path class="st3" d="M1267.7,1290.1c-57-16.4-66.3-45.1-64.7-70.9c19.1,6.5,42.6,19,81,27.1c60.8,12.9,107.3,4.5,143.7,2.9
					C1429.6,1302.9,1357.6,1315.9,1267.7,1290.1z"/>
			</g>
			<g>
				<path class="st20" d="M1407.9,1427.2c-1.8,0.4-3.6,0.7-5.5,1.1c-68.7,12.6-141.8-1.5-194.9-32.4c26.5-29.3,75.7-40.7,116.5-17
					c35.9-13.8,69,6.6,81.2,41.5C1406.2,1422.7,1407,1425,1407.9,1427.2z"/>
			</g>
			<g>
				<path class="st5" d="M1318.5,1348.3c0,0,32.7,25.1,22,26.6c-12.7,1.7-35.6,12-41.4,24.8
					C1299.2,1399.6,1298.9,1369.7,1318.5,1348.3z"/>
			</g>
			<g>
				<path class="st5" d="M1350.9,1444.3c-80.4,0-160-31.2-202.3-82.4c-23.3-28.2-33.6-65-27.7-98.4c4.1-23.3,15.7-42.1,31.8-51.6
					c25.9-15.1,46.4-6.9,72.3,3.6c15.6,6.3,34.9,14.1,61.2,19.7c46.3,9.8,83.3,6.9,115.9,4.3c48.9-3.8,87.5-6.9,115.3,42.4l0.4,0.8
					c13.1,28.5,12.9,57.4-0.7,83.6c-18.8,36.2-61,63.6-112.8,73.1l0,0C1386.8,1442.7,1368.8,1444.3,1350.9,1444.3z M1181.5,1226.3
					c-5.8,0-11.1,1.6-17.2,5.2c-10.2,6-18,19.4-20.9,35.9c-4.8,26.9,3.8,56.8,22.8,80c46,55.8,146.7,85.7,234.2,69.7l0,0
					c44.3-8.1,81.3-31.6,96.7-61.2c10.3-19.9,10.5-41.2,0.5-63.2c-20.7-36.2-46.6-34.2-93.5-30.5c-32.5,2.6-72.9,5.7-122.4-4.8
					c-28.3-6-48.7-14.2-65.1-20.8C1200.4,1230.1,1190.3,1226.3,1181.5,1226.3z"/>
			</g>
		</g>
		<g>
			<path class="st5" d="M1199.8,1254.6c-96.5-15.6-168.6-73.2-144.8-190.3c29.1-142.7,137-231.4,217.9-211.7
				c75.1,18.3,116.3,121.8,110.1,232.9C1376.7,1200.8,1310.6,1272.5,1199.8,1254.6z"/>
		</g>
		<g class="st13">
			<path class="st3" d="M1214.1,907.6c-25.4-4.4-78.7,37.9-82.5,96c-4,62.2,59.4,79.9,84,15.4C1229,984.2,1240.8,912.2,1214.1,907.6
				z"/>
		</g>
		<g>
			<g>
				<path class="st1" d="M1421.1,1088.8c115.1-121.9,288.2-152.6,315.1,29.9"/>
			</g>
			<g>
				<path class="st5" d="M1421.1,1088.8c35.2-65.9,101.9-117,177.5-125c66.2-7,125.2,33.1,137.5,99.2c3.6,18.8,3.7,37.5,0.1,55.7
					c-16.1-29.4-31.6-59.5-56.6-79.5C1604.2,980.3,1492.5,1047.9,1421.1,1088.8L1421.1,1088.8z"/>
			</g>
		</g>
		<g>
			<g>
				<path class="st1" d="M1059.4,978.9c-15.1-195-107-213.8-193.3-112.3"/>
			</g>
			<g>
				<path class="st5" d="M1059.4,978.9c-16.5-39.1-27-76.7-47.7-111.4c-16.7-28.5-38.3-45-72.9-34.2c-24.8,7.2-47.9,21.5-72.7,33.3
					c9.4-29.8,28-54.7,55.3-71.6c53.9-32.1,109.3-1.4,130.2,52.8C1068.1,889.9,1069.4,935.4,1059.4,978.9L1059.4,978.9z"/>
			</g>
		</g>
	</g>
	<g>
		<path class="st1" d="M2646.6,1572.1c-6.8,74.4-93.9,154.1-193.3,130.9c-52.2-13.1-103-51-141.6-40.9
			c-57.1,8.5-530.2,286.6-614.7,336.5c-8.3,4.9-12.9,7.6-12.9,7.6l-157.2-384.1c13.7-3.7,27.4-7.8,41.2-12.3
			c208.9-68.8,426.8-228.9,704.1-303.3c88.5-20.5,223.1-65.3,255.7-14.4c16.3,25.4,8.3,46.7-7.1,64.4c-6.7,7.7-14.8,14.8-23,21.1
			c12.1,6.4,65,29.7,104.4,72.7c10.7,11.7,20.4,24.9,28.1,39.6c5.4,10.3,9.7,21.4,12.6,33.3
			C2646.8,1538.2,2648.2,1554.5,2646.6,1572.1z"/>
	</g>
	<g class="st6">
		<path class="st3" d="M2520.8,1356.5c4-11.3,1-46.8-13.8-56c-32.9-20.5-155.6,9.2-264.5,41.9c-160.2,48.2-282.7,124.2-473.1,204.4
			c-102.2,43-164.3,58.5-201.3,63c208.9-68.8,426.8-228.9,704.1-303.3c88.5-20.5,223.1-65.3,255.7-14.4
			C2544.2,1317.5,2536.2,1338.8,2520.8,1356.5z"/>
	</g>
	<g>
		<path class="st4" d="M2646.6,1572.1c-6.8,74.4-93.9,154.1-193.3,130.9c-52.2-13.1-103-51-141.6-40.9
			c-57.1,8.5-530.2,286.6-614.7,336.5c11.5-80.8,558.8-388.2,622.8-393.1c62.7-4.8,131.7,75.5,238.9,35.1
			c64-24.1,80.5-81.5,84.4-117.4C2646.8,1538.2,2648.2,1554.5,2646.6,1572.1z"/>
	</g>
	<g>
		<path class="st8" d="M2339.1,1416.2c28-56,126-25.9,152.5,20.6c29.6,52-53.2,99.1-101.1,80.8
			C2349.3,1501.9,2321.2,1452.2,2339.1,1416.2z"/>
	</g>
	<g>
		<path class="st8" d="M2450.8,1579.2c5.3-20.9,53.8-20.3,67.6,6c13.6,26-14.4,40.7-35.6,37
			C2459,1618.1,2447.4,1592.5,2450.8,1579.2z"/>
	</g>
	<g>
		<path class="st8" d="M2524.6,1525.3c8.2-19.9,56.2-19,67.2,9.1c10.7,27.3-14.4,40.7-35.6,37
			C2532.4,1567.3,2518.3,1540.5,2524.6,1525.3z"/>
	</g>
	<g>
		<path class="st8" d="M2630.4,1489.9c-5.4,12.4-23.1,18.4-37.6,15.9c-23.8-4.1-37.1-28.2-33.7-41.6c3.4-13.2,24.5-18.4,43.1-13.9
			C2613,1462,2622.7,1475.2,2630.4,1489.9z"/>
	</g>
	<g>
		<polygon class="st5" points="2450.2,1367.7 2501,1362.7 2494.8,1392.4 2450.2,1367.7 		"/>
	</g>
	<g>
		<path class="st5" d="M1684.1,2006.1c40.2-44.5,95.9-73.6,146.4-104.6c141.6-84.1,284.6-165.9,433-237.6
			c32.8-15.5,59.2-25.3,94-13.4c70.7,23.6,113.7,61.8,190.1,28.2c45-20.9,83-65.4,84.6-116.5c3.1-83-73.1-139-141.3-171.2
			c-9.6-4.6-10.9-18.7-2.5-25.1c9.2-7.2,17.9-14.9,24.1-23c10.6-12.7,12.4-28.7,2.9-42.4c-6.1-9.1-15.6-12.8-28.6-15.1
			c-21.9-3.5-46-0.6-68.4,2.9c-47.7,7.8-95.1,22-142.3,33.2c-189.6,51.2-359.5,151.2-536.7,234.1c-67.1,31.3-137.7,60.1-212.4,66.5
			c88.6-43.3,177.2-82.9,264.2-128.3c152.3-79.5,310.1-157.8,477.4-202.4c48.4-11.1,95.5-24.9,145-33.1
			c41.8-5.7,99.4-14.6,127.5,25.9c27,41.8,0.5,79.9-33.6,105.3c0,0-2.2-25.3-2.2-25.3c50,24.3,102.7,57.7,134.3,110.5
			c20.7,34.7,28.7,78,19.1,117.5c-3.8,15.4-10.1,29.2-18,42.9c-1.9,2.9-7.6,11.3-9.7,14.3c-2.6,3.1-8.5,10.3-11,13.2
			c-2.4,2.3-9.5,9.6-12.1,12.1c-42.5,38.9-103.8,56.8-160.2,42.3c-34.2-8.8-65.9-27.2-98.7-37.5c-21.1-6.5-33.6-4.4-52.5,3.7
			c-20.1,8.4-39.8,18.4-59.4,28.3c-123.5,64.5-267.2,149.6-390,218.1C1795,1958.2,1742.4,1992.3,1684.1,2006.1L1684.1,2006.1z"/>
	</g>
	<g>
		<g>
			<path class="st3" d="M306.3,692.4c17.3-28.3,25.8-62.3,22.2-97.9c-8.9-86.3-86-149.1-172.3-140.2C69.9,463.2,7.1,540.3,16,626.6
				c8.9,86.3,86,149.1,172.3,140.2c24-2.5,46.2-10.2,65.5-22l72.7,16.3L306.3,692.4z"/>
		</g>
		<g class="st13">
			<g>
				<path class="st3" d="M159.3,484.4c80.6-8.3,153.2,46,169.7,123.5c0-5.5-0.2-11.1-0.8-16.8c-8.9-86.3-86-149.1-172.3-140.2
					c-86.3,8.9-149.1,86-140.2,172.3c0.6,5.7,1.5,11.2,2.6,16.6C18.6,560.5,78.7,492.6,159.3,484.4z"/>
			</g>
		</g>
		<g>
			<path class="st5" d="M172.1,782.8C85,782.8,10,716.7,0.9,628.2c-9.7-94.5,59.3-179.2,153.8-188.9c45.8-4.7,90.6,8.7,126.3,37.7
				c35.7,29,57.9,70.2,62.6,116c3.6,35.5-3.6,70.4-20.9,101.4l18.3,62.5c1.5,5.2,0.2,10.7-3.5,14.6c-3.7,3.9-9.1,5.6-14.4,4.4
				l-66.9-15c-20.5,11.5-42.8,18.5-66.5,21C183.9,782.5,178,782.8,172.1,782.8z M172.5,468.6c-4.9,0-9.8,0.3-14.8,0.8
				c-77.8,8-134.7,77.8-126.7,155.7c8,77.8,77.9,134.7,155.7,126.7c21.2-2.2,41.1-8.9,59.2-19.9c3.4-2,7.4-2.7,11.2-1.8l47.6,10.7
				l-12.9-44.1c-1.2-4.1-0.6-8.5,1.6-12.2c16.3-26.7,23.2-57.2,20-88.4c-3.9-37.7-22.2-71.7-51.6-95.6
				C236.3,479.7,205,468.6,172.5,468.6z"/>
		</g>
		<g class="st21">
			<path class="st5" d="M307.2,690.9c-43,36.4-102.3,52.3-161.2,37.7c-65.3-16.2-113.4-66-130.7-126.3c-0.4,8-0.2,16.1,0.6,24.3
				c8.9,86.3,86,149.1,172.3,140.2c24-2.5,46.2-10.2,65.5-22l72.7,16.3l-20.2-68.8C306.6,691.9,306.9,691.4,307.2,690.9z"/>
		</g>
		<g>
			<path class="st22" d="M222.5,566.5L222.5,566.5c-13.6-13.6-35.6-11.2-49.2,2.4l-2.1,2.1l-2.1-2.1c-13.6-13.6-35.6-16-49.2-2.4h0
				c-13.6,13.6-13.6,35.6,0,49.2l2.1,2.1l42.7,42.7c3.6,3.6,9.4,3.6,13,0l42.7-42.7l2.1-2.1C236.1,602.1,236.1,580.1,222.5,566.5z"
				/>
		</g>
	</g>
</g>
</svg>
