<!-- Generator: Adobe Illustrator 23.0.1, SVG Export Plug-In  -->
<svg version="1.1" xmlns="http://www.w3.org/2000/svg" xmlns:xlink="http://www.w3.org/1999/xlink" x="0px" y="0px"
	 width="2719.4px" height="3078.7px" viewBox="0 0 2719.4 3078.7" style="enable-background:new 0 0 2719.4 3078.7;"
	 xml:space="preserve">
<style type="text/css">
	.st0{opacity:0.25;}
	.st1{fill:#000072;}
	.st2{fill:#B5CFDD;}
	.st3{fill:#93B3C1;}
	.st4{fill:#D3D8E5;}
	.st5{fill:#F8FDFF;}
	.st6{opacity:0.7;}
	.st7{fill:#FFFFFF;}
	.st8{fill:#FC9595;}
	.st9{fill:#F97D7D;}
	.st10{opacity:0.2;}
</style>
<defs>
</defs>
<g>
	<g class="st0">
		<ellipse class="st1" cx="1359.6" cy="2998.7" rx="655" ry="80"/>
	</g>
	<g>
		<path class="st2" d="M1062.1,1556.2l-200,830c-27.6,70.6-64.8,123.9-120,145c-95.9,29.8-191-8.1-246.3-87.1
			c-16.1-23.1-27.8-48.5-34.8-74.9c-13.4-50.3-10.7-104.7,8.1-154.8c69.4-184.9,204.2-355.1,375-499.5
			C911.7,1657.6,985,1604.5,1062.1,1556.2z"/>
	</g>
	<g>
		<path class="st3" d="M1062.1,1556.2l-200,830c-27.6,70.6-64.8,123.9-120,145c-95.9,29.8-191-8.1-246.3-87.1
			c-16.1-23.1-27.8-48.5-34.8-74.9c32.8,31.8,74.5,55.2,119.8,58.6c52.6,3.9,108.8-23.6,129.1-72.3c20.2-48.6-6.4-114.1-57.5-126.7
			c96.7-89.7,172.9-201.3,221.5-324c16.7-42.4,30.3-89.4,17.4-133.1c-7.2-23.9-25.3-45.3-47.1-56.8
			C911.7,1657.6,985,1604.5,1062.1,1556.2z"/>
	</g>
	<g>
		<path class="st1" d="M676.5,2563.8c-77.6,0-151.2-38.1-199.2-106.8c-50.2-71.9-61.2-165.5-29.3-250.5
			c92.3-246,306.1-483.7,602.1-669.3c7.7-4.9,17.7-4.5,25.1,0.8c7.4,5.3,10.9,14.6,8.7,23.5l-200,830c-0.2,1-0.5,2-0.9,2.9
			c-33,84.6-76.5,136.2-132.9,157.8c-0.4,0.2-0.9,0.3-1.4,0.5C724.7,2560.1,700.5,2563.8,676.5,2563.8z M1027,1605.6
			c-263.2,175.4-452.9,392.9-536.9,616.6c-26.7,71.1-17.7,149.2,24.1,208.9c51.3,73.3,137.7,104.2,220.5,78.8
			c43.3-16.9,78-59.6,105.9-130.5L1027,1605.6z"/>
	</g>
	<g>
		<path class="st1" d="M651,2235.1c11.8-3.2,24.3-4.3,36.9-3.3c12.6,1.3,25.2,5.2,36.5,11.6c11.5,6.3,21.1,15.6,28.8,26
			c7.7,10.5,13.3,22.4,16.7,34.9c6.3,25,3.9,52.4-8.1,75.5c-6.1,11.5-14.3,21.7-24.1,29.9c-10,8-21.1,14.3-32.8,18.1
			c-3.8,1.2-7.9-0.9-9.1-4.7c-0.9-2.7,0-5.6,1.9-7.5l1.4-1.4c16.8-15.8,27.6-31.9,32.9-49c5.1-17.1,5.5-34.9,1.5-51.7
			c-4.2-16.8-12.8-31.9-25.7-43.6c-13.1-11.7-31.7-18.9-54.8-22.9l-1.5-0.3c-3.3-0.6-5.5-3.7-4.9-7
			C647.1,2237.6,648.8,2235.7,651,2235.1z"/>
	</g>
	<g>
		<path class="st2" d="M1657.6,1556.2l200,830c27.5,70.6,64.8,123.9,120,145c95.9,29.8,191-8.1,246.3-87.1
			c16.1-23.1,27.8-48.5,34.8-74.9c13.4-50.3,10.7-104.7-8.1-154.8c-69.4-184.9-204.2-355.1-375-499.5
			C1808,1657.6,1734.7,1604.5,1657.6,1556.2z"/>
	</g>
	<g>
		<path class="st3" d="M1657.6,1556.2l200,830c27.5,70.6,64.8,123.9,120,145c95.9,29.8,191-8.1,246.3-87.1
			c16.1-23.1,27.8-48.5,34.8-74.9c-32.8,31.8-74.5,55.2-119.8,58.6c-52.6,3.9-108.8-23.6-129.1-72.3
			c-20.2-48.6,6.4-114.1,57.5-126.7c-96.7-89.7-172.9-201.3-221.5-324c-16.8-42.4-30.3-89.4-17.4-133.1
			c7.2-23.9,25.3-45.3,47.1-56.8C1808,1657.6,1734.7,1604.5,1657.6,1556.2z"/>
	</g>
	<g>
		<path class="st1" d="M2043.2,2563.8c-23.9,0-48.2-3.6-72.2-11.1c-0.5-0.1-0.9-0.3-1.4-0.5c-56.4-21.6-99.9-73.2-132.9-157.8
			c-0.4-0.9-0.7-1.9-0.9-2.9l-200-830c-2.1-8.9,1.3-18.2,8.7-23.5c7.4-5.3,17.4-5.7,25.1-0.8c296,185.6,509.8,423.3,602.1,669.3
			c31.9,85,20.9,178.6-29.3,250.5C2194.3,2525.6,2120.7,2563.8,2043.2,2563.8z M1985,2509.9c82.8,25.4,169.2-5.5,220.5-78.8
			c41.7-59.7,50.7-137.8,24.1-208.9c-84-223.7-273.6-441.1-536.9-616.6l186.5,773.8C1907,2450.3,1941.7,2493,1985,2509.9z"/>
	</g>
	<g>
		<path class="st1" d="M2066.6,2247.2c-11-0.5-21.9-0.3-32.1,2.2c-10.2,2.2-19.8,6.1-28.1,11.9c-8.2,5.9-15.5,12.9-21.1,21.3
			c-5.6,8.4-9.7,17.9-12.1,27.7c-2.5,9.9-3.5,20.1-2.7,30.3c0.7,10.2,3.6,20,7.5,29.4c4,9.3,9.9,17.9,17.2,25.2
			c7.1,7.6,15.8,13.7,25.3,19.1c3.5,2,4.7,6.5,2.7,10c-1.5,2.5-4.2,3.9-6.9,3.6l-1.5-0.1c-13-1.1-25.6-5.9-37.3-13.2
			c-2.9-1.8-5.6-4-8.3-6.2c-2.8-2.1-5.3-4.6-7.8-7.1c-2.7-2.4-4.7-5.3-6.9-8.1c-2.3-2.8-4.2-5.8-6.1-8.8
			c-15.2-24.5-18.9-55.6-11.5-83.5c3.8-14,10.2-27.4,19.2-38.9c9-11.6,20.6-21.2,33.8-27.5c13-6.6,27.4-9.4,41-9.2
			c13.7,0.5,26.6,3.6,37.9,9.6l1.1,0.6c3,1.6,4.1,5.3,2.5,8.3C2071.1,2246.1,2068.8,2247.3,2066.6,2247.2z"/>
	</g>
	<g>
		<path class="st2" d="M1947,2236.7c0-2.6-0.2-5.2-0.3-7.9c-0.1-2.7-0.2-5.3-0.4-8c-0.3-5.1-0.8-10.2-1.4-15.2
			c-0.1-0.3-0.1-0.6-0.1-0.9c-0.3-2.3-0.6-4.7-0.9-7c-0.1-0.6-0.2-1.1-0.2-1.7c-0.3-2.2-0.7-4.5-1-6.7c-0.4-2.7-0.8-5.3-1.3-7.9
			c-0.5-2.7-1-5.3-1.5-7.9c-0.5-2.7-1-5.3-1.6-7.9c-1.7-7.8-3.5-15.7-5.6-23.5c-0.7-2.6-1.4-5.2-2.2-7.8c-2.2-7.9-4.6-15.8-7.2-23.7
			c-0.8-2.5-1.7-5-2.5-7.6c-16.8-49.3-39.7-97.9-62.8-145.2c-1.4-2.9-2.8-5.8-4.2-8.6c-6.6-13.5-13.2-27-19.7-40.2
			c-9-18.6-17.7-37-25.8-55.1c-1.4-3-2.7-6-4-9c-11.7-27-21.7-53.2-28.7-78.6l-13.6-28.7l-85.6-179.8l-642.8,6L949,1741.2l-11.9,25
			c-1.3,4.6-2.7,9.3-4.2,14c-0.5,1.9-1.2,3.9-1.8,5.9c-2.7,8.2-5.7,16.5-8.9,24.9c-0.9,2.4-1.9,4.8-2.8,7.2
			c-1.2,3.1-2.4,6.3-3.8,9.4c-0.9,2.3-1.9,4.6-2.9,7c-3.2,7.5-6.5,15.1-9.9,22.8c-1.4,3.2-2.8,6.3-4.2,9.4
			c-7.2,15.7-14.9,31.7-22.8,47.8c-19.2,39.4-39.5,79.8-57.4,121c-1.9,4.4-3.8,8.8-5.6,13.1c-1.1,2.6-2.2,5.2-3.3,7.8
			c-2.7,6.6-5.3,13.2-7.9,19.8c-2.7,7-5.3,14.1-7.8,21.3c-1.1,3.3-2.3,6.6-3.4,9.9c-1.4,4.3-2.8,8.6-4.1,12.9
			c-0.9,2.7-1.7,5.3-2.4,8c-0.8,2.5-1.5,5-2.2,7.5c-0.5,1.7-0.9,3.4-1.4,5.1c-1.5,5.5-2.8,11.1-4.1,16.7c-0.6,2.4-1.1,4.8-1.6,7.2
			c-0.1,0.4-0.2,0.8-0.3,1.1c-0.5,2.4-1,4.9-1.5,7.3c-1.3,6.4-2.3,12.7-3.2,19.1c-0.5,2.9-0.8,5.7-1.2,8.6c-0.1,0.5-0.2,1.1-0.2,1.7
			c-0.4,2.6-0.6,5.2-0.8,7.9c-0.2,1.3-0.3,2.6-0.4,3.9c-0.3,2.8-0.4,5.7-0.6,8.5c-0.2,2.4-0.3,4.7-0.4,7.1c-0.1,2-0.2,4-0.3,6
			c-0.1,2.9-0.1,5.7-0.1,8.4c0,3.2,0.1,6.4,0.2,9.5c0.1,2.1,0.2,4.1,0.3,6.1c0.2,4.2,0.5,8.5,0.8,12.7c0.2,1.9,0.4,3.9,0.7,5.9
			c0.4,4.2,1,8.4,1.7,12.6c0.3,2,0.6,3.9,1,5.9c0.7,4,1.5,8,2.4,11.9c2.3,10.5,5.2,20.9,8.8,31.3c0.6,1.8,1.3,3.6,1.9,5.4
			c2.3,6.5,4.9,12.9,7.9,19.3c0.9,2.1,1.8,4.1,2.8,6.2c1,2.2,2.1,4.4,3.3,6.6c0.9,1.9,1.9,3.8,3,5.7c1.1,2,2.2,4.1,3.3,6.1
			s2.3,4.1,3.5,6.1c1.2,2,2.4,4.1,3.7,6.1c1.2,1.9,2.4,3.9,3.6,5.8c9.3,14.4,20.2,28.8,32.7,43.1c1,10.9,2.2,21.8,3.4,32.4
			c0.2,1.7,0.4,3.3,0.6,4.9c0.7,6.1,1.5,12.2,2.2,18.3c0.8,6.4,1.6,12.7,2.4,19c0.7,5.7,1.6,11.4,2.3,16.9c0.7,4.8,1.4,9.5,2.1,14.2
			c1.1,7.7,2.3,15.4,3.6,22.9c0.7,4.1,1.3,8.2,2,12.2c0.3,1.5,0.5,3,0.8,4.4c0.7,4,1.4,7.9,2.1,11.8c1.4,7.3,2.7,14.7,4.2,21.9
			c0.7,3.8,1.5,7.6,2.3,11.3c0.9,4.3,1.8,8.5,2.7,12.7c1.2,5.4,2.3,10.7,3.6,15.9c1.9,8.9,4,17.5,6.3,26.1c0.9,4,1.9,7.8,2.9,11.8
			c1.3,5.1,2.7,10.1,4.1,15.1c1.4,5,2.8,10,4.2,14.9c2.8,9.6,5.6,19,8.6,28.3c0.1,0.3,0.2,0.5,0.3,0.7c2.8,8.9,5.8,17.7,8.8,26.3
			c1.8,5.2,3.6,10.3,5.6,15.3c1.7,4.5,3.3,9,5.1,13.3c1.6,4.1,3.2,8.1,4.8,12.1c1.9,4.7,3.8,9.3,5.8,13.9c1.8,4.2,3.6,8.3,5.5,12.5
			c3.7,8.1,7.4,16.1,11.4,24c0.1,0.2,0.2,0.4,0.3,0.6c1.7,3.4,3.4,6.8,5.2,10.2c0.4,0.7,0.8,1.5,1.2,2.2c1.8,3.5,3.8,7,5.6,10.5
			c2.1,3.8,4.2,7.5,6.3,11.2c2.1,3.7,4.3,7.4,6.5,11c3.6,6,7.3,12,11.1,17.8c10.3,15.6,25.2,27.7,42.7,33.9
			c69.5,24.8,140.7,26.7,213.8,5.3c27.9-8.2,50.1-29.6,58.5-57.4c1.7-5.5,3.3-11.1,4.9-16.7c0.2-0.8,0.4-1.6,0.6-2.3
			c1.4-4.6,2.6-9.3,3.8-14.1c1.4-5,2.6-10,3.9-15.1c0.7-2.6,1.3-5.1,1.9-7.7c0.7-3,1.5-5.9,2.1-9c0.9-3.7,1.7-7.4,2.5-11.1
			c1.1-5.3,2.3-10.5,3.4-15.8c1.1-5.3,2.1-10.6,3.1-16c2-10.7,4-21.5,5.8-32.5c1-5.4,1.8-10.9,2.7-16.5c0.9-5.5,1.7-11,2.5-16.6
			c0.8-5.5,1.6-11,2.3-16.7c0-0.2,0.1-0.4,0.1-0.6c0.7-5.5,1.4-11,2.1-16.6c1.4-11.6,2.8-23.4,4-35.3c0.6-5.5,1.1-11,1.7-16.6
			c0.5-4.9,1-9.8,1.4-14.8c0.5-4.4,0.8-8.9,1.2-13.4c0.3-2.4,0.5-4.9,0.6-7.3c0,0.3,0,0.5,0.1,0.7c0.5,6.4,1.1,12.8,1.6,19.1
			c3,33,6.7,65.5,11.1,97c1.8,12.6,3.7,25.1,5.8,37.4c2,12.4,4.2,24.6,6.6,36.6c1.1,6,2.3,12,3.6,18c1.3,5.9,2.6,11.8,3.9,17.7
			c5.3,23.4,11.3,46.2,17.9,68.2c8.4,27.8,30.6,49.2,58.5,57.4c32.6,9.6,64.8,14.5,96.7,14.8c39.5,0.3,78.5-6.4,117-20.1
			c17.5-6.3,32.4-18.3,42.7-33.9c76.4-116.1,123-284,143.8-496.7c5.4-6.1,10.5-12.3,15.2-18.5c1.1-1.5,2.2-3,3.3-4.4
			c5.1-6.7,9.9-13.5,14.2-20.4c1.2-1.7,2.2-3.5,3.3-5.2c4.2-6.7,8-13.3,11.5-20.1c0.8-1.6,1.7-3.3,2.5-4.8c0.6-1.2,1.2-2.4,1.8-3.6
			c0.9-1.8,1.7-3.6,2.6-5.3c1.2-2.6,2.3-5.1,3.4-7.6c0.9-2.1,1.8-4.3,2.7-6.5c0.9-2.1,1.7-4.3,2.5-6.5c0.7-1.8,1.4-3.6,2-5.4
			c0.2-0.6,0.4-1,0.6-1.6c0.6-1.9,1.4-3.9,1.9-5.9c0.7-2.2,1.4-4.3,2-6.5c0.7-2.2,1.3-4.4,1.9-6.6c0.6-2.1,1.1-4.2,1.6-6.4
			c1-4,1.8-7.9,2.7-11.8c0.5-2.8,1.1-5.6,1.6-8.5c1.1-6.2,1.9-12.4,2.5-18.6c0.9-8.4,1.4-16.7,1.6-25.2c-0.1-0.2-0.1-0.5,0-0.8
			C1947.1,2246.4,1947.1,2241.6,1947,2236.7z M1564.3,2467.8c-57.5,47.7-129.3,75.9-207.2,75.9c-78.1,0-150.2-28.4-207.8-76.4
			C1256.4,2408.3,1457.7,2408.5,1564.3,2467.8z"/>
	</g>
	<g>
		<path class="st3" d="M1794.6,1808.7c-68.6-40.5-193.4-101.4-360-115c-255.2-20.8-445.9,82.8-515,125c8.4-27.2,18.3-55.6,30-85
			c25.8-65.1,55.1-121.8,84-170c214.3-2,428.5-4,642.8-6C1715.8,1641.3,1755.2,1725,1794.6,1808.7z"/>
	</g>
	<g>
		<path class="st3" d="M1354.7,2670.7c9.1,93.3,23.6,180.9,47.3,259.1c8.4,27.8,30.6,49.2,58.5,57.4c73,21.4,144.3,19.5,213.8-5.3
			c17.6-6.3,32.5-18.3,42.7-33.9c3.8-5.8,7.6-11.7,11.1-17.8c-37,16.8-75.3,33.8-115.9,35.6c-41,1.9-85.6-15.3-104.2-51.8
			c-12.1-23.6-11.8-51.4-11.3-77.9c1-46.7,2.1-94.2,17.4-138.3c16.7-47.9,50.3-89.6,93.5-116.1l-8.3-1.2
			c-76.6,30.6-159.7,44.9-242.2,41.7C1356.3,2638.3,1355.5,2654.5,1354.7,2670.7z"/>
	</g>
	<g>
		<path class="st3" d="M1353.1,2670.7c-9.1,93.3-23.6,180.9-47.3,259.1c-8.4,27.8-30.6,49.2-58.5,57.4
			c-73,21.4-144.3,19.5-213.8-5.3c-17.5-6.3-32.4-18.3-42.7-33.9c-3.8-5.8-7.5-11.7-11.1-17.8c37,16.8,75.3,33.8,115.9,35.6
			c41,1.9,85.6-15.3,104.2-51.8c12.1-23.6,11.8-51.4,11.3-77.9c-1-46.7-2.1-94.2-17.4-138.3c-16.7-47.9-50.3-89.6-93.5-116.1
			l8.3-1.2c76.6,30.6,159.7,44.9,242.2,41.7C1351.5,2638.3,1352.3,2654.5,1353.1,2670.7z"/>
	</g>
	<g>
		<path class="st2" d="M1947,2236.7c0-2.6-0.2-5.2-0.3-7.9c-0.1-2.7-0.2-5.3-0.4-8c-0.3-5.1-0.8-10.2-1.4-15.2
			c-0.1-0.3-0.1-0.6-0.1-0.9c-0.3-2.3-0.6-4.7-0.9-7c-0.1-0.6-0.2-1.1-0.2-1.7c-0.3-2.2-0.7-4.5-1-6.7c-0.4-2.7-0.8-5.3-1.3-7.9
			c-0.5-2.7-1-5.3-1.5-7.9c-0.5-2.7-1-5.3-1.6-7.9c-1.7-7.8-3.5-15.7-5.6-23.5c-0.7-2.6-1.4-5.2-2.2-7.8c-2.2-7.9-4.6-15.8-7.2-23.7
			c-0.8-2.5-1.7-5-2.5-7.6c-16.8-49.3-39.7-97.9-62.8-145.2c-1.4-2.9-2.8-5.8-4.2-8.6c-6.6-13.5-13.2-27-19.7-40.2
			c-94.4-22-189.1-37.1-284.1-45.6c-129.5-11.4-259.4-10.4-389.7,3c-94.6,9.6-189.4,25.7-284.4,48.2c-19.2,39.4-39.5,79.8-57.4,121
			c-1.9,4.4-3.8,8.8-5.6,13.1c-1.1,2.6-2.2,5.2-3.3,7.8c-2.7,6.6-5.3,13.2-7.9,19.8c-2.7,7-5.3,14.1-7.8,21.3
			c-1.1,3.3-2.3,6.6-3.4,9.9c-1.4,4.3-2.8,8.6-4.1,12.9c-0.9,2.7-1.7,5.3-2.4,8c-0.8,2.5-1.5,5-2.2,7.5c-0.5,1.7-0.9,3.4-1.4,5.1
			c-1.5,5.5-2.8,11.1-4.1,16.7c-0.6,2.4-1.1,4.8-1.6,7.2c-0.1,0.4-0.2,0.8-0.3,1.1c-0.5,2.4-1,4.9-1.5,7.3
			c-1.3,6.4-2.3,12.7-3.2,19.1c-0.5,2.9-0.8,5.7-1.2,8.6c-0.1,0.5-0.2,1.1-0.2,1.7c-0.4,2.6-0.6,5.2-0.8,7.9
			c-0.2,1.3-0.3,2.6-0.4,3.9c-0.3,2.8-0.4,5.7-0.6,8.5c-0.2,2.4-0.3,4.7-0.4,7.1c-0.1,2-0.2,4-0.3,6c-0.1,2.9-0.1,5.7-0.1,8.4
			c0,3.2,0.1,6.4,0.2,9.5c42.2,153.9,155.1,249.5,312.4,308c73.9,27.4,157.7,46.6,248.4,59.8c1.1,0.2,2.4,0.4,3.5,0.6
			c6.8,0.9,13.8,1.9,20.7,2.8c2,0.3,4,0.5,6,0.8h0.2c3.5-0.4,7-0.8,10.6-1.3c6.5-0.8,13-1.6,19.4-2.5c6.7-0.8,13.2-1.8,19.7-2.7
			c81-11.6,153.3-27.9,216.8-49.8c3.6-1.3,7.3-2.6,10.9-3.9c164.7-59.5,268.8-158.5,312.5-314.1c-0.1-0.2-0.1-0.5,0-0.8
			C1947.1,2246.4,1947.1,2241.6,1947,2236.7z M1357.1,2543.7c-78.1,0-150.2-28.4-207.8-76.4c107.1-59,308.4-58.8,415,0.5
			C1506.7,2515.4,1435,2543.7,1357.1,2543.7z"/>
	</g>
	<g>
		<path class="st1" d="M1782.9,1764.2c26.1,55.1,55.1,107.8,82.7,163c14,27.4,28.1,55,41.5,83.3c13.2,28.3,25.6,57.4,36.1,87.4
			c10.5,30,18.9,61.3,23.6,93.6c4.8,32.2,5.6,65.7,1,98.7c-4.4,33-14.8,65.3-29.7,94.9c-14.8,29.7-33.9,56.7-55.5,80.9l0,0l5.4-12.6
			c-4.9,49.8-11.4,99.5-20.1,148.9c-8.7,49.4-19.7,98.7-34,147.1c-14.4,48.4-31.7,96.3-54.4,142.2c-11.3,23-24,45.3-37.9,67
			c-0.8,1.3-1.9,2.9-3,4.5c-1.1,1.6-2.3,3.1-3.5,4.7c-2.4,3-5,6-7.7,8.8c-5.4,5.6-11.5,10.6-18,14.9c-6.5,4.3-13.6,8-20.9,10.7
			c-2,0.8-3.4,1.2-5,1.8l-4.7,1.6c-3.1,1-6.2,2.1-9.4,3c-50.3,15.6-104.6,19.6-156.7,11.9c-13.1-1.8-25.9-4.6-38.7-7.7l-9.5-2.6
			l-4.7-1.3c-1.6-0.4-3.6-1.1-5.4-1.7c-7.3-2.5-14.4-5.8-21.1-9.8c-13.4-8-25-18.9-33.9-31.8c-4.5-6.4-8.2-13.4-11.1-20.7
			c-0.8-1.8-1.4-3.7-2-5.5c-0.7-1.9-1.3-3.8-1.6-5.2l-2.7-9.1c-28-97.7-40.8-197.7-48.9-297.2c-1-12.4,8.2-23.2,20.6-24.2
			c0.6,0,1.2-0.1,1.8-0.1l0.1,0h1.4h0.1c12.4,0,22.5,10.1,22.5,22.5c0,0.6,0,1.2-0.1,1.8c-8.1,99.5-20.9,199.5-48.9,297.2l-2.7,9.1
			l-0.7,2.4l-0.9,2.8c-0.6,1.9-1.2,3.7-2,5.5c-2.9,7.3-6.6,14.3-11,20.7c-8.9,12.9-20.5,23.8-33.9,31.8c-6.7,4-13.8,7.3-21.1,9.8
			c-1.8,0.6-3.8,1.3-5.4,1.7l-4.7,1.3l-9.5,2.6c-12.8,3.1-25.6,5.9-38.7,7.7c-52.1,7.7-106.4,3.8-156.7-11.8c-3.2-0.9-6.3-2-9.4-3
			l-4.7-1.6c-1.6-0.5-3-1-4.9-1.7c-7.4-2.8-14.4-6.4-20.9-10.7c-6.5-4.3-12.6-9.3-18-14.9c-2.7-2.8-5.3-5.7-7.7-8.8
			c-1.2-1.5-2.4-3.1-3.5-4.7c-1.1-1.6-2.3-3.3-3-4.5c-13.9-21.7-26.6-44-37.9-67c-22.6-45.9-40-93.8-54.4-142.2
			c-14.3-48.5-25.3-97.7-34-147.1c-8.7-49.4-15.2-99.1-20.1-148.9l0-0.2l5.4,12.6c-21.4-24.4-40.3-51.5-54.8-81.2
			c-14.6-29.6-24.7-61.9-28.9-94.8c-4.4-32.9-3.4-66.1,1.4-98.2c4.8-32.1,13.1-63.3,23.7-93.2c21-60,49.5-115.6,77.6-170.4
			l41.6-81.8c13.7-27.1,26.6-54.4,38.4-82.4l0-0.1c1.8-4.3,6.7-6.3,11-4.5c3.6,1.5,5.6,5.3,5,9c-4.8,31.3-14.8,61.5-25.9,90.6
			c-11.3,29.2-24.5,57.2-37.5,85.1c-26.1,55.7-52,111-70.4,167.8c-9,28.4-16.3,57.1-20.2,85.9c-3.9,28.8-4.2,57.7-0.1,85.9
			c4.2,28.1,12.6,55.4,25.2,80.9c12.6,25.6,29.1,49.4,47.8,71.7l0.2,0.2c3.1,3.7,4.8,8,5.3,12.4l0,0.2
			c4.8,48.8,11.2,97.4,19.7,145.5c8.5,48.1,19.1,95.7,32.9,142.2c13.8,46.5,30.4,92,51.6,135c10.5,21.5,22.4,42.3,35.2,62.3
			c0.8,1.4,1.5,2.2,2.1,3.2l2.1,2.8c1.4,1.8,2.9,3.5,4.5,5.2c3.2,3.3,6.7,6.2,10.5,8.7c3.8,2.5,7.8,4.6,12.1,6.2
			c0.9,0.4,2.5,0.9,3.8,1.3l4.1,1.4c2.8,0.9,5.5,1.9,8.3,2.7c44.3,13.8,91.2,17.1,137.1,10.4c11.5-1.6,22.8-4.1,34.2-6.8l8.4-2.3
			l4.2-1.2c1.4-0.4,2.3-0.7,3.4-1.1c4.4-1.5,8.6-3.4,12.5-5.8c7.9-4.7,14.7-11.2,19.9-18.6c2.6-3.7,4.7-7.8,6.4-12
			c0.5-1,0.8-2.1,1.2-3.2l0.6-1.6l0.6-2.1l2.5-8.7c26.7-93,39.4-190.5,47.3-288.2l22.4,24.3h-1.4l22.4-24.3
			c7.9,97.8,20.6,195.3,47.3,288.3l2.5,8.7c0.4,1.6,0.8,2.7,1.2,3.7c0.4,1.1,0.7,2.2,1.2,3.2c1.7,4.2,3.8,8.3,6.4,12
			c5.2,7.5,12,13.9,19.9,18.6c4,2.3,8.2,4.3,12.5,5.8c1.2,0.4,2,0.7,3.5,1.1l4.2,1.2l8.4,2.3c11.3,2.7,22.7,5.2,34.2,6.8
			c45.9,6.7,92.8,3.4,137.1-10.4c2.8-0.8,5.5-1.7,8.3-2.7l4.1-1.4c1.4-0.5,2.9-0.9,3.8-1.3c4.2-1.6,8.3-3.7,12.1-6.2
			c3.8-2.5,7.3-5.5,10.5-8.7c1.6-1.6,3.1-3.4,4.5-5.2c0.7-0.9,1.4-1.8,2.1-2.8c0.6-0.9,1.3-1.8,2.1-3.2c12.8-20,24.6-40.8,35.2-62.3
			c21.2-43,37.8-88.6,51.6-135c13.8-46.5,24.4-94.2,32.8-142.3c8.5-48.1,14.8-96.7,19.7-145.5c0.4-4.3,2.1-8.3,4.6-11.5l0.9-1.1l0,0
			c18.5-22.5,34.8-46.4,47.1-72c12.4-25.6,20.5-52.8,24.4-80.8c3.9-28,3.4-56.7-0.5-85.4c-3.9-28.7-11.2-57.3-20.2-85.6
			c-9.1-28.3-20.3-56.2-32.4-84.1c-12-27.9-24.9-55.6-38-83.4c-13-27.9-26.4-55.9-37.2-85.3c-10.8-29.3-20.2-59.8-23.6-91.5
			c-0.4-4.2,2.6-8,6.8-8.4C1778.5,1759.4,1781.5,1761.2,1782.9,1764.2L1782.9,1764.2z"/>
	</g>
	<g>
		<path class="st3" d="M1634.6,2567.8c-5.7,2.1-11.4,4.1-17,6c-71.9,24.8-142.2,40.2-210.8,45.8c-15.9,1.4-31.7,2.2-47.4,2.4
			c-0.7,0.1-1.5,0.1-2.3,0.1c-2.1,0.1-4.3,0.1-6.4,0.1c-2,0.1-4.1,0.1-6.1,0.1c-6,0-12-0.1-18-0.3c-82.5-2.2-162.5-19-239.9-50.5
			c-2.9-1.2-5.8-2.4-8.7-3.6c0-1.1,0-2.3,0.1-3.4c0-0.8,0-1.5,0.1-2.2c2.3-40.5,29.6-72.1,71-94.9c57.7,48,129.7,76.4,207.8,76.4
			c77.9,0,149.6-28.2,207.2-75.9c40.6,22.6,67.5,53.8,70.1,93.6c0.2,1.6,0.2,3.1,0.2,4.6C1634.6,2566.6,1634.6,2567.2,1634.6,2567.8
			z"/>
	</g>
	<g>
		<path class="st1" d="M1080.8,2554.8c19,12.5,40.3,20.9,62.7,26.9c5.5,1.6,11.2,2.9,16.8,4.3c5.7,1.3,11.4,2.3,17.1,3.5l17.3,3
			c5.8,1,11.6,1.6,17.4,2.5c11.7,1.3,23.3,2.8,35.1,3.8c5.9,0.6,11.8,1,17.7,1.3c5.9,0.4,11.8,0.7,17.7,0.9
			c23.6,1.6,47.3,1.7,71.1,1.5c47.5-0.3,95-3.5,142-9.6c23.4-3.4,46.7-7.2,69.4-13c22.7-5.6,44.8-13.1,63.9-25l1.4-0.9
			c3.9-2.4,9.1-1.2,11.6,2.7c2.2,3.5,1.5,8-1.5,10.6c-19.7,18-43.1,29-66.5,37.9c-23.6,8.7-47.8,14.9-72.1,19.9
			c-48.7,10-98.2,14.1-147.6,15.2c-24.8,0.5-49.5-0.5-74.3-2.4c-24.7-2-49.4-4.8-73.9-9.6c-24.5-4.9-48.8-11.2-72.3-20.4
			c-23.4-9.6-46.3-21.9-65.2-40.5c-3.5-3.4-3.5-9-0.1-12.5c3-3.1,7.7-3.5,11.2-1.2L1080.8,2554.8z"/>
	</g>
	<g>
		<path class="st4" d="M1564.3,2467.8c-57.5,47.7-129.3,75.9-207.2,75.9c-78.1,0-150.2-28.4-207.8-76.4
			C1256.4,2408.3,1457.7,2408.5,1564.3,2467.8z"/>
	</g>
	<g>
		<path class="st5" d="M1699.6,2171.2c0,121-53.1,228.6-135.3,296.6c-106.6-59.3-307.9-59.5-415-0.5
			c-81.9-68-134.7-175.4-134.7-296.1c0-126.1,57.6-237.6,145.7-304.8c55.7-42.7,123.5-67.7,196.8-67.7c71.6,0,138,23.9,192.9,64.6
			C1640.3,1930.4,1699.6,2043.2,1699.6,2171.2z"/>
	</g>
	<g>
		<g>
			<path class="st2" d="M1115.7,531.3c0-218.3-400.8-549-705.4-452.4c-65.8,20.9-73.1,74.6-27.5,116
				C-19.4,318.2-24.5,787.1,79.5,937.2c68.2,98.3,125.3,63.5,144.9,41.8c41.5,77.6,226.3,200.4,410.9,144.1
				C635.4,1123,1115.7,658.7,1115.7,531.3z"/>
		</g>
		<g>
			<path class="st2" d="M1115.7,531.3c0-218.3-400.8-549-705.4-452.4c-65.8,20.9-73.1,74.6-27.5,116
				C-19.4,318.2-24.5,787.1,79.5,937.2c68.2,98.3,125.3,63.5,144.9,41.8c41.5,77.6,226.3,200.4,410.9,144.1
				C635.4,1123,1115.7,658.7,1115.7,531.3z"/>
		</g>
		<g class="st6">
			<path class="st7" d="M1076,399C954.1,218.3,694.8,48.5,471,103.8c-52.4,13-70.5,48.3-55.3,84.3c6.8,16.2-0.9,34.9-17.7,40.1
				C24.7,344.3-5.7,787.4,85.5,938.9c8.8,14.7,17.6,26.6,26.2,36.2c-10.3-9.6-21.1-22-32.2-38c-104-150-98.9-619,303.3-742.3
				c-45.6-41.3-38.3-95.1,27.5-116C657.2,0.6,967.4,203.2,1076,399z"/>
		</g>
		<g>
			<path class="st3" d="M538.3,1090c-131.8,0-247.2-86.8-272.1-133.4l-31.8-59.4l-45.1,50.1c-0.8,0.9-7.9,8.5-16.9,8.5
				c-5.2,0-24.6-3.3-54-45.6c-18.1-26-34.1-68.5-42.5-121.7c-5.5-31.4-17.5-106.2,114.7-50c127.2,54.1,261,31.2,414.2-17.3
				c135-42.7,284.9-90.2,425-110.5C946.7,737.3,750,945.6,611,1080.7C587.5,1086.9,563.1,1090,538.3,1090z"/>
		</g>
		<g>
			<path class="st1" d="M538.4,1159.8c-141.6,0-267.8-81.1-319.1-147.8c-12.9,7.9-30.8,14.9-52.5,13.5
				c-37.2-2.4-72.8-27.8-105.8-75.5C2.1,865-27.4,679.2,34,502.2C71.5,393.8,155.8,253.4,344.5,184c-11.8-19.4-16-40.3-11.7-60.2
				c6.6-30.5,31.7-54,70.6-66.4c146.3-46.4,332.2-2,497.2,118.7c144.3,105.6,237.5,245,237.5,355.1c0,21.8,0,88.3-246,358.8
				c-119.2,131-240,247.9-241.2,249.1c-2.6,2.5-5.7,4.3-9.1,5.3C607.1,1155.2,572.3,1159.8,538.4,1159.8z M635.4,1123L635.4,1123
				L635.4,1123z M224.4,956.4c0.9,0,1.8,0.1,2.7,0.2c7.3,0.9,13.7,5.3,17.1,11.7c34.1,63.8,203.5,185,379.4,134.7
				c183.3-177.6,469.5-486.4,469.5-571.7c0-94.8-88-222.9-219.1-318.8c-153.5-112.3-324.3-154.2-457-112.2
				c-22.9,7.3-37.2,19-40.2,33.1c-3,13.7,4.7,30,21,44.8c6,5.4,8.6,13.7,6.8,21.6c-1.8,7.9-7.6,14.2-15.4,16.6
				c-193,59.2-276.7,196.1-312.9,300.5C22.1,674,44.7,847.4,98,924.3c24.5,35.3,49.3,54.8,71.7,56.2c20.2,1.2,34.2-12.4,38-16.7
				C212,959.1,218.1,956.4,224.4,956.4z"/>
		</g>
		<g>
			<path class="st8" d="M952.1,694.5c-27.3,194.7-104.3,247.2-293.9,299.1c-208,57-422.5-74.2-422.5-334.8
				c0-196.6,172.9-370.9,368.9-355.9C777.4,316.1,984.2,465.2,952.1,694.5z"/>
		</g>
		<g>
			<path class="st9" d="M952.1,694.5c-27.3,194.6-104.3,247.2-293.9,299.1c-178.2,48.9-361.2-40.5-410-231
				c41.6,35.8,176.2,141.7,239,73.1c69.9-76.3-21-153.6,14.6-216.8C537.2,556.2,728,650.1,648.5,309
				C810.3,341.6,981.5,484.4,952.1,694.5z"/>
		</g>
		<g>
			<path class="st1" d="M258.1,537.2c12-41.6,32.6-80.9,59.3-116c13.2-17.7,28.7-33.6,44.9-48.8c8.3-7.3,17-14.4,25.8-21.2l13.8-9.5
				l6.9-4.8c2.3-1.6,4.8-2.9,7.2-4.3c38.2-23.4,81.5-39.1,126.6-45.8c2.8-0.6,5.6-0.8,8.5-1.1l8.5-0.7c5.7-0.4,11.4-1,17.1-1.2
				l17.1,0.2c5.7,0.2,11.5-0.1,17.1,0.6c22.7,1.7,45.1,5.4,67,10.9c43.8,11.2,85.6,29.4,124.1,53.3c19.2,12,37.6,25.4,54.8,40.3
				c17.1,15,33.1,31.4,47.5,49.3c14.4,17.9,27.3,37.1,38,57.6c10.8,20.5,19.2,42.2,25.4,64.6c6.1,22.4,10.2,45.4,11.4,68.6
				c1.2,23.1,0,46.3-2.9,69.1l-5.3,33c-2.1,11-4.7,22-7.1,32.9c-2.8,11-6.2,21.9-9.3,32.8c-1.9,5.4-4,10.8-6,16.2l-3.1,8.1
				c-1,2.7-2.1,5.4-3.4,8c-5.2,10.5-9.6,21.3-16.2,31.2c-3.1,5-6,10.2-9.4,15.1l-10.9,14.2c-1.9,2.3-3.5,4.8-5.6,7l-6.2,6.5
				c-4.2,4.3-8.1,8.7-12.5,12.8l-13.6,11.5c-2.3,1.8-4.5,3.9-6.9,5.6l-7.2,5c-38.5,27-81,43.9-122.9,57.4l-31.6,9.6l-31.6,8.7
				c-21.7,5.8-44.4,10-67,12.1c-45.3,4.3-91.7,0.4-135.4-12.8c-21.9-6.5-43-15.4-63-26.3c-19.9-11-38.7-24.1-55.8-39
				c-17.2-14.7-32.4-31.7-45.7-49.8c-13.4-18.1-24.4-37.7-33.4-58c-9.1-20.3-15.9-41.4-20.5-62.8c-4.5-21.5-7.1-43.2-7.6-64.8
				c5,21.1,10.9,41.7,18.4,61.6c7.2,20,16.8,38.9,27.3,57c10.7,18,23,34.8,36.5,50.4c13.6,15.6,29,29.3,45.2,41.7
				c65.4,49.2,149.1,70.6,229.8,60.9c20.2-2.3,39.9-6.4,59.7-12.2l30.5-9.1l30-9.8c39.7-13.7,77.7-30.3,109.7-53.2
				c32.5-22.4,55.5-53.9,71.6-89.9c1.1-2.2,2.1-4.5,2.9-6.9l2.6-7l5.2-14.1c2.7-9.8,5.8-19.4,8.2-29.4c2.1-10.1,4.5-20.1,6.5-30.2
				l5.1-30.8c2.6-19.9,3.7-39.9,2.8-59.8c-1-19.9-4.1-39.6-9.1-58.8c-9.9-38.5-28.7-74.6-53.3-106.4c-12.3-15.9-26.1-30.8-41.1-44.5
				c-15.1-13.6-31.3-26-48.5-37.2c-34.3-22.3-72-39.7-111.5-50.6c-39.4-11.2-80.4-16.4-120.8-12.2c-40.5,3.7-80.3,16.2-117.2,34.8
				c-36.9,18.7-70.6,44.6-99.5,75.3C300.8,462.5,276.7,498.2,258.1,537.2z"/>
		</g>
	</g>
	<g>
		<g>
			<path class="st2" d="M1603.7,531.3c0-218.3,400.8-549,705.4-452.4c65.8,20.9,73.1,74.6,27.5,116
				c402.2,123.3,407.3,592.2,303.3,742.3c-68.2,98.3-125.3,63.5-144.9,41.8c-41.5,77.6-226.3,200.4-410.9,144.1
				C2084,1123,1603.7,658.7,1603.7,531.3z"/>
		</g>
		<g>
			<path class="st2" d="M1603.7,531.3c0-218.3,400.8-549,705.4-452.4c65.8,20.9,73.1,74.6,27.5,116
				c402.2,123.3,407.3,592.2,303.3,742.3c-68.2,98.3-125.3,63.5-144.9,41.8c-41.5,77.6-226.3,200.4-410.9,144.1
				C2084,1123,1603.7,658.7,1603.7,531.3z"/>
		</g>
		<g class="st6">
			<path class="st7" d="M1643.4,399c121.9-180.7,381.2-350.5,605-295.1c52.4,13,70.5,48.3,55.3,84.3c-6.8,16.2,0.9,34.9,17.7,40.1
				c373.3,116.1,403.7,559.2,312.6,710.7c-8.8,14.7-17.6,26.6-26.2,36.2c10.3-9.6,21.1-22,32.2-38c104-150,98.9-619-303.3-742.3
				c45.6-41.3,38.3-95.1-27.5-116C2062.2,0.6,1752,203.2,1643.4,399z"/>
		</g>
		<g>
			<path class="st3" d="M2181.1,1090c131.8,0,247.2-86.8,272.1-133.4l31.8-59.4l45.1,50.1c0.8,0.9,7.9,8.5,16.9,8.5
				c5.2,0,24.6-3.3,54-45.6c18.1-26,34.1-68.5,42.5-121.7c5.5-31.4,17.5-106.2-114.7-50c-127.2,54.1-261,31.2-414.2-17.3
				c-135-42.7-284.9-90.2-425-110.5c83.2,126.6,279.9,334.9,418.9,470C2131.9,1086.9,2156.3,1090,2181.1,1090z"/>
		</g>
		<g>
			<path class="st1" d="M2181,1159.8c-33.9,0-68.7-4.7-103.5-15.3c-3.4-1-6.5-2.9-9.1-5.3c-1.2-1.2-122-118.1-241.2-249.1
				c-246-270.4-246-336.9-246-358.8c0-110.1,93.2-249.5,237.5-355.1c165-120.8,350.9-165.1,497.2-118.7c38.9,12.3,64,35.9,70.6,66.4
				c4.3,19.9,0.1,40.8-11.7,60.2c188.7,69.4,273,209.7,310.6,318.1c61.4,177,31.9,362.9-27,447.8c-33.1,47.7-68.7,73.1-105.8,75.5
				c-21.7,1.4-39.6-5.5-52.5-13.5C2448.8,1078.7,2322.6,1159.8,2181,1159.8z M2095.7,1103c175.9,50.3,345.3-70.9,379.4-134.7
				c3.5-6.5,9.8-10.8,17.1-11.7c7.3-0.9,14.5,1.8,19.4,7.3c3.8,4.2,18,18,38,16.7c22.4-1.4,47.2-20.9,71.7-56.2
				c53.3-76.9,75.9-250.4,21.5-407.4c-36.2-104.4-119.8-241.3-312.9-300.5c-7.7-2.4-13.6-8.7-15.4-16.6c-1.8-7.9,0.8-16.1,6.8-21.6
				c16.3-14.8,24-31.2,21-44.8c-3.1-14.1-17.4-25.8-40.2-33.1c-132.7-42.1-303.6-0.2-457,112.2c-131,95.9-219.1,224-219.1,318.8
				C1626.2,616.6,1912.5,925.4,2095.7,1103z"/>
		</g>
		<g>
			<path class="st8" d="M1767.3,694.5c27.3,194.7,104.3,247.2,293.9,299.1c208,57,422.5-74.2,422.5-334.8
				c0-196.6-172.9-370.9-368.9-355.9C1942,316.1,1735.2,465.2,1767.3,694.5z"/>
		</g>
		<g>
			<path class="st9" d="M1767.3,694.5c27.3,194.6,104.3,247.2,293.9,299.1c178.2,48.9,361.2-40.5,410-231
				c-41.6,35.8-176.2,141.7-239,73.1c-69.9-76.3,21-153.6-14.6-216.8c-35.4-62.8-226.1,31.1-146.6-309.9
				C1909.1,341.6,1737.9,484.4,1767.3,694.5z"/>
		</g>
		<g>
			<path class="st1" d="M2461.4,537.2c-18.6-39-42.8-74.7-71.9-105.2c-28.9-30.7-62.6-56.5-99.5-75.3
				c-36.9-18.6-76.7-31.1-117.2-34.8c-40.4-4.2-81.3,1-120.8,12.2c-39.5,10.9-77.2,28.4-111.5,50.6c-17.1,11.2-33.4,23.6-48.5,37.2
				c-15,13.7-28.8,28.6-41.1,44.5c-24.6,31.9-43.4,67.9-53.3,106.4c-5,19.2-8.1,38.9-9.2,58.8c-0.9,19.9,0.2,39.9,2.8,59.8l5.1,30.8
				c2,10.2,4.4,20.1,6.5,30.2c2.5,9.9,5.5,19.6,8.2,29.4l5.2,14.1l2.6,7c0.8,2.4,1.7,4.7,2.9,6.9c16.1,36.1,39.1,67.5,71.6,89.9
				c31.9,22.9,70,39.5,109.7,53.2l30.1,9.8l30.5,9.1c19.8,5.7,39.5,9.8,59.7,12.2c80.6,9.7,164.4-11.8,229.8-60.9
				c16.2-12.4,31.6-26.2,45.2-41.7c13.5-15.6,25.9-32.4,36.5-50.4c10.5-18.1,20.1-37,27.3-57c7.5-19.9,13.4-40.5,18.4-61.6
				c-0.5,21.6-3.1,43.3-7.6,64.8c-4.6,21.4-11.4,42.6-20.5,62.8c-9,20.3-20.1,39.9-33.4,58c-13.3,18.1-28.5,35.1-45.7,49.8
				c-17.1,14.8-35.9,27.9-55.8,39c-20,10.9-41.2,19.8-63,26.3c-43.7,13.2-90.1,17.1-135.4,12.8c-22.6-2.1-45.3-6.4-67-12.1
				l-31.6-8.7l-31.6-9.6c-41.9-13.5-84.4-30.3-122.9-57.4l-7.2-5c-2.4-1.6-4.6-3.7-6.9-5.6l-13.6-11.5c-4.3-4-8.3-8.5-12.5-12.8
				l-6.2-6.5c-2-2.2-3.7-4.7-5.6-7l-10.9-14.2c-3.3-4.9-6.2-10.1-9.4-15.1c-6.6-9.9-11-20.8-16.2-31.2c-1.3-2.6-2.4-5.3-3.4-8
				l-3.1-8.1c-2-5.4-4.1-10.8-6-16.2c-3.1-10.9-6.6-21.8-9.3-32.8c-2.4-11-5-22-7.1-32.9l-5.3-33c-2.9-22.8-4.1-46-2.9-69.1
				c1.2-23.2,5.3-46.2,11.4-68.6c6.2-22.4,14.6-44.1,25.4-64.6c10.7-20.5,23.6-39.7,38-57.6c14.4-17.9,30.3-34.3,47.5-49.3
				c17.2-14.9,35.6-28.3,54.8-40.3c38.5-23.8,80.3-42.1,124.1-53.3c21.9-5.5,44.3-9.2,67-10.9c5.6-0.7,11.4-0.4,17.1-0.6l17.1-0.2
				c5.7,0.3,11.4,0.8,17.1,1.2l8.5,0.7c2.8,0.2,5.7,0.5,8.5,1.1c45,6.8,88.3,22.4,126.6,45.8c2.4,1.5,4.9,2.7,7.2,4.3l6.9,4.8
				l13.8,9.5c8.8,6.8,17.5,13.8,25.8,21.2c16.2,15.2,31.6,31.1,44.9,48.8C2428.7,456.3,2449.3,495.6,2461.4,537.2z"/>
		</g>
	</g>
	<g>
		<path class="st2" d="M555.4,1080.1c25.2-616.9,313.5-859,804-880.1h0.1h0.1h0.1c490.5,21.1,778.8,263.3,804,880.1
			c86.1,440.1-323,588.6-804,588.6S469.3,1520.1,555.4,1080.1z"/>
	</g>
	<g>
		<path class="st3" d="M2137.8,1367c-105.8,220.4-422.3,301.7-778,301.7c-355.9,0-672.5-81.3-778.3-301.8
			c152,166.7,570.6,230.6,778.3,230.6S1985.8,1533.5,2137.8,1367z"/>
	</g>
	<g>
		<path class="st5" d="M1601.5,1376.7c-12.8,89.8-125.2,158.7-242,158.7c-116.9,0-229-68.9-241.8-158.7
			c-12-84,82.6-279.3,241.9-279.4c0,0,0,0,0.1,0C1518.9,1097.4,1613.4,1292.7,1601.5,1376.7z"/>
	</g>
	<g>
		<path class="st7" d="M1522.8,1273.3c0,0-12,60.4-57,76.8c-65.1,23.7-106.4-38.2-106.4-38.2v-68.4h0v68.4c0,0-41.3,62-106.4,38.2
			c-45-16.4-57-76.8-57-76.8s8.1-117.2,160.1-117.2S1522.8,1273.3,1522.8,1273.3z"/>
	</g>
	<g>
		<path class="st1" d="M1359.7,1691.2c-252.8,0-587.7-40.9-748.2-235.8c-81.4-98.9-107.8-226.1-78.5-377.9
			c12.8-306.7,89.3-528,233.8-676.5c135.3-139,328.9-212.1,591.7-223.5c0.6,0,1.5,0,2.2,0c262.8,11.3,456.3,84.4,591.7,223.5
			c144.5,148.5,221,369.8,233.8,676.5c29.3,151.9,2.9,279.1-78.5,378C1947.2,1650.3,1612.4,1691.2,1359.7,1691.2z M1359.6,222.5
			C849.3,244.7,600.9,517.6,577.9,1081c0,1.1-0.2,2.3-0.4,3.4c-27.2,138.8-4,254,68.7,342.4c149.3,181.3,470.4,219.4,713.4,219.4
			c243,0,564-38,713.2-219.3c72.8-88.4,95.9-203.6,68.7-342.5c-0.2-1.1-0.4-2.3-0.4-3.4C2118.2,517.6,1869.8,244.7,1359.6,222.5z
			 M555.4,1080.1L555.4,1080.1L555.4,1080.1z"/>
	</g>
	<g>
		<g>
			<path class="st2" d="M1647.5,274.8c-24.8-55.3,100.5-54.7,87.7-105.6c-9.3-37-161-98-265.7,9.3c0,0-3.1-29.4-1-68.3
				c2.5-46.6-3.6-84.8-23.6-89.8c-40.5-10.2-104.4,75.8-238,160.5c-51.7,32.8-186,81.8-257.8,114.1"/>
		</g>
		<g>
			<path class="st1" d="M1638.6,278.8c-3.3-4.7-6.1-10.5-7-17.6c-0.9-7,0.6-15,3.9-21.2c3.2-6.4,7.4-11.3,11.7-15.4
				c4.3-4.1,8.7-7.5,13.1-10.4c8.7-5.9,17.4-10.5,25.5-14.9c8.1-4.3,15.8-8.4,21.6-12.8c2.9-2.1,5.2-4.3,6.6-6
				c1.4-1.8,1.7-2.8,1.7-3.5c0-0.4,0-0.7-0.1-1.4c-0.1-0.4-0.5-2.1-0.3-1.3c0,0.1-0.3-0.6-1-1.3c-0.6-0.8-1.5-1.8-2.6-2.8
				c-4.4-4.2-11-8.6-18.1-12.2c-7.1-3.7-14.8-6.8-22.8-9.3c-16-5-32.8-8.1-49.7-8.9c-16.9-0.7-33.8,0.6-50.1,4.3
				c-32.8,7.3-62.8,24.1-87.6,47.9l0,0l-0.4,0.4c-7.6,7.5-19.9,7.4-27.4-0.2c-3.3-3.3-5.1-7.5-5.5-11.8c-0.8-8.6-1.2-16.3-1.5-24.4
				c-0.3-8-0.4-16-0.3-24c0.1-8,0.4-16.1,0.8-23.9c0.4-7.3,0.5-14.6,0.4-21.8c-0.2-14.2-1.6-28.7-5.3-39.4c-0.9-2.6-2-4.8-2.9-6.2
				c-0.9-1.4-1.6-1.9-1.5-1.7c0,0,0.1,0.1,0.2,0.1c0,0.1,0.3,0.1-0.1,0c-0.5-0.1-1.1-0.2-1.8-0.2c-1.4,0-3.4,0.3-5.7,1
				c-4.7,1.4-10.5,4.3-16.2,7.8c-5.8,3.5-11.7,7.7-17.5,12.1c-11.8,8.8-23.5,18.5-35.4,28.3c-23.7,19.6-47.8,39.4-72.8,58.3
				c-12.5,9.4-25.2,18.6-38.1,27.6c-6.4,4.5-13,8.9-19.5,13.2l-9.9,6.4c-3.3,2.1-6.6,4.2-10.3,6.4c-14.3,8.6-28.5,15.6-42.7,22.3
				c-14.2,6.8-28.5,13-42.8,19.2c-57,24.6-114.8,46.7-170.2,71.2l-0.2,0.1c-9.8,4.4-21.3-0.1-25.7-9.9c-4.4-9.8,0.1-21.3,9.9-25.7
				l0,0c57.3-25.4,114.6-47.2,170.8-71.5c14-6.1,27.9-12.2,41.5-18.7c13.6-6.4,27.1-13.1,39.2-20.4c3-1.7,6.2-3.8,9.4-5.8l9.5-6.2
				c6.3-4.2,12.6-8.4,18.8-12.7c12.4-8.6,24.7-17.5,36.8-26.6c24.2-18.3,47.7-37.6,71.5-57.2c11.9-9.8,24-19.7,36.8-29.4
				c6.5-4.8,13.1-9.6,20.5-14.1c7.4-4.5,15.3-8.9,25.4-12c5.1-1.5,10.7-2.6,17.1-2.6c3.1,0,6.4,0.3,9.7,1c1.5,0.3,3.6,0.9,5.5,1.6
				c1.9,0.8,3.7,1.5,5.4,2.5c7,3.9,11.6,9.3,14.9,14.3c3.2,5,5.4,9.9,7,14.6c3.3,9.3,4.8,18.1,5.9,26.6c1,8.5,1.5,16.9,1.7,25.1
				c0.1,8.2-0.1,16.4-0.5,24.4c-0.4,7.6-0.6,14.8-0.7,22.3c-0.1,7.4,0,14.8,0.3,22.2c0.3,7.3,0.7,15,1.3,21.7l-33.3-11.6l0,0
				c27.5-30.3,65-53.1,105.7-62.5c20.3-4.9,41.2-6.7,61.9-5.6c20.7,1.1,41.2,4.7,61,11.5c9.9,3.4,19.6,7.4,29.2,12.6
				c9.5,5.3,18.9,11.1,27.9,20.2c2.2,2.3,4.5,4.8,6.6,7.9c2.1,3,4.2,6.4,5.9,10.9c1.8,5.2,2.2,8.2,2.7,12.4
				c0.3,4.1,0.1,8.4-0.8,12.7c-1.7,8.6-6.1,16.1-10.8,21.5c-4.7,5.5-9.7,9.4-14.5,12.7c-9.6,6.5-18.7,10.9-27.5,14.9
				c-8.7,4-17.1,7.4-24.6,11c-7.5,3.5-14,7.3-17.6,10.7c-1.7,1.7-3,3.1-3.8,5.6c-0.9,2.4-1,5.8-0.5,9.7l0.1,1.1
				c0.6,5.4-3.3,10.3-8.7,11C1644.1,283.3,1640.6,281.6,1638.6,278.8z"/>
		</g>
	</g>
	<g>
		<g>
			<path class="st4" d="M1214.8,1266c0,0,25.1,52.6,71.3,50.3c51.3-2.5,44-63.9,44-63.9s-58-36.3-48-14.3
				C1302.9,1284.3,1245.6,1303.2,1214.8,1266z"/>
		</g>
		<g>
			<path class="st4" d="M1504.8,1266c0,0-25.1,52.6-71.3,50.3c-51.3-2.5-44-63.9-44-63.9s58-36.3,48-14.3
				C1416.7,1284.3,1474,1303.2,1504.8,1266z"/>
		</g>
	</g>
	<g>
		<path class="st1" d="M1369.3,1243.4c3.8,2.9,5.9,5.7,7.4,8.6c1.5,2.9,2.2,5.7,2.5,8.6l1.9,17.1c1.2,11.4,2.1,22.8,1.3,34.2
			l-0.1,2.1c-0.3,3.9-1.6,7.5-3.7,10.5c-1.3,1.9-2,2.7-2.9,4l-2.7,3.3c-1.8,2.1-3.6,4.2-5.5,6.2c-3.7,4-7.8,7.7-12,11.1
			c-8.5,6.9-17.8,13.1-28.2,17.8c-10.3,4.8-21.8,7.8-33.4,8.8c-11.6,0.9-23.4-0.1-34.3-3.1c-5.6-1.5-10.5-3.2-16-5.7
			c-5.4-2.5-10.5-5.6-15.1-9.2c-9.1-7.2-16.3-16-21.4-25.4c-5.2-9.3-8.5-19.2-10.3-29.1c-1.7-9.9-2.3-20-0.4-29.9
			c11.6,16,22.5,30.3,34.4,41.2c5.9,5.4,12,9.8,18.1,13c3,1.6,6.1,2.9,9.2,3.9c3,1,7,2,10.4,2.7c14.1,2.7,27.6,0.2,40.1-6.2
			c6.3-3.2,12.3-7.5,17.8-12.6c2.8-2.5,5.4-5.3,7.9-8c1.3-1.4,2.5-2.8,3.6-4.2l1.6-2.1l1.1-1.6l-3.8,12.6
			c-0.8-11.4,0.1-22.8,1.3-34.2l1.9-17.1c0.3-2.9,0.9-5.7,2.5-8.6c1.5-2.9,3.6-5.7,7.4-8.6C1355.7,1239,1363.7,1239.2,1369.3,1243.4
			z"/>
	</g>
	<g>
		<path class="st1" d="M1369.3,1243.4c3.8,2.9,5.9,5.7,7.4,8.6c1.5,2.9,2.2,5.7,2.5,8.6l1.9,17.1c1.2,11.4,2.1,22.8,1.3,34.2
			l-3.8-12.6l1.1,1.6l1.6,2.1c1.2,1.4,2.3,2.9,3.6,4.2c2.5,2.8,5.1,5.5,7.9,8c5.5,5,11.5,9.4,17.8,12.6c12.5,6.5,26,9,40.1,6.2
			c3.4-0.7,7.3-1.7,10.4-2.7c3.1-1,6.2-2.2,9.2-3.9c6.1-3.2,12.2-7.6,18.1-13c11.9-10.9,22.8-25.2,34.4-41.2
			c1.8,9.9,1.3,20-0.4,29.9c-1.8,9.9-5.1,19.8-10.3,29.1c-5.1,9.3-12.2,18.2-21.4,25.4c-4.5,3.6-9.7,6.7-15.1,9.2
			c-5.5,2.5-10.4,4.1-16,5.7c-10.9,3-22.7,4-34.3,3.1c-11.6-1-23.1-4-33.4-8.8c-10.4-4.7-19.8-10.8-28.2-17.8
			c-4.2-3.5-8.3-7.2-12-11.1c-1.9-2-3.7-4-5.5-6.2l-2.7-3.3c-1-1.3-1.6-2.1-2.9-4c-2.2-3.2-3.4-6.8-3.7-10.4l-0.1-2.2
			c-0.8-11.4,0.1-22.8,1.3-34.2l1.9-17.1c0.3-2.9,0.9-5.7,2.5-8.6c1.5-2.9,3.6-5.7,7.4-8.6C1355.7,1239,1363.6,1239.2,1369.3,1243.4
			z"/>
	</g>
	<g>
		<path class="st1" d="M1359.5,1273.7c-179.1,0-183-138.6-170.2-228.5c21-148.7,125.3-209.1,170.2-209.1
			c44.9,0,149.3,60.4,170.3,209.1C1542.5,1135.2,1538.6,1273.7,1359.5,1273.7z"/>
	</g>
	<g class="st6">
		<path class="st7" d="M1283.3,948c-37.5,12.5-51.4,102.3-42.2,147.9c9.5,47.3,22.9,73.4,45.2,66.9c31.1-9,34.9-49.2,28.1-93.5
			C1309.4,1037.9,1329.5,932.5,1283.3,948z"/>
	</g>
	<g>
		<g>
			<g>
				<ellipse class="st1" cx="985" cy="933.5" rx="156.8" ry="188"/>
			</g>
		</g>
		<g>
			<g>
				<ellipse class="st7" cx="1027.6" cy="879.1" rx="51.1" ry="67.2"/>
			</g>
		</g>
		<g class="st10">
			<g>
				<ellipse class="st7" cx="926.6" cy="996.8" rx="28.3" ry="45.5"/>
			</g>
		</g>
	</g>
	<g>
		<g>
			<g>
				<ellipse class="st1" cx="1734.6" cy="933.5" rx="156.8" ry="188"/>
			</g>
		</g>
		<g>
			<g>
				<ellipse class="st7" cx="1692" cy="879.1" rx="51.1" ry="67.2"/>
			</g>
		</g>
		<g class="st10">
			<g>
				<ellipse class="st7" cx="1793.1" cy="996.8" rx="28.3" ry="45.5"/>
			</g>
		</g>
	</g>
</g>
</svg>
