<!-- Generator: Adobe Illustrator 23.0.1, SVG Export Plug-In  -->
<svg version="1.1" xmlns="http://www.w3.org/2000/svg" xmlns:xlink="http://www.w3.org/1999/xlink" x="0px" y="0px"
	 width="2545.6px" height="2729px" viewBox="0 0 2545.6 2729" style="enable-background:new 0 0 2545.6 2729;" xml:space="preserve"
	>
<style type="text/css">
	.st0{opacity:0.2;}
	.st1{fill:#390176;}
	.st2{fill:#777782;}
	.st3{fill:#C7CEE2;}
	.st4{fill:#A3B0CE;}
	.st5{opacity:0.3;}
	.st6{fill:#FFFFFF;}
	.st7{fill:#F8FDFF;}
	.st8{fill:#93B3C1;}
	.st9{fill:#E0B299;}
	.st10{fill:#D8E5EA;}
	.st11{fill:#F9D3B7;}
	.st12{opacity:0.5;}
	.st13{fill:#FC9595;}
	.st14{fill:#F97D7D;}
	.st15{fill:#B5CFDD;}
	.st16{fill:#A2B4BC;}
	.st17{fill:#FF7B7B;}
</style>
<defs>
</defs>
<g>
	<g class="st0">
		<g>
			<ellipse class="st1" cx="1103.2" cy="2471.4" rx="1089.1" ry="257.6"/>
		</g>
	</g>
	<g>
		<g>
			<g>
				<path class="st2" d="M1632.1,2495.8c-36.9,4.4-168-20.6-201.7-22.2c-50-2.5-146.5,5.7-250.7,23.3c0,0,117.7-404.7,117.3-451.5
					c195.1-46.8,384.1,80.7,384.1,80.7S1682.8,2489.8,1632.1,2495.8z"/>
			</g>
		</g>
		<g>
			<g>
				<path class="st3" d="M1674.3,2326.8c-6.3,85.4-18.5,166.2-42.2,169c-36.8,4.4-168-20.6-201.7-22.2c-50-2.5-146.5,5.7-250.7,23.3
					c0,0,117.7-404.7,117.4-451.5c34.2-8.2,68.3-11.1,101.2-10.1c154.5,4.2,282.9,90.9,282.9,90.9S1681.6,2229.4,1674.3,2326.8z"/>
			</g>
		</g>
		<g>
			<g>
				<path class="st4" d="M1674.3,2326.8c-6.3,85.4-18.5,166.2-42.2,169c-36.8,4.4-168-20.6-201.7-22.2c-50-2.5-146.5,5.7-250.7,23.3
					c0,0,117.7-404.7,117.4-451.5c34.2-8.2,68.3-11.1,101.2-10.1c7.6,44.1,19.5,122,27.9,221.5c8.1,95.6,104.4,48.5,117-14.1
					c13.1-64.8,45.5-83.6,45.5-83.6S1632.9,2243.7,1674.3,2326.8z"/>
			</g>
		</g>
		<g>
			<g>
				<path class="st1" d="M1179.7,2511.2c-4.1,0-8-1.7-10.7-4.8c-3.3-3.7-4.4-8.8-3.1-13.5c47.1-161.9,117-414.6,116.8-447.4
					c0-6.7,4.5-12.5,11-14c198.9-47.7,387.5,77.4,395.4,82.8c3.9,2.7,6.3,7.1,6.3,11.8c0,0.9,0.3,92.5-5.5,183.6
					c-11.1,171.6-33.5,197.8-56.1,200.5l0,0c-25.2,3-85.4-5.8-138.5-13.7c-27.7-4.1-54-7.9-65.6-8.5c-52.1-2.6-149.3,6.5-247.6,23.1
					C1181.3,2511.1,1180.5,2511.2,1179.7,2511.2z M1632.1,2495.8L1632.1,2495.8L1632.1,2495.8z M1410.9,2458.8
					c7.3,0,14,0.1,20.2,0.4c13.1,0.6,38.7,4.4,68.4,8.8c45.7,6.7,108.2,15.9,130.3,13.6c3.3-2.4,22.4-23,32.1-182.4
					c4.3-71.9,4.9-142.3,5-165.3c-33.3-20.5-192.9-111-356.5-76.9c-9.8,70-86.2,337.7-110.6,422
					C1280.8,2466.3,1359.2,2458.8,1410.9,2458.8z M1630.4,2481.6C1630.4,2481.6,1630.4,2481.6,1630.4,2481.6
					C1630.4,2481.6,1630.4,2481.6,1630.4,2481.6L1630.4,2481.6z"/>
			</g>
		</g>
		<g>
			<g>
				<path class="st2" d="M1538.7,2413.1c18.6,46.1,49.8,89.9,128.8,81.8c115-11.8,216.5-200.4,189.9-346.2
					c-19.8-108.2-143.5-132.2-224.6-68.5c-38.2,30-74.5,100-94.1,192.4V2413.1z"/>
			</g>
		</g>
		<g>
			<g>
				<path class="st3" d="M1823.9,2355.8c-36.2,74.8-94.3,132.7-156.4,139c-79,8.1-110.3-35.7-128.8-81.8v-140.5
					c1-4.8,2.1-9.5,3.1-14.1l0,0c20.1-85.4,54.6-149.7,90.9-178.2c81.1-63.7,204.9-39.7,224.6,68.5
					C1869.7,2215.8,1854.7,2292,1823.9,2355.8z"/>
			</g>
		</g>
		<g class="st5">
			<g>
				<path class="st6" d="M1861.2,2214.8c-0.6-11-1.8-22-3.8-32.6c-19.8-108.2-143.5-132.2-224.6-68.5c-36.2,28.5-74,73.5-94,158.9
					c1-4.8,2.1-9.5,3.1-14.1l0,0c20.1-85.4,54.6-149.7,90.9-178.2c81.1-63.7,204.9-39.7,224.6,68.5
					C1861.3,2170,1862.4,2192.3,1861.2,2214.8z"/>
			</g>
		</g>
		<g>
			<g>
				<path class="st4" d="M1823.9,2355.8c-36.2,74.8-94.3,132.7-156.4,139c-79,8.1-110.3-35.7-128.8-81.8v-140.5
					c1-4.8,2.1-9.5,3.1-14.1l8.6-23.3c-6.8,35.4,34.9,203.9,141.6,209.1C1742.8,2446.8,1788.3,2405.4,1823.9,2355.8z"/>
			</g>
		</g>
		<g>
			<g>
				
					<ellipse transform="matrix(0.2844 -0.9587 0.9587 0.2844 -1008.0234 3311.519)" class="st7" cx="1714.1" cy="2331" rx="109.3" ry="74.4"/>
			</g>
		</g>
		<g>
			<g>
				
					<ellipse transform="matrix(0.2844 -0.9587 0.9587 0.2844 -818.9954 3330.3442)" class="st7" cx="1821.3" cy="2213.8" rx="40.2" ry="27.3"/>
			</g>
		</g>
		<g>
			<g>
				
					<ellipse transform="matrix(0.2844 -0.9587 0.9587 0.2844 -896.7695 3175.6858)" class="st7" cx="1678.8" cy="2188.5" rx="40.2" ry="27.3"/>
			</g>
		</g>
		<g>
			<g>
				
					<ellipse transform="matrix(0.2844 -0.9587 0.9587 0.2844 -818.6076 3233.656)" class="st7" cx="1756.7" cy="2165.2" rx="44.6" ry="30.3"/>
			</g>
		</g>
		<g>
			<g>
				<path class="st3" d="M261,2244.1c-13.8,54.2-6.6,115.1,35,160.2c95.7,103.7,234.5,51.3,234.5,51.3l81.3-218.1
					c-25.3,7-54.4-21.2-88.7-52.4c-41.6-37.8-90.8-79.9-150.4-68.4C321.3,2126.7,276.9,2180.9,261,2244.1z"/>
			</g>
		</g>
		<g class="st5">
			<g>
				<path class="st6" d="M440,2171.4c-38.4-44.7-120,5.2-110.9,36.8c6.1,21.1,34.8-5.1,77.2-11.6
					C431.9,2192.6,449.1,2182,440,2171.4z"/>
			</g>
		</g>
		<g>
			<g>
				<path class="st4" d="M261,2244.1c-13.8,54.2-6.6,115.1,35,160.2c95.7,103.7,234.5,51.3,234.5,51.3l81.3-218.1
					c-25.3,7-54.4-21.2-88.7-52.4c-21.4,12.8-68.8,70.2-97.6,144.9C399.7,2397,282.3,2353.4,261,2244.1z"/>
			</g>
		</g>
		<g>
			<g>
				<path class="st1" d="M448.7,2482.7c-49.8,0-112.4-13.8-163.2-68.8c-44.3-48-57-118.5-34-188.7c21.2-64.7,67.7-112.8,118.4-122.6
					c69.4-13.4,124.3,36.7,168.4,76.9c27.4,25,53.3,48.6,69.6,44.1c7.6-2.1,15.5,2.4,17.6,10c2.1,7.6-2.4,15.5-10,17.6
					c-31.6,8.7-61.7-18.7-96.6-50.5c-41.4-37.8-88.4-80.6-143.6-69.9c-40.1,7.7-78.9,49.3-96.7,103.4
					c-19.7,60.1-9.3,120.1,27.8,160.3c87.8,95.1,213.6,49.7,218.9,47.7c7.4-2.8,15.7,1,18.4,8.4c2.8,7.4-1,15.6-8.4,18.4
					C534.8,2469.3,498,2482.7,448.7,2482.7z"/>
			</g>
		</g>
		<g>
			<g>
				<path class="st1" d="M1538.7,2413.1c14.8,18.7,28.5,36.4,45.1,48.1c32.6,24,78.6,24.3,115.1,8.5
					c103.4-50.6,159.8-195.1,145.5-305.9c-9.6-95.2-107.7-127-185.2-83.5c-63.5,35.9-95.2,125.7-120.5,192.3
					c6.3-77,35-176.5,105.5-218.1c53.8-33.2,128.6-35.3,179.3,5.7c77.3,61.7,56.8,194.5,25,275.4c-27.1,66.4-68.8,132.6-136.5,163.8
					c-35.2,15.3-76.5,16.4-112.4,2.2C1563.9,2487.1,1541.7,2450.3,1538.7,2413.1L1538.7,2413.1z"/>
			</g>
		</g>
		<g>
			<g>
				<path class="st3" d="M1404.5,2124.2c0.3-273.8-143.3-371.9-156.8-640.7c-6.7-132.7-392.5-195.7-528.3-9.8
					c-56.9,77.9-309.7,448.2-262.5,794.8c26.4,194.2,119.9,288.1,295,317c37.1,6.1,76.5-4.9,148.1-10.2c95-7,385.3-29.7,450.7-173.9
					c0,0,34-52.4,45.7-118.2C1410.1,2206.6,1404.5,2124.2,1404.5,2124.2z"/>
			</g>
		</g>
		<g>
			<g>
				<path class="st8" d="M1396.3,2014.5c-65.8,9.6-179,67.1-363.7,39.3c-189.5-28.6-286.5-214.7-286.5-214.7l128.5-113.6
					c0,0,278.2,55.4,469.1,107.1C1365.6,1888.2,1385.6,1945.8,1396.3,2014.5z"/>
			</g>
		</g>
		<g>
			<g>
				<path class="st9" d="M1368,2020.4c-68.3,17.3-174.9,57.6-335.4,33.4c-74.5-11.2-134.6-46.7-180.2-85.7
					c18.4-75.2,50.7-152.3,102-226.1c86.4,18.1,227.8,48.8,347.6,79.7c23.1,62.1,48.3,127.6,64,190.1
					C1366.6,2014.5,1367.3,2017.4,1368,2020.4z"/>
			</g>
		</g>
		<g>
			<g>
				<path class="st4" d="M851.3,2580c-42.7,5-71.6,10-99.3,5.4c-89.9-14.8-158.2-46.8-207-100.6c-46.4-51-75.1-121.8-88-216.4
					c-0.3-1.9-0.5-3.8-0.7-5.7c10.8,31.5,24.5,57.1,41.8,65.6c19.7,9.6,40.5,14.7,68.8,9.6C614.3,2329.3,778.1,2500.4,851.3,2580z"
					/>
			</g>
		</g>
		<g>
			<g>
				<path class="st4" d="M1396.5,2283.1c-11.6,65.9-45.7,118.2-45.7,118.2c-65.4,144.2-355.6,166.9-450.7,173.9
					c-71.7,5.3-111.1,16.3-148.2,10.1c-13.7-2.3-26.9-4.9-39.6-8c-1.7-0.4-3.3-0.8-4.9-1.2c-1.3-0.3-2.5-0.6-3.8-1
					c-2.5-0.7-5.1-1.4-7.6-2.1c-2.5-0.7-5-1.4-7.5-2.1c-2.4-0.7-4.8-1.4-7.1-2.2c-2.8-0.9-5.5-1.8-8.2-2.7c-4.6-1.5-9-3.2-13.4-4.8
					c-2.3-0.9-4.6-1.8-6.9-2.7c-2.3-0.9-4.6-1.9-6.8-2.8c-2.2-1-4.4-1.9-6.6-2.9c-2.2-1-4.4-2-6.5-3c-2.1-1-4.3-2.1-6.4-3.2
					s-4.2-2.2-6.3-3.3c-2.1-1.1-4.1-2.2-6.2-3.4c-4-2.3-8.1-4.7-12-7.2c-1.9-1.2-3.9-2.5-5.8-3.7c-1.9-1.3-3.8-2.5-5.7-3.9
					c-1.9-1.3-3.7-2.7-5.6-4c-3.7-2.7-7.3-5.5-10.8-8.3c-10.5-8.6-20.4-17.9-29.5-28c37.2-161.5,107.3-408.2,187.5-406.2
					c119,2.9,274.5,175.7,413.6,183.1c169.8,9,263.8-88.5,255.6-203.2c1.9,20.8,2.9,42.7,2.9,65.8
					C1404.5,2124.2,1410.1,2206.6,1396.5,2283.1z"/>
			</g>
		</g>
		<g>
			<g>
				<path class="st9" d="M1322.7,2396.9c-82.4,100-307.6,136.9-394.8,65.4c-44.8-36.7-101.6-179.3-95.1-352.5
					c99.2,50.9,210.8,146.4,313.4,151.8c126,6.6,210.2-45.3,242-119.4C1394.4,2226.6,1383.8,2322.7,1322.7,2396.9z"/>
			</g>
		</g>
		<g>
			<g>
				<path class="st4" d="M1315.5,1763.1c-76,9.1-155,13.9-192.4,9.9c-234.9-25.6-219.5-205.1-292.9-234.9
					c-25.9-10.5-79.8-14.1-133.3-32.5c0,0,0,0,0,0c9.1-13.3,16.7-24,22.4-31.8c135.8-185.9,521.6-122.8,528.3,9.9
					C1253.6,1599.1,1283.4,1683.1,1315.5,1763.1z"/>
			</g>
		</g>
		<g>
			<g>
				<path class="st9" d="M1282,1766.8c-64.7,6.6-126.9,9.6-158.9,6.2c-69.3-7.6-116.8-28.5-151.3-55
					c114.8-148.2,271.3-73.1,298,12.2C1273.6,1742.1,1277.7,1754.3,1282,1766.8z"/>
			</g>
		</g>
		<g>
			<g>
				<path class="st7" d="M927.9,2462.3c87.2,71.5,312.4,34.6,394.8-65.4c97.3-118.1,66.6-291.7,43.2-385.2
					c-23.6-94.3-69.2-195.6-96-281.6c-26.9-86-185.9-161.7-300.9-8.4C739.6,2027.5,851.3,2399.6,927.9,2462.3z"/>
			</g>
		</g>
		<g>
			<g>
				<path class="st10" d="M1282,1766.8c-64.7,6.6-126.9,9.6-158.9,6.2c-69.3-7.6-116.8-28.5-151.3-55
					c114.8-148.2,271.3-73.1,298,12.2C1273.6,1742.1,1277.7,1754.3,1282,1766.8z"/>
			</g>
		</g>
		<g>
			<g>
				<path class="st10" d="M1368,2020.4c-68.3,17.3-174.9,57.6-335.4,33.4c-74.5-11.2-134.6-46.7-180.2-85.7
					c18.4-75.2,50.7-152.3,102-226.1c86.4,18.1,227.8,48.8,347.6,79.7c23.1,62.1,48.3,127.6,64,190.1
					C1366.6,2014.5,1367.3,2017.4,1368,2020.4z"/>
			</g>
		</g>
		<g>
			<g>
				<path class="st10" d="M1322.7,2396.9c-82.4,100-307.6,136.9-394.8,65.4c-44.8-36.7-101.6-179.3-95.1-352.5
					c99.2,50.9,210.8,146.4,313.4,151.8c126,6.6,210.2-45.3,242-119.4C1394.4,2226.6,1383.8,2322.7,1322.7,2396.9z"/>
			</g>
		</g>
		<g>
			<g>
				<path class="st1" d="M1404.5,2124.2c-13.8-67.7-23.8-132.6-43-196.6c-29.1-96.1-79.4-188.3-105.5-287
					c-13.6-50.2-22-101.9-24.7-153.9c-2.7-46.6-52-72-91.1-87.7c-115.5-42.1-274-34.7-371.7,45.2c-18.8,15.1-34,34.3-47.7,54
					c-150.5,217.7-285,501.3-248.4,771.6c12.9,95.6,51,194.8,135.9,247.6c40.7,26.1,88.6,41.5,136.5,50.1c15.7,3.3,30.4,4,46.6,2.7
					c33-2.9,67.5-8.1,101.1-10.4c34-2.4,67.3-5.1,100.7-9c114.1-14.4,291.5-47.2,357.6-149.5c-51,153.2-317.8,178.9-455.8,190.3
					c-43,2.9-85,13-128.8,11.6c-26.7-2.1-52.6-8.5-78.4-15.6c-197.9-54.7-252.3-231-251.5-417.5C443.6,1918,561.6,1674,703,1469.9
					c53.9-78.6,149.2-116.9,241-126.1c87.4-7.8,179.8,2.7,256.5,48.2c32.1,19.3,63.1,52.8,63.8,93c2.8,49.7,10.2,99.1,23,147.2
					C1329.3,1793.6,1439.8,1950.3,1404.5,2124.2L1404.5,2124.2z"/>
			</g>
		</g>
		<g>
			<g>
				<path class="st11" d="M975,2417c0,0-0.1,0.1-0.2,0.5C974.9,2417.2,975,2417,975,2417z"/>
			</g>
		</g>
		<g>
			<g>
				<path class="st3" d="M947.5,2637.8c-15,1.9-180.6-4.6-277.9-115.6c0,0-83.2-77.2-102.7-184.3c-31.7-174.5,73.6-246.8,73.6-246.8
					c178.8-64,280.2,121.6,280.2,121.6s3,30.2,7.1,74.6C939,2408.8,958.5,2636.4,947.5,2637.8z"/>
			</g>
		</g>
		<g>
			<g>
				<path class="st4" d="M947.5,2637.8c-15,1.9-180.6-4.6-277.9-115.6c0,0-83.2-77.2-102.7-184.3c0,0,35.1-6.9,77.9,34.6
					c33.6,32.6,64.3,62,84.8,13.5c20.5-48.5,16.3-75.5,40.6-117.7c9.6-16.7,78.3-3.4,157.7,18.9
					C939,2408.8,958.5,2636.4,947.5,2637.8z"/>
			</g>
		</g>
		<g>
			<g>
				<path class="st1" d="M669.6,2522.2c48.9,37.1,101.5,63,159.4,80.6c35.1,10.7,71.8,19.4,108.6,20.8c1.4,0.1,6,0,7.4,0
					c0,0,0.6,0,0.6,0l0.1,0c0.4,0-0.5,0-1.5,0.3c-4.3,1.2-6.8,3.4-8.6,6.9c1.4-13.3,0.8-33.8,0.1-50.4
					c-5.9-122-17.8-244.5-29.3-366.2c0,0,1.7,5.5,1.7,5.5c-3.3-4.9-7.4-10.5-11.3-15.7c-39.1-51.6-91-97.9-155.7-112
					c-19.5-4.5-39.1-5.9-59.4-5.2c-13.6,0.6-27.3,2.3-41.3,4.4c49.9-29.8,115.7-31.3,168.5-6c53.5,24.8,97.1,68.7,124.3,120.8
					c9.4,62.3,12,126.2,18.4,189.1c5.6,77.2,14.2,153.8,13,231.8c-0.4,5-0.7,10.4-2.8,15.4c-2.1,4.6-5.3,8.2-10.8,9.6
					c-2.3,0.6-2.5,0.4-4.4,0.6C843,2651.8,725.4,2615.7,669.6,2522.2L669.6,2522.2z"/>
			</g>
		</g>
		<g>
			<g>
				<path class="st3" d="M975.3,2631.4c152.2-45.3,95.1-317.7,57.7-388.1c-49.4-104.1-164.3-121-235.1-78.6
					c-28.8,17.2-110.8,86.6-87,226.4C736,2538.6,846.8,2668.9,975.3,2631.4z"/>
			</g>
		</g>
		<g class="st5">
			<g>
				<path class="st6" d="M1061.3,2327.9c-6.3-21.2-13.1-38.7-19.4-50.6c-49.4-104.1-164.3-121.1-235.1-78.6
					c-28.8,17.2-110.7,86.6-87,226.5c0.9,5.1,1.8,10.1,2.9,15.2c-5-16-8.9-32.5-11.7-49.2c-23.8-139.9,58.2-209.2,87-226.4
					c70.8-42.5,185.6-25.5,235.1,78.6C1042.4,2261.1,1053.1,2291.5,1061.3,2327.9z"/>
			</g>
		</g>
		<g>
			<g>
				<path class="st4" d="M975.3,2631.4c-105.3,30.7-198.8-51.4-242.8-163.2c52.1,87.2,136,139.4,227.6,110.2
					c92.2-29.4,113.8-143.1,101.8-248C1085.9,2438.8,1088.3,2597.8,975.3,2631.4z"/>
			</g>
		</g>
		<g>
			<g>
				<path class="st1" d="M930.8,2652.2c-32.8,0-65.1-9.6-95.4-28.6c-68.6-43-121.7-131.1-138.5-230
					c-27.7-163.1,81.2-233.6,93.7-241.1c40.7-24.4,93.6-30.3,141.5-15.8c49.7,15,90.1,50.6,113.8,100.3c31.2,59,66.8,221.7,24,323.6
					c-18.3,43.7-48.8,72.2-90.5,84.6c0,0-0.1,0-0.1,0C963.2,2649.9,947,2652.2,930.8,2652.2z M975.3,2631.4L975.3,2631.4
					L975.3,2631.4z M878.9,2157.5c-26.3,0-52,6.7-73.6,19.6c-10.8,6.5-104.8,67.4-80.2,211.7c15.5,91,63.6,171.7,125.5,210.5
					c38.7,24.2,79.3,30.4,120.7,18.4c33.1-9.9,57.4-32.8,72.2-68.2c38.8-92.5,5.1-246.3-23.1-299.4c-0.1-0.2-0.2-0.4-0.3-0.6
					c-25.8-54.3-66.6-76.4-96.3-85.4C909.1,2159.7,894,2157.5,878.9,2157.5z"/>
			</g>
		</g>
		<g>
			<g>
				
					<ellipse transform="matrix(0.9768 -0.2142 0.2142 0.9768 -502.5793 252.9543)" class="st7" cx="915.8" cy="2445.4" rx="94.2" ry="116.9"/>
			</g>
		</g>
		<g>
			<g>
				
					<ellipse transform="matrix(0.9768 -0.2142 0.2142 0.9768 -465.3552 260.4294)" class="st7" cx="968.9" cy="2277.4" rx="34.6" ry="42.9"/>
			</g>
		</g>
		<g>
			<g>
				
					<ellipse transform="matrix(0.9768 -0.2142 0.2142 0.9768 -481.4051 224.4333)" class="st7" cx="794.8" cy="2333.4" rx="34.6" ry="42.9"/>
			</g>
		</g>
		<g>
			<g>
				
					<ellipse transform="matrix(0.9768 -0.2142 0.2142 0.9768 -465.7705 238.774)" class="st7" cx="868.8" cy="2268.4" rx="38.4" ry="47.7"/>
			</g>
		</g>
		<g>
			<g>
				<g>
					<g>
						<path class="st3" d="M1366.2,343.4c-5.3,40,46.9,132.7,109.1,226.9c85.8,129.9,190.9,262.3,190.9,262.3
							c132.3,60.3,282.3-13.1,321-66.9c12.5,18.2,51.7,49.8,112.3-16.8c9.3-10.2,18.1-23,26.1-37.7c71.6-132.2,80-427.7-179.1-546.3
							c38.1-26.3,38-67.2-9-89.3C1719.6-26.8,1387.8,180.4,1366.2,343.4z"/>
					</g>
				</g>
				<g>
					<g>
						<path class="st4" d="M1475.3,570.2c85.8,129.9,190.9,262.3,190.9,262.3c132.3,60.3,282.3-13.1,321-66.9
							c12.5,18.2,51.7,49.8,112.3-16.8c9.3-10.2,18.1-23,26.1-37.7c-49.4,32.1-128.1,39.1-199-141.7
							C1834.3,333.7,1566.6,503.3,1475.3,570.2z"/>
					</g>
				</g>
				<g class="st12">
					<g>
						<path class="st6" d="M1408.9,248.5C1517.8,125.6,1728.1,24.6,1889.7,88c37.9,14.9,47.8,43,32.9,68.4
							c-6.7,11.4-2.7,26.1,9.3,31.7c267.2,123.6,246,457.3,163,561.4c-8,10.1-15.8,18.1-23.2,24.4c8.7-6.1,17.9-14.4,27.8-25.2
							c92.5-101.7,135-452.2-153-584c38.2-26.3,38-67.2-9.1-89.3C1760.9-7.5,1509.3,113.1,1408.9,248.5z"/>
					</g>
				</g>
				<g>
					<g>
						<path class="st1" d="M1773,869.4c-37.1,0-75.6-7-112.8-23.9c-2.1-0.9-3.9-2.4-5.3-4.1c-32.4-40.8-316-401.7-303-499.9l0,0
							c10.8-81.4,93.6-175.5,211.1-239.6c134.4-73.4,276.6-88.2,380.5-39.4c26.9,12.6,42.8,32,44.7,54.4c1.3,15.5-4.5,31-16.2,44.4
							c135.3,69.9,184.6,183.2,201.9,267.9c28.1,137.4-11.9,272.2-63.8,329.3c-28.8,31.7-57.2,46.9-84.3,45
							c-16.9-1.1-29.6-8.7-38.2-16.2C1949.3,826.6,1865.1,869.4,1773,869.4z M1675.3,820.8c127.8,56,268.1-18.8,300.3-63.6
							c2.7-3.8,7.2-6,11.8-6c4.7,0,9,2.4,11.7,6.2c2.6,3.8,12.4,16.2,28.7,17.3c17.7,1.2,38.9-11.1,61.2-35.7
							c47.8-52.6,82.2-180.8,57-304.3c-16.8-82.1-66.1-193.4-205.3-257.1c-4.7-2.1-7.9-6.6-8.3-11.8c-0.4-5.1,1.9-10.1,6.1-13
							c14.5-10,22.2-22.3,21.3-33.7c-1-11.8-11-22.7-28.3-30.8c-95.6-44.9-228.2-30.5-354.6,38.6c-108,59-186.9,146.7-196.4,218.3
							C1371.8,410.2,1551.2,664.1,1675.3,820.8z"/>
					</g>
				</g>
				<g>
					<g>
						<path class="st13" d="M1472.2,481.3c1.1,148,53.4,194.8,189.8,252.3c149.6,63.1,322.7-13.6,348.5-208.1
							c19.4-146.7-92.4-293.9-240.2-302.1C1640,216.1,1470.9,307,1472.2,481.3z"/>
					</g>
				</g>
				<g>
					<g>
						<path class="st14" d="M1472.2,481.3c1.1,148,53.4,194.8,189.8,252.3c128.2,54.1,273.6,5.5,328.8-131.9
							c-34.6,22.6-145.5,88.4-185.6,31c-44.6-63.9,30.8-112.6,10.5-163.3c-20.2-50.4-171.8,0.9-78.8-245.8
							C1612.9,231.9,1471,321.6,1472.2,481.3z"/>
					</g>
				</g>
				<g>
					<g>
						<path class="st1" d="M1766.9,769.8c-36.8,0-74.3-7.6-110.5-22.9c-139-58.7-197.3-108.5-198.5-265.4l0,0
							c-0.5-72.1,26.8-136.6,79-186.3c60.6-57.7,150.3-90.7,234.2-86c72.2,4,139,39,188.3,98.4c51.8,62.5,75.6,142.7,65.3,220
							c-12.4,93.5-58.9,167.8-130.8,209C1855,758.6,1811.5,769.8,1766.9,769.8z M1486.5,481.2c1.1,139.8,46.1,182.3,181,239.2
							c71.8,30.3,149.1,27.1,212-9c64-36.7,105.5-103.4,116.7-187.8c9.2-69.4-12.3-141.5-59-197.9c-44.1-53.2-103.6-84.5-167.8-88
							c-76.2-4.2-157.8,25.7-212.8,78.1C1510.3,360,1486,417.2,1486.5,481.2L1486.5,481.2z"/>
					</g>
				</g>
			</g>
			<g>
				<g>
					<path class="st3" d="M380,1176.2c-102.1-270.8,57.5-701.9,142.8-807c59.4-59,136.2-175,441-212.5
						c108.7-17.1,234.5-25.7,282.6-136.5c51.3,8.4,100.8,60.4,83.2,123.7c138.3-30.1,167.8,44.6,247.7-12.1
						c10.4,40,9.3,99.5-51.2,138.1c290.1,156.8,304,522.1,286.2,779.5c84.6,407.3-376.3,455.6-564.3,474.6
						C1084.7,1536.1,517.1,1539.8,380,1176.2z"/>
				</g>
			</g>
			<g>
				<g>
					<path class="st1" d="M1139.7,1541.9c-88.6,0-213.4-6.9-338.9-37c-227.7-54.6-373.8-163.5-434.2-323.7l0,0
						c-57.8-153.2-31.6-342.4,0.6-474.1C407.7,541,470.5,410.8,511.6,360.2c0.3-0.4,0.7-0.8,1-1.1c6.2-6.2,12.8-13.1,19.7-20.5
						c60.7-64.5,152.5-161.9,429.7-196.1c9.2-1.5,19-2.9,28.8-4.4c99.2-14.7,201.7-29.9,242.4-123.6c2.6-6,9-9.5,15.5-8.4
						c32.9,5.4,63.5,25.7,81.7,54.3c12.7,19.9,18.5,42.7,16.8,65.7c57.1-9.1,95.1-0.4,126.2,6.7c36.7,8.4,58.9,13.4,95.6-12.6
						c3.8-2.7,8.8-3.4,13.2-1.8c4.4,1.6,7.8,5.3,9,9.9c7.1,27.5,16.2,92.4-38.9,140.1c121.6,72.6,204.4,190.3,246.3,350
						c30.8,117.3,40,258,28.2,430.1c23,112.8,6.7,208.2-48.6,283.5c-121.1,165.1-396.4,192.9-528.7,206.3
						C1229.1,1539.7,1190.3,1541.9,1139.7,1541.9z M533.4,378.8C493,429,432.6,559.9,395,713.9c-44.1,180.6-44.7,343-1.6,457.2
						c0,0,0,0,0,0c56.9,150.8,196.2,253.7,414.1,305.9c193.2,46.3,385.2,36.6,439.4,32.6c127.8-12.9,394.6-39.9,508.1-194.7
						c50.6-69,65.1-157.4,43.2-262.7c-0.3-1.3-0.4-2.6-0.3-3.9c27.7-399-63.5-649.5-278.7-765.9c-4.5-2.4-7.3-7-7.5-12.1
						c-0.2-5.1,2.3-9.9,6.6-12.6c46.5-29.7,52.3-71.9,48.7-102.9c-37.7,19.9-66.9,13.2-100,5.7c-33.6-7.7-71.7-16.4-134.4-2.7
						c-4.9,1.1-10-0.5-13.5-4.2c-3.5-3.6-4.7-8.8-3.4-13.7c7.9-28.5-0.8-50.7-9.5-64.3c-11.8-18.5-31-32.8-51.8-39
						c-49.8,98.7-160.9,115.1-259.4,129.7c-9.8,1.5-19.5,2.9-29,4.4c-267.4,33-354.9,125.9-412.8,187.4
						C546.3,365.5,539.8,372.5,533.4,378.8z"/>
				</g>
			</g>
			<g>
				<g>
					<path class="st1" d="M1342.6,249.3c43.3,16.1,90.9,25.8,136.8,20c14.7-2.3,28.7-6.5,41.1-12.7l11.2,26.4
						C1467.2,303.3,1399.4,280.1,1342.6,249.3L1342.6,249.3z"/>
				</g>
			</g>
			<g>
				<g>
					<path class="st1" d="M1289.4,175c9.4-15,20-29.4,32.5-43.3l15.5,24.1C1321.4,160.5,1305.1,167.2,1289.4,175
						C1289.4,175,1305.1,167.2,1289.4,175z"/>
				</g>
			</g>
			<g>
				<g>
					<path class="st7" d="M1310.8,1214.9c42.2,35.2,72.7,138.7,24.3,199c-38.8,48.4-219.7,83-237.5-23.4
						c-12.9-77,34.7-153.2,103.2-177.6C1261.2,1191.3,1310.3,1214.5,1310.8,1214.9z"/>
				</g>
			</g>
			<g>
				<g>
					<path class="st1" d="M1241.5,1249.5c101.2,6.1,187.2-35.9,189.5-159.8c2.9-150.9-86.2-265.2-172.5-263.5
						c-80.1,1.5-145.2,96.9-164.1,210.7C1074.7,1155,1125.4,1242.6,1241.5,1249.5z"/>
				</g>
			</g>
			<g class="st12">
				<g>
					<path class="st6" d="M1305.6,895.2c26.7,1.3,71.1,56.2,61.7,115.8c-10,63.9-78.1,67.4-88.5-3.4
						C1273.2,969.3,1277.5,893.8,1305.6,895.2z"/>
				</g>
			</g>
			<g>
				<g>
					<g>
						<path class="st15" d="M885.5,410.3c9-172.4-293.9-450.2-538.5-386.4c-52.9,13.8-60.8,55.9-26.5,90.5
							C-2.3,195.1-25.7,565.3,50.3,688.1c49.8,80.5,96.4,55.3,112.8,39c29.6,63,170.5,167.6,318.6,130.8
							C481.7,857.8,880.2,510.9,885.5,410.3z"/>
					</g>
				</g>
				<g>
					<g>
						<path class="st16" d="M885.5,410.3c9-172.4-293.9-450.2-538.5-386.4c-52.9,13.8-60.8,55.9-26.5,90.5
							C-2.3,195.1-25.7,565.3,50.3,688.1c49.8,80.5,96.4,55.3,112.8,39c29.6,63,170.5,167.6,318.6,130.8
							C481.7,857.8,880.2,510.9,885.5,410.3z"/>
					</g>
				</g>
				<g>
					<g>
						<path class="st3" d="M22.1,441.2c-18.2,99.5-3.8,195.2,28.2,246.9c49.8,80.5,96.4,55.3,112.7,39
							c29.6,63,170.5,167.6,318.7,130.8c0,0,43.9-38.2,102.7-92.9C702.8,654.8,882,477.6,885.4,410.3
							c9-172.4-293.9-450.2-538.5-386.4c-52.8,13.8-60.8,56-26.5,90.5C133.7,161.1,47.2,304.7,22.1,441.2z"/>
					</g>
				</g>
				<g>
					<g>
						<path class="st4" d="M481.7,857.8C333.5,894.7,192.7,790.1,163,727.1c-16.3,16.4-62.9,41.5-112.7-39
							c-32-51.7-46.4-147.4-28.2-246.9c6.5-35.2,17-70.9,32.4-105.3c-0.2,0.8-0.3,1.7-0.5,2.6C35.8,438,50.2,533.7,82.1,585.4
							c49.8,80.5,96.4,55.4,112.7,39c29.6,63,272.2,76.9,309.7,134.1C533.2,802.2,481.7,857.8,481.7,857.8z"/>
					</g>
				</g>
				<g class="st12">
					<g>
						<path class="st6" d="M859.6,304.1C770.8,156.4,573,11.6,393.9,46.1c-42,8.1-57.6,35.3-47.2,64.3c4.7,13.1-2.2,27.5-15.7,31
							C31.4,217.6-10.8,566.3,54.9,689.7c6.4,12,12.8,21.8,19.2,29.7c-7.8-8-15.8-18.3-23.9-31.3c-76-122.8-52.6-493,270.2-573.7
							c-34.3-34.5-26.3-76.7,26.5-90.5C545.2-27.8,781.9,145,859.6,304.1z"/>
					</g>
				</g>
				<g>
					<g>
						<path class="st1" d="M863.1,311.6C788.7,213.3,701,123.8,588.6,70.9C517.6,37,436,18.1,358.3,36
							c-42.3,7.8-59.8,35.4-27.2,68.8c7.2,7.7,3,21.1-7.2,23.5c-33.8,8.6-66.5,21-96.8,37.7C102.4,232.2,33.3,373,28.9,511.2
							c-1.8,53.3,4.1,109.1,27,157.5c17.3,34.6,58.6,84.9,97,48.2c6.9-6.8,19-4.6,23.1,4.1c13.8,23.5,35.4,44.3,57,61.7
							c45.8,36.5,100.1,63.8,158.4,73.7c29.4,5.3,59.8,5.6,90.2,1.5c-58.8,21.2-125.7,17-184.3-4.9
							c-58.3-22.2-119.9-61.1-147.3-119.8c0,0,23.1,4,23.1,4C151,760,115.1,765,87.8,748.4c-2.3-1.4-7.7-5.1-9.9-6.5
							c-1.7-1.4-7-5.9-8.8-7.4C9.8,677.2-2,588.7,0.3,510.1c4.6-147.9,79.5-298.3,213.1-369.3c32.7-18,67.7-31.2,103.6-40.4l-6.7,24
							c-36.6-35.8-33.4-87.8,16.6-108.7c148.9-51.6,326.9,31.2,434.1,135C806.6,195.2,849.1,248,863.1,311.6L863.1,311.6z"/>
					</g>
				</g>
				<g>
					<g>
						<path class="st17" d="M520.2,715c-11.8,28.8-39.6,47.6-70.7,48.3c-145.5,3.4-273.8-105.8-264.3-288.6
							c8.1-155.3,151.9-285.8,306.1-265.9C578,220,673.4,275.5,722,361c18.2,31.9,11.8,72.2-15.6,96.7
							C646.7,511.1,567.5,599,520.2,715z"/>
					</g>
				</g>
				<g>
					<g>
						<path class="st13" d="M299.6,721.8c43.3,28.2,95.4,42.7,149.9,41.5c31.1-0.7,59-19.5,70.8-48.3
							c47.3-116,126.5-203.9,186.2-257.4c27.4-24.5,33.8-64.8,15.6-96.7c-48.6-85.4-144-141-230.8-152.2
							c-27.8-3.6-55.3-2.3-81.6,3.2c0,0,0,0,0,0c-119.9,24.8-217.7,135.4-224.4,262.7C179.2,589.1,227.1,674.6,299.6,721.8z"/>
					</g>
				</g>
				<g>
					<g>
						<path class="st14" d="M299.6,721.8c43.3,28.2,95.4,42.7,149.9,41.5c31.1-0.7,59-19.5,70.8-48.3
							c47.3-116,126.5-203.9,186.2-257.4c27.4-24.5,33.8-64.8,15.6-96.7c-48.6-85.4-144-141-230.8-152.2
							c-27.8-3.6-55.3-2.3-81.6,3.2c4.7,1.3,165.1,47.6,152.4,135.1c-14.8,102-108.3,56.9-155.9,171.8
							C383.7,573.1,451.6,748.8,299.6,721.8z"/>
					</g>
				</g>
				<g>
					<g>
						<path class="st1" d="M442.7,777.7c-75.7,0-144.8-28.4-195.2-80.3C192.7,641,166.1,563.7,170.8,474
							c4.3-81.6,44.2-159.6,109.5-214.1c62.1-51.8,137.6-75,212.8-65.3c98.9,12.8,193.6,75.3,241.4,159.3
							c21.4,37.6,13.6,85.7-18.5,114.4c-57.3,51.2-135.4,136.6-182.5,252.1l0,0c-13.8,33.9-46.7,56.4-83.7,57.2
							C447.4,777.7,445.1,777.7,442.7,777.7z M459.6,221.1c-57.1,0-113.3,21-161,60.8c-59.2,49.4-95.4,119.9-99.2,193.6
							c-4.3,81.6,19.5,151.4,68.6,202c46.4,47.8,110.8,73.2,181,71.5c25.6-0.6,48.3-16.1,57.8-39.4c0,0,0,0,0,0
							C556.1,589,637.4,500.2,696.9,447c22.1-19.8,27.4-53,12.7-78.9c-42.8-75.3-131.3-133.6-220.2-145
							C479.5,221.8,469.5,221.1,459.6,221.1z"/>
					</g>
				</g>
			</g>
			<g>
				<g>
					<path class="st1" d="M1326,1343.5c-23.2-13-48.5-12.4-72.3-0.8c-24.2,11.7-44,32.8-63.4,51.7c13-38.6,44.6-76.6,87.7-81.1
						C1298,1311.5,1321.7,1322.6,1326,1343.5L1326,1343.5z"/>
				</g>
			</g>
			<g>
				<g>
					<path class="st1" d="M690.7,912.4c20.9,41.8,46.6,81.7,83.2,109.3c50.8,39.6,119.4,45,177,22.5c39.3-15.1,66.6-46.2,83.6-85.6
						c9.1-20.7,15.5-43.6,21.8-67.9c16.8,49.4,12.5,106.6-18,151.6c-48.1,70.8-150,87.5-226,56.2
						C737.8,1068.4,692.5,990,690.7,912.4L690.7,912.4z"/>
				</g>
			</g>
			<g>
				<g>
					<path class="st1" d="M1703.9,924.2c21.5,63.9,0.5,148.1-65.6,178.3c-34,15.3-73.9,15.6-108.2,0.9
						c-76.6-34.2-98.9-130-83.3-205.2c18.4,67.7,45.1,158.1,124.8,168.8C1656.7,1078,1693.7,996.7,1703.9,924.2L1703.9,924.2z"/>
				</g>
			</g>
		</g>
		<g>
			<g>
				<g>
					<path class="st2" d="M1292.6,1801.8c-20-159.5-116.9-271.5-64-376.7c26.9-53.4,84.3-57.4,107.9-53.8
						c115.7,17.8,193.6,182.4,181.1,312.8C1503.5,1831.6,1375.5,1831.5,1292.6,1801.8z"/>
				</g>
			</g>
			<g>
				<g>
					<path class="st3" d="M1517.5,1684.1c-0.9,9.3-2.2,18-4,26.2c0,0,0,0,0,0c-26.1,121.2-143.3,119.4-221,91.5
						c-6.6-52.7-21.6-100.2-36.8-143.9c-30.8-88.8-62.6-162.3-27.2-232.8c26.9-53.4,84.3-57.4,107.9-53.8
						C1452.1,1389.1,1530,1553.7,1517.5,1684.1z"/>
				</g>
			</g>
			<g class="st5">
				<g>
					<path class="st6" d="M1432.4,1425.7c-22.6-17.1-47.7-28.7-74.7-32.9c-25.3-3.9-86.8,0.4-115.6,57.7
						c-38,75.5-3.9,154.3,29.1,249.5c11.4,32.9,22.7,67.7,30.9,105c-3.3-1-6.5-2.1-9.6-3.2c-6.6-52.7-21.6-100.2-36.8-143.9
						c-30.8-88.8-62.6-162.3-27.2-232.8c26.9-53.4,84.3-57.4,107.9-53.8C1372.7,1376.9,1405.2,1396.9,1432.4,1425.7z"/>
				</g>
			</g>
			<g>
				<g>
					<path class="st4" d="M1513.5,1710.3c-26.1,121.2-143.3,119.4-221,91.5c-6.6-52.7-21.6-100.2-36.8-143.9
						c33.9,0.3,83.7,6.2,127.8,32.9C1438,1723.8,1482.8,1747.8,1513.5,1710.3z"/>
				</g>
			</g>
			<g>
				<g>
					<path class="st1" d="M1378.6,1831.7c-40.4,0-76.2-11.1-90.8-16.3c-5.1-1.8-8.7-6.4-9.4-11.7c-7.6-60.5-27-115.4-44.2-163.9
						c-28.7-81.2-53.5-151.3-18.4-221c29.7-59,93.3-66.1,122.8-61.5c124.7,19.1,206.2,192.2,193.2,328.3
						c-5.5,57.4-27.7,98.9-65.9,123.1C1438.5,1826,1407.4,1831.7,1378.6,1831.7z M1305.6,1791.1c28.9,9.2,95.6,24.7,145-6.7
						c30.4-19.3,48.1-53.5,52.7-101.7c11.6-121.1-61.3-280.7-169-297.2c-22.4-3.4-70.6,1.8-92.9,46.1
						c-29.6,58.8-7.8,120.5,19.9,198.6C1278,1677.7,1297,1731.2,1305.6,1791.1z"/>
				</g>
			</g>
			<g>
				<g>
					<path class="st3" d="M1425.9,1952.2c-16.1,20.1-36.9,23.9-76,25.4c-69.2,2.5-166.6,43.5-297.2,25.9
						c-130-17.5-256-104.9-301.8-158.4c-1.8-2.1-3.4-4.1-4.9-6l84.2-301.1c10.7,4.8,25.6,15.1,43.8,28.3c0,0,0,0,0,0
						c59.4,43.1,154.2,116.9,253.6,130.9c75.8,10.7,169-22.2,246.7,22.5c28.6,16.5,47.7,47.1,58.7,81.2c0,0,0,0,0,0.1
						C1451.6,1858.6,1446.9,1926.1,1425.9,1952.2z"/>
				</g>
			</g>
			<g class="st5">
				<g>
					<path class="st6" d="M1433,1801C1433,1801,1433,1801,1433,1801c-85-117.4-188.8-60.8-319.6-80.1
						c-128.8-18.9-236.8-151.4-239.3-154.5c59.4,43.1,154.2,116.9,253.6,130.9c75.8,10.7,169-22.2,246.7,22.5
						C1403,1736.3,1422.1,1766.9,1433,1801z"/>
				</g>
			</g>
			<g>
				<g>
					<path class="st4" d="M1425.9,1952.2c-16.1,20.1-36.9,23.9-76,25.4c-69.2,2.5-166.6,43.5-297.2,25.9
						c-130-17.5-256-104.9-301.8-158.4c47.3,6.6,189.1,109,312.1,119.1c124.4,10.3,199.5-24.5,293.7-20.3
						c69.7,3.1,81.9-84.1,76.3-142.8C1451.6,1858.6,1446.9,1926.1,1425.9,1952.2z"/>
				</g>
			</g>
			<g>
				<g>
					<path class="st1" d="M830.2,1538c31.4,11.4,58.9,31.4,87.4,48.1c41.9,25.9,83.7,49.8,128,70.3c43.3,20.5,89.4,31.9,137.6,28.3
						c81.1-5.1,189.7-16.5,241.4,63.7c33,52.2,43.1,119.5,29.3,179.4c-12.8,52-51.8,65-100.5,65.7c-20,0.7-38.8,3.9-59.1,7.7
						c-144,31.5-261,37.9-396.3-32.1c-59.2-30.7-118.2-71.3-152.1-130.1c25.6,21.6,52.6,39.6,80.2,56.8
						c81.5,51.1,171.8,92.5,269.3,95.2c32,1.3,64.1-0.3,96.1-4.6c49-5.8,97.4-19.8,147.6-24.5c54.1-2.4,82.2-1.3,88.9-64.2
						c5.3-56.9-9.1-130.3-58.5-163.4c-26-16.2-56.7-22.5-87.4-23.9c-48.3-2.4-99.7,7-149.5,1.8c-17.5-2.1-34.5-5.5-51.1-10.3
						c-65.8-17.8-123.6-57.2-175.1-100.2C880.5,1581,857.4,1557.2,830.2,1538L830.2,1538z"/>
				</g>
			</g>
			<g>
				<g>
					<path class="st1" d="M1297.5,1358.5c43.3,4.6,75.7,40.8,91.9,78.8c-21.2-27.7-53.3-53.2-89.7-50.4c-0.3,0.1-0.9,0.1-0.7,0.2
						L1297.5,1358.5L1297.5,1358.5z"/>
				</g>
			</g>
			<g>
				<g>
					<path class="st1" d="M1257.4,1380.9c35,18.9,62.2,52.3,72.7,90.5c-16.8-29.5-44.7-51.9-76.9-62.1c-1.9-0.6-4.2-1.2-5.5-1.4
						L1257.4,1380.9L1257.4,1380.9z"/>
				</g>
			</g>
		</g>
	</g>
	<g>
		<g>
			<g>
				<path class="st6" d="M1943.3,947.5c0,0,104.1-9,159.6,61.8c24.9-13.1,52.6-20.9,81.8-22.4c48.2-2.4,96.4-2.4,144.7,0
					c112.3,5.5,201.6,106.2,201.9,229.2v4.3c-0.3,123.1-89.6,223.7-201.9,229.3c-48.2,2.3-96.4,2.3-144.7,0
					c-112.3-5.5-201.6-106.2-201.9-229.3v-4.3c0.1-43.5,11.3-84.1,30.8-118.8C2004.8,1046.9,1985.7,981.4,1943.3,947.5z"/>
			</g>
		</g>
		<g>
			<g>
				<g>
					<path class="st1" d="M2243.6,1313.3c-18.1-1.5-33.5,11.3-35,29.2c-1.5,17.6,11.8,33.1,29.6,34.6c17.6,1.5,33.1-11.6,34.6-29.3
						C2274.3,1330.3,2261.2,1314.8,2243.6,1313.3z"/>
				</g>
			</g>
			<g>
				<g>
					<path class="st1" d="M2263.7,1094.2c-36.4-3-69,14.3-85.2,45.4c-2.5,5-2.7,10.8-0.6,16c2.1,5.1,6.2,9,11.2,10.7l12.1,4.4
						l0.3,0.1c1.4,0.4,2.9,0.7,4.3,0.8c8.3,0.7,16.2-3.5,20.1-10.7c3.8-6.6,12.8-17.3,30.3-15.8c20.2,1.7,28.1,17.7,26.9,31.8
						c-1.2,14.8-11.2,24.1-23.8,35.8c-14.6,13.5-32.7,30.4-38.6,60.8l-0.1,0.4c-0.8,5.4,0.7,11,4.1,15.3c3.3,4.2,8,6.7,13.3,7.2
						l15,1.3c9.4,0.8,18.2-5.7,20.4-15.1l0.1-0.3c3.6-17.5,14.7-27.9,27.4-39.9c15.8-14.9,33.7-31.7,36.4-64.3
						C2340.9,1135.5,2307.9,1097.9,2263.7,1094.2z"/>
				</g>
			</g>
		</g>
		<g>
			<g>
				<path class="st1" d="M2257,1465.7c-24.4,0-48.8-0.6-73-1.8c-120.6-6-215.3-112.9-215.6-243.6v-4.3
					c0.1-42.7,10.5-84.5,30.1-121.3c-8.5-46.5-26.4-106-64.2-136.2c-4.6-3.7-6.5-9.7-4.8-15.3c1.7-5.6,6.6-9.6,12.5-10.1
					c4.4-0.4,103.8-8.1,164.6,58.3c24.5-11.2,50.4-17.6,77.4-18.9c48.5-2.4,97.6-2.4,146.1,0c120.6,5.9,215.2,112.9,215.6,243.5v4.3
					c-0.3,130.7-95,237.6-215.6,243.6C2305.8,1465.1,2281.4,1465.7,2257,1465.7z M1977.4,962.6c28.8,38.3,43.1,90.9,50.2,132.3
					c0.6,3.2,0,6.6-1.6,9.4c-18.8,33.6-28.8,72.3-28.9,111.8v4.2c0.3,115.3,83,209.8,188.3,215c47.5,2.3,95.8,2.3,143.3,0
					c105.3-5.2,188-99.6,188.3-215v-4.2c-0.3-115.3-83-209.7-188.3-214.9c-47.5-2.4-95.7-2.4-143.3,0c-26.6,1.3-52.1,8.3-75.8,20.7
					c-6.1,3.2-13.7,1.6-17.9-3.8C2060,977.8,2010.2,965.9,1977.4,962.6z"/>
			</g>
		</g>
	</g>
</g>
</svg>
